<svg width="67" height="90" viewBox="0 0 67 90" fill="none" xmlns="http://www.w3.org/2000/svg">
<path d="M46.3722 0.0212651C43.3419 -0.158055 40.3531 0.8016 37.9807 2.71559C37.6483 2.55522 37.3096 2.38939 36.9651 2.25074C30.2856 -0.43695 22.1831 6.96475 25.4378 13.8828C26.4547 16.0443 27.9749 17.5745 30.2034 18.3982L28.2151 24.1595C27.7687 25.451 27.0778 27.028 27.0915 28.3702C25.4594 28.74 25.14 29.1201 23.6918 29.8083C23.0795 30.1062 21.4619 30.473 21.009 30.8717C19.6942 32.0293 17.879 33.3717 16.6443 34.5139C15.89 35.2116 14.0055 37.3619 13.7242 38.2538C13.1574 40.0521 13.2533 39.9465 12.064 41.4584C11.6039 42.0376 11.2109 42.6682 10.8921 43.3378C10.0195 45.1359 10.0577 46.0658 9.93365 47.952C9.91634 48.218 9.42232 49.2397 9.30188 49.5853C8.78983 51.0488 8.78119 52.3391 8.78984 53.8594C8.63334 54.0154 8.42635 54.1833 8.25615 54.3298C7.89556 53.9645 7.37919 53.5703 6.84046 53.5625C6.13441 53.5523 5.85458 54.2368 5.42331 54.6837C3.98382 55.0236 2.37411 54.7629 0.921631 54.6634C0.509834 54.9543 0.3144 55.1882 -3.8147e-05 55.5757C0.146362 56.2871 0.525703 57.2555 0.745667 57.9647C1.32478 59.8316 2.15272 61.8808 2.63159 63.7527C-0.319527 65.8375 1.82602 71.5561 5.12691 70.6004C5.42981 71.5444 5.75362 72.7457 6.1135 73.6394C7.3049 73.8566 8.94273 74.0454 10.1457 74.1686C10.0526 74.9566 9.98196 75.7475 9.93292 76.5399C11.4813 77.9606 17.0936 79.651 19.1238 80.2021C19.6207 82.0937 20.0043 83.5465 20.6015 85.425C19.7137 86.2144 18.4379 87.7219 20.2185 88.5245C21.6963 89.1907 24.6784 88.8189 26.1857 88.2817C27.4514 87.6927 27.3706 86.2429 27.5343 84.9986L27.9872 81.7453C30.2467 81.9341 32.5127 82.023 34.7798 82.0121C35.8202 82.0157 37.0669 82.0332 38.087 81.9377C38.3581 83.1602 39.1449 87.6388 39.6657 88.4975C40.1234 89.2527 41.3888 89.5683 42.1818 89.7381C43.3641 89.9904 45.2765 90.2593 46.3435 89.5114C46.6697 89.2833 46.8916 88.9494 46.943 88.5485C47.0559 87.6687 46.4335 86.9128 45.9331 86.2698C46.3839 84.6844 46.9077 82.6127 47.2534 81.0229C49.2061 80.692 54.7691 79.6292 56.4331 78.8266C56.4928 78.0393 56.3828 76.6427 56.3387 75.8226C56.2347 73.8836 56.1486 71.8907 55.861 69.9728C55.9228 69.8861 55.9829 69.7986 56.0414 69.7104C57.4176 67.6591 57.5394 66.1801 57.0878 63.8096C57.637 62.6324 57.6676 62.3357 57.68 61.0352C58.4049 60.2043 58.8439 58.9573 58.8252 57.8432C58.8215 57.6236 58.6561 57.3461 58.5477 57.1541C58.7857 56.0189 59.5486 53.8695 59.2447 52.8132C58.677 50.8399 58.8482 49.4516 58.863 47.4486C58.8729 46.0957 58.2834 44.4453 57.3995 43.4329C57.1068 43.0977 56.7647 42.6593 56.5358 42.2742C56.2573 41.7551 56.285 41.0321 56.1172 40.427C55.6072 38.5886 54.3475 37.2065 52.9804 35.9583C53.3216 35.1245 53.7112 33.0094 53.9507 32.0086C54.3928 30.1608 54.8715 28.5597 55.422 26.7431C55.9102 26.9098 56.3705 27.0389 56.881 27.1247C59.0201 27.4758 61.2094 26.9508 62.9645 25.666C66.9187 22.7639 67.2953 16.6847 64.509 12.8323C63.0145 10.7558 60.7553 9.37559 58.2417 9.00339C57.2631 3.91281 51.2107 0.349217 46.3722 0.0212651Z" fill="#592108"/>
<path d="M27.8783 29.5468C27.8026 29.4414 27.7153 29.2717 27.5927 29.2756C26.2369 29.3189 25.1666 30.2502 24.1072 30.7501C23.0968 31.1218 22.1939 31.2041 21.3039 31.854C20.6996 32.2954 20.1457 32.9311 19.5724 33.3519C17.773 34.6594 16.1496 36.1492 14.8897 38.005C14.3567 38.7908 14.2471 40.2027 13.7257 40.8685C12.4968 42.4374 11.2816 43.8095 11.0017 45.89C10.9029 46.6239 10.9267 47.4315 10.8128 48.1663C10.7205 48.6677 10.2777 49.4118 10.1067 49.9709C9.63507 51.5125 9.69709 52.8947 9.71656 54.4734L11.076 55.4367C11.6256 55.9818 14.3192 55.5059 15.0801 56.3291C15.3786 56.6518 15.6686 57.7516 15.8099 58.2196C16.8167 58.7087 17.8336 59.1783 18.8584 59.628C19.594 59.9996 23.4992 61.3217 24.1865 61.4908C25.7313 62.1418 27.4557 63.6419 28.7445 64.739C31.2535 63.9736 33.6594 62.9137 36.0327 62.2015C36.5209 62.0805 37.0588 62.0033 37.5581 61.9216L41.7441 61.3895C43.254 60.0135 44.6023 58.4426 46.1079 56.9687C47.3738 55.7295 48.645 56.8431 48.9529 58.2647C49.0911 58.9031 48.0629 59.8537 47.6142 60.3739C49.4289 59.9626 51.1413 59.569 52.9361 59.0779C54.4165 58.6619 56.1695 58.1863 57.5378 57.4897C57.783 56.2197 58.2366 54.873 58.3802 53.6217C58.4599 52.7401 57.9362 51.7308 57.8856 50.9002C57.7366 48.4574 58.457 45.8397 56.5335 43.8714C56.272 43.6037 55.855 43.0813 55.6691 42.746C55.3512 42.1726 55.3933 41.3353 55.2284 40.7021C54.7677 38.9367 53.2021 37.4548 51.9217 36.2625C48.5647 36.5164 44.3878 35.6992 41.1541 34.8436C40.2761 34.6233 39.2872 34.4443 38.4277 34.1878C37.2974 33.8503 36.1719 33.4391 35.0393 33.0865C33.7113 32.9017 30.1335 31.0462 28.9587 30.358L27.8783 29.5468Z" fill="#F6C360"/>
<path d="M41.1541 34.8436C40.8109 35.2175 40.6345 35.4178 40.2371 35.7226C40.4924 35.9684 40.5329 36.0765 40.9036 36.1525C43.6643 36.7177 46.704 36.4895 49.4861 36.5057C50.7816 37.8348 52.2481 40.8986 53.1585 42.5693C53.353 42.9263 53.6205 44.5036 53.4947 44.8672L53.6298 44.9224L53.4686 45.0174C53.5617 45.3348 54.1742 45.6834 54.4479 46.0146C55.6955 47.5236 54.7778 49.0116 54.7583 50.6574C54.7549 50.9495 54.7081 51.4514 54.8496 51.6277C54.8482 51.6565 54.8468 51.6853 54.8454 51.7141L54.5162 51.9177L54.6258 52.0111C54.5778 53.5826 54.3385 56.0017 53.8908 57.5539C53.7909 57.9004 53.1221 58.6478 52.9361 59.0779C54.4165 58.6619 56.1695 58.1863 57.5378 57.4897C57.783 56.2197 58.2366 54.873 58.3802 53.6217C58.4599 52.7401 57.9362 51.7308 57.8856 50.9002C57.7366 48.4574 58.457 45.8397 56.5335 43.8714C56.272 43.6037 55.855 43.0813 55.6691 42.746C55.3512 42.1726 55.3933 41.3353 55.2284 40.7021C54.7677 38.9367 53.2021 37.4548 51.9217 36.2625C48.5647 36.5164 44.3878 35.6992 41.1541 34.8436Z" fill="#EBA94A"/>
<path d="M53.6298 44.9224L53.4686 45.0174C53.5617 45.3348 54.1742 45.6834 54.4479 46.0146C55.6955 47.5236 54.7778 49.0116 54.7583 50.6574C54.7549 50.9495 54.7081 51.4514 54.8496 51.6277C54.8482 51.6565 54.8468 51.6853 54.8454 51.7141C56.9041 49.8315 56.2389 45.9503 53.6298 44.9224Z" fill="#80431D"/>
<path d="M27.8783 29.5468C27.8026 29.4414 27.7153 29.2717 27.5927 29.2756C26.2369 29.3189 25.1666 30.2502 24.1072 30.7501C23.0968 31.1218 22.1939 31.2041 21.3039 31.854C20.6996 32.2954 20.1457 32.9311 19.5724 33.3519C17.773 34.6594 16.1496 36.1492 14.8897 38.005C14.3567 38.7908 14.2471 40.2027 13.7257 40.8685C12.4968 42.4374 11.2816 43.8095 11.0017 45.89C10.9029 46.6239 10.9267 47.4315 10.8128 48.1663C10.7205 48.6677 10.2777 49.4118 10.1067 49.9709C9.63507 51.5125 9.69709 52.8947 9.71656 54.4734L11.076 55.4367C11.1351 55.3834 11.138 55.3548 11.1784 55.2782C10.6541 52.6408 11.5174 50.1602 11.914 47.562C12.0446 46.7072 12.6309 45.485 13.0283 44.704C13.2396 43.9949 13.3117 43.8919 13.823 43.3583C14.0625 43.0308 14.5038 42.4711 14.6308 42.1223C15.9736 38.3124 19.8933 35.2322 22.7737 32.5976C22.4903 32.8567 28.2706 30.4008 28.5346 30.2822C28.2779 30.0432 27.98 29.8911 27.8783 29.5468Z" fill="#F9D798"/>
<path d="M53.4947 44.8672C52.5772 44.6672 51.6049 44.5861 50.804 45.1503C49.1454 46.3188 48.7381 48.6274 49.8585 50.2799C50.4667 51.1844 51.4069 51.8058 52.4706 52.0062C53.0779 52.1196 53.9262 52.1118 54.5162 51.9177L54.8454 51.7141C54.8468 51.6853 54.8482 51.6565 54.8496 51.6277C54.7081 51.4514 54.7549 50.9495 54.7583 50.6574C54.7778 49.0116 55.6955 47.5236 54.4479 46.0146C54.1742 45.6834 53.5617 45.3348 53.4686 45.0174L53.6298 44.9224L53.4947 44.8672Z" fill="#985122"/>
<path d="M41.1541 34.8436C40.2761 34.6233 39.2872 34.4443 38.4277 34.1878C37.2974 33.8503 36.1719 33.4391 35.0393 33.0865C35.1922 33.7464 35.34 34.0819 35.6517 34.6849C36.6948 36.2194 38.6412 36.5819 40.2371 35.7226C40.6345 35.4178 40.8109 35.2175 41.1541 34.8436Z" fill="#985122"/>
<path d="M28.9587 30.358C28.6284 30.4227 28.2743 30.4983 27.9447 30.5527C29.2594 31.6712 31.0148 32.9434 32.5567 33.704C33.1711 34.0071 35.0017 34.664 35.6517 34.6849C35.34 34.0819 35.1922 33.7464 35.0393 33.0865C33.7113 32.9017 30.1335 31.0462 28.9587 30.358Z" fill="#EBA94A"/>
<path d="M24.1865 61.4908C23.9457 59.8624 22.0864 58.3367 20.4479 58.533C19.6531 58.6282 19.3084 59.029 18.8584 59.628C19.594 59.9996 23.4992 61.3217 24.1865 61.4908Z" fill="#985122"/>
<path d="M13.0283 44.704C13.0189 45.3959 12.9879 46.076 13.611 46.5223C14.2767 46.999 14.925 46.5527 15.3044 45.9567C15.7616 45.2367 15.9455 43.8467 15.0887 43.3554C14.6639 43.1154 14.2622 43.2181 13.823 43.3583C13.3117 43.8919 13.2396 43.9949 13.0283 44.704Z" fill="#985122"/>
<path d="M37.5581 61.9216L37.291 61.8414C37.239 61.4697 37.3627 61.1941 37.0227 60.923C36.641 60.6184 36.1487 60.6865 35.896 61.1199C35.6265 61.5819 35.7594 61.7722 36.0327 62.2015C36.5209 62.0805 37.0588 62.0033 37.5581 61.9216Z" fill="#EBA94A"/>
<path d="M26.3191 34.3876C24.5933 32.3994 21.0335 34.1124 20.9109 36.8475C20.869 37.6156 21.1381 38.368 21.6559 38.9317C21.7085 38.9895 21.6991 38.979 21.7374 39.0124C22.2797 39.5352 22.7824 39.6605 23.5144 39.6395C23.6319 39.6358 23.7495 39.6298 23.8663 39.6215C24.0488 39.6386 24.2976 39.7186 24.4923 39.7304C25.4464 39.7879 26.5491 39.5169 27.2905 38.9064C27.8769 38.4222 28.2454 37.72 28.3132 36.958C28.438 35.6822 27.8235 34.6955 26.5052 34.5587L26.3191 34.3876Z" fill="#80431D"/>
<path d="M26.3191 34.3876C24.5933 32.3994 21.0335 34.1124 20.9109 36.8475C20.869 37.6156 21.1381 38.368 21.6559 38.9317C21.7085 38.9895 21.6991 38.979 21.7374 39.0124C21.9299 38.8753 22.0179 38.948 22.1492 38.9169C22.5018 38.8335 22.7146 38.3539 22.8906 37.9603C23.2613 37.1269 23.8187 36.2849 24.6654 35.8597C25.4212 35.4805 26.2145 35.8611 26.4684 34.8274C26.3948 34.6859 26.3775 34.6587 26.3429 34.4998L26.3191 34.3876Z" fill="#985122"/>
<path d="M23.8663 39.6215C24.0488 39.6386 24.2976 39.7186 24.4923 39.7304C25.4464 39.7879 26.5491 39.5169 27.2905 38.9064C27.8769 38.4222 28.2454 37.72 28.3132 36.958C28.438 35.6822 27.8235 34.6955 26.5052 34.5587C27.5588 36.2881 26.9545 38.0542 25.2813 39.0783C24.8471 39.3467 24.3675 39.5309 23.8663 39.6215Z" fill="#EBA94A"/>
<path d="M24.5601 44.1923C23.9276 44.2302 23.4697 44.2842 22.9526 44.6909C20.8453 46.3494 21.2304 50.6368 24.1995 51.0415C28.1221 51.0167 28.3233 44.6096 24.5601 44.1923Z" fill="#592108"/>
<path d="M23.9774 45.3317C22.5559 45.302 22.2184 46.9973 23.5274 47.6296C24.8789 47.607 25.2784 46.0381 23.9774 45.3317Z" fill="#FEFEFE"/>
<path d="M25.3253 48.3643C25.0945 48.3142 24.8551 48.3934 24.6979 48.5716C24.5406 48.7498 24.4902 48.9997 24.5659 49.2259C24.6416 49.452 24.832 49.6197 25.0635 49.6648C25.4169 49.7335 25.7594 49.5019 25.8308 49.1455C25.903 48.789 25.6772 48.4407 25.3253 48.3643Z" fill="#FEFEFE"/>
<path d="M40.8264 46.0072C37.0241 45.8378 36.3827 52.0885 40.0502 52.8228C43.7646 53.0955 44.6032 46.8438 40.8264 46.0072Z" fill="#592108"/>
<path d="M40.0633 47.159C38.5863 47.1162 38.2335 48.6855 39.4269 49.4048C40.844 49.5016 41.325 47.9627 40.0633 47.159Z" fill="#FEFEFE"/>
<path d="M41.3533 50.1819C41.0043 50.117 40.6676 50.3443 40.5935 50.6949C40.5193 51.0456 40.7346 51.3923 41.0794 51.4772C41.3111 51.5342 41.5553 51.4595 41.7169 51.282C41.8784 51.1045 41.9317 50.8522 41.8561 50.6235C41.7806 50.3948 41.5879 50.2256 41.3533 50.1819Z" fill="#FEFEFE"/>
<path d="M48.4264 39.0477C46.9414 36.3007 41.7488 38.6906 45.1221 41.6205C45.8662 42.1716 46.322 42.4388 47.2647 42.4555C48.1043 42.32 48.5843 41.8804 48.7455 41.0406C48.9256 40.53 48.6542 39.5376 48.4264 39.0477Z" fill="#924F22"/>
<path d="M48.7455 41.0406C48.9256 40.53 48.6542 39.5376 48.4264 39.0477C48.3572 39.046 47.984 39.0379 47.9336 39.0757C47.2434 39.5936 46.5549 40.3293 45.9094 40.91C45.6688 41.1264 45.4701 41.3513 45.3527 41.5776L45.1221 41.6205C45.8662 42.1716 46.322 42.4388 47.2647 42.4555C48.1043 42.32 48.5843 41.8804 48.7455 41.0406Z" fill="#985122"/>
<path d="M48.7455 41.0406L48.656 41.0461L48.5913 41.122L48.5199 41.0788C48.1513 41.507 47.4583 42.0026 46.9653 42.2928C47.0917 42.4151 47.1273 42.3671 47.2647 42.4555C48.1043 42.32 48.5843 41.8804 48.7455 41.0406Z" fill="#80431D"/>
<path d="M42.9649 53.2231C40.0467 53.0796 39.6341 56.7116 42.6473 57.0408C43.0927 57.0832 43.6917 56.9749 44.0888 56.7492C44.5256 56.5062 44.8444 56.0925 44.9706 55.605C45.0866 55.1298 44.9999 54.6271 44.7315 54.2197C44.2894 53.5474 43.6914 53.3603 42.9649 53.2231Z" fill="#EBA94A"/>
<path d="M21.0486 50.6717C18.192 50.7051 18.104 53.9067 21.0847 54.4274C21.5989 54.4557 22.0763 54.3822 22.5105 54.0788C22.8776 53.8225 23.1271 53.4269 23.2007 52.9821C23.4358 51.6325 22.2119 50.816 21.0486 50.6717Z" fill="#EBA94A"/>
<path d="M29.8421 50.3235L29.5983 50.4007C29.1678 50.8797 29.514 51.4826 29.8738 51.9006C30.3585 52.4591 31.0465 52.795 31.7799 52.8315C32.6641 52.8736 33.2959 52.5144 33.9197 51.9291C34.1468 51.6343 34.3121 51.2861 34.1065 50.9302C33.6738 50.8883 33.3954 51.4907 33.0089 51.7252C32.0417 52.312 31.0487 52.2371 30.3455 51.2907C30.1421 51.0166 30.0563 50.6892 29.876 50.3805L29.8421 50.3235Z" fill="#592108"/>
<path d="M37.8498 54.2749C35.8913 54.1947 37.8162 56.512 38.9349 56.757C39.6505 56.5615 39.9291 56.3447 39.8442 55.5529C39.778 54.9341 38.6779 55.1944 38.4865 54.9757C38.2451 54.6998 38.2311 54.5557 37.8498 54.2749Z" fill="#EBA94A"/>
<path d="M15.277 49.5547C14.1288 49.496 13.3355 50.3762 14.4339 51.1135C15.4169 51.1169 16.3054 50.3544 15.277 49.5547Z" fill="#EBA94A"/>
<path d="M29.4368 56.76C29.0394 56.7243 28.6875 57.0182 28.6478 57.4193C28.6074 57.8204 28.8945 58.1794 29.2904 58.2246C29.5508 58.2544 29.8075 58.1402 29.9618 57.9258C30.1154 57.7112 30.1436 57.4296 30.0354 57.1883C29.9265 56.947 29.6979 56.7834 29.4368 56.76Z" fill="#EBA94A"/>
<path d="M26.5282 58.0671C26.2917 57.9643 26.0184 58.0017 25.8179 58.1645C25.6174 58.3273 25.5222 58.5887 25.5705 58.8441C25.6188 59.0994 25.8027 59.307 26.0486 59.3834C26.4013 59.4932 26.7778 59.305 26.9054 58.9548C27.0324 58.6046 26.8672 58.2148 26.5282 58.0671Z" fill="#EBA94A"/>
<path d="M55.6163 5.59003C53.5645 3.11928 49.5656 1.16447 46.5585 0.923625C42.8375 0.625559 39.6957 2.15197 36.9841 4.4636C36.9378 4.46447 36.8916 4.46535 36.8453 4.46629C36.8331 4.14505 37.2802 3.69048 37.4965 3.43229C32.9086 1.38884 28.3038 3.33585 26.1518 7.89992C25.3383 9.62518 25.4753 12.2086 26.4518 13.8516C26.8686 13.8735 28.4423 15.3505 29.2248 14.7016L29.2601 14.5633C29.1238 14.4036 29.1455 14.4902 29.1332 14.3151L29.3185 14.2855C29.796 14.4026 30.5309 14.3347 31.0335 14.2974C30.4962 13.8668 30.2027 13.609 29.7332 13.1076C29.4289 12.674 29.2846 12.4966 29.1058 12.0039L29.1281 11.9007C29.5464 12.0738 30.0808 12.8294 30.6311 13.2141C32.4636 14.8228 36.5118 14.7984 38.5074 13.5456C38.1369 13.0433 37.8277 12.4979 37.5864 11.9208C37.4462 11.5919 37.1496 10.8329 37.2821 10.497C37.6015 10.9509 37.6853 11.287 37.9358 11.7022C38.9963 13.7628 41.5607 15.2521 43.7147 15.9358C45.9509 16.6456 48.6576 16.4729 50.8862 15.79C51.5257 15.5941 52.7325 14.9907 53.1975 14.8856C53.047 15.5796 51.4255 16.1957 50.8069 16.4281L49.8741 16.7071C52.491 20.963 56.0087 22.754 60.9205 21.5229L60.7109 21.8613C60.5837 22.5253 60.2268 22.6489 59.7085 23.0891C61.0526 23.4104 61.918 23.5236 63.2609 23.0581C63.5114 22.9713 64.1482 22.6997 64.3591 22.6699C65.635 20.9648 65.619 17.5086 64.9306 15.5543C64.1652 13.3643 62.5652 11.5744 60.487 10.5832C59.8434 10.2489 59.0303 10.0467 58.3255 9.90721C58.3229 10.1922 58.3586 10.6611 58.2324 10.8891C57.9366 10.832 57.8951 10.4316 57.8059 10.1112C57.3154 8.35048 56.831 7.00003 55.6163 5.59003Z" fill="#FEFEFE"/>
<path d="M50.8069 16.4281L49.8741 16.7071C52.491 20.963 56.0087 22.754 60.9205 21.5229C60.389 21.3449 59.3438 21.2871 58.7329 21.1841C55.8889 20.7045 52.5156 18.7815 50.8069 16.4281Z" fill="#D7D8E8"/>
<path d="M53.1975 14.8856C52.1279 14.7591 50.3823 15.3318 49.0435 15.4259C45.9449 15.677 42.7531 15.2573 40.1082 13.5018C39.464 13.0743 38.5345 11.9967 37.9358 11.7022C38.9963 13.7628 41.5607 15.2521 43.7147 15.9358C45.9509 16.6456 48.6576 16.4729 50.8862 15.79C51.5257 15.5941 52.7325 14.9907 53.1975 14.8856Z" fill="#D7D8E8"/>
<path d="M58.3255 9.90721C58.3229 10.1922 58.3586 10.6611 58.2324 10.8891C57.9366 10.832 57.8951 10.4316 57.8059 10.1112C57.3154 8.35048 56.831 7.00003 55.6163 5.59003L55.6309 5.67175C55.7201 6.15344 55.9269 6.6653 56.0767 7.14087C56.5387 8.60911 56.3232 9.62766 55.9324 11.0669C57.9996 11.1821 58.8657 11.2233 60.8643 11.8315C60.7719 11.4992 60.4725 10.7932 60.487 10.5832C59.8434 10.2489 59.0303 10.0467 58.3255 9.90721Z" fill="#D7D8E8"/>
<path d="M37.2821 10.497C37.1357 10.2973 37.2278 10.3456 37.0182 10.3106C36.7038 10.7843 37.1509 12.1755 37.3015 12.7229C35.7963 13.7428 33.8765 13.9228 32.1182 13.6037C31.6545 13.5196 30.9513 13.2434 30.6311 13.2141C32.4636 14.8228 36.5118 14.7984 38.5074 13.5456C38.1369 13.0433 37.8277 12.4979 37.5864 11.9208C37.4462 11.5919 37.1496 10.8329 37.2821 10.497Z" fill="#D7D8E8"/>
<path d="M29.7332 13.1076C29.5226 13.9803 29.9323 13.7759 29.8335 14.2227C29.6402 14.2905 29.5205 14.2803 29.3185 14.2855C29.796 14.4026 30.5309 14.3347 31.0335 14.2974C30.4962 13.8668 30.2027 13.609 29.7332 13.1076Z" fill="#DEDDDE"/>
<path d="M38.9785 14.0858C37.6267 14.9596 35.6914 15.2959 34.0979 15.2273C33.5187 15.2024 32.5091 14.7288 32.1059 14.9586L32.0151 15.3231C31.2621 17.9842 30.4205 20.3276 29.5637 22.9402L31.053 23.6716L31.3963 23.8723C31.5398 23.9972 31.5484 23.9553 31.7886 23.9718C32.2293 24.2599 33.381 24.7163 33.9132 24.9381C34.0503 25.0046 34.1924 25.0459 34.3367 25.0935C34.4501 24.9539 35.1266 22.8944 35.264 22.523C35.4 22.0998 35.4867 21.5755 35.9074 21.4206C35.7745 22.2123 34.9872 24.4828 34.6264 25.2286C35.5898 25.5525 36.7677 25.9107 37.7107 26.2594L38.3713 26.4963C38.5569 25.8645 39.183 23.9346 39.5341 23.4352L39.6745 23.4555C39.4003 24.5195 39.0601 25.5651 38.6561 26.586L41.3582 27.3203C42.029 27.5431 42.6536 27.6836 43.3401 27.8468C43.5425 27.0366 43.9432 25.8917 44.2033 25.0705C44.442 24.2602 44.7076 23.2609 45.0487 22.4922C45.1341 22.2998 45.1813 22.3284 45.3623 22.2746C45.2023 23.1267 44.7554 24.451 44.4982 25.3128C44.2723 26.0692 43.983 27.1949 43.7188 27.8909C43.8955 27.9352 44.2106 28.0255 44.3776 28.0538C45.031 28.2383 46.3243 28.5444 47.016 28.6577C47.4829 28.984 49.409 29.455 49.925 29.2729C50.2923 29.2996 50.7491 29.369 51.1219 29.4152C51.4218 28.4142 52.3979 25.3874 52.8544 24.5566C52.7531 25.4874 51.8759 28.539 51.5748 29.4832C52.2198 29.5901 52.9731 29.6635 53.6307 29.7411C54.2816 27.3336 55.2483 24.779 56.0971 22.4322C53.0174 21.6749 50.6619 19.7595 49.2932 16.8664C48.6947 17.0023 48.0861 17.0881 47.4736 17.1228C44.3539 17.2999 41.2942 16.206 38.9785 14.0858Z" fill="#FEFEFE"/>
<path d="M38.9785 14.0858C37.6267 14.9596 35.6914 15.2959 34.0979 15.2273C33.5187 15.2024 32.5091 14.7288 32.1059 14.9586L32.0151 15.3231C34.5775 16.3284 36.4551 15.8805 38.9663 14.8662C39.3562 15.1336 39.7537 15.3962 40.1386 15.67C42.548 17.3832 45.5699 18.1129 48.506 17.8031C48.8531 18.9472 49.3611 19.5344 50.1627 20.4023C49.0972 22.6193 48.476 25.893 47.3987 27.9654C46.6785 28.0397 44.7864 27.9559 44.3776 28.0538C45.031 28.2383 46.3243 28.5444 47.016 28.6577C47.4829 28.984 49.409 29.455 49.925 29.2729C50.2923 29.2996 50.7491 29.369 51.1219 29.4152C51.4218 28.4142 52.3979 25.3874 52.8544 24.5566C52.7531 25.4874 51.8759 28.539 51.5748 29.4832C52.2198 29.5901 52.9731 29.6635 53.6307 29.7411C54.2816 27.3336 55.2483 24.779 56.0971 22.4322C53.0174 21.6749 50.6619 19.7595 49.2932 16.8664C48.6947 17.0023 48.0861 17.0881 47.4736 17.1228C44.3539 17.2999 41.2942 16.206 38.9785 14.0858Z" fill="#D7D8E8"/>
<path d="M52.0324 22.1599C51.4007 21.7117 50.9541 21.3266 50.379 20.8119C50.0676 21.8558 49.5308 23.5355 49.11 24.6328C49.1259 24.6765 49.1418 24.7202 49.1576 24.764C49.1089 25.6274 48.4539 27.5227 48.1684 28.4374C48.3476 28.5136 49.848 28.6221 50.1322 28.6474C50.7709 26.4614 51.5236 24.3791 52.0324 22.1599Z" fill="#FEFEFE"/>
<path d="M49.1576 24.764C48.5362 25.5138 47.9996 28.5093 47.5771 28.7383C47.3347 28.7235 47.2539 28.7101 47.016 28.6577C47.4829 28.984 49.409 29.455 49.925 29.2729C49.565 29.0984 48.7077 29.1598 48.1539 28.8595C48.0559 28.6524 48.0838 28.7253 48.1684 28.4374C48.4539 27.5227 49.1089 25.6274 49.1576 24.764Z" fill="#5F311C"/>
<path d="M32.9057 20.5413C33.0572 19.8969 33.9305 16.9995 33.9479 16.6421C33.4473 17.3961 32.799 19.5431 32.3656 20.4647C31.8607 21.5378 31.7475 22.5638 31.053 23.6716L31.3963 23.8723C31.5398 23.9972 31.5484 23.9553 31.7886 23.9718C32.072 23.3104 32.6353 21.3366 32.9057 20.5413Z" fill="#D7D8E8"/>
<path d="M32.9057 20.5413L32.8192 20.377C32.6879 20.4095 32.6569 20.3834 32.574 20.5732C32.1268 21.6044 31.873 22.7608 31.5182 23.8312C31.4778 23.8449 31.4367 23.8586 31.3963 23.8723C31.5398 23.9972 31.5484 23.9553 31.7886 23.9718C32.072 23.3104 32.6353 21.3366 32.9057 20.5413Z" fill="#5F311C"/>
<path d="M41.2563 18.215C40.0338 20.028 38.7079 25.4346 37.7107 26.2594L38.3713 26.4963C38.5569 25.8645 39.183 23.9346 39.5341 23.4352L39.6745 23.4555C39.9624 21.8856 40.8243 19.8496 41.2563 18.215Z" fill="#D7D8E8"/>
<path d="M44.1638 24.2991C43.9229 24.9851 43.4223 26.747 42.7656 27.1084C42.4687 27.2719 41.8089 27.0735 41.3582 27.3203C42.029 27.5431 42.6536 27.6836 43.3401 27.8468C43.5425 27.0366 43.9432 25.8917 44.2033 25.0705C44.1808 24.794 44.1653 24.5785 44.1638 24.2991Z" fill="#D7D8E8"/>
<path d="M35.9074 21.4206C36.0914 20.7194 37.0548 17.6857 36.9722 17.2321C36.7525 17.6203 36.6005 18.1574 36.4265 18.5781C36.0045 19.5985 35.5854 20.9377 35.1111 21.9217C35.2228 22.1904 35.237 22.2334 35.264 22.523C35.4 22.0998 35.4867 21.5755 35.9074 21.4206Z" fill="#D7D8E8"/>
<path d="M45.3623 22.2746C45.4819 21.7354 46.1898 19.6244 46.0762 19.3217C45.8388 19.5845 44.4181 23.6797 44.1638 24.2991C44.1653 24.5785 44.1808 24.794 44.2033 25.0705C44.442 24.2602 44.7076 23.2609 45.0487 22.4922C45.1341 22.2998 45.1813 22.3284 45.3623 22.2746Z" fill="#D7D8E8"/>
<path d="M35.1111 21.9217C34.7545 22.9439 34.355 23.9503 33.9132 24.9381C34.0503 25.0046 34.1924 25.0459 34.3367 25.0935C34.4501 24.9539 35.1266 22.8944 35.264 22.523C35.237 22.2334 35.2228 22.1904 35.1111 21.9217Z" fill="#D7D8E8"/>
<path d="M40.2741 62.5026C39.4981 62.5755 38.695 62.7293 37.9258 62.7964C36.1983 62.9473 34.8829 63.5166 33.2786 64.1289C32.2754 64.5123 31.2629 64.868 30.2417 65.1953C29.9972 65.2697 29.7404 65.3411 29.5039 65.4344L31.3407 67.0665L32.0273 66.8646C32.6346 66.7137 35.5803 65.8944 35.9466 66.0781C35.8954 66.2669 35.885 66.218 35.6576 66.3565C34.4279 66.6882 33.2339 67.0614 31.9949 67.3727L31.7987 67.423C31.7756 68.0287 34.2862 68.8626 34.2119 71.0407C34.0976 74.3939 33.6363 77.8017 33.4877 81.1279C34.3028 81.1293 36.9162 81.1825 37.6266 81.0571C38.7446 81.0848 40.6103 80.8837 41.7531 80.7831C44.9284 80.5032 48.0352 80.0045 51.152 79.3281C52.3621 79.0467 54.467 78.6101 55.5912 78.2274C55.4366 75.9145 55.3342 72.9389 55.3504 70.6274C53.1291 72.3638 51.3342 72.8157 48.4689 72.3652C47.9573 72.2843 47.0253 71.9118 46.5746 71.9898C45.8939 72.1072 44.9935 71.7952 44.3924 71.4628C43.5906 71.0196 43.3367 70.6493 43.0862 69.7862C41.7607 69.3853 41.0002 69.0208 40.0188 68.0295C39.1173 68.4136 37.6321 68.9137 36.6809 69.0777L36.5811 68.9516C36.5826 68.4289 37.2309 66.2873 37.5691 65.8025C37.6825 65.64 38.5897 64.7135 38.7868 64.5123C38.8013 64.4248 38.8176 64.3373 38.836 64.2499C39.0265 63.3591 39.5679 62.964 40.2741 62.5026Z" fill="#FEFEFE"/>
<path d="M40.0188 68.0295C39.1173 68.4136 37.6321 68.9137 36.6809 69.0777C36.7979 69.2417 36.8728 69.4166 37.0804 69.4363C37.8961 69.5136 39.014 69.179 39.8189 68.9873C40.8724 69.7279 41.3967 69.9706 42.6166 70.4022C43.2651 71.8834 43.465 72.2318 45.0549 72.8806C47.0272 73.6853 48.5411 73.7167 50.5774 73.8916C50.7796 75.7023 50.9711 77.5145 51.152 79.3281C52.3621 79.0467 54.467 78.6101 55.5912 78.2274C55.4366 75.9145 55.3342 72.9389 55.3504 70.6274C53.1291 72.3638 51.3342 72.8157 48.4689 72.3652C47.9573 72.2843 47.0253 71.9118 46.5746 71.9898C45.8939 72.1072 44.9935 71.7952 44.3924 71.4628C43.5906 71.0196 43.3367 70.6493 43.0862 69.7862C41.7607 69.3853 41.0002 69.0208 40.0188 68.0295Z" fill="#D7D8E8"/>
<path d="M31.9949 67.3727L31.7987 67.423C31.7756 68.0287 34.2862 68.8626 34.2119 71.0407C34.0976 74.3939 33.6363 77.8017 33.4877 81.1279C34.3028 81.1293 36.9162 81.1825 37.6266 81.0571C36.967 80.9755 34.8237 81.0674 34.0712 81.0827C34.5322 79.1233 34.3408 76.3868 34.5769 74.3538C34.62 73.0563 34.7748 71.6939 34.7517 70.3978C34.7326 69.3241 33.218 68.3502 32.6367 67.6285L32.5884 67.5673C32.3944 67.4412 32.266 67.5571 31.9949 67.3727Z" fill="#D7D8E8"/>
<path d="M30.2417 65.1953C29.9972 65.2697 29.7404 65.3411 29.5039 65.4344L31.3407 67.0665L32.0273 66.8646C31.5845 66.4207 30.4537 65.5612 30.2417 65.1953Z" fill="#D7D8E8"/>
<path d="M35.6576 66.3565C34.4279 66.6882 33.2339 67.0614 31.9949 67.3727C32.266 67.5571 32.3944 67.4412 32.5884 67.5673C32.6353 67.5454 32.6692 67.5207 32.7377 67.5112C33.3954 67.4186 35.2126 66.8048 35.6576 66.3565Z" fill="#DEDDDE"/>
<path d="M3.62106 56.1305C2.59264 56.0565 1.60605 55.9743 0.589172 55.795C1.5159 58.06 2.51115 61.3477 3.23811 63.7039C3.60736 63.6937 5.54087 63.9459 5.77382 64.1602C5.67213 64.2747 5.66852 64.2681 5.61371 64.4088C6.69117 65.5612 7.21836 66.4564 6.92988 68.0987C6.91113 68.254 6.90248 68.3203 6.90392 68.4792C6.61472 69.3182 6.30533 69.6856 5.644 70.2498C5.96421 71.1894 6.26999 72.1334 6.56135 73.0825C10.7709 73.6394 14.9777 74.2211 19.1808 74.8269L13.9088 57.2258C13.4372 57.207 11.2556 56.8728 10.9988 57.0226C10.8099 57.1327 10.7464 57.5862 10.3902 57.7679C9.87667 57.8163 4.39777 57.187 3.96001 56.9956C3.7487 56.7516 3.70688 56.453 3.62106 56.1305Z" fill="#FEFEFE"/>
<path d="M4.80021 60.4478C4.53625 60.6178 4.54707 60.5562 4.41798 60.7989C4.52472 61.0707 4.52111 61.0048 4.77785 61.2171C5.00935 61.2154 5.09446 61.1741 5.16297 60.969C5.07714 60.6864 5.02161 60.6618 4.80021 60.4478Z" fill="#FEFEFE"/>
<path d="M29.2111 68.6308C27.204 67.8283 25.2337 66.8544 23.249 65.9964C22.8235 65.8127 22.4297 65.6159 21.9884 65.4672C21.8513 65.6159 21.8895 65.6589 21.8542 65.9097C21.4301 70.6653 20.8359 74.8371 20.8229 79.7006C24.4411 80.5338 29.2955 81.0951 33.0658 81.1155L33.5029 73.9988C33.5346 73.4696 33.6212 71.2332 33.7012 70.8104C33.694 70.7885 33.6882 70.7659 33.6796 70.7448C33.4704 70.236 29.8753 68.9056 29.2111 68.6308Z" fill="#FEFEFE"/>
<path d="M29.2111 68.6308C27.204 67.8283 25.2337 66.8544 23.249 65.9964C22.8235 65.8127 22.4297 65.6159 21.9884 65.4672C21.8513 65.6159 21.8895 65.6589 21.8542 65.9097C23.5786 66.4527 25.4501 67.2735 27.0641 68.0754C27.6014 68.3429 28.2822 68.5674 28.7899 68.8211C28.9413 68.7934 29.0733 68.7059 29.2111 68.6308Z" fill="#DEDDDE"/>
<path d="M33.7012 70.8104C33.694 70.7885 33.6882 70.7659 33.6796 70.7448C33.4704 70.236 29.8753 68.9056 29.2111 68.6308C29.0733 68.7059 28.9413 68.7934 28.7899 68.8211C29.9359 69.3299 32.5812 70.8126 33.7012 70.8104Z" fill="#DEDDDE"/>
<path d="M31.5232 70.5217C30.9311 70.3438 30.3073 70.6814 30.1263 71.2784C29.9452 71.8754 30.2748 72.5081 30.8633 72.6962C31.4597 72.8864 32.0944 72.5489 32.2776 71.9453C32.4608 71.341 32.1218 70.7018 31.5232 70.5217Z" fill="#592108"/>
<path d="M31.1381 75.9181C30.7551 75.7811 30.3289 75.8642 30.0238 76.136C29.7195 76.4079 29.5846 76.8249 29.6712 77.2258C29.7585 77.6267 30.0534 77.9489 30.4421 78.067C31.0241 78.2442 31.6393 77.9198 31.8283 77.3359C32.0172 76.7527 31.7107 76.1229 31.1381 75.9181Z" fill="#592108"/>
<path d="M24.1678 69.8059C23.5894 69.5836 22.9418 69.8781 22.7232 70.4634C22.5054 71.0495 22.799 71.7026 23.3788 71.9213C23.9565 72.1392 24.5991 71.844 24.8161 71.2616C25.0339 70.6784 24.744 70.0275 24.1678 69.8059Z" fill="#592108"/>
<path d="M23.836 75.2715C23.249 75.1031 22.6381 75.4486 22.4723 76.0427C22.3071 76.6361 22.6497 77.2535 23.2382 77.419C23.8238 77.5844 24.4325 77.2397 24.5969 76.647C24.762 76.0551 24.4216 75.4399 23.836 75.2715Z" fill="#592108"/>
<path d="M49.4227 29.7778C42.5552 28.4896 35.6583 26.5672 29.4765 23.2232C28.9514 24.7408 28.2504 26.599 27.8192 28.1133C29.4794 30.6853 37.6661 33.0504 40.6285 33.7348L40.6903 33.7551C43.5886 34.6855 47.2483 35.2057 50.2835 35.3344C50.92 35.3614 52.2396 35.5253 52.423 34.7451C52.7725 33.2585 53.0804 31.7677 53.4887 30.2916C52.1265 30.1813 50.7698 30.0098 49.4227 29.7778Z" fill="#FEFEFE"/>
<path d="M53.4887 30.2916C52.1265 30.1813 50.7698 30.0098 49.4227 29.7778C49.1014 30.9294 48.7394 32.3132 48.3187 33.4196C46.8779 33.6627 45.7518 33.8092 44.2927 33.7967C43.3517 33.7886 41.5041 33.6016 40.6285 33.7348L40.6903 33.7551C43.5886 34.6855 47.2483 35.2057 50.2835 35.3344C50.92 35.3614 52.2396 35.5253 52.423 34.7451C52.7725 33.2585 53.0804 31.7677 53.4887 30.2916Z" fill="#D7D8E8"/>
<path d="M55.9226 61.762C54.4013 62.3918 52.8581 62.9662 51.296 63.4845C51.6942 63.5625 52.7269 63.6959 52.9488 63.9882L52.9085 64.0866C52.0617 64.419 49.4083 63.8665 48.4318 63.7382C49.1884 66.2669 48.951 69.2227 47.3324 71.376C51.3814 72.4177 55.4056 71.4445 56.5602 66.8741C56.9572 65.3032 56.498 63.6004 55.9507 62.1272C55.9331 62.0813 55.9987 61.9296 56.0231 61.8874L55.9226 61.762Z" fill="#EFEFF4"/>
<path d="M46.3468 81.1577C43.9207 81.5543 41.5045 81.7533 39.0555 81.937C39.1473 82.2956 39.2236 82.6965 39.3003 83.0625C39.5144 84.0247 40.0691 87.079 40.3832 87.84C40.8072 88.8671 44.2492 89.2534 45.3459 88.9618C46.985 88.5266 45.4859 87.1431 45.0002 86.584C45.1113 85.5773 46.0385 82.2308 46.3468 81.1577Z" fill="#F6C360"/>
<path d="M46.3468 81.1577C43.9207 81.5543 41.5045 81.7533 39.0555 81.937C39.1473 82.2956 39.2236 82.6965 39.3003 83.0625C40.732 82.6368 42.7794 82.2599 44.1881 82.9305C45.7619 83.6792 44.3717 85.5533 45.0002 86.584C45.1113 85.5773 46.0385 82.2308 46.3468 81.1577Z" fill="#EBA94A"/>
<path d="M31.3977 68.1249C29.5976 66.4046 26.3299 63.7965 24.1981 62.4027C24.0315 62.2941 21.834 61.684 21.4402 61.5491C19.6308 60.9186 17.8552 60.1908 16.1222 59.3688C16.3977 60.3957 16.7583 61.512 17.0669 62.5376C18.5663 63.2993 20.2661 64.0603 21.798 64.7864C23.8144 65.6859 25.8813 66.5395 27.9122 67.4069C28.3074 67.5753 30.5424 68.5587 30.8193 68.6228C31.0768 68.5667 31.066 68.6891 31.3472 68.617L31.2816 68.5922C31.2657 68.4726 30.8071 68.1417 30.6729 68.0273C31.1136 68.1672 31.0256 68.2226 31.3977 68.1249Z" fill="#FEFEFE"/>
<path d="M30.6729 68.0273C30.2157 67.7021 26.3876 66.3244 25.7039 66.0562C24.7895 65.6975 23.5396 65.1414 22.5877 64.8491C22.3042 64.7623 22.0893 64.7572 21.798 64.7864C23.8144 65.6859 25.8813 66.5395 27.9122 67.4069C28.3074 67.5753 30.5424 68.5587 30.8193 68.6228C31.0768 68.5667 31.066 68.6891 31.3472 68.617L31.2816 68.5922C31.2657 68.4726 30.8071 68.1417 30.6729 68.0273Z" fill="#D7D8E8"/>
<path d="M27.0735 81.6738C25.0779 81.5317 22.0453 80.9748 20.119 80.4638L20.3339 81.2503C20.7126 82.7541 21.2607 84.2725 21.6018 85.6648C21.1294 86.1342 20.039 86.869 20.4061 87.5936C20.7248 87.8494 21.1907 87.8968 21.596 87.9078C22.6554 88.1337 25.0289 87.7846 26.0515 87.3297C26.4266 87.1628 26.5737 85.2602 26.6364 84.7791C26.7771 83.7433 26.9227 82.7082 27.0735 81.6738Z" fill="#F6C360"/>
<path d="M27.0735 81.6738C25.0779 81.5317 22.0453 80.9748 20.119 80.4638L20.3339 81.2503L20.4529 81.157C21.6162 81.3699 24.982 82.3313 25.3844 83.3511C26.5535 86.315 24.483 87.8064 22.0396 87.8903L21.596 87.9078C22.6554 88.1337 25.0289 87.7846 26.0515 87.3297C26.4266 87.1628 26.5737 85.2602 26.6364 84.7791C26.7771 83.7433 26.9227 82.7082 27.0735 81.6738Z" fill="#EBA94A"/>
<path d="M11.177 74.3705L11.0313 74.3771C10.9044 74.5914 10.8344 75.7905 10.7962 76.1404C13.3369 77.4525 15.9368 78.3652 18.6802 79.1553C19.0156 79.2516 19.7411 79.5052 20.0447 79.4914L20.1039 79.3791C20.101 77.8644 20.176 76.3496 20.3296 74.8429C20.0779 75.0579 19.8248 75.2708 19.5709 75.4829C18.5591 75.4275 17.2725 75.2176 16.2549 75.0754L11.177 74.3705Z" fill="#FEFEFE"/>
<path d="M44.83 64.2069C43.3364 62.7636 39.576 62.1797 39.4779 65.2179C40.2464 67.9121 41.6294 68.7176 44.3154 69.2191C44.4933 68.7664 44.6731 68.3458 44.7475 67.8625C45.0536 66.7144 45.0266 65.3724 44.83 64.2069Z" fill="#985122"/>
<path d="M44.7475 67.8625C42.9836 68.0367 41.8603 67.5287 40.7197 66.2137C40.3497 65.7872 39.9993 65.4395 39.4779 65.2179C40.2464 67.9121 41.6294 68.7176 44.3154 69.2191C44.4933 68.7664 44.6731 68.3458 44.7475 67.8625Z" fill="#80431D"/>
<path d="M58.0337 58.2243C56.1623 59.0031 54.9904 59.4491 53.0589 60.0083C51.8076 60.3301 50.5509 60.6304 49.2894 60.9088C48.4008 61.1043 47.2269 61.2844 46.3914 61.5951C46.1599 61.6811 45.4795 62.4312 45.2761 62.6564C46.0515 62.663 46.5255 62.6863 47.3032 62.8241C47.5794 62.8729 48.5123 63.0442 48.7493 63.0508C48.9628 63.096 49.7758 63.2359 49.9338 63.1929C51.8081 62.6856 55.8801 61.2809 57.3655 60.3244C57.6471 59.6895 57.8634 58.8977 58.0337 58.2243Z" fill="#D7D8E8"/>
<path d="M53.0589 60.0083C51.8076 60.3301 50.5509 60.6304 49.2894 60.9088C48.4008 61.1043 47.2269 61.2844 46.3914 61.5951C46.1599 61.6811 45.4795 62.4312 45.2761 62.6564C46.0515 62.663 46.5255 62.6863 47.3032 62.8241C47.5794 62.8729 48.5123 63.0442 48.7493 63.0508C49.7003 62.472 53.5781 61.6359 53.0589 60.0083Z" fill="#FEFEFE"/>
<path d="M60.7109 21.8613C59.5022 22.6274 58.4117 22.6247 57.0087 22.5863C57.8329 23.4962 58.5245 23.5969 59.0107 24.1128C58.5005 24.3557 57.0948 23.3293 56.7223 23.006C56.367 23.9654 56.0637 24.9523 55.7536 25.9282C57.9052 26.5389 59.6749 26.4847 61.7051 25.3739C62.6762 24.8425 63.8937 23.6925 64.3591 22.6699C64.1482 22.6997 63.5114 22.9713 63.2609 23.0581C61.918 23.5236 61.0526 23.4104 59.7085 23.0891C60.2268 22.6489 60.5837 22.5253 60.7109 21.8613Z" fill="#D7D8E8"/>
<path d="M17.3583 63.3387C17.3684 63.6536 18.0788 65.9702 18.2244 66.4476C18.9557 68.8517 19.6351 71.3177 20.4104 73.7043C20.4356 73.3158 20.4688 72.925 20.4984 72.5372C20.7328 70.1062 21.0876 67.6876 21.5614 65.2923C20.1558 64.6515 18.7545 63.9998 17.3583 63.3387Z" fill="#FEFEFE"/>
<path d="M4.59105 64.7303C1.92841 63.3438 1.65076 66.3828 2.3294 68.1614C2.56812 68.7875 2.83352 69.0799 3.32537 69.5238C5.73055 71.3294 7.76213 66.428 4.59105 64.7303Z" fill="#985122"/>
<path d="M3.32537 69.5238C5.73055 71.3294 7.76213 66.428 4.59105 64.7303C4.82472 65.067 5.08941 65.2084 5.29351 65.4577C5.61011 65.8448 5.65409 66.8544 5.58269 67.3413C5.47379 68.0506 5.08652 68.6855 4.50813 69.101C4.04224 69.4363 3.86987 69.4655 3.32537 69.5238Z" fill="#80431D"/>
<path d="M47.6989 63.58C46.9591 63.4641 46.1601 63.4079 45.4091 63.3416C46.0005 65.3477 45.9861 66.5869 45.3674 68.5966C45.0415 69.5304 44.9159 69.8212 44.3308 70.6187C45.0812 70.9707 45.5577 71.1756 46.3859 71.3622C46.9508 70.7178 47.309 70.1303 47.6026 69.3131C48.2108 67.1985 48.3293 65.6954 47.6989 63.58Z" fill="#FEFEFE"/>
<path d="M45.3674 68.5966C45.0415 69.5304 44.9159 69.8212 44.3308 70.6187C45.0812 70.9707 45.5577 71.1756 46.3859 71.3622C46.9508 70.7178 47.309 70.1303 47.6026 69.3131C46.9411 69.1775 45.9959 68.8444 45.3674 68.5966Z" fill="#D7D8E8"/>
<path d="M45.6068 58.7541C45.3881 58.6423 45.3981 58.6 45.201 58.6264C44.1283 59.7182 42.7616 61.0388 41.7664 62.1651L41.7881 62.2635C42.0043 62.3233 42.0447 62.3014 42.2734 62.2599L42.5945 62.3444C42.8217 62.3896 43.4117 62.5223 43.6148 62.5376L43.8698 62.7235C44.1021 62.8153 44.1226 62.8292 44.367 62.8437C44.7822 62.4552 46.7876 60.5175 46.9989 60.1414C46.8352 59.6477 46.0986 58.9395 45.6068 58.7541Z" fill="#5F311C"/>
<path d="M45.84 58.9573C44.8091 60.1039 43.6135 61.1844 42.5945 62.3444C42.8217 62.3896 43.4117 62.5223 43.6148 62.5376C44.472 61.6067 45.5931 60.5145 46.5021 59.6312L45.84 58.9573Z" fill="#F6C360"/>
<path d="M45.6068 58.7541C45.3881 58.6423 45.3981 58.6 45.201 58.6264C44.1283 59.7182 42.7616 61.0388 41.7664 62.1651L41.7881 62.2635C42.0043 62.3233 42.0447 62.3014 42.2734 62.2599C42.7358 61.7379 45.4918 59.0612 45.6068 58.7541Z" fill="#F6C360"/>
<path d="M46.9989 60.1414L46.6867 59.9041C46.4897 59.9828 44.1856 62.4013 43.8698 62.7235C44.1021 62.8153 44.1226 62.8292 44.367 62.8437C44.7822 62.4552 46.7876 60.5175 46.9989 60.1414Z" fill="#EBA94A"/>
<path d="M11.1892 56.2966C11.0327 56.273 11.089 56.2778 10.9267 56.3155L10.9058 56.4166C11.1402 56.544 13.7394 56.7923 14.2543 56.8727C14.5572 57.9236 14.9878 59.139 15.3166 60.213C16.1662 63.0048 16.9963 65.8025 17.8069 68.6061C18.3983 70.5895 19.0769 72.6874 19.5998 74.6789C19.7043 74.6162 19.8341 74.5127 19.9351 74.4376C19.9986 74.2095 19.2219 71.8695 19.0956 71.4628C18.1083 68.2343 17.1441 64.9985 16.2037 61.7562C15.8279 60.4743 15.0664 57.6528 14.5983 56.58C13.4603 56.5055 12.3237 56.411 11.1892 56.2966Z" fill="#DEDDDE"/>
<path d="M29.2601 14.5633L29.2248 14.7016C28.4423 15.3505 26.8686 13.8735 26.4518 13.8516C27.1456 15.4013 28.8375 17.058 30.4811 17.5398C30.8417 16.6104 31.1742 15.6699 31.4778 14.7197C30.621 14.8406 30.0924 14.8695 29.2601 14.5633Z" fill="#D7D8E8"/>
<path d="M9.7995 56.3688C7.90565 56.0717 5.8625 55.8967 3.88788 55.5929L4.16339 56.6665C5.14565 56.7088 6.44235 56.8924 7.4412 57.0105C8.02248 57.0785 9.05595 57.1589 9.57376 57.2853C9.72161 57.2902 9.76849 57.2796 9.91633 57.2572C10.0469 56.9854 9.89541 56.6866 9.7995 56.3688Z" fill="#AEADB0"/>
<path d="M9.57376 57.2853C9.56655 57.0984 9.57737 57.037 9.4865 56.8708C8.88863 56.4227 8.13859 56.9254 7.4412 57.0105C8.02248 57.0785 9.05595 57.1589 9.57376 57.2853Z" fill="#96969A"/>
<path d="M38.8666 65.6123L38.7538 65.3316C38.4233 65.2405 38.2419 65.7078 37.9779 65.9184L37.8365 65.9614C37.8106 66.0766 37.7858 66.191 37.7568 66.3048C37.5886 66.7946 37.4003 67.3129 37.2502 67.8057C37.5751 68.0098 37.6262 68.0448 37.8932 68.3298C38.3805 68.1541 38.8693 67.9828 39.3597 67.8166L39.6313 67.6992L39.6651 67.6001C39.0658 67.0986 39.0277 66.7917 38.8993 66.0212C38.8679 65.8331 38.982 65.8914 38.8666 65.6123Z" fill="#F9D798"/>
<path d="M38.8666 65.6123L38.7538 65.3316C38.4233 65.2405 38.2419 65.7078 37.9779 65.9184L37.8365 65.9614C37.8106 66.0766 37.7858 66.191 37.7568 66.3048C38.0405 66.4403 38.0474 66.4272 38.2004 66.6751C38.5317 67.2101 38.9986 67.2961 39.3597 67.8166L39.6313 67.6992L39.6651 67.6001C39.0658 67.0986 39.0277 66.7917 38.8993 66.0212C38.8679 65.8331 38.982 65.8914 38.8666 65.6123Z" fill="#592108"/>
<path d="M38.8666 65.6123L38.7538 65.3316C38.4233 65.2405 38.2419 65.7078 37.9779 65.9184C38.0189 66.1327 38.0992 66.1546 38.2731 66.1903C38.5818 66.0708 38.719 65.9075 38.8666 65.6123Z" fill="#EBA94A"/>
<path d="M7.39937 54.1684C6.36807 53.952 6.06734 54.2371 5.69664 55.2273C5.03315 55.2548 4.67328 54.9507 4.18215 55.275L4.1944 55.3604C4.75332 55.4662 9.81825 56.0259 10.0526 55.9506L10.1579 55.8184C9.80022 55.4357 8.18259 55.8145 7.74122 55.477C7.63232 55.3935 7.54217 54.964 7.50539 54.8146L7.73112 54.7059L7.3186 54.2812L7.39937 54.1684Z" fill="#AEADB0"/>
<path d="M7.3186 54.2812C6.7229 54.1224 6.06589 54.5596 6.32408 55.2267C6.62914 55.5298 6.93061 55.6284 7.28111 55.3492C7.41381 55.0924 7.40731 55.0427 7.40515 54.75L7.50539 54.8146L7.73112 54.7059L7.3186 54.2812Z" fill="#461A0D"/>
<path d="M47.26 56.887C46.7241 56.8258 46.4347 57.2568 46.1022 57.6327C46.3883 57.8326 46.7234 58.0514 46.976 58.2869L47.254 58.5809C47.3927 58.7693 47.7331 59.1384 47.8989 59.33C48.2414 58.9619 48.3472 58.7949 48.5797 58.3555C48.3959 57.896 48.3545 57.772 48.0586 57.3821L47.9921 57.3276C47.687 57.0735 47.6447 57.0135 47.26 56.887Z" fill="#FDD2C3"/>
<path d="M48.0586 57.3821C48.0993 57.7392 48.1586 57.7745 47.9252 58.1049C47.8126 58.2641 47.4398 58.5261 47.254 58.5809C47.3927 58.7693 47.7331 59.1384 47.8989 59.33C48.2414 58.9619 48.3472 58.7949 48.5797 58.3555C48.3959 57.896 48.3545 57.772 48.0586 57.3821Z" fill="#E79E8B"/>
<path d="M48.0586 57.3821L47.9921 57.3276C47.687 57.0735 47.6447 57.0135 47.26 56.887C47.8418 57.5094 47.6688 57.6041 47.1274 58.1946C47.0898 58.2356 47.0258 58.2627 46.976 58.2869L47.254 58.5809C47.4398 58.5261 47.8126 58.2641 47.9252 58.1049C48.1586 57.7745 48.0993 57.7392 48.0586 57.3821Z" fill="#F9C3B3"/>
<path d="M31.3977 68.1249C31.0256 68.2226 31.1136 68.1672 30.6729 68.0273C30.8071 68.1417 31.2657 68.4726 31.2816 68.5922L31.3472 68.617C31.066 68.6891 31.0768 68.5667 30.8193 68.6228C31.3999 68.9457 32.4687 69.4079 33.1062 69.7002C32.5596 69.1506 31.9891 68.625 31.3977 68.1249Z" fill="#DEDDDE"/>
<path d="M46.5142 59.0472C46.7877 59.3398 47.1467 59.8863 47.5409 59.861C47.5882 59.4684 46.9891 58.8614 46.7433 58.5951L46.5142 59.0472Z" fill="#AEADB0"/>
<path d="M1.23969 55.2026C0.972847 55.2043 1.07813 55.1569 0.89856 55.3097C1.06876 55.474 2.89266 55.6152 3.23378 55.6494C3.40471 55.6838 3.33979 55.677 3.52009 55.6409L3.52659 55.5228C3.31745 55.3521 1.60749 55.2381 1.23969 55.2026Z" fill="#DEDDDE"/>
<path d="M56.7963 61.2859C56.5017 61.4383 56.2104 61.5965 55.9226 61.762L56.0231 61.8874C56.3268 62.1607 56.4443 62.3495 56.6791 62.6834C56.7448 62.1928 56.7688 61.778 56.7963 61.2859Z" fill="#DEDDDE"/>
<path d="M46.7433 58.5951C46.4661 58.3644 46.194 58.1006 45.8676 57.9675C45.6759 58.0211 45.7329 58.0094 45.5794 58.1953C45.6586 58.4047 46.2755 58.7959 46.5142 59.0472L46.7433 58.5951Z" fill="#DEDDDE"/>
<path d="M10.4349 55.9401C10.0144 56.2552 10.1897 56.6861 10.2921 57.1268L10.3916 57.1558L10.4781 57.0975C10.5322 56.7614 10.4673 56.2942 10.4349 55.9401Z" fill="#AEADB0"/>
<path d="M7.39937 54.1684L7.3186 54.2812L7.73112 54.7059C7.84435 54.9244 7.89268 55.0746 8.09172 55.2047L8.11264 55.0655C7.88907 54.4758 7.92079 54.4194 7.39937 54.1684Z" fill="#AEADB0"/>
</svg>
