<svg width="48" height="38" viewBox="0 0 48 38" fill="none" xmlns="http://www.w3.org/2000/svg">
<path opacity="0.5" d="M8.16699 18.9998C8.16699 11.536 8.16699 7.80409 10.485 5.4845C12.8062 3.1665 16.5365 3.1665 24.0003 3.1665C31.4642 3.1665 35.1961 3.1665 37.5141 5.4845C39.8337 7.80567 39.8337 11.536 39.8337 18.9998C39.8337 26.4637 39.8337 30.1956 37.5141 32.5136C35.1977 34.8332 31.4642 34.8332 24.0003 34.8332C16.5365 34.8332 12.8046 34.8332 10.485 32.5136C8.16699 30.1972 8.16699 26.4637 8.16699 18.9998Z" fill="#9A8FF2"/>
<path fill-rule="evenodd" clip-rule="evenodd" d="M15.9475 17.8123H8.16699V20.1873H21.0917C20.8244 21.3145 20.1845 22.3186 19.2757 23.0369C18.3668 23.7553 17.2421 24.1459 16.0837 24.1457C15.7687 24.1457 15.4667 24.2708 15.244 24.4935C15.0213 24.7162 14.8962 25.0182 14.8962 25.3332C14.8962 25.6481 15.0213 25.9502 15.244 26.1729C15.4667 26.3956 15.7687 26.5207 16.0837 26.5207C17.4808 26.5211 18.8504 26.1323 20.039 25.3979C21.2276 24.6635 22.1881 23.6125 22.8128 22.3628V34.8332H25.1878V22.3628C25.8126 23.6125 26.7731 24.6635 27.9616 25.3979C29.1502 26.1323 30.5198 26.5211 31.917 26.5207C32.2319 26.5207 32.534 26.3956 32.7567 26.1729C32.9794 25.9502 33.1045 25.6481 33.1045 25.3332C33.1045 25.0182 32.9794 24.7162 32.7567 24.4935C32.534 24.2708 32.2319 24.1457 31.917 24.1457C30.7585 24.1459 29.6338 23.7553 28.725 23.0369C27.8161 22.3186 27.1762 21.3145 26.9089 20.1873H39.8337V17.8123H32.0547C32.6089 17.1188 33.0253 16.3003 33.2517 15.3946C34.1036 11.9857 31.0145 8.89817 27.6072 9.75C26.7241 9.97052 25.8989 10.3788 25.1878 10.947V3.1665H22.8128V10.947C22.1022 10.379 21.2776 9.97073 20.3951 9.75C16.9862 8.89817 13.8987 11.9857 14.7505 15.3946C14.9769 16.3003 15.3917 17.1188 15.9475 17.8123ZM22.8128 17.8123H20.8289C19.958 17.7981 19.116 17.497 18.4336 16.9557C17.7511 16.4144 17.2663 15.6631 17.0542 14.8183C16.9587 14.4362 16.9638 14.0359 17.069 13.6564C17.1742 13.2769 17.3759 12.9311 17.6545 12.6527C17.933 12.3743 18.2789 12.1728 18.6585 12.0679C19.038 11.9629 19.4383 11.958 19.8203 12.0538C20.6652 12.2658 21.4165 12.7507 21.9578 13.4331C22.4991 14.1155 22.8002 14.9575 22.8144 15.8284L22.8128 17.8123ZM27.1717 17.8123H25.1878V15.8411C25.1993 14.968 25.4991 14.1231 26.0406 13.4381C26.5822 12.7531 27.335 12.2664 28.1819 12.0538C28.5638 11.9584 28.9639 11.9635 29.3432 12.0686C29.7226 12.1737 30.0682 12.3753 30.3465 12.6536C30.6249 12.9319 30.8264 13.2776 30.9315 13.6569C31.0367 14.0363 31.0418 14.4364 30.9464 14.8183C30.7343 15.6631 30.2495 16.4144 29.5671 16.9557C28.8846 17.497 28.0427 17.7981 27.1717 17.8123Z" fill="#9A8FF2"/>
</svg>
