<svg width="48" height="40" viewBox="0 0 48 40" fill="none" xmlns="http://www.w3.org/2000/svg">
<path d="M38.4015 35.8503C38.7262 35.9951 39.1039 36.0219 39.4514 35.9247C39.6234 35.8766 39.7829 35.7995 39.9207 35.6979C40.0585 35.5962 40.1718 35.4719 40.2544 35.3322C40.3369 35.1924 40.3869 35.0399 40.4016 34.8833C40.4163 34.7268 40.3954 34.5692 40.34 34.4197C40.2847 34.2702 40.196 34.1316 40.079 34.0118C39.962 33.8921 39.819 33.7935 39.6582 33.7218L38.4015 35.8503ZM39.6582 33.7218C35.3988 31.8216 33.6639 29.3022 32.9309 26.5189C32.1602 23.5894 32.4921 20.4493 32.4921 17.1001H29.7395C29.7395 20.1417 29.384 23.7726 30.2475 27.0521C31.1488 30.4779 33.3713 33.607 38.4015 35.8503L39.6582 33.7218Z" fill="#008463"/>
<path d="M24.0388 14.6734C23.8921 10.8012 23.2463 6.76515 20.7419 4.64568C17.2612 1.70215 11.979 4.86574 12.7268 9.20613C7.87569 8.69421 4.60505 15.3086 9.49169 18.4254C11.8153 19.9049 14.1945 20.37 16.9846 20.4964C14.162 20.6556 11.7612 21.1582 9.41444 22.6534C4.52935 25.7686 7.79844 32.383 12.6511 31.871C11.9018 36.2114 17.0434 39.1955 20.6647 36.4315C22.9002 34.724 23.7082 31.7821 23.9678 28.6825C24.2582 31.7821 25.1002 34.724 27.3357 36.4315C30.9571 39.1955 36.0971 36.213 35.3493 31.871C40.2004 32.383 43.4711 25.7686 38.5844 22.6534C36.2578 21.1707 33.8353 20.6634 31.0065 20.4996C33.8338 20.3794 36.2361 19.9221 38.5844 18.4238C43.4711 15.3101 40.202 8.69421 35.3493 9.20613C36.0971 4.86731 30.8149 1.70215 27.3357 4.64568C24.8314 6.76515 24.1841 10.8012 24.0388 14.6734Z" fill="#43BB65"/>
</svg>
