<svg width="125" height="135" viewBox="0 0 125 135" fill="none" xmlns="http://www.w3.org/2000/svg">
<path d="M73.4175 6.4801e-06C69.2541 0.00339581 64.5828 1.85177 61.6591 4.81853C57.8232 3.24519 53.6439 3.4006 50.0169 5.50288C46.9859 7.25975 44.3821 10.2748 43.4727 13.7053C42.7108 16.5816 43.1254 19.6439 44.6245 22.2125C46.2962 25.0462 48.793 27.2469 52.0152 28.0691C51.0393 32.0706 49.7461 36.0422 48.7428 40.0411C48.5279 40.8976 48.4314 41.6973 48.3495 42.5719C46.3767 43.0695 45.8858 43.8092 44.2106 44.7906C43.2325 45.379 41.6361 45.614 40.7307 46.2747C38.8505 47.6468 37.3077 49.5566 35.4183 50.9914C34.5011 51.688 33.4234 53.2382 32.6134 54.1129C31.6675 55.1343 30.728 56.5942 30.3766 57.9323C30.1733 58.542 30.0988 59.4932 29.7929 60.0466C28.9416 61.5866 27.7683 62.6873 27.1218 64.3912C26.596 65.777 25.9992 67.0683 25.9989 68.6052C25.9987 69.3498 26.0483 70.2853 25.9598 71.0353C24.8005 74.3871 24.3418 76.4826 24.6715 80.0997C23.2855 81.0493 23.7718 82.4962 24.0133 83.9486C24.1873 84.9955 24.5835 85.6181 25.3247 86.3495C25.1796 86.9866 25.1339 87.4253 25.0659 88.0795C23.7071 87.7645 22.4454 87.4639 21.0993 87.0794C19.8358 86.7184 17.9067 86.048 16.7396 86.7616C14.2251 85.2364 11.0943 85.2397 8.88608 87.4921C8.36193 88.0266 8.14987 88.7767 7.94951 89.4854L7.93978 89.5198C6.44026 90.7161 5.9948 91.5903 5.17455 93.273C3.63994 93.6827 2.96514 94.2569 2.48776 95.7881C1.74397 95.9914 1.42903 96.0463 0.749258 96.4051C0.640104 98.7069 0.513554 101.007 0.369706 103.306C0.172971 106.282 -0.249338 109.15 0.19861 112.085C0.19861 112.085 14.4426 114.54 16.1928 114.609C16.873 114.411 21.3734 112.385 21.6454 112.051C21.7312 111.01 21.5237 108.653 21.4563 107.51C21.3157 105.085 21.202 102.657 21.1156 100.229C23.1658 100.529 24.9729 100.714 27.0537 100.494C26.5884 104.043 26.1461 108.6 26.031 112.148C28.606 114.127 35.4009 115.93 38.6635 116.836C38.0674 118.538 37.7465 119.619 37.4691 121.418C36.1549 121.631 33.7257 122.151 34.0579 124.046C34.4051 126.025 36.9229 127.208 38.5482 128.043C37.6507 128.679 36.3146 128.897 35.8221 130.05C35.7501 130.219 35.7358 130.421 35.8091 130.59C36.1874 131.46 38.6787 132.333 39.5974 132.638C49.0034 135.766 81.4608 136.074 89.8531 131.814C90.4079 131.533 91.1833 131.08 91.3572 130.442C91.4278 130.183 91.3741 129.92 91.234 129.694C90.2011 128.028 86.6253 127.558 84.8617 127.077C86.1183 123.426 85.7912 123.282 83.5972 120.27C83.1797 119.698 82.6737 118.29 82.4569 117.585C84.5853 117.114 93.8216 115.377 95.3585 114.209C95.4987 114.017 95.5266 113.828 95.5097 113.591C95.2323 109.626 95.0782 105.612 94.7909 101.652C97.9154 101.924 105.776 102.232 108.694 100.356C109.363 99.9251 109.427 98.5763 109.504 97.7838C110.814 97.6821 112.354 97.8436 113.659 97.6133C116.096 97.1817 117.829 96.0503 119.259 94.0765C122.976 93.3328 127.123 90.8815 123.76 86.877C125.482 85.0577 125.127 83.3283 123.569 81.5763C125.001 79.9767 124.91 78.0936 123.423 76.5825C124.068 75.8619 124.711 74.9243 124.635 73.9548C124.266 69.1888 117.331 67.8278 113.621 67.8336C109.304 67.8405 102.493 69.0201 102.106 74.2492C102.04 75.1404 102.644 75.8679 103.235 76.4339C101.607 78.3587 101.258 80.1817 103.286 82.0172C103.207 82.1305 103.129 82.2445 103.052 82.3593C102.297 83.4921 101.883 84.8277 102.593 86.1575C102.814 86.5718 103.162 86.653 103.265 87.1614C102.717 88.0265 98.4989 88.3884 97.4144 88.4711C97.3965 86.6992 98.7882 85.2454 98.8369 83.3863C98.8588 82.5237 98.8499 82.3622 98.2912 81.7263C98.6033 80.0556 99.4215 76.4079 98.9125 75.0264C97.9005 72.2799 98.0307 70.3299 97.8766 67.4716C97.7931 65.9205 96.7036 63.1673 95.5832 62.0631C94.092 60.5939 93.6785 59.6576 93.2232 57.6059C92.4239 55.0063 89.9416 52.8977 87.8301 51.2269C88.7696 49.8518 88.7974 47.3092 89.0439 45.6162C89.4615 42.7803 89.9367 39.9535 90.4715 37.1374C94.7014 37.9174 98.4353 37.0762 101.669 34.0634C104.153 31.7486 105.41 28.5291 105.467 25.1468C105.544 21.5344 104.18 18.0406 101.679 15.4401C99.0934 12.7784 95.8655 11.3188 92.1655 11.2531C91.393 9.29075 90.3482 7.4641 88.8133 5.98137C84.9174 2.21812 78.7837 -0.00437971 73.4175 6.4801e-06Z" fill="#3D2000"/>
<path d="M47.0938 126.135C47.3601 126.427 49.328 126.124 49.7798 126.076C51.0407 125.938 52.3045 125.83 53.5703 125.751C57.8038 125.484 62.0468 125.388 66.2877 125.464C68.5841 125.515 70.9173 125.659 73.2087 125.675C73.2693 125.621 73.33 125.568 73.3906 125.514C75.2437 126.65 76.4346 127.155 78.4755 127.811C79.9836 133.755 83.3526 131.648 84.8617 127.077C86.6253 127.558 90.2011 128.028 91.234 129.694C91.3741 129.92 91.4278 130.183 91.3572 130.442C91.1833 131.08 90.4079 131.533 89.8531 131.814C81.4608 136.074 49.0034 135.766 39.5974 132.638C38.6787 132.333 36.1874 131.46 35.8091 130.59C35.7358 130.421 35.7501 130.219 35.8221 130.05C36.3146 128.897 37.6507 128.679 38.5482 128.043C40.0334 128.68 43.4935 130.47 44.8756 129.401C45.3445 129.038 46.6907 126.766 47.0938 126.135Z" fill="#DEDEDE"/>
<path d="M52.4263 119.119C57.3518 119.468 64.0907 119.691 69.0026 119.15C70.1697 121.575 71.3199 123.733 73.3906 125.514C73.33 125.568 73.2693 125.621 73.2087 125.675C70.9173 125.659 68.5841 125.515 66.2877 125.464C62.0468 125.388 57.8038 125.484 53.5703 125.751C52.3045 125.83 51.0407 125.938 49.7798 126.076C49.328 126.124 47.3601 126.427 47.0938 126.135C48.5366 123.589 50.2968 121.13 52.4263 119.119Z" fill="#FEFEFE"/>
<path d="M49.209 43.8366C49.8155 44.3096 50.3673 44.7603 51.0307 45.1551C53.1292 46.304 59.1517 48.7749 61.4255 49.0853C64.8621 50.0137 67.0154 50.4568 70.5137 51.088C75.2854 52.0129 81.3833 52.4675 86.2206 51.7666L86.3081 51.8553C88.1989 53.744 90.5878 54.9666 91.7012 57.6478C92.1466 58.7209 92.246 59.8167 92.6595 60.8837C93.0522 61.7505 94.5573 62.9694 95.2184 63.9764C96.8795 66.5056 96.2851 69.4172 96.6588 72.2716C96.8487 73.7204 97.6371 75.0734 97.6321 76.5115C97.6261 78.364 97.0933 80.3939 96.7264 82.2258C94.1596 83.4343 92.6486 84.0151 89.9824 84.7785C84.1648 86.4885 76.9655 88.1949 70.9511 89.0951C70.287 89.2078 69.5752 89.3145 68.9201 89.448C67.8872 89.6185 66.2847 89.8518 65.3204 90.1847C62.1243 91.2902 59.0589 92.8583 55.8304 93.906C53.6401 92.7038 50.8442 90.6084 48.8034 89.6843C46.8607 89.1908 43.1208 88.3166 41.3117 87.5739C39.2363 86.6641 36.7364 85.8675 34.5314 84.9214C33.9389 84.7541 30.0683 82.9413 29.4364 82.5799C28.9035 82.2948 28.4795 82.0657 27.9755 81.7352C27.4114 81.4463 26.7862 81.0578 26.2336 80.7318C25.9891 77.0282 25.9452 75.0295 27.443 71.5922C27.7122 70.9744 27.3539 68.6266 27.6187 67.5661C28.3169 64.7702 29.7795 62.8864 31.2993 60.5413C31.6525 59.987 31.7596 58.1962 32.2113 57.3717C33.2378 55.616 34.8077 53.5085 36.3567 52.1671C37.963 50.7762 39.5483 49.261 41.1222 47.8428C41.8904 47.1504 43.7277 46.8645 44.592 46.3319C46.1954 45.3438 47.425 44.52 49.209 43.8366Z" fill="#F8C560"/>
<path d="M70.5137 51.088C75.2854 52.0129 81.3833 52.4675 86.2206 51.7666L86.3081 51.8553C88.1989 53.744 90.5878 54.9666 91.7012 57.6478C92.1466 58.7209 92.246 59.8167 92.6595 60.8837C93.0522 61.7505 94.5573 62.9694 95.2184 63.9764C96.8795 66.5056 96.2851 69.4172 96.6588 72.2716C96.8487 73.7204 97.6371 75.0734 97.6321 76.5115C97.6261 78.364 97.0933 80.3939 96.7264 82.2258C94.1596 83.4343 92.6486 84.0151 89.9824 84.7785C90.7866 83.8431 91.3712 82.5297 91.5302 81.3267C91.6833 80.18 92.3921 75.0429 91.8921 74.3205C92.2321 74.0841 92.3454 73.991 92.6396 73.7C92.4985 73.1333 92.1515 72.0715 92.2072 71.5271C92.4329 69.3154 92.9617 68.9282 91.9398 66.8604L92.0034 66.8523C92.2857 66.4365 92.3921 66.1791 92.2569 65.6882C91.4189 64.9479 91.0729 64.7901 90.0251 64.3647C89.873 64.3376 89.6961 64.2921 89.543 64.2574L89.6901 64.1504C89.8114 60.5037 85.8429 56.4394 83.8437 53.6391C83.631 53.3412 83.3407 53.0085 83.1011 52.7265C80.2242 52.9044 71.0773 53.7046 68.8147 52.6207C69.6011 52.1669 69.9182 51.7452 70.5137 51.088Z" fill="#ECAC4A"/>
<path d="M92.2569 65.6882C94.0871 67.8014 94.7492 71.5606 92.6396 73.7C92.4985 73.1333 92.1515 72.0715 92.2072 71.5271C92.4329 69.3154 92.9617 68.9282 91.9398 66.8604L92.0034 66.8523C92.2857 66.4365 92.3921 66.1791 92.2569 65.6882Z" fill="#8D4A1E"/>
<path d="M49.209 43.8366C49.8155 44.3096 50.3673 44.7603 51.0307 45.1551C50.9091 45.6869 50.9187 45.3865 50.6041 45.7745C48.9526 46.2291 47.6147 47.0099 46.0468 47.7582C45.4267 48.0542 43.4467 48.7363 43.0223 49.1128C39.7732 51.9949 36.5029 55.527 33.9888 59.0648C33.3847 59.915 32.7994 62.1227 32.3089 63.1131C31.9902 63.7567 31.31 64.3977 31.0639 64.8848C30.7447 65.374 30.6255 65.5377 30.4169 66.0879L30.3904 66.1942C30.0908 67.3684 29.4639 68.5645 29.1722 69.7448C28.8351 71.1084 28.7901 72.5814 28.5964 73.9842C28.3777 75.5676 28.0726 77.0873 27.984 78.6947C27.9377 79.5353 28.1176 80.6883 28.1476 81.558C28.0903 81.6171 28.0329 81.6761 27.9755 81.7352C27.4114 81.4463 26.7862 81.0578 26.2336 80.7318C25.9891 77.0282 25.9452 75.0295 27.443 71.5922C27.7122 70.9744 27.3539 68.6266 27.6187 67.5661C28.3169 64.7702 29.7795 62.8864 31.2993 60.5413C31.6525 59.987 31.7596 58.1962 32.2113 57.3717C33.2378 55.616 34.8077 53.5085 36.3567 52.1671C37.963 50.7762 39.5483 49.261 41.1222 47.8428C41.8904 47.1504 43.7277 46.8645 44.592 46.3319C46.1954 45.3438 47.425 44.52 49.209 43.8366Z" fill="#FDDC9D"/>
<path d="M91.8921 74.3205C91.0689 74.6288 90.2906 74.6502 89.4257 74.6417C86.5885 74.6954 83.5296 71.9406 83.8805 68.9594C84.299 65.4096 86.2107 64.0284 89.543 64.2574C89.6961 64.2921 89.873 64.3376 90.0251 64.3647C91.0729 64.7901 91.4189 64.9479 92.2569 65.6882C92.3921 66.1791 92.2857 66.4365 92.0034 66.8523L91.9398 66.8604C92.9617 68.9282 92.4329 69.3154 92.2072 71.5271C92.1515 72.0715 92.4985 73.1333 92.6396 73.7C92.3454 73.991 92.2321 74.0841 91.8921 74.3205Z" fill="#9E5A2C"/>
<path d="M90.0251 64.3647C91.0729 64.7901 91.4189 64.9479 92.2569 65.6882C92.3921 66.1791 92.2857 66.4365 92.0034 66.8523L91.9398 66.8604C91.3612 65.706 91.0173 65.5577 90.054 64.6942C90.043 64.5668 90.0331 64.457 90.0251 64.3647Z" fill="#7B3D19"/>
<path d="M51.0307 45.1551C53.1292 46.304 59.1517 48.7749 61.4255 49.0853C61.7505 50.1322 61.8977 50.4913 62.5359 51.3742C61.9991 51.6199 60.968 51.2467 60.3896 51.0555C56.8511 49.8685 53.5414 48.0822 50.6041 45.7745C50.9187 45.3865 50.9091 45.6869 51.0307 45.1551Z" fill="#ECAC4A"/>
<path d="M61.4255 49.0853C64.8621 50.0137 67.0154 50.4568 70.5137 51.088C69.9182 51.7452 69.6011 52.1669 68.8147 52.6207C68.089 52.9627 67.2987 53.1433 66.4964 53.1499C64.9029 53.1507 63.6404 52.4757 62.5359 51.3742C61.8977 50.4913 61.7505 50.1322 61.4255 49.0853Z" fill="#8D4A1E"/>
<path d="M41.3117 87.5739C43.5339 83.8539 47.8262 86.7218 48.8034 89.6843C46.8607 89.1908 43.1208 88.3166 41.3117 87.5739Z" fill="#8D4A1E"/>
<path d="M31.0639 64.8848C31.6158 64.561 32.2658 64.1684 32.9351 64.4164C34.2537 64.9048 34.2445 66.5268 33.9053 67.6989C33.4383 69.3131 31.5798 70.0355 30.6997 68.3279C30.4139 67.7736 30.4289 66.7392 30.4169 66.0879C30.6255 65.5377 30.7447 65.374 31.0639 64.8848Z" fill="#9E5A2C"/>
<path d="M29.4364 82.5799C31.8733 81.9896 33.5255 82.4266 34.5314 84.9214C33.9389 84.7541 30.0683 82.9413 29.4364 82.5799Z" fill="#8D4A1E"/>
<path d="M68.9201 89.448C69.111 88.9985 68.9231 88.1664 69.5881 87.8276C70.1508 87.5408 70.7721 88.6984 70.9511 89.0951C70.287 89.2078 69.5752 89.3145 68.9201 89.448Z" fill="#ECAC4A"/>
<path d="M44.8415 58.9181C41.3007 58.869 40.0351 55.0992 41.7615 52.3512C43.2989 49.904 46.1026 49.4838 48.4873 51.082C49.5982 51.3826 50.816 51.8236 51.3462 52.8906C52.9889 56.1962 49.8903 59.3432 46.5616 59.1542C45.9443 59.1191 45.4409 58.945 44.8415 58.9181Z" fill="#934C1E"/>
<path d="M48.4873 51.082C49.5982 51.3826 50.816 51.8236 51.3462 52.8906C52.9889 56.1962 49.8903 59.3432 46.5616 59.1542C45.9443 59.1191 45.4409 58.945 44.8415 58.9181C48.959 58.495 51.7287 54.3506 48.4873 51.082Z" fill="#ECAC4A"/>
<path d="M71.135 66.8367C76.1831 66.5392 77.4247 75.3112 71.8378 76.7005C65.9765 76.9914 65.551 67.7305 71.135 66.8367Z" fill="#5C2308"/>
<path d="M69.8377 68.5887C71.9024 68.3972 72.4084 70.6594 70.6737 71.7656C68.773 71.9975 68.1069 69.7514 69.8377 68.5887Z" fill="#FEFEFE"/>
<path d="M72.2444 72.8651C72.5655 72.7311 72.9343 72.7813 73.2087 72.9965C73.4831 73.2117 73.6193 73.5584 73.5676 73.9034C73.5149 74.2485 73.2803 74.5383 72.9552 74.6616C72.4631 74.848 71.9124 74.6042 71.7185 74.1137C71.5247 73.6234 71.7583 73.0676 72.2444 72.8651Z" fill="#FEFEFE"/>
<path d="M47.0262 65.4281C52.6488 65.009 53.4455 73.6037 48.3659 75.1266C47.5728 75.205 46.5076 75.2088 45.8272 74.7701C42.281 72.4838 42.8976 66.6884 47.0262 65.4281Z" fill="#5C2308"/>
<path d="M46.1627 67.116C48.2668 67.0046 48.6885 69.3073 47.0294 70.3017C44.9997 70.6417 44.3795 68.2568 46.1627 67.116Z" fill="#FEFEFE"/>
<path d="M48.55 71.3561C49.0443 71.2037 49.5681 71.4826 49.7189 71.9787C49.8698 72.4747 49.5905 72.9992 49.0955 73.1494C48.6021 73.299 48.081 73.02 47.9307 72.5255C47.7803 72.0312 48.0573 71.508 48.55 71.3561Z" fill="#FEFEFE"/>
<path d="M55.4915 73.7072C56.7443 73.7358 57.6025 74.2957 58.8111 74.4323C60.5805 74.6323 64.1195 72.8388 63.876 76.1655C63.7825 77.4387 62.9813 78.3391 62.0448 79.1269C57.1343 82.5664 51.4021 75.6428 55.4915 73.7072Z" fill="#5C2308"/>
<path d="M59.3351 76.5051C60.763 76.4157 61.4106 76.6243 62.5647 77.4095C61.8022 78.4749 60.8068 78.8741 59.5959 79.1941C58.1148 79.2101 57.1916 79.0068 56.056 78.0584C57.0599 77.0452 57.9605 76.7178 59.3351 76.5051Z" fill="#F16243"/>
<path d="M78.6803 54.8802C79.8106 54.87 80.7918 55.0986 81.4966 56.0532C83.1498 58.2912 82.9152 61.9492 79.2986 61.5289C77.6713 61.0199 75.6383 59.746 75.3669 57.8994C75.2774 57.2978 75.4425 56.6861 75.8212 56.2113C76.4982 55.3491 77.6395 55.0037 78.6803 54.8802Z" fill="#9E5A2C"/>
<path d="M74.7595 77.0051C76.203 76.89 77.9466 77.6172 78.389 79.112C78.5719 79.7382 78.4904 80.4123 78.1624 80.9762C77.6255 81.9168 76.8004 82.2353 75.8262 82.4996C71.6122 82.9195 70.287 78.1292 74.7595 77.0051Z" fill="#ECAC4A"/>
<path d="M42.6517 74.9148C46.7649 74.8194 47.7011 79.6393 43.4932 80.456C41.9143 80.4526 40.0739 79.5463 39.7964 77.8456C39.6927 77.199 39.8679 76.5386 40.2784 76.0292C40.9216 75.2342 41.6982 75.0259 42.6517 74.9148Z" fill="#ECAC4A"/>
<path d="M67.1625 78.8567C68.6338 78.6736 68.3266 79.5955 68.9489 79.7774C69.8068 80.0284 72.2703 80.1711 70.4441 82.0201C69.1309 82.8345 67.2311 81.0572 66.746 79.8589C66.6247 79.5579 66.9706 79.0875 67.1625 78.8567Z" fill="#E8A447"/>
<path d="M33.3599 73.2977C35.3579 73.3216 35.174 74.7683 33.6365 75.5957C31.9738 75.6084 31.6097 73.9927 33.3599 73.2977Z" fill="#ECAC4A"/>
<path d="M55.486 82.5293C57.0052 82.6207 57.0315 84.2146 55.9386 84.9923C54.5838 84.5236 54.191 83.39 55.486 82.5293Z" fill="#ECAC4A"/>
<path d="M59.9718 7.77064C60.6428 7.33391 61.9484 6.07139 62.69 5.46619C65.561 3.12277 69.276 1.4615 73.0168 1.35195C78.1534 1.20152 83.9839 3.32165 87.7526 6.81983C90.6027 9.52172 90.5808 11.2338 92.1466 14.1916L92.3752 14.0418C92.5462 13.7214 92.403 12.971 92.3543 12.5752C93.6596 12.5943 94.7501 12.886 95.9699 13.2901C102.203 15.6161 105.76 22.4884 103.428 28.8381C103.271 29.265 103.094 29.6845 102.897 30.0951C100.645 34.6538 95.6826 36.7052 90.8055 35.8753C91.0978 34.4282 91.2598 33.032 91.6207 31.5708C92.6009 32.1922 93.9668 32.9689 95.1567 32.7841C95.119 32.4439 93.0313 31.7731 92.2152 31.0341L92.1227 30.9492C93.1138 30.7792 97.2215 30.164 97.1171 29.0007C96.6101 28.9708 95.4132 29.4553 94.8287 29.5628C88.865 30.6619 84.3259 28.0904 80.8246 23.4569L82.0633 22.9016C83.3536 22.3056 84.8846 21.6218 85.6262 20.3585C84.802 20.5485 83.3417 21.4288 82.4659 21.8297C76.4157 24.5974 67.0949 23.6616 62.9992 17.8633C62.7516 17.6003 61.9772 16.4024 61.7386 16.0471C61.6899 17.3499 63.0777 19.3439 63.9038 20.2703C60.6646 21.8458 57.7374 22.5771 54.1109 21.4495C53.4577 21.2464 52.3308 20.6579 51.8144 20.2169C51.2752 19.9341 50.6157 19.1395 49.9917 18.6946L49.8734 18.7174C49.9377 19.058 50.1074 19.2756 50.2906 19.5734C51.2473 20.7545 51.7766 21.3533 53.1344 22.1238C51.9961 22.1855 51.0637 22.1595 49.9203 22.1245C50.1833 22.4289 50.2264 22.4559 50.5888 22.6315C51.8043 22.8953 52.3496 22.9271 53.5581 22.7074C53.1861 24.0524 52.7975 25.3926 52.3925 26.7278C52.1539 26.6786 51.9171 26.6207 51.6827 26.5543C49.2285 25.8458 47.0013 23.5779 45.7793 21.3946C45.7129 21.2725 45.648 21.1495 45.5847 21.0257C44.3168 18.5377 44.1294 16.113 45.0032 13.449C46.058 10.3384 48.3037 7.77642 51.2449 6.32848C54.562 4.6699 57.661 4.82053 61.0865 5.98636C60.5316 6.64857 60.3212 6.9881 59.9718 7.77064Z" fill="#FEFEFE"/>
<path d="M80.8246 23.4569L82.0633 22.9016C84.2911 25.6046 89.6563 28.0873 93.1456 28.4171C94.0473 28.5023 97.3567 28.4126 97.65 28.7257C97.5376 28.9385 97.5327 28.9391 97.3686 29.1173C97.2772 30.3512 96.6718 30.3122 95.7791 31.112C97.2305 31.3997 97.3796 31.3032 98.7415 31.2307C99.7098 31.1791 102.34 29.9825 102.808 30.0777L102.897 30.0951C100.645 34.6538 95.6826 36.7052 90.8055 35.8753C91.0978 34.4282 91.2598 33.032 91.6207 31.5708C92.6009 32.1922 93.9668 32.9689 95.1567 32.7841C95.119 32.4439 93.0313 31.7731 92.2152 31.0341L92.1227 30.9492C93.1138 30.7792 97.2215 30.164 97.1171 29.0007C96.6101 28.9708 95.4132 29.4553 94.8287 29.5628C88.865 30.6619 84.3259 28.0904 80.8246 23.4569Z" fill="#DCDCE9"/>
<path d="M62.9992 17.8633C64.4168 18.5514 65.6107 19.7171 67.1675 20.4184C71.6638 22.4445 77.217 22.4326 81.9171 21.1414C83.4431 20.7016 83.96 20.223 85.6262 20.3585C84.802 20.5485 83.3417 21.4288 82.4659 21.8297C76.4157 24.5974 67.0949 23.6616 62.9992 17.8633Z" fill="#DCDCE9"/>
<path d="M45.7793 21.3946C46.3915 21.4789 49.6155 23.6357 50.6427 22.8987L50.5888 22.6315C51.8043 22.8953 52.3496 22.9271 53.5581 22.7074C53.1861 24.0524 52.7975 25.3926 52.3925 26.7278C52.1539 26.6786 51.9171 26.6207 51.6827 26.5543C49.2285 25.8458 47.0013 23.5779 45.7793 21.3946Z" fill="#DCDCE9"/>
<path d="M51.8144 20.2169C52.2638 20.2344 53.1428 20.4653 54.0761 20.7143C56.4935 21.3594 59.8145 20.8277 61.7486 19.1879C62.1054 18.8851 60.6131 16.1012 61.4712 15.6909C61.7317 15.8362 61.6342 15.7304 61.7386 16.0471C61.6899 17.3499 63.0777 19.3439 63.9038 20.2703C60.6646 21.8458 57.7374 22.5771 54.1109 21.4495C53.4577 21.2464 52.3308 20.6579 51.8144 20.2169Z" fill="#DCDCE9"/>
<path d="M87.7526 6.81983C90.6027 9.52172 90.5808 11.2338 92.1466 14.1916L92.1505 14.4602C91.054 14.4526 90.1017 14.5148 89.0052 14.5873C89.025 12.8058 89.377 11.0232 88.7904 9.28407C88.5071 8.44252 87.9703 7.67474 87.7526 6.81983Z" fill="#DCDCE9"/>
<path d="M92.3543 12.5752C93.6596 12.5943 94.7501 12.886 95.9699 13.2901C95.8148 13.8282 96.1558 14.4984 96.3666 15.052C94.7571 14.7147 93.8127 14.5028 92.1505 14.4602L92.1466 14.1916L92.3752 14.0418C92.5462 13.7214 92.403 12.971 92.3543 12.5752Z" fill="#DCDCE9"/>
<path d="M50.2906 19.5734C51.2473 20.7545 51.7766 21.3533 53.1344 22.1238C51.9961 22.1855 51.0637 22.1595 49.9203 22.1245C50.4045 21.9562 51.2263 22.046 51.7655 22.0739C50.6622 21.3434 50.3409 20.9339 50.2906 19.5734Z" fill="#DCDCE9"/>
<path d="M93.1924 89.1958C95.4043 89.7281 98.9344 89.3483 101.166 89.0014C100.393 91.7458 100.096 94.0974 100.924 96.9255C101.29 98.4796 101.635 99.2681 102.46 100.658C98.826 100.813 95.3436 100.804 91.741 100.156C91.2061 100.061 90.3074 99.9031 89.8074 100.092L89.7905 100.217C90.5898 100.949 92.4398 101.329 93.4916 101.456C93.589 105.545 93.8753 109.295 94.1229 113.341C92.0869 113.896 89.88 114.539 87.8391 115.013C78.7936 117.02 72.7057 117.624 63.5549 118.031L64.4436 97.6323L64.5003 97.2784C64.8313 97.0152 70.1071 96.2765 71.1479 96.0662C77.4277 94.7633 83.6012 92.9879 89.6156 90.7549C90.8214 90.2674 92.0143 89.7481 93.1924 89.1958Z" fill="#FEFEFE"/>
<path d="M100.924 96.9255C101.29 98.4796 101.635 99.2681 102.46 100.658C98.826 100.813 95.3436 100.804 91.741 100.156C91.2061 100.061 90.3074 99.9031 89.8074 100.092L89.7905 100.217C90.5898 100.949 92.4398 101.329 93.4916 101.456C93.589 105.545 93.8753 109.295 94.1229 113.341C92.0869 113.896 89.88 114.539 87.8391 115.013C87.7715 111.461 86.9603 102.587 88.3968 99.6738C88.703 99.0518 89.1314 98.5245 89.7458 98.1855C91.3493 97.3003 96.464 97.408 98.483 97.2694C99.2256 97.2186 100.153 97.2056 100.855 96.9514C100.878 96.9434 100.901 96.9344 100.924 96.9255Z" fill="#DCDCE9"/>
<path d="M64.4436 97.6323L64.5003 97.2784C64.8313 97.0152 70.1071 96.2765 71.1479 96.0662C77.4277 94.7633 83.6012 92.9879 89.6156 90.7549L89.7279 90.9772C89.4813 91.3211 89.4366 91.3331 89.0539 91.4756C87.9604 91.8824 86.9136 92.3718 85.823 92.7845C81.1974 94.536 77.0798 95.6595 72.2206 96.5038C70.6409 96.778 69.0533 97.0052 67.4597 97.1837C66.7838 97.2554 64.9128 97.3113 64.4436 97.6323Z" fill="#DCDCE9"/>
<path d="M64.5768 20.9727C68.4588 23.8599 72.8021 24.9833 77.6047 24.2764C78.392 24.1542 79.1714 23.9873 79.9398 23.7764C82.3098 27.3845 85.2633 29.7729 89.5798 30.6488C89.9446 30.7201 90.3124 30.7802 90.6812 30.829C89.6096 34.8517 89.0251 37.9089 88.1781 41.9316C87.184 41.9025 86.1332 41.8915 85.148 41.8055C85.483 40.4214 86.3737 35.8559 86.3022 34.5838C85.7196 36.0628 84.807 40.0846 84.4084 41.7997C82.9122 41.7169 81.258 41.6141 79.7738 41.4026C79.5362 41.3888 79.3295 41.3727 79.0929 41.3487C77.8035 41.095 75.7785 40.9052 74.4255 40.7348L73.2634 40.5957C73.8519 38.2893 74.4066 34.8792 74.8758 32.4972L74.6959 32.351C74.2396 32.5616 73.8588 35.0451 73.7316 35.6621C73.3618 37.2684 73.0049 38.8776 72.6599 40.4893C71.469 40.2793 69.6329 39.9996 68.5115 39.6968C67.8216 39.6551 66.3772 39.3059 65.6793 39.1457L66.401 36.1528L66.0252 35.7797C65.733 36.8694 65.4606 37.9645 65.2091 39.0643L62.4146 38.361L60.7873 37.9809C60.2832 37.8593 59.7423 37.8009 59.4973 37.3998L59.4469 37.1826L59.2965 37.3416L59.0362 37.2823L58.9391 37.4237C58.6373 37.4776 58.2164 37.269 57.9087 37.1523C57.0373 36.8787 55.7162 36.4964 54.9604 36.0773C54.7106 35.9306 54.7637 35.9791 54.4308 35.9757L53.5558 35.5686C52.9146 35.3126 52.2646 35.0336 51.6256 34.7681C52.5621 31.0552 53.5102 27.7414 54.2971 23.974C54.3977 23.1861 54.2686 22.6466 55.1486 22.6696C57.3353 24.0307 62.5608 22.3129 64.5768 20.9727Z" fill="#FEFEFE"/>
<path d="M64.5768 20.9727C68.4588 23.8599 72.8021 24.9833 77.6047 24.2764C78.392 24.1542 79.1714 23.9873 79.9398 23.7764C82.3098 27.3845 85.2633 29.7729 89.5798 30.6488C89.9446 30.7201 90.3124 30.7802 90.6812 30.829C89.6096 34.8517 89.0251 37.9089 88.1781 41.9316C87.184 41.9025 86.1332 41.8915 85.148 41.8055C85.483 40.4214 86.3737 35.8559 86.3022 34.5838C85.7196 36.0628 84.807 40.0846 84.4084 41.7997C82.9122 41.7169 81.258 41.6141 79.7738 41.4026C79.5362 41.3888 79.3295 41.3727 79.0929 41.3487C77.8035 41.095 75.7785 40.9052 74.4255 40.7348C75.8908 40.2735 77.5162 40.5291 78.4835 40.2056C79.1475 39.598 79.7112 36.4395 79.9637 35.3853C80.4677 33.2197 81.0513 31.0734 81.7123 28.9506C80.4488 27.2688 79.8504 27.4885 78.9129 25.1151C78.558 25.1452 78.1504 25.191 77.8045 25.2392C73.8449 25.7913 69.6378 25.1488 66.2251 22.9873C65.7678 22.6979 65.2101 22.4083 64.718 22.1418C61.5438 23.2314 58.2668 24.9581 54.8092 23.5789C54.5755 23.6268 54.4674 23.793 54.2971 23.974C54.3977 23.1861 54.2686 22.6466 55.1486 22.6696C57.3353 24.0307 62.5608 22.3129 64.5768 20.9727Z" fill="#DCDCE9"/>
<path d="M82.0991 29.4533C83.0544 30.1678 83.7244 30.661 84.7901 31.2368C84.31 34.2276 83.1667 37.5291 82.6011 40.6989C82.0961 40.712 80.3783 40.8025 80.0601 40.6284L80.0015 40.4178C80.2858 39.183 80.9866 36.3424 80.9051 35.1522C80.8355 34.931 81.9678 30.2468 82.0991 29.4533Z" fill="#FEFEFE"/>
<path d="M79.0929 41.3487C79.6724 40.7936 80.0234 36.377 80.9051 35.1522C80.9866 36.3424 80.2858 39.183 80.0015 40.4178L79.7738 41.4026C79.5362 41.3888 79.3295 41.3727 79.0929 41.3487Z" fill="#673014"/>
<path d="M54.2971 23.974C54.3977 23.1861 54.2686 22.6466 55.1486 22.6696C55.1372 23.1142 55.0793 23.1701 54.832 23.5439L54.8092 23.5789C54.5755 23.6268 54.4674 23.793 54.2971 23.974Z" fill="#DEDEDE"/>
<path d="M57.9087 37.1523C59.4495 35.5019 60.8032 27.9393 62.187 25.2373C62.0627 26.8811 61.2177 30.1501 60.8078 31.9088C60.6997 32.6792 59.7952 36.8453 59.4973 37.3998L59.4469 37.1826L59.2965 37.3416L59.0362 37.2823L58.9391 37.4237C58.6373 37.4776 58.2164 37.269 57.9087 37.1523Z" fill="#DCDCE9"/>
<path d="M59.0362 37.2823C59.4418 35.7028 59.8377 34.02 60.3522 32.4739C60.4803 32.0892 60.5177 32.0354 60.8078 31.9088C60.6997 32.6792 59.7952 36.8453 59.4973 37.3998L59.4469 37.1826L59.2965 37.3416L59.0362 37.2823Z" fill="#673014"/>
<path d="M68.4509 26.342C68.0721 28.9507 67.2768 31.5247 66.7818 34.1082C66.7519 34.2634 66.7828 34.2853 66.7142 34.4883L66.401 36.1528L66.0252 35.7797C65.733 36.8694 65.4606 37.9645 65.2091 39.0643L62.4146 38.361C63.1274 38.2864 64.383 38.5285 64.7329 37.7337C66.2022 34.4025 66.7678 29.5045 68.4509 26.342Z" fill="#DCDCE9"/>
<path d="M66.0252 35.7797C66.1525 35.3444 66.3195 34.6941 66.5869 34.3564L66.7142 34.4883L66.401 36.1528L66.0252 35.7797Z" fill="#673014"/>
<path d="M68.5115 39.6968C70.2681 39.2016 71.6768 40.8165 72.4432 38.3951C72.813 37.2285 73.166 36.0353 73.5099 34.8589L73.7316 35.6621C73.3618 37.2684 73.0049 38.8776 72.6599 40.4893C71.469 40.2793 69.6329 39.9996 68.5115 39.6968Z" fill="#DCDCE9"/>
<path d="M73.5099 34.8589C73.7276 33.9864 75.2605 28.2061 75.5787 27.7781C75.7218 28.0676 75.0041 31.95 74.8758 32.4972L74.6959 32.351C74.2396 32.5616 73.8588 35.0451 73.7316 35.6621L73.5099 34.8589Z" fill="#DCDCE9"/>
<path d="M55.4203 30.7943C55.5912 30.2087 57.1354 25.4501 57.3305 25.3571C57.3153 25.9144 56.4762 29.999 56.2787 30.6029L56.0134 30.5357C55.709 30.7563 55.6265 31.3673 55.5276 31.7697C55.5481 31.3132 55.5617 31.2241 55.4203 30.7943Z" fill="#DCDCE9"/>
<path d="M55.5276 31.7697C55.6265 31.3673 55.709 30.7563 56.0134 30.5357L56.2787 30.6029C55.8556 32.4172 55.444 34.2817 54.9604 36.0773C54.7106 35.9306 54.7637 35.9791 54.4308 35.9757C54.6384 35.4586 55.3408 32.4981 55.5276 31.7697Z" fill="#673014"/>
<path d="M55.4203 30.7943C55.5617 31.2241 55.5481 31.3132 55.5276 31.7697C55.3408 32.4981 54.6384 35.4586 54.4308 35.9757L53.5558 35.5686C54.7341 34.3193 55.0453 32.4549 55.4203 30.7943Z" fill="#DCDCE9"/>
<path d="M26.5267 87.0244C31.8182 90.3651 39.7345 93.4694 45.6698 95.3036C46.6708 95.6017 47.6792 95.8738 48.6938 96.121L48.75 96.2048C48.6596 96.3054 45.3997 97.399 44.8866 97.6343C43.9778 100.555 43.767 113.226 43.8812 116.559C38.1802 115.28 32.8075 114.083 27.4514 111.528C27.6032 107.226 28.1335 102.894 28.5212 98.6062C28.6194 97.5216 29.6021 91.4348 29.1252 91.0051C28.7557 91.2254 28.4393 92.627 28.3043 93.1005C26.9293 91.1776 26.1992 89.3723 26.5267 87.0244Z" fill="#FEFEFE"/>
<path d="M45.6698 95.3036C46.6708 95.6017 47.6792 95.8738 48.6938 96.121C47.997 96.1958 46.8096 96.2785 46.1763 95.9904C45.8124 95.825 45.823 95.6615 45.6698 95.3036Z" fill="#DEDEDE"/>
<path d="M63.865 97.2634C63.9475 97.5455 63.7179 99.7536 63.6781 100.249C63.2586 106.172 62.9882 112.105 62.8649 118.042C56.8417 118.113 52.209 117.853 46.2579 116.974L44.9048 116.715C44.8982 110.591 44.9683 104.275 45.6083 98.1835C47.5559 98.0519 49.8756 98.1407 51.8711 98.0798C55.8792 97.9891 59.8811 97.717 63.865 97.2634Z" fill="#FEFEFE"/>
<path d="M59.331 98.981C60.1959 98.679 61.1412 99.1355 61.4454 100.002C61.7486 100.868 61.2952 101.818 60.4323 102.124C59.5659 102.432 58.615 101.976 58.3103 101.106C58.0057 100.237 58.4631 99.284 59.331 98.981Z" fill="#5C2308"/>
<path d="M48.7738 98.674C49.6597 98.5225 50.5035 99.1096 50.6726 99.9948C50.8416 100.88 50.2737 101.738 49.3948 101.926C48.8099 102.05 48.2033 101.849 47.8091 101.397C47.4148 100.947 47.2946 100.318 47.4949 99.7526C47.695 99.1873 48.1842 98.7747 48.7738 98.674Z" fill="#5C2308"/>
<path d="M48.5673 104.657C49.1517 104.553 49.7464 104.774 50.1243 105.232C50.5021 105.692 50.6045 106.319 50.3924 106.874C50.1803 107.43 49.6864 107.829 49.0996 107.918C48.208 108.052 47.374 107.443 47.2283 106.551C47.0826 105.659 47.6794 104.815 48.5673 104.657Z" fill="#5C2308"/>
<path d="M58.8762 110.644C59.4416 110.465 60.0592 110.606 60.4915 111.013C60.9237 111.42 61.1034 112.029 60.9616 112.606C60.8197 113.183 60.3781 113.639 59.8068 113.797C58.9448 114.037 58.0507 113.539 57.7969 112.679C57.5431 111.819 58.0232 110.913 58.8762 110.644Z" fill="#5C2308"/>
<path d="M59.126 105.049C59.9876 104.761 60.9186 105.232 61.1988 106.099C61.4791 106.965 61.0008 107.894 60.1342 108.168C59.2783 108.438 58.3653 107.966 58.0885 107.109C57.8119 106.254 58.2748 105.334 59.126 105.049Z" fill="#5C2308"/>
<path d="M48.2796 110.238C49.1458 109.972 50.0614 110.468 50.3171 111.339C50.5729 112.21 50.0706 113.123 49.1994 113.371C48.3402 113.615 47.445 113.12 47.1928 112.261C46.9404 111.402 47.4254 110.5 48.2796 110.238Z" fill="#5C2308"/>
<path d="M51.4878 35.2135C59.9691 39.4042 72.6888 41.6782 81.9569 42.5595C84.0167 42.6919 85.999 42.8167 88.0677 42.7782C87.856 43.9049 87.3201 49.6489 86.7147 50.0988C86.0467 50.5955 84.7583 50.5631 83.956 50.612C78.6743 50.9337 73.4622 50.2991 68.2829 49.2976C67.9319 49.2298 67.584 49.1595 67.2371 49.0735C66.9647 49.0334 66.6923 48.9663 66.4219 48.9096C61.5597 47.8886 56.4905 46.4604 52.0741 44.1462C51.3834 43.7842 50.3569 43.3131 49.9496 42.624C49.4333 41.7502 51.166 36.4607 51.4878 35.2135Z" fill="#FEFEFE"/>
<path d="M81.9569 42.5595C84.0167 42.6919 85.999 42.8167 88.0677 42.7782C87.856 43.9049 87.3201 49.6489 86.7147 50.0988C86.0467 50.5955 84.7583 50.5631 83.956 50.612C78.6743 50.9337 73.4622 50.2991 68.2829 49.2976C67.9319 49.2298 67.584 49.1595 67.2371 49.0735C68.0164 48.9678 70.3695 49.122 71.2861 49.1433C74.8957 49.227 77.2746 49.0393 80.7103 48.0683C81.1437 46.676 81.6288 44.0797 81.9569 42.5595Z" fill="#DCDCE9"/>
<path d="M1.52894 97.0621C2.33725 97.2106 3.14378 97.3701 3.94812 97.5386C3.84662 98.2393 3.49818 99.7845 4.49468 99.9739C5.33371 99.6489 5.3691 98.4816 5.47458 97.711C8.10659 98.2005 10.7518 98.6162 13.4071 98.9581C13.2389 99.7576 12.9736 100.754 13.683 101.349C14.7775 101.497 14.8622 99.9988 14.9711 99.2342C15.5053 99.31 15.9925 99.3728 16.5294 99.4226L17.1865 99.3917C18.5561 98.8235 18.8202 98.672 20.3227 98.4547C20.3777 102.69 20.4541 107.054 20.8645 111.27L20.9063 111.458L20.7649 111.673C19.5933 112.057 18.5138 112.379 17.4723 113.065C17.2125 113.307 16.669 113.594 16.3285 113.684C10.8007 113.144 6.08546 112.646 0.670223 111.185C0.866461 106.467 1.40239 101.963 1.52894 97.0621Z" fill="#CFA47F"/>
<path d="M17.1865 99.3917C18.5561 98.8235 18.8202 98.672 20.3227 98.4547C20.3777 102.69 20.4541 107.054 20.8645 111.27L20.9063 111.458L20.7649 111.673C19.5933 112.057 18.5138 112.379 17.4723 113.065C17.2125 113.307 16.669 113.594 16.3285 113.684C16.4326 110.788 16.4562 107.891 16.574 104.983C16.6424 103.29 16.7453 101.424 16.7293 99.7227C16.7273 99.5203 16.7054 99.5652 16.5294 99.4226L17.1865 99.3917Z" fill="#9E5A2C"/>
<path d="M16.5294 99.4226L17.1865 99.3917C17.099 102.27 16.9914 105.147 16.8637 108.023C16.8019 109.726 16.9163 111.181 16.6163 112.872C17.1951 111.909 17.79 110.956 18.4006 110.013C18.3458 108.706 18.3446 100.443 18.6627 99.5064C18.8187 102.911 18.5861 106.903 18.8133 109.993C19.1786 110.241 20.6115 111.314 20.8645 111.27L20.9063 111.458L20.7649 111.673C19.5933 112.057 18.5138 112.379 17.4723 113.065C17.2125 113.307 16.669 113.594 16.3285 113.684C16.4326 110.788 16.4562 107.891 16.574 104.983C16.6424 103.29 16.7453 101.424 16.7293 99.7227C16.7273 99.5203 16.7054 99.5652 16.5294 99.4226Z" fill="#673014"/>
<path d="M18.6714 110.362C19.1747 110.762 20.184 111.332 20.7649 111.673C19.5933 112.057 18.5138 112.379 17.4723 113.065C17.1935 113.161 17.1224 113.243 16.8891 113.18C16.9539 112.935 18.3916 110.829 18.6714 110.362Z" fill="#9E5A2C"/>
<path d="M103.322 80.7487C102.58 79.6758 102.689 77.8155 103.926 77.0558C104.107 76.9443 104.321 77.0935 104.514 77.1745C104.876 77.3631 104.997 77.3475 105.168 77.6625C105.075 77.97 105.021 78.0803 104.879 78.3715C105.434 79.6233 106.748 79.9189 107.761 79.015C107.774 78.9672 107.851 78.7487 107.858 78.7059C107.924 78.2898 109.227 78.6707 109.728 78.7402C113.373 79.245 118.214 79.0593 121.637 77.6981L122.706 77.0681C123.394 77.8149 123.453 78.0074 123.693 79.0062C124.23 81.2139 121.375 81.7597 121.336 82.1393L121.536 82.169C121.542 82.4372 121.494 82.3968 121.604 82.5722C122.722 82.3282 122.787 81.1497 123.737 82.7712L123.669 82.9407C124.145 84.3337 124.155 85.1948 123.004 86.2764C122.355 87.3588 121.676 87.84 120.377 87.8693C119.899 87.8802 120.139 88.0429 119.51 87.8165C115.817 88.7911 111.947 88.6805 108.194 88.1573C108.145 88.1504 107.788 88.3555 107.737 88.3874L107.607 88.2111L107.504 88.0209L106.835 87.8149L106.708 87.8183C106.191 87.8301 106.078 87.8158 105.576 87.6894L105.386 87.7676C105.369 88.1137 105.482 88.1063 105.543 88.3565L105.371 88.3425C105.045 88.1158 104.353 87.7916 103.972 87.6002C104.356 87.2636 104.337 87.2921 104.443 86.887C103.865 86.4086 103.954 86.6351 103.677 85.9978C103.636 85.9436 103.594 85.8885 103.554 85.8324C103.098 85.1922 103.096 84.7504 103.211 84.0297L103.423 83.4186L103.776 82.8566C103.842 82.6739 103.88 82.6636 104.013 82.5034C104.932 82.4789 104.804 82.8704 105.418 82.1073C104.722 81.7882 103.788 81.3465 103.322 80.7487Z" fill="#673014"/>
<path d="M103.322 80.7487C102.58 79.6758 102.689 77.8155 103.926 77.0558C104.107 76.9443 104.321 77.0935 104.514 77.1745C104.876 77.3631 104.997 77.3475 105.168 77.6625C105.075 77.97 105.021 78.0803 104.879 78.3715C105.434 79.6233 106.748 79.9189 107.761 79.015C107.774 78.9672 107.851 78.7487 107.858 78.7059C107.924 78.2898 109.227 78.6707 109.728 78.7402C113.373 79.245 118.214 79.0593 121.637 77.6981L122.706 77.0681C123.394 77.8149 123.453 78.0074 123.693 79.0062C123.588 79.6784 123.465 80.3082 122.927 80.7647C119.186 83.9403 109.431 83.94 105.418 82.1073C104.722 81.7882 103.788 81.3465 103.322 80.7487Z" fill="#F8C560"/>
<path d="M122.706 77.0681C123.394 77.8149 123.453 78.0074 123.693 79.0062C123.588 79.6784 123.465 80.3082 122.927 80.7647C119.186 83.9403 109.431 83.94 105.418 82.1073C104.722 81.7882 103.788 81.3465 103.322 80.7487C103.613 80.5296 103.515 80.2218 103.508 79.8814C103.911 79.9144 104.338 80.2026 104.685 80.4224C106.056 81.2914 108.555 81.4417 109.725 82.3411C111.697 82.4617 112.801 82.4086 114.758 81.9481C115.029 81.8841 116.607 81.5268 116.833 81.5054L117.55 81.3067C117.495 80.5945 117.566 80.4574 117.906 79.8672C119.053 79.1544 119.807 79.2186 120.814 80.1514C121.112 79.9256 121.023 80.0688 121.104 79.7161C121.401 79.4273 121.635 79.3622 122.015 79.2007L122.259 79.0504L122.371 78.9955C122.628 78.5884 123.01 77.8301 122.701 77.3947L122.51 77.3932C122.16 77.6592 122.075 77.6834 121.637 77.6981L122.706 77.0681Z" fill="#ECAC4A"/>
<path d="M117.906 79.8672C119.053 79.1544 119.807 79.2186 120.814 80.1514C120.907 80.5008 120.908 80.5118 120.793 80.8447C120.189 81.5731 118.261 82.2901 117.55 81.3067C117.495 80.5945 117.566 80.4574 117.906 79.8672Z" fill="#673014"/>
<path d="M122.259 79.0504C122.671 79.3764 122.682 79.8586 122.301 80.2227C121.347 81.1341 119.796 81.7626 118.519 82.022C117.877 82.1325 117.586 81.391 116.99 81.5293C116.967 81.535 116.85 81.5088 116.833 81.5054L117.55 81.3067C118.261 82.2901 120.189 81.5731 120.793 80.8447C120.908 80.5118 120.907 80.5008 120.814 80.1514C121.112 79.9256 121.023 80.0688 121.104 79.7161C121.401 79.4273 121.635 79.3622 122.015 79.2007L122.259 79.0504Z" fill="#DC9640"/>
<path d="M122.015 79.2007C122.275 79.5694 122.24 79.4119 122.237 79.8201C122.021 80.1551 122.145 80.0494 121.773 80.1955C121.387 80.1235 121.324 80.0887 121.104 79.7161C121.401 79.4273 121.635 79.3622 122.015 79.2007Z" fill="#9E5A2C"/>
<path d="M121.637 77.6981C122.075 77.6834 122.16 77.6592 122.51 77.3932L122.701 77.3947C123.01 77.8301 122.628 78.5884 122.371 78.9955L122.259 79.0504L122.015 79.2007C121.635 79.3622 121.401 79.4273 121.104 79.7161C121.023 80.0688 121.112 79.9256 120.814 80.1514C119.807 79.2186 119.053 79.1544 117.906 79.8672C117.533 79.7157 114.881 80.1298 114.116 80.1156C112.2 80.0896 110.192 79.8191 108.374 79.2064C108.118 79.1199 108.058 79.067 107.761 79.015C107.774 78.9672 107.851 78.7487 107.858 78.7059C107.924 78.2898 109.227 78.6707 109.728 78.7402C113.373 79.245 118.214 79.0593 121.637 77.6981Z" fill="#ECAC4A"/>
<path d="M103.322 80.7487C102.58 79.6758 102.689 77.8155 103.926 77.0558C104.107 76.9443 104.321 77.0935 104.514 77.1745C104.876 77.3631 104.997 77.3475 105.168 77.6625C105.075 77.97 105.021 78.0803 104.879 78.3715C104.624 78.5862 104.078 78.8155 103.759 78.8658C103.672 79.157 103.521 79.5927 103.508 79.8814C103.515 80.2218 103.613 80.5296 103.322 80.7487Z" fill="#FDDC9D"/>
<path d="M104.514 77.1745C104.876 77.3631 104.997 77.3475 105.168 77.6625C105.075 77.97 105.021 78.0803 104.879 78.3715C104.624 78.5862 104.078 78.8155 103.759 78.8658C104.075 78.1983 104.479 77.8222 104.514 77.1745Z" fill="#F5C546"/>
<path d="M109.476 80.1639C109.562 80.1547 109.65 80.1469 109.736 80.1403C110.398 80.0932 110.993 80.2968 110.988 81.0541C110.817 81.4258 110.777 81.4313 110.424 81.6686C109.24 81.7389 108.226 81.0711 109.476 80.1639Z" fill="#673014"/>
<path d="M120.572 83.2465C121.357 82.9354 122.352 82.268 122.979 82.1807C123.305 82.3594 123.206 82.3085 123.426 82.6674L123.669 82.9407C124.145 84.3337 124.155 85.1948 123.004 86.2764C122.355 87.3588 121.676 87.84 120.377 87.8693C119.899 87.8802 120.139 88.0429 119.51 87.8165C115.817 88.7911 111.947 88.6805 108.194 88.1573C108.145 88.1504 107.788 88.3555 107.737 88.3874L107.607 88.2111C107.904 87.8792 108.079 87.8374 108.303 87.4312L108.36 87.1088C108.703 87.0416 109.654 87.2083 110.052 87.2426C111.839 87.3964 113.541 87.6903 115.314 87.3079C115.192 87.1214 115.182 87.1314 114.996 87.0016C114.572 86.9941 114.431 87.0149 114.056 86.8292C114.958 86.6713 115.415 86.434 115.482 85.4725C115.703 85.2228 117.187 85.0916 117.636 84.9183C117.878 84.8243 118.514 84.6253 118.755 84.5752C119.716 85.0891 120.309 84.9368 121.12 84.3153C121.239 83.7163 120.988 83.6302 120.572 83.2465Z" fill="#ECAC4A"/>
<path d="M120.572 83.2465C121.357 82.9354 122.352 82.268 122.979 82.1807C123.305 82.3594 123.206 82.3085 123.426 82.6674C123.098 83.9414 122.15 84.6937 121.07 85.3828C120.698 85.6197 118.655 86.5732 118.296 86.5034C118.169 86.3339 118.195 86.4272 118.167 86.2344C118.254 86.5237 118.114 86.8327 117.839 86.9572C117.564 87.0817 117.241 86.9833 117.081 86.7271C116.635 87.1523 115.786 87.0593 115.314 87.3079C115.192 87.1214 115.182 87.1314 114.996 87.0016C114.572 86.9941 114.431 87.0149 114.056 86.8292C114.958 86.6713 115.415 86.434 115.482 85.4725C115.703 85.2228 117.187 85.0916 117.636 84.9183C117.878 84.8243 118.514 84.6253 118.755 84.5752C119.716 85.0891 120.309 84.9368 121.12 84.3153C121.239 83.7163 120.988 83.6302 120.572 83.2465Z" fill="#F2B757"/>
<path d="M117.081 86.7271C116.957 86.528 116.96 86.2748 117.088 86.0782C117.215 85.8817 117.446 85.7774 117.677 85.8109C117.909 85.8444 118.1 86.0097 118.167 86.2344C118.254 86.5237 118.114 86.8327 117.839 86.9572C117.564 87.0817 117.241 86.9833 117.081 86.7271Z" fill="#673014"/>
<path d="M119.51 87.8165C120.892 87.4821 121.82 87.0381 123.004 86.2764C122.355 87.3588 121.676 87.84 120.377 87.8693C119.899 87.8802 120.139 88.0429 119.51 87.8165Z" fill="#7B3D19"/>
<path d="M103.776 82.8566C103.842 82.6739 103.88 82.6636 104.013 82.5034C104.298 82.6555 104.893 82.9306 105.073 83.1455C104.981 83.4942 104.949 83.5293 104.758 83.8428C104.783 84.397 105.156 84.6014 105.627 84.857C106.092 84.8049 106.233 84.7894 106.691 84.6451C106.98 84.6286 107.719 84.7357 107.944 84.8554C108.677 85.2454 112.1 85.2728 112.482 85.5152C112.556 86.61 113.009 86.7848 114.056 86.8292C114.431 87.0149 114.572 86.9941 114.996 87.0016C115.182 87.1314 115.192 87.1214 115.314 87.3079C113.541 87.6903 111.839 87.3964 110.052 87.2426C109.654 87.2083 108.703 87.0416 108.36 87.1088L108.303 87.4312C108.079 87.8374 107.904 87.8792 107.607 88.2111L107.504 88.0209L106.835 87.8149L106.708 87.8183C106.191 87.8301 106.078 87.8158 105.576 87.6894L105.386 87.7676C105.369 88.1137 105.482 88.1063 105.543 88.3565L105.371 88.3425C105.045 88.1158 104.353 87.7916 103.972 87.6002C104.356 87.2636 104.337 87.2921 104.443 86.887C103.865 86.4086 103.954 86.6351 103.677 85.9978C103.636 85.9436 103.594 85.8885 103.554 85.8324C103.098 85.1922 103.096 84.7504 103.211 84.0297L103.423 83.4186L103.776 82.8566Z" fill="#F8C560"/>
<path d="M105.667 86.2726C106.484 86.7555 106.867 86.5161 107.404 87.0571C106.995 87.6153 106.965 87.4971 107.504 88.0209L106.835 87.8149L106.708 87.8183C106.191 87.8301 106.078 87.8158 105.576 87.6894L105.386 87.7676C105.369 88.1137 105.482 88.1063 105.543 88.3565L105.371 88.3425C105.045 88.1158 104.353 87.7916 103.972 87.6002C104.356 87.2636 104.337 87.2921 104.443 86.887L104.477 86.8615L104.975 87.0968C105.344 86.7768 105.43 86.7162 105.667 86.2726Z" fill="#ECAC4A"/>
<path d="M104.477 86.8615L104.975 87.0968C105.526 87.2939 106.332 87.5541 106.835 87.8149L106.708 87.8183C106.191 87.8301 106.078 87.8158 105.576 87.6894L105.386 87.7676C105.369 88.1137 105.482 88.1063 105.543 88.3565L105.371 88.3425C105.045 88.1158 104.353 87.7916 103.972 87.6002C104.356 87.2636 104.337 87.2921 104.443 86.887L104.477 86.8615Z" fill="#673014"/>
<path d="M103.776 82.8566C103.842 82.6739 103.88 82.6636 104.013 82.5034C104.298 82.6555 104.893 82.9306 105.073 83.1455C104.981 83.4942 104.949 83.5293 104.758 83.8428C104.783 84.397 105.156 84.6014 105.627 84.857C105.345 84.9784 105.094 84.7004 104.651 84.6454L104.644 84.7628L104.734 84.8159C104.869 84.8962 104.99 84.9735 105.121 85.0587C104.494 85.0757 104.615 85.0487 104.281 84.5048L104.065 84.5364C104.016 84.8298 103.909 85.1457 103.684 85.338L103.507 85.2054C103.279 84.7399 103.275 84.5317 103.211 84.0297L103.423 83.4186L103.776 82.8566Z" fill="#F5C546"/>
<path d="M103.776 82.8566L104.029 83.0184C104.084 83.4971 103.99 83.9473 104.02 84.474C103.859 84.4563 103.784 84.4285 103.624 84.3868C103.387 84.0375 103.456 83.8934 103.423 83.4186L103.776 82.8566Z" fill="#FDDC9D"/>
<path d="M103.816 85.9184C104.076 85.6225 104.12 85.5235 104.474 85.399C104.811 85.4143 104.844 85.4585 105.148 85.6388L105.212 85.6196C105.377 85.8277 105.56 86.0324 105.667 86.2726C105.43 86.7162 105.344 86.7768 104.975 87.0968L104.477 86.8615L104.443 86.887C103.865 86.4086 103.954 86.6351 103.677 85.9978L103.816 85.9184Z" fill="#673014"/>
<path d="M105.148 85.6388L105.212 85.6196C105.377 85.8277 105.56 86.0324 105.667 86.2726C105.43 86.7162 105.344 86.7768 104.975 87.0968L104.477 86.8615C104.545 86.6041 104.476 86.7011 104.67 86.5475C104.993 86.2734 105.078 86.0364 105.148 85.6388Z" fill="#7B3D19"/>
<path d="M103.816 85.9184C104.104 86.1607 104.332 86.3852 104.67 86.5475C104.476 86.7011 104.545 86.6041 104.477 86.8615L104.443 86.887C103.865 86.4086 103.954 86.6351 103.677 85.9978L103.816 85.9184Z" fill="#673014"/>
<path d="M107.404 87.0571C107.426 86.8148 107.414 86.6834 107.552 86.4831C107.835 86.5987 107.969 86.993 108.123 87.3128L108.303 87.4312C108.079 87.8374 107.904 87.8792 107.607 88.2111L107.504 88.0209C106.965 87.4971 106.995 87.6153 107.404 87.0571Z" fill="#FEFEFE"/>
<path d="M118.839 83.6442C118.767 83.9818 118.67 84.2503 118.755 84.5752C118.514 84.6253 117.878 84.8243 117.636 84.9183C117.187 85.0916 115.703 85.2228 115.482 85.4725C115.415 86.434 114.958 86.6713 114.056 86.8292C113.009 86.7848 112.556 86.61 112.482 85.5152C112.1 85.2728 108.677 85.2454 107.944 84.8554C107.719 84.7357 106.98 84.6286 106.691 84.6451C106.969 84.3904 107.05 84.1525 107.215 83.8135C107.672 83.7544 109.365 84.1704 110.013 84.2404C112.967 84.533 115.95 84.3316 118.839 83.6442Z" fill="#ECAC4A"/>
<path d="M112.482 85.5152C113.407 84.3336 114.525 84.4237 115.482 85.4725C115.415 86.434 114.958 86.6713 114.056 86.8292C113.009 86.7848 112.556 86.61 112.482 85.5152Z" fill="#673014"/>
<path d="M118.839 83.6442L118.987 83.612C119.034 84.1809 118.826 84.0368 119.021 84.4735C119.708 84.5983 119.902 83.714 121.12 84.3153C120.309 84.9368 119.716 85.0891 118.755 84.5752C118.67 84.2503 118.767 83.9818 118.839 83.6442Z" fill="#7B3D19"/>
<path d="M90.5232 86.0654C92.4378 85.4788 94.2113 84.8285 96.0335 83.9908C96.5217 83.7664 97.1231 83.4808 97.6221 83.3098C97.3587 84.4328 97.0505 85.4385 96.7135 86.543C95.6657 87.1926 94.4161 87.6678 93.2868 88.171C90.5321 89.3992 87.7168 90.4469 84.8537 91.3899C84.3219 91.5654 82.6876 92.1425 82.2223 92.2004C80.7958 92.6978 78.9447 93.1603 77.4685 93.5611C68.092 96.0662 58.4399 97.389 48.7363 97.4997C52.5858 96.4021 56.384 95.1311 60.1196 93.6917C62.0736 92.938 64.1354 91.9422 66.0998 91.3241C66.8086 91.1018 68.599 90.8496 69.4281 90.7121C71.2095 90.422 72.986 90.1089 74.7595 89.773C80.5472 88.6605 84.8637 87.6244 90.5232 86.0654Z" fill="#FEFEFE"/>
<path d="M90.5232 86.0654C92.4378 85.4788 94.2113 84.8285 96.0335 83.9908C96.5217 83.7664 97.1231 83.4808 97.6221 83.3098C97.3587 84.4328 97.0505 85.4385 96.7135 86.543C95.6657 87.1926 94.4161 87.6678 93.2868 88.171C90.5321 89.3992 87.7168 90.4469 84.8537 91.3899C84.3219 91.5654 82.6876 92.1425 82.2223 92.2004C81.6895 92.0997 82.0315 92.2791 81.6139 92.1944C82.1527 91.1417 91.7499 88.3096 90.5232 86.0654Z" fill="#DCDCE9"/>
<path d="M110.323 68.9382C112.212 68.6312 113.98 68.6681 115.872 68.8428C116.499 68.9457 117.674 69.0354 118.04 69.5234C118.044 69.8146 117.941 69.9378 117.799 70.1923C117.95 70.798 119.261 71.0851 119.554 70.8725C120.885 69.9064 121.772 70.6254 123.05 72.076C123.5 72.7328 123.842 73.4343 123.666 74.2478C123.122 76.7693 119.465 77.45 117.397 77.7047C114.214 78.0968 111.1 78.1122 107.97 77.448C107.781 77.4072 107.578 77.3232 107.396 77.3625C107.302 77.6923 107.192 78.301 107.118 78.6559C106.898 77.2258 106.841 77.0588 105.488 76.5561C103.697 76.2476 102.754 74.7621 103.209 72.9758C104.839 70.1535 107.342 69.5537 110.323 68.9382Z" fill="#F8C560"/>
<path d="M123.05 72.076C123.5 72.7328 123.842 73.4343 123.666 74.2478C123.122 76.7693 119.465 77.45 117.397 77.7047C114.214 78.0968 111.1 78.1122 107.97 77.448C107.781 77.4072 107.578 77.3232 107.396 77.3625C107.454 76.9536 107.761 76.804 108.085 76.616C109.17 76.5348 110.635 76.7511 111.765 76.7755C114.353 76.8315 117.142 76.4374 119.609 75.676C119.918 74.4594 120.698 74.2614 121.829 74.4136C121.868 74.3734 122.991 72.2364 123.05 72.076Z" fill="#ECAC4A"/>
<path d="M119.609 75.676C119.918 74.4594 120.698 74.2614 121.829 74.4136C122.104 74.6863 122.209 74.7408 122.297 75.099C122.204 76.2099 120.473 76.6633 119.814 76.1024L119.609 75.676Z" fill="#673014"/>
<path d="M103.209 72.9758C104.839 70.1535 107.342 69.5537 110.323 68.9382C110.772 69.0875 110.667 68.9802 110.895 69.3109L110.349 69.5765L110.204 69.6331C108.179 70.4082 105.256 70.6221 103.98 72.9652C103.757 73.3752 103.687 74.0224 103.385 74.3034C103.198 73.8837 103.221 73.4365 103.209 72.9758Z" fill="#FDDC9D"/>
<path d="M110.895 69.3109C111.623 69.1407 112.168 69.0779 112.871 69.4263C113.123 69.8186 113.101 69.6705 113.118 70.0918C112.603 71.3019 109.697 71.1954 110.349 69.5765L110.895 69.3109Z" fill="#7B3D19"/>
<path d="M106.506 75.8839C106.632 75.4584 106.748 75.0376 106.921 74.6279C107.323 74.8612 107.166 75.8137 108.571 76.3258C108.459 76.5125 108.297 76.5375 108.085 76.616C107.761 76.804 107.454 76.9536 107.396 77.3625C107.302 77.6923 107.192 78.301 107.118 78.6559C106.898 77.2258 106.841 77.0588 105.488 76.5561C105.699 76.2801 106.145 76.1238 106.506 75.8839Z" fill="#FEFEFE"/>
<path d="M105.488 76.5561C106.344 76.5707 106.558 76.6106 107.14 77.3386L107.396 77.3625C107.302 77.6923 107.192 78.301 107.118 78.6559C106.898 77.2258 106.841 77.0588 105.488 76.5561Z" fill="#FDDC9D"/>
<path d="M105.488 76.5561C103.697 76.2476 102.754 74.7621 103.209 72.9758C103.221 73.4365 103.198 73.8837 103.385 74.3034C103.847 74.2722 104.843 75.1424 105.397 75.3046C105.659 75.381 106.311 75.7112 106.506 75.8839C106.145 76.1238 105.699 76.2801 105.488 76.5561Z" fill="#ECAC4A"/>
<path d="M110.323 68.9382C112.212 68.6312 113.98 68.6681 115.872 68.8428L115.969 69.0571C115.601 69.2421 113.701 69.2612 112.871 69.4263C112.168 69.0779 111.623 69.1407 110.895 69.3109C110.667 68.9802 110.772 69.0875 110.323 68.9382Z" fill="#F5C546"/>
<path d="M111.905 73.9002C113.635 73.8403 114.873 75.3424 112.706 76.0961C110.576 76.1314 109.615 74.6647 111.905 73.9002Z" fill="#673014"/>
<path d="M106.773 71.3103C108.489 71.3562 109.015 73.0092 106.995 73.4291C105.058 73.327 104.657 71.7468 106.773 71.3103Z" fill="#673014"/>
<path d="M116.547 71.9084C116.648 71.9023 116.75 71.8977 116.851 71.8945C117.49 71.8758 118.122 72.0696 118.062 72.8233C117.858 73.1705 117.758 73.2003 117.396 73.3909C116.731 73.425 115.914 73.4131 115.923 72.5527C116.097 72.1792 116.191 72.1536 116.547 71.9084Z" fill="#7B3D19"/>
<path d="M24.957 81.4791C25.3477 81.6101 25.7512 81.8523 26.1058 82.0718C28.8101 83.745 31.6041 85.0195 34.5172 86.2759C37.971 87.7359 41.5004 89.0094 45.0902 90.09C46.0637 90.3931 48.5166 90.7808 49.2203 91.2115C50.8263 92.1964 52.6191 93.4694 54.2501 94.4822L53.4034 94.7753C50.0702 95.9366 50.4431 95.8778 46.9732 94.8072C40.5968 92.8403 34.3325 90.425 28.5223 87.1105C27.5811 86.5736 26.3277 85.8747 25.5749 85.1077C25.3239 84.0047 25.0038 82.5974 24.957 81.4791Z" fill="#FEFEFE"/>
<path d="M40.0335 117.113C43.003 117.903 47.4422 118.617 50.5042 118.92C49.3181 120.379 48.2818 121.667 47.2292 123.229C46.1919 124.768 45.1063 127.021 43.9679 128.408C41.7958 128.038 37.0842 126.119 35.6775 124.48C35.6271 124.403 35.5628 124.304 35.5219 124.224C35.4214 124.03 35.4078 123.803 35.4844 123.599C35.7932 122.791 37.813 122.89 38.2886 122.589C38.9332 122.181 39.3205 119.305 39.647 118.306L40.0335 117.113Z" fill="#F8C560"/>
<path d="M40.0335 117.113C43.003 117.903 47.4422 118.617 50.5042 118.92C49.3181 120.379 48.2818 121.667 47.2292 123.229C46.1919 124.768 45.1063 127.021 43.9679 128.408C41.7958 128.038 37.0842 126.119 35.6775 124.48C37.299 124.829 42.3733 126.532 43.6519 125.456C49.1229 120.847 44.0075 119.319 39.647 118.306L40.0335 117.113Z" fill="#DC9640"/>
<path d="M70.5335 119.063C73.6471 118.797 77.9874 118.411 81.0383 117.816C81.9251 120.631 82.5434 121.411 84.309 123.683C84.0565 125.217 83.4133 127.423 82.5007 128.718C82.285 129.25 81.8485 129.867 81.264 129.988C79.918 129.622 80.2719 127.745 79.5492 126.868C79.2917 126.556 78.4984 126.2 78.0988 126.072C74.9643 125.056 73.9105 124.507 72.144 121.763C71.5545 120.92 71.0425 119.962 70.5335 119.063Z" fill="#F8C560"/>
<path d="M70.5335 119.063C73.6471 118.797 77.9874 118.411 81.0383 117.816C81.9251 120.631 82.5434 121.411 84.309 123.683C84.0565 125.217 83.4133 127.423 82.5007 128.718C82.452 127.767 84.6201 124.718 83.7642 124.032C82.788 124.116 83.1031 127.138 82.5136 127.745C82.9301 125.715 83.5008 124.31 81.7283 122.658C81.1904 122.153 80.5304 121.797 79.8136 121.626C78.3324 121.268 73.9632 121.707 72.144 121.763C71.5545 120.92 71.0425 119.962 70.5335 119.063Z" fill="#DC9640"/>
<path d="M120.992 88.4711C121.745 88.1158 122.316 87.8242 123.044 87.4204C126.096 91.0091 121.541 92.62 118.706 93.1573C114.484 93.9578 107.829 94.3127 104.225 91.677C103.845 91.378 103.643 91.1517 103.395 90.74C103.302 90.5406 103.233 90.2824 103.168 90.0691C103.188 88.9626 103.307 88.5698 103.952 87.6982L103.972 87.6002C104.353 87.7916 105.045 88.1158 105.371 88.3425L105.543 88.3565C106.096 88.828 106.617 88.8968 107.306 89.0034C111.456 89.6414 116.445 89.9584 120.501 88.5997L120.992 88.4711Z" fill="#F8C560"/>
<path d="M120.992 88.4711C121.745 88.1158 122.316 87.8242 123.044 87.4204C126.096 91.0091 121.541 92.62 118.706 93.1573C114.484 93.9578 107.829 94.3127 104.225 91.677C103.845 91.378 103.643 91.1517 103.395 90.74C103.601 90.6233 103.686 90.5825 103.833 90.3861C104.296 90.3562 104.456 90.5755 104.917 90.8706C105.264 91.056 105.772 91.379 106.137 91.4069L106.19 91.3869C106.5 92.1884 108.033 92.6051 108.791 92.4875L109.175 92.2392C110.867 93.3238 121.012 92.0299 121.409 89.2706C121.544 89.149 121.9 89.0862 122.102 89.0333C122.322 88.5389 122.274 89.0652 122.605 88.3465L122.528 88.2072C121.933 88.2032 121.709 88.493 120.992 88.4711Z" fill="#ECAC4A"/>
<path d="M121.333 90.412C121.953 90.3861 122.444 90.4708 122.433 91.1995C122.274 91.5524 122.077 91.6032 121.727 91.7877C121.295 91.9412 121.173 91.9302 120.8 91.683C120.477 91.0869 120.867 90.718 121.333 90.412Z" fill="#5C2308"/>
<path d="M105.543 88.3565C106.096 88.828 106.617 88.8968 107.306 89.0034C111.456 89.6414 116.445 89.9584 120.501 88.5997L120.367 88.9157C120.511 89.128 120.474 89.0622 120.784 89.1589C120.364 90.2565 117.71 89.9046 117.088 90.5366L117.034 90.9493C116.147 91.8854 114.692 92.0987 114.104 90.741C113.749 90.5506 110.646 90.6044 109.995 90.4579C108.663 90.1568 107.072 89.6773 105.85 89.0971C105.432 88.7652 105.392 88.8549 105.371 88.3425L105.543 88.3565Z" fill="#ECAC4A"/>
<path d="M114.104 90.741C114.569 89.4351 116.827 89.3743 117.034 90.9493C116.147 91.8854 114.692 92.0987 114.104 90.741Z" fill="#673014"/>
<path d="M106.19 91.3869C106.707 90.5256 107.735 90.0332 108.633 90.6383C108.942 90.8486 109.153 91.1756 109.218 91.5444C109.266 91.8166 109.24 91.9761 109.175 92.2392L108.791 92.4875C108.033 92.6051 106.5 92.1884 106.19 91.3869Z" fill="#673014"/>
<path d="M103.952 87.6982L104.235 87.9268C103.902 88.5997 104.06 89.7989 103.531 90.1807C103.393 90.1428 103.301 90.1229 103.168 90.0691C103.188 88.9626 103.307 88.5698 103.952 87.6982Z" fill="#FDDC9D"/>
<path d="M103.972 87.6002C104.353 87.7916 105.045 88.1158 105.371 88.3425C105.392 88.8549 105.432 88.7652 105.85 89.0971C104.411 88.6236 105.001 88.3824 104.235 87.9268L103.952 87.6982L103.972 87.6002Z" fill="#ECAC4A"/>
<path d="M121.409 89.2706C121.28 89.455 121.288 89.446 121.106 89.5786L120.96 89.4949C120.852 89.0403 121.136 88.7054 121.578 88.6366C121.894 88.7333 121.898 88.7542 122.102 89.0333C121.9 89.0862 121.544 89.149 121.409 89.2706Z" fill="#F5C546"/>
<path d="M22.0472 88.3505C23.1247 88.6486 24.0112 88.8429 25.1094 89.0632C25.6796 90.7539 26.2994 91.7159 27.3594 93.1055L28.0892 93.908C27.6133 95.9466 27.5223 97.4977 27.1633 99.4146C24.9543 99.5592 23.3235 99.3359 21.1157 99.1734C21.0634 96.9255 21.5268 97.0033 22.1519 94.9497C22.6803 92.641 22.7313 90.6253 22.0472 88.3505Z" fill="#DCDCE9"/>
<path d="M22.0472 88.3505C23.1247 88.6486 24.0112 88.8429 25.1094 89.0632C25.6796 90.7539 26.2994 91.7159 27.3594 93.1055C25.8528 95.2129 24.831 95.6076 22.2782 95.1012L22.1519 94.9497C22.6803 92.641 22.7313 90.6253 22.0472 88.3505Z" fill="#FEFEFE"/>
<path d="M18.0975 87.3456C18.9749 87.5451 19.9818 87.7486 20.8327 88.0102C21.6065 90.0382 21.6104 92.4346 21.0909 94.524C20.8716 95.178 20.4678 96.5557 20.0615 97.0272C19.9927 97.0341 19.9239 97.0401 19.8552 97.0471C19.1684 96.4201 18.9721 95.8848 18.2046 95.2677L18.0863 95.174C18.1235 94.232 18.2275 93.7355 18.4382 92.8144C18.6178 90.731 18.7435 89.3703 18.0975 87.3456Z" fill="#FEFEFE"/>
<path d="M18.4382 92.8144C18.4424 93.1414 18.385 93.4096 18.5474 93.6299C18.9922 93.7854 20.7377 94.4443 21.0909 94.524C20.8716 95.178 20.4678 96.5557 20.0615 97.0272C19.9927 97.0341 19.9239 97.0401 19.8552 97.0471C19.1684 96.4201 18.9721 95.8848 18.2046 95.2677L18.0863 95.174C18.1235 94.232 18.2275 93.7355 18.4382 92.8144Z" fill="#DCDCE9"/>
<path d="M106.17 93.7943C107.311 94.0495 108.26 94.3685 109.461 94.54C112.07 94.9118 114.707 94.6726 117.322 94.5151C116.787 95.0304 116.464 95.3185 115.855 95.7322C113.905 96.8756 111.619 96.4629 109.476 96.6703C108.936 96.7231 107.579 97.1129 106.972 97.2614C106.495 96.2187 106.32 94.9248 106.17 93.7943Z" fill="#8D4A1E"/>
<path d="M9.81199 92.5373C8.65723 91.0958 8.70028 89.0513 10.1901 87.852C10.8638 87.3093 11.3812 87.1668 12.2079 86.9344C11.3277 88.6216 11.006 90.2734 13.1669 91.1567C13.7509 91.5554 14.0082 93.4783 14.0305 94.1672C12.3134 94.1113 11.1802 94.0256 9.96101 92.7048C9.91041 92.65 9.8607 92.5941 9.81199 92.5373Z" fill="#8D4A1E"/>
<path d="M13.1669 91.1567C13.7509 91.5554 14.0082 93.4783 14.0305 94.1672C12.3134 94.1113 11.1802 94.0256 9.96101 92.7048C9.91041 92.65 9.8607 92.5941 9.81199 92.5373C10.7081 93.0517 12.5954 92.7945 13.268 91.9342C13.3604 91.5026 13.3311 91.6351 13.1669 91.1567Z" fill="#7B3D19"/>
<path d="M10.7511 94.9617C11.5365 94.528 11.8334 94.7394 12.6118 95.0783C13.0183 94.9966 13.2554 94.9308 13.6763 94.9627C13.9553 95.171 13.8615 95.0354 13.9431 95.3973C13.8506 95.6395 13.8038 95.7731 13.739 96.0243L13.7125 96.4759L13.5997 96.8896C13.5343 97.2694 13.4657 97.6482 13.3935 98.026C13.1888 98.1766 12.9494 98.2453 12.6944 98.1546L12.0928 98.0619C11.0289 97.8815 9.60462 97.8625 8.57541 97.5007C8.39826 97.4379 8.44101 97.388 8.36884 97.1468L8.26137 97.08C8.17419 97.2525 8.16276 97.2435 8.00937 97.3661L7.84126 97.2814C7.54531 95.6535 9.27527 94.7523 10.7511 94.9617Z" fill="#ECAC4A"/>
<path d="M8.36884 97.1468C9.84132 93.7824 13.0283 96.6972 12.0928 98.0619C11.0289 97.8815 9.60462 97.8625 8.57541 97.5007C8.39826 97.4379 8.44101 97.388 8.36884 97.1468Z" fill="#F5C546"/>
<path d="M10.7511 94.9617C11.5365 94.528 11.8334 94.7394 12.6118 95.0783C13.0183 94.9966 13.2554 94.9308 13.6763 94.9627C13.9553 95.171 13.8615 95.0354 13.9431 95.3973C13.8506 95.6395 13.8038 95.7731 13.739 96.0243L13.7125 96.4759L13.142 96.455L12.7095 96.448C12.2873 95.8907 12.2799 95.8419 11.7336 95.3714C11.4533 95.2159 11.0578 95.0793 10.7511 94.9617Z" fill="#7B3D19"/>
<path d="M13.142 96.455C12.9597 96.115 12.8899 96.0313 12.953 95.7293C13.3199 95.7233 13.3863 95.8309 13.739 96.0243L13.7125 96.4759L13.142 96.455Z" fill="#F5C546"/>
<path d="M8.26137 97.08C8.28841 96.5716 8.51646 96.0961 8.89492 95.7582C9.8446 94.9068 11.3063 95.2886 12.0231 96.2426C12.4875 96.8597 12.4505 97.4877 12.6944 98.1546L12.0928 98.0619C13.0283 96.6972 9.84132 93.7824 8.36884 97.1468L8.26137 97.08Z" fill="#8D4A1E"/>
<path d="M13.142 96.455L13.7125 96.4759L13.5997 96.8896C13.5343 97.2694 13.4657 97.6482 13.3935 98.026C13.1888 98.1766 12.9494 98.2453 12.6944 98.1546C12.8701 98.0749 12.8087 98.1187 12.9275 97.9542C12.9834 97.4658 12.8206 96.9354 12.7095 96.448L13.142 96.455Z" fill="#673014"/>
<path d="M13.3935 98.026C13.2325 97.706 13.1812 97.2903 13.3392 96.9604L13.5997 96.8896C13.5343 97.2694 13.4657 97.6482 13.3935 98.026Z" fill="#DC9640"/>
<path d="M102.324 88.8968C102.277 91.5105 102.733 91.9641 104.922 93.264C105.072 94.4124 105.2 95.1381 105.488 96.2426C105.124 96.5098 102.618 96.7112 102.067 96.7221C101.355 94.1482 101.445 91.4178 102.324 88.8968Z" fill="#FEFEFE"/>
<path d="M105.488 96.2426C105.96 97.8107 106.174 98.6062 107.125 99.9878C105.967 100.243 105.02 100.424 103.848 100.6C102.904 99.2213 102.523 98.34 102.067 96.7221C102.618 96.7112 105.124 96.5098 105.488 96.2426Z" fill="#DCDCE9"/>
<path d="M15.0815 88.6914C14.5312 89.3982 13.4005 90.8058 12.6566 89.3493C12.3591 88.7672 12.6324 87.4011 13.1405 86.9554C14.0968 86.2421 16.3934 87.7136 17.2427 88.1889C17.3931 88.8409 17.5225 89.3832 17.6066 90.0521L17.5084 90.2575L17.3501 90.3103C16.833 89.9116 16.9336 90.0003 16.3388 89.8498L16.1946 89.8159C15.8319 89.449 15.45 89.0473 15.0815 88.6914Z" fill="#8D4A1E"/>
<path d="M15.315 96.0552C16.9132 93.9359 19.7019 96.9365 19.0267 97.9493L18.9122 97.9403L18.5978 98.036C17.8795 98.2733 17.6159 98.4118 16.9436 98.7767C16.2598 98.7358 15.7337 98.6511 15.0573 98.5434C15.1163 98.1317 15.1772 97.72 15.2403 97.3083C15.3375 96.6882 15.3353 96.5018 15.8259 96.146L15.315 96.0552Z" fill="#F8C560"/>
<path d="M15.315 96.0552C16.9132 93.9359 19.7019 96.9365 19.0267 97.9493L18.9122 97.9403L18.5978 98.036C18.1704 96.2586 17.5353 96.1529 15.8259 96.146L15.315 96.0552Z" fill="#ECAC4A"/>
<path d="M15.315 96.0552C17.8211 95.3714 17.8438 96.1131 18.9122 97.9403L18.5978 98.036C18.1704 96.2586 17.5353 96.1529 15.8259 96.146L15.315 96.0552Z" fill="#8D4A1E"/>
<path d="M16.4553 97.8755C16.2176 97.9074 16.246 97.8865 15.9992 97.8227L15.9643 97.6263C16.1583 97.1548 16.632 96.6962 17.1683 96.7251L17.2407 96.8697L17.1441 97.1149C17.2003 97.3192 17.2496 97.4279 17.3551 97.6123L17.3163 97.7788C17.0991 97.7938 16.6569 97.8207 16.4553 97.8755Z" fill="#DC9640"/>
<path d="M17.1441 97.1149C17.2003 97.3192 17.2496 97.4279 17.3551 97.6123L17.3163 97.7788C17.0991 97.7938 16.6569 97.8207 16.4553 97.8755L16.4725 97.4658C16.7466 97.1468 16.6638 97.2465 17.1441 97.1149Z" fill="#ECAC4A"/>
<path d="M6.12671 94.8141L6.07174 94.7314C6.0945 94.3247 6.16041 94.1592 6.51293 93.9578C7.08404 93.909 7.53537 94.1193 7.65844 94.7115C8.00966 95.2209 8.08094 95.2348 7.87377 95.819L7.81253 95.9147C7.59353 96.2586 7.65188 96.3633 7.33307 96.6334L7.27163 97.1348L7.13882 97.2555C4.92065 97.2226 5.88395 96.141 6.12671 94.8141Z" fill="#F5C546"/>
<path d="M6.12671 94.8141L6.07174 94.7314C6.0945 94.3247 6.16041 94.1592 6.51293 93.9578C7.08404 93.909 7.53537 94.1193 7.65844 94.7115C8.00966 95.2209 8.08094 95.2348 7.87377 95.819L7.81253 95.9147C7.59353 96.2586 7.65188 96.3633 7.33307 96.6334C7.58876 95.491 7.31488 95.3843 6.47505 94.6168C6.30754 94.6965 6.26231 94.6975 6.12671 94.8141Z" fill="#8D4A1E"/>
<path d="M6.05981 93.8163C6.68322 94.0276 7.12451 94.3356 7.65844 94.7115C8.00966 95.2209 8.08094 95.2348 7.87377 95.819C7.34331 94.9268 6.81733 94.5241 6.05981 93.8163Z" fill="#ECAC4A"/>
<path d="M6.47505 94.6168C7.31488 95.3843 7.58876 95.491 7.33307 96.6334L7.27163 97.1348C7.22988 96.9434 7.19867 96.8517 7.13355 96.6663C6.11081 96.3702 6.90769 95.3016 6.47505 94.6168Z" fill="#F8C560"/>
<path d="M14.0462 90.9912C15.8302 91.7737 14.4548 99.1654 14.1203 100.774C13.9619 100.819 14.0365 100.802 13.8449 100.751C13.7166 100.409 14.3117 96.9983 14.3817 96.4011C14.62 94.3695 14.4773 92.961 14.0462 90.9912Z" fill="#B29183"/>
<path d="M7.87228 90.424C7.87705 90.4299 7.88182 90.4349 7.88659 90.4399C7.90309 90.4878 7.9197 90.5356 7.9363 90.5825C7.44004 91.2723 6.52714 92.5423 6.20465 93.2869C5.70252 94.4483 5.36801 95.501 5.10924 96.6972C4.92583 97.5445 4.81717 98.6511 4.5421 99.3818C4.33721 99.1565 4.32787 99.1674 4.37012 98.7617C4.65622 96.0124 5.82152 92.2582 7.87228 90.424Z" fill="#B29183"/>
<path d="M3.26387 96.8218L3.00609 96.5696C2.79484 95.3813 3.80586 94.1612 4.91191 93.9648L4.85634 94.0027L4.97643 94.0465C4.85554 94.2549 4.64827 94.3685 4.44696 94.5121L4.59667 94.7134C4.71169 95.0624 4.24307 96.3593 4.12099 96.8677L3.26387 96.8218Z" fill="#ECAC4A"/>
<path d="M3.26387 96.8218L3.00609 96.5696C2.79484 95.3813 3.80586 94.1612 4.91191 93.9648L4.85634 94.0027L4.97643 94.0465C4.85554 94.2549 4.64827 94.3685 4.44696 94.5121C3.10759 95.5 3.68338 95.8927 3.26387 96.8218Z" fill="#DC9640"/>
<path d="M3.26387 96.8218C3.68338 95.8927 3.10759 95.5 4.44696 94.5121L4.59667 94.7134C3.95368 95.1421 3.40742 95.8509 3.70754 96.6514C3.8993 96.7809 3.90517 96.7889 4.12099 96.8677L3.26387 96.8218Z" fill="#7B3D19"/>
<path d="M16.3388 89.8498C16.9336 90.0003 16.833 89.9116 17.3501 90.3103L17.5084 90.2575L17.6066 90.0521C17.621 90.3352 17.6415 90.6333 17.6464 90.9144C17.6814 91.3311 17.7726 91.7468 17.5944 92.1007C17.2386 92.3758 17.3539 92.2911 16.8561 92.3638C16.6695 92.0419 16.4853 91.7189 16.3035 91.3939L16.2971 91.1317L16.4292 91.0171C16.68 90.7559 16.6067 90.7529 16.6845 90.3173L16.3388 89.8498Z" fill="#673014"/>
<path d="M16.3388 89.8498C16.9336 90.0003 16.833 89.9116 17.3501 90.3103L17.5084 90.2575L17.6066 90.0521C17.621 90.3352 17.6415 90.6333 17.6464 90.9144C17.605 91.1975 17.5983 91.4926 17.4225 91.7039C17.1036 91.5554 16.8428 90.7011 16.6845 90.3173L16.3388 89.8498Z" fill="#7B3D19"/>
<path d="M17.4548 95.5827C16.9226 94.4014 16.6928 92.7018 15.8852 91.5564C15.6575 91.2334 15.3291 90.8048 15.2728 90.4289L15.3907 90.3811C15.7823 90.6552 16.0102 91.0111 16.3035 91.3939C16.4853 91.7189 16.6695 92.0419 16.8561 92.3638C17.3067 93.3797 17.4447 94.4812 17.4548 95.5827Z" fill="#B29183"/>
<path d="M7.91125 91.5913C8.46656 91.9711 8.21286 93.0198 7.85349 93.4434C7.6837 93.6428 7.49342 93.594 7.24738 93.6159C7.12192 93.5202 7.05949 93.4554 6.94378 93.3458C6.97012 92.7317 7.53517 92.0947 7.91125 91.5913Z" fill="#FEFEFE"/>
<path d="M15.3159 91.7009C16.0159 92.2253 16.431 93.0736 15.8409 93.8402C15.704 93.8801 15.7783 93.8741 15.6071 93.7894C15.3949 93.2112 15.3488 92.326 15.3159 91.7009Z" fill="#8D4A1E"/>
<path d="M108.222 98.1187C108.296 98.1387 108.326 98.1905 108.397 98.2593C108.435 98.7408 108.372 99.0049 108.118 99.4156L107.934 99.4545C107.754 99.1545 107.455 98.7617 107.479 98.4387C107.727 98.1776 107.834 98.2184 108.222 98.1187Z" fill="#DCDCE9"/>
<path d="M8.08731 94.1124C8.51259 94.1014 8.74541 94.1143 9.11621 94.3027L9.14624 94.4712L8.86948 94.6815C8.45235 94.8101 8.1224 94.851 7.94634 94.3835L8.08731 94.1124Z" fill="#F5C546"/>
<path d="M95.7502 88.024L95.9779 88.1313L96.0475 88.3405L95.9182 88.1258L95.9968 88.4372C95.6478 88.6854 95.5216 88.6476 95.0812 88.6496L94.9549 88.5937C95.0703 88.3555 95.4977 88.167 95.7502 88.024Z" fill="#DEDEDE"/>
</svg>
