<svg width="48" height="35" viewBox="0 0 48 35" fill="none" xmlns="http://www.w3.org/2000/svg">
<path d="M39.2528 3.90924C38.9685 4.70488 38.779 5.78468 38.7316 6.46665C37.9736 6.46665 37.3576 7.20546 37.3576 8.11476C37.3576 9.02406 37.9736 9.76287 38.7316 9.76287C38.8264 9.76287 38.9211 9.76287 39.0159 9.70604C38.9211 12.1498 37.2629 14.0821 35.1782 14.0821C33.0935 14.0821 31.4352 12.1498 31.3405 9.70604C31.9564 9.59238 32.4776 8.9104 32.4776 8.11476C32.4776 7.20546 31.8616 6.46665 31.1036 6.46665H30.9614C30.7719 5.33002 30.2507 3.51142 29.6348 3.51142C29.0189 3.51142 28.4977 5.27319 28.3082 6.46665C28.2134 6.46665 28.1187 6.40982 28.0239 6.40982C27.2658 6.40982 26.6499 7.14863 26.6499 8.05793C26.6499 8.85357 27.1237 9.53555 27.787 9.70604C27.6923 12.1498 26.034 14.0821 23.9493 14.0821C21.8646 14.0821 20.2063 12.093 20.1116 9.64921C20.7275 9.47871 21.1539 8.85357 21.1539 8.05793C21.1539 7.14863 20.538 6.40982 19.7799 6.40982H19.6378C19.4483 5.27319 18.9271 3.45459 18.3112 3.45459C17.6952 3.45459 17.1741 5.21636 16.9845 6.40982C16.8898 6.40982 16.795 6.35299 16.7003 6.35299C15.9422 6.35299 15.3263 7.0918 15.3263 8.0011C15.3263 8.85357 15.8474 9.53555 16.5581 9.64921C16.4634 12.093 14.7577 14.0252 12.7204 14.0252C10.6357 14.0252 8.97745 12.093 8.88269 9.64921C8.97745 9.64921 9.07221 9.70604 9.16697 9.70604C9.92503 9.70604 10.541 8.96723 10.541 8.05793C10.541 7.14863 9.92503 6.40982 9.16697 6.40982H9.07221C8.97745 5.67101 8.83531 4.70488 8.6458 3.90924C8.50366 3.2841 7.79297 3.39776 7.79297 4.07974V30.6768H40.2004V4.1934C40.1056 3.51142 39.4897 3.34093 39.2528 3.90924Z" fill="#FED16A"/>
<path d="M40.9167 20.7327H7.08333C6.74306 20.7327 6.5 20.4356 6.5 20.0197V17.9997C6.5 17.5838 6.74306 17.2867 7.08333 17.2867H40.8681C41.2083 17.2867 41.4514 17.5838 41.4514 17.9997V20.0197C41.5 20.4356 41.2569 20.7327 40.9167 20.7327ZM41.5 30.833V28.8129C41.5 28.397 41.2569 28.1 40.9167 28.1H7.08333C6.74306 28.1 6.5 28.397 6.5 28.8129V30.833C6.5 31.2489 6.74306 31.546 7.08333 31.546H40.8681C41.2569 31.546 41.5 31.2489 41.5 30.833Z" fill="#EF9F27"/>
<path d="M37.6128 25.729C37.6128 26.5916 36.9419 27.2626 36.0792 27.2626C35.2165 27.2626 34.5456 26.5916 34.5456 25.729C34.5456 24.8663 35.2165 24.1953 36.0792 24.1953C36.9419 24.1953 37.6128 24.8663 37.6128 25.729ZM24.0017 24.1953C23.1391 24.1953 22.4681 24.8663 22.4681 25.729C22.4681 26.5916 23.1391 27.2626 24.0017 27.2626C24.8644 27.2626 25.5354 26.5916 25.5354 25.729C25.5354 24.8663 24.8644 24.1953 24.0017 24.1953ZM11.9243 24.1953C11.0616 24.1953 10.3906 24.8663 10.3906 25.729C10.3906 26.5916 11.0616 27.2626 11.9243 27.2626C12.7869 27.2626 13.4579 26.5437 13.4579 25.729C13.4579 24.9142 12.7869 24.1953 11.9243 24.1953Z" fill="#E33232"/>
</svg>
