<svg width="48" height="40" viewBox="0 0 48 40" fill="none" xmlns="http://www.w3.org/2000/svg">
<path opacity="0.3" d="M10.667 31.6668H37.3337V8.3335H10.667V31.6668ZM26.3503 17.9168L28.7003 20.2835L33.9837 15.0002L36.3503 17.3668L28.7003 25.0002L24.0003 20.2668L26.3503 17.9168ZM12.3337 11.6668H20.667V15.0002H12.3337V11.6668ZM12.3337 18.3335H20.667V21.6668H12.3337V18.3335ZM12.3337 25.0002H20.667V28.3335H12.3337V25.0002Z" fill="#F9C356"/>
<path d="M37.333 5H10.6663C8.83301 5 7.33301 6.5 7.33301 8.33333V31.6667C7.33301 33.5 8.83301 35 10.6663 35H37.333C39.1663 35 40.6663 33.5 40.6663 31.6667V8.33333C40.6663 6.5 39.1663 5 37.333 5ZM37.333 31.6667H10.6663V8.33333H37.333V31.6667Z" fill="#F9C356"/>
<path d="M36.3497 17.3665L33.983 14.9998L28.6997 20.2832L26.3497 17.9165L23.9997 20.2665L28.6997 24.9998L36.3497 17.3665ZM12.333 11.6665H20.6663V14.9998H12.333V11.6665ZM12.333 18.3332H20.6663V21.6665H12.333V18.3332ZM12.333 24.9998H20.6663V28.3332H12.333V24.9998Z" fill="#F9C356"/>
</svg>
