<svg width="48" height="35" viewBox="0 0 48 35" fill="none" xmlns="http://www.w3.org/2000/svg">
<path d="M18.0064 8.22633C17.7346 7.27449 17.0981 6.46839 16.2353 5.98321C15.3724 5.49803 14.353 5.37298 13.3984 5.63524C13.3383 5.64948 13.2788 5.66627 13.2202 5.68555C10.4934 6.59446 10.2769 10.2946 12.7225 11.6465L18.1584 14.6543C18.3783 14.7758 18.6375 14.8051 18.8789 14.7355C19.1203 14.666 19.3242 14.5034 19.4458 14.2835C19.5673 14.0636 19.5965 13.8045 19.527 13.5631C19.4575 13.3216 19.2949 13.1177 19.075 12.9962L13.6391 9.98836C12.565 9.39445 12.7389 7.84899 13.8141 7.48586L13.8195 7.48367L13.8961 7.46399C14.8794 7.19055 15.902 7.7593 16.1853 8.74914C16.2196 8.86879 16.2772 8.9805 16.3547 9.0779C16.4322 9.17531 16.5281 9.25649 16.637 9.31682C16.7459 9.37715 16.8656 9.41544 16.9893 9.42951C17.1129 9.44358 17.2382 9.43316 17.3578 9.39883C17.4775 9.3645 17.5892 9.30694 17.6866 9.22944C17.784 9.15194 17.8652 9.05601 17.9255 8.94713C17.9858 8.83826 18.0241 8.71856 18.0382 8.59489C18.0523 8.47121 18.0407 8.34598 18.0064 8.22633ZM31.0658 8.74914C31.1327 8.51234 31.2459 8.29117 31.399 8.09846C31.552 7.90575 31.7417 7.74532 31.9572 7.62649C32.1727 7.50766 32.4096 7.43279 32.6543 7.40621C32.8989 7.37962 33.1464 7.40187 33.3823 7.47164L33.4316 7.48367L33.4392 7.48586C34.5122 7.84899 34.6861 9.39445 33.612 9.98836L28.1761 12.9962C28.0672 13.0565 27.9713 13.1377 27.8938 13.2351C27.8163 13.3325 27.7587 13.4442 27.7244 13.5638C27.6901 13.6835 27.6797 13.8087 27.6937 13.9324C27.7078 14.056 27.7461 14.1757 27.8064 14.2846C27.8667 14.3935 27.9479 14.4894 28.0453 14.5669C28.1427 14.6444 28.2544 14.702 28.3741 14.7363C28.4937 14.7706 28.6189 14.7811 28.7426 14.767C28.8663 14.7529 28.986 14.7146 29.0948 14.6543L34.5308 11.6465C36.9753 10.2946 36.7588 6.59446 34.032 5.68555C33.973 5.66624 33.9131 5.64945 33.8527 5.63524C32.898 5.37302 31.8784 5.49822 31.0155 5.98362C30.1527 6.46902 29.5163 7.27538 29.2447 8.22742C29.2104 8.34707 29.2001 8.47229 29.2142 8.59594C29.2284 8.71959 29.2667 8.83924 29.3271 8.94807C29.449 9.16785 29.6533 9.33019 29.8949 9.39938C30.1366 9.46856 30.3958 9.43892 30.6156 9.31698C30.8354 9.19504 30.9977 8.99078 31.0669 8.74914M25.4527 19.1518V14.5362H21.7995V19.1518C21.7995 19.9612 21.4386 20.7377 20.8152 21.2518L18.7152 23.0018H28.537L26.437 21.2518C26.1297 20.9948 25.8823 20.6736 25.7122 20.3109C25.5421 19.9481 25.4536 19.5525 25.4527 19.1518Z" fill="#D3883E"/>
<path d="M23.6264 18.0906C21.6045 18.0906 19.6655 17.2874 18.2358 15.8578C16.8061 14.4281 16.0029 12.489 16.0029 10.4672V2.96406C16.0029 2.5375 16.3529 2.1875 16.7795 2.1875H30.4842C30.9107 2.1875 31.2607 2.5375 31.2607 2.96406V10.4672C31.2607 14.6781 27.8482 18.0906 23.6264 18.0906Z" fill="#FFB02E"/>
<path d="M31.429 23.0015H15.4657C14.6235 23.0015 13.9093 23.5593 13.7474 24.3358L11.9821 32.0905C11.9023 32.4515 12.1899 32.7905 12.5826 32.7905H34.3241C34.7168 32.7905 35.0045 32.4515 34.9246 32.0905L33.1593 24.3358C32.9865 23.5593 32.2712 23.0015 31.429 23.0015Z" fill="#6D4534"/>
<path d="M26.6061 26.2061H20.2996C20.2095 26.2078 20.1207 26.2272 20.0382 26.2634C19.9557 26.2995 19.8811 26.3516 19.8188 26.4167C19.7565 26.4817 19.7077 26.5585 19.6751 26.6424C19.6426 26.7264 19.6269 26.816 19.6291 26.9061V28.8857C19.6291 29.2686 19.9222 29.5857 20.2996 29.5857H26.6061C26.9725 29.5857 27.2766 29.2795 27.2766 28.8857V26.9061C27.2766 26.5232 26.9835 26.2061 26.6061 26.2061Z" fill="#FFB02E"/>
</svg>
