<svg width="48" height="40" viewBox="0 0 48 40" fill="none" xmlns="http://www.w3.org/2000/svg">
<g clip-path="url(#clip0_1473_60640)">
<path d="M37.333 34.1667H10.6663C8.83301 34.1667 7.33301 32.6667 7.33301 30.8333V13.4167C7.33301 12.3333 7.83301 11.3333 8.74967 10.6667L23.9997 0L39.2497 10.6667C40.1663 11.25 40.6663 12.3333 40.6663 13.4167V30.8333C40.6663 32.6667 39.1663 34.1667 37.333 34.1667Z" fill="#EF9F27"/>
<path d="M14 9.1665H34V27.4998H14V9.1665Z" fill="#FEFAF4"/>
<path d="M37.333 34.1665H10.6663C8.83301 34.1665 7.33301 32.6665 7.33301 30.8332V14.1665L23.9997 24.9998L40.6663 14.1665V30.8332C40.6663 32.6665 39.1663 34.1665 37.333 34.1665Z" fill="#F9C356"/>
</g>
<defs>
<clipPath id="clip0_1473_60640">
<rect width="40" height="40" fill="white" transform="translate(4)"/>
</clipPath>
</defs>
</svg>
