<svg width="80" height="96" viewBox="0 0 80 96" fill="none" xmlns="http://www.w3.org/2000/svg">
<rect x="0.5" y="0.5" width="79" height="95" rx="9.5" fill="#FEF4D2"/>
<rect x="0.5" y="0.5" width="79" height="95" rx="9.5" stroke="#FFD95E"/>
<path d="M11.8391 12.2809H12.9863V18.0165H11.8391V12.2809ZM7.66463 19.2067H13.1933V20.1296H7.66463V19.2067ZM7.66463 17.4472H8.81175V19.5863H7.66463V17.4472ZM8.63925 12.7897C9.0475 12.7897 9.4155 12.876 9.74325 13.0485C10.071 13.221 10.3298 13.4596 10.5195 13.7644C10.715 14.0691 10.8128 14.4199 10.8128 14.8166C10.8128 15.2019 10.715 15.5497 10.5195 15.8602C10.3298 16.165 10.071 16.4065 9.74325 16.5847C9.4155 16.7572 9.0475 16.8435 8.63925 16.8435C8.231 16.8435 7.863 16.7572 7.53525 16.5847C7.2075 16.4065 6.94588 16.165 6.75038 15.8602C6.56063 15.5497 6.46575 15.2019 6.46575 14.8166C6.46575 14.4199 6.56063 14.0691 6.75038 13.7644C6.94588 13.4596 7.2075 13.221 7.53525 13.0485C7.863 12.876 8.231 12.7897 8.63925 12.7897ZM8.63925 13.773C8.44375 13.773 8.2655 13.8161 8.1045 13.9024C7.9435 13.9829 7.817 14.1007 7.725 14.256C7.633 14.4055 7.587 14.5924 7.587 14.8166C7.587 15.0294 7.633 15.2134 7.725 15.3686C7.817 15.5181 7.9435 15.636 8.1045 15.7222C8.2655 15.8027 8.44375 15.843 8.63925 15.843C8.83475 15.843 9.013 15.8027 9.174 15.7222C9.335 15.636 9.4615 15.5181 9.5535 15.3686C9.6455 15.2134 9.6915 15.0294 9.6915 14.8166C9.6915 14.5924 9.6455 14.4055 9.5535 14.256C9.4615 14.1007 9.335 13.9829 9.174 13.9024C9.013 13.8161 8.83475 13.773 8.63925 13.773ZM19.7045 12.2722H20.8516V20.259H19.7045V12.2722ZM17.3498 13.1002H18.4797C18.4797 13.7097 18.4193 14.2934 18.2986 14.8511C18.1836 15.4031 17.9881 15.9235 17.7121 16.4122C17.4418 16.901 17.0681 17.3552 16.5908 17.775C16.1193 18.189 15.53 18.5685 14.8227 18.9135L14.219 18.0079C14.9895 17.6341 15.6018 17.223 16.0561 16.7745C16.5161 16.3202 16.8467 15.8085 17.048 15.2392C17.2492 14.6642 17.3498 14.0202 17.3498 13.3072V13.1002ZM14.6502 13.1002H17.8846V14.0145H14.6502V13.1002ZM25.0685 12.4792H26.0518V12.738C26.0518 13.0312 26.0058 13.3159 25.9138 13.5919C25.8218 13.8621 25.6867 14.118 25.5084 14.3595C25.3302 14.5952 25.1088 14.808 24.8443 14.9977C24.5855 15.1875 24.2865 15.3485 23.9473 15.4807C23.6138 15.613 23.2429 15.7079 22.8347 15.7654L22.4034 14.8684C22.7599 14.8224 23.079 14.7476 23.3608 14.6441C23.6483 14.5349 23.8984 14.4112 24.1112 14.2732C24.3239 14.1295 24.4993 13.9742 24.6373 13.8075C24.781 13.635 24.8874 13.4596 24.9564 13.2814C25.0312 13.0974 25.0685 12.9162 25.0685 12.738V12.4792ZM25.2583 12.4792H26.2415V12.738C26.2415 12.9105 26.276 13.0887 26.345 13.2727C26.4198 13.451 26.529 13.6235 26.6728 13.7902C26.8165 13.957 26.9948 14.1122 27.2075 14.256C27.4203 14.394 27.6675 14.5147 27.9493 14.6182C28.2368 14.7217 28.5559 14.7994 28.9067 14.8511L28.4754 15.7395C28.0672 15.682 27.6934 15.5871 27.3542 15.4549C27.0207 15.3226 26.7217 15.1645 26.4572 14.9805C26.1984 14.7907 25.9799 14.578 25.8017 14.3422C25.6234 14.1007 25.4883 13.8477 25.3963 13.5832C25.3043 13.313 25.2583 13.0312 25.2583 12.738V12.4792ZM22.0412 16.2052H29.2775V17.1109H22.0412V16.2052ZM25.1807 16.7745H26.3278V18.4564H25.1807V16.7745ZM22.8778 19.2067H28.4754V20.1296H22.8778V19.2067ZM22.8778 17.7836H24.0249V19.5H22.8778V17.7836Z" fill="#1C1000"/>
<circle cx="69.0404" cy="16.9999" r="4.52812" stroke="#F9C356" stroke-width="0.8625"/>
<circle cx="69.04" cy="17" r="3.23438" fill="#F9C356"/>
<path d="M11.4855 32.3098H12.6326V36.6827H11.4855V32.3098ZM12.3221 34.0521H13.6935V34.9922H12.3221V34.0521ZM6.67275 32.6893H7.81988V35.9668H6.67275V32.6893ZM6.67275 35.3631H7.33688C7.88313 35.3631 8.4495 35.343 9.036 35.3027C9.62825 35.2567 10.2378 35.1705 10.8645 35.044L10.9939 35.9668C10.3499 36.0933 9.72025 36.1825 9.105 36.2342C8.4955 36.2802 7.90613 36.3032 7.33688 36.3032H6.67275V35.3631ZM9.45 37.528H10.4246V37.7263C10.4246 38.0368 10.3614 38.3301 10.2349 38.6061C10.1084 38.8821 9.91863 39.1322 9.66563 39.3565C9.41838 39.5807 9.11075 39.7647 8.74275 39.9085C8.37475 40.058 7.95213 40.1672 7.47488 40.2362L7.05225 39.3651C7.46625 39.3191 7.82275 39.2415 8.12175 39.1322C8.4265 39.023 8.67663 38.8936 8.87213 38.7441C9.06763 38.5888 9.21138 38.425 9.30338 38.2525C9.40113 38.0742 9.45 37.8988 9.45 37.7263V37.528ZM9.70875 37.528H10.6834V37.7263C10.6834 37.8931 10.7294 38.0627 10.8214 38.2352C10.9191 38.4077 11.0658 38.5716 11.2613 38.7268C11.4625 38.8821 11.7126 39.0172 12.0116 39.1322C12.3106 39.2472 12.6643 39.3306 13.0725 39.3823L12.6585 40.2448C12.1813 40.1816 11.7586 40.0723 11.3906 39.9171C11.0226 39.7618 10.7121 39.5721 10.4591 39.3478C10.2119 39.1178 10.025 38.8677 9.8985 38.5975C9.772 38.3215 9.70875 38.0311 9.70875 37.7263V37.528ZM7.38863 37.0191H12.7361V37.9161H7.38863V37.0191ZM14.1931 36.3895H21.4208V37.2951H14.1931V36.3895ZM15.0728 39.2443H20.6101V40.1672H15.0728V39.2443ZM15.0728 37.8298H16.22V39.5376H15.0728V37.8298ZM17.807 32.5513C18.3877 32.5513 18.8937 32.6175 19.325 32.7497C19.762 32.882 20.1012 33.0717 20.3427 33.319C20.5842 33.5662 20.705 33.8566 20.705 34.1901C20.705 34.5293 20.5842 34.8226 20.3427 35.0698C20.1012 35.3171 19.762 35.5068 19.325 35.6391C18.8937 35.7713 18.3877 35.8375 17.807 35.8375C17.232 35.8375 16.726 35.7713 16.289 35.6391C15.8577 35.5068 15.5213 35.3171 15.2798 35.0698C15.0383 34.8226 14.9176 34.5293 14.9176 34.1901C14.9176 33.8566 15.0383 33.5662 15.2798 33.319C15.5213 33.0717 15.8577 32.882 16.289 32.7497C16.726 32.6175 17.232 32.5513 17.807 32.5513ZM17.807 33.457C17.4562 33.457 17.1515 33.4857 16.8927 33.5432C16.634 33.6007 16.4385 33.6841 16.3062 33.7933C16.174 33.8968 16.1078 34.0291 16.1078 34.1901C16.1078 34.3511 16.174 34.4862 16.3062 34.5955C16.4385 34.7047 16.634 34.7881 16.8927 34.8456C17.1515 34.9031 17.4562 34.9318 17.807 34.9318C18.1692 34.9318 18.4768 34.9031 18.7298 34.8456C18.9828 34.7881 19.1755 34.7047 19.3077 34.5955C19.4457 34.4862 19.5147 34.3511 19.5147 34.1901C19.5147 34.0291 19.4457 33.8968 19.3077 33.7933C19.1755 33.6841 18.9828 33.6007 18.7298 33.5432C18.4768 33.4857 18.1692 33.457 17.807 33.457ZM29.015 32.3012H30.1708V40.288H29.015V32.3012ZM29.8775 35.3631H31.2834V36.3032H29.8775V35.3631ZM26.9191 33.1292H28.049C28.049 33.9285 27.934 34.6846 27.704 35.3976C27.4798 36.1106 27.106 36.7661 26.5828 37.3641C26.0653 37.9563 25.3638 38.4738 24.4783 38.9166L23.8314 38.0455C24.5329 37.6832 25.1108 37.275 25.565 36.8207C26.025 36.3665 26.3643 35.8518 26.5828 35.2768C26.807 34.6961 26.9191 34.0492 26.9191 33.3362V33.1292ZM24.2713 33.1292H27.5143V34.0521H24.2713V33.1292ZM34.7931 32.8187H36.0006C36.0006 33.5317 35.854 34.1671 35.5607 34.7248C35.2732 35.2826 34.8535 35.757 34.3015 36.148C33.7495 36.539 33.0767 36.8408 32.2832 37.0536L31.8433 36.1566C32.4988 35.9841 33.0451 35.7598 33.4821 35.4838C33.9191 35.2021 34.2468 34.883 34.4653 34.5265C34.6838 34.17 34.7931 33.7876 34.7931 33.3793V32.8187ZM32.2918 32.8187H35.5348V33.733H32.2918V32.8187ZM32.9991 37.39H38.4501V40.2793H37.2943V38.2956H32.9991V37.39ZM37.2943 32.3098H38.4501V37.0536H37.2943V32.3098ZM35.6211 33.595H37.4927V34.5092H35.6211V33.595ZM35.5435 35.2941H37.4151V36.217H35.5435V35.2941ZM44.5004 32.5168H45.4836V32.7756C45.4836 33.0688 45.4376 33.3535 45.3456 33.6295C45.2536 33.8997 45.1185 34.1556 44.9403 34.3971C44.762 34.6328 44.5406 34.8456 44.2761 35.0353C44.0174 35.2251 43.7184 35.3861 43.3791 35.5183C43.0456 35.6506 42.6748 35.7455 42.2665 35.803L41.8353 34.906C42.1918 34.86 42.5109 34.7852 42.7926 34.6817C43.0801 34.5725 43.3303 34.4488 43.543 34.3108C43.7558 34.1671 43.9311 34.0118 44.0691 33.8451C44.2129 33.6726 44.3193 33.4972 44.3883 33.319C44.463 33.135 44.5004 32.9538 44.5004 32.7756V32.5168ZM44.6901 32.5168H45.6734V32.7756C45.6734 32.9481 45.7079 33.1263 45.7769 33.3103C45.8516 33.4886 45.9609 33.6611 46.1046 33.8278C46.2484 33.9946 46.4266 34.1498 46.6394 34.2936C46.8521 34.4316 47.0994 34.5523 47.3811 34.6558C47.6686 34.7593 47.9878 34.837 48.3385 34.8887L47.9073 35.7771C47.499 35.7196 47.1253 35.6247 46.786 35.4925C46.4525 35.3602 46.1535 35.2021 45.889 35.0181C45.6303 34.8283 45.4118 34.6156 45.2335 34.3798C45.0553 34.1383 44.9201 33.8853 44.8281 33.6208C44.7361 33.3506 44.6901 33.0688 44.6901 32.7756V32.5168ZM41.473 36.2428H48.7094V37.1485H41.473V36.2428ZM44.6125 36.8121H45.7596V38.494H44.6125V36.8121ZM42.3096 39.2443H47.9073V40.1672H42.3096V39.2443ZM42.3096 37.8212H43.4568V39.5376H42.3096V37.8212Z" fill="#1C1000"/>
<circle cx="69.0404" cy="37.0375" r="4.52812" stroke="#F9C356" stroke-width="0.8625"/>
<path d="M7.25925 54.1501H12.8051V55.0557H7.25925V54.1501ZM7.25925 52.5027H8.40638V54.7452H7.25925V52.5027ZM6.35363 55.7457H13.5814V56.6513H6.35363V55.7457ZM9.38963 54.8314H10.5281V56.4098H9.38963V54.8314ZM7.12125 57.1861H12.8138V58.0917H7.12125V57.1861ZM7.04363 59.3509H12.8914V60.2566H7.04363V59.3509ZM8.19075 57.4276H9.32925V59.7908H8.19075V57.4276ZM10.6058 57.4276H11.7356V59.7908H10.6058V57.4276ZM14.1931 56.4271H21.4208V57.3327H14.1931V56.4271ZM15.0728 59.2819H20.6101V60.2048H15.0728V59.2819ZM15.0728 57.8674H16.22V59.5752H15.0728V57.8674ZM17.807 52.5889C18.3877 52.5889 18.8937 52.6551 19.325 52.7873C19.762 52.9196 20.1012 53.1093 20.3427 53.3566C20.5842 53.6038 20.705 53.8942 20.705 54.2277C20.705 54.5669 20.5842 54.8602 20.3427 55.1074C20.1012 55.3547 19.762 55.5444 19.325 55.6767C18.8937 55.8089 18.3877 55.8751 17.807 55.8751C17.232 55.8751 16.726 55.8089 16.289 55.6767C15.8577 55.5444 15.5213 55.3547 15.2798 55.1074C15.0383 54.8602 14.9176 54.5669 14.9176 54.2277C14.9176 53.8942 15.0383 53.6038 15.2798 53.3566C15.5213 53.1093 15.8577 52.9196 16.289 52.7873C16.726 52.6551 17.232 52.5889 17.807 52.5889ZM17.807 53.4946C17.4562 53.4946 17.1515 53.5233 16.8927 53.5808C16.634 53.6383 16.4385 53.7217 16.3062 53.8309C16.174 53.9344 16.1078 54.0667 16.1078 54.2277C16.1078 54.3887 16.174 54.5238 16.3062 54.6331C16.4385 54.7423 16.634 54.8257 16.8927 54.8832C17.1515 54.9407 17.4562 54.9694 17.807 54.9694C18.1692 54.9694 18.4768 54.9407 18.7298 54.8832C18.9828 54.8257 19.1755 54.7423 19.3077 54.6331C19.4457 54.5238 19.5147 54.3887 19.5147 54.2277C19.5147 54.0667 19.4457 53.9344 19.3077 53.8309C19.1755 53.7217 18.9828 53.6383 18.7298 53.5808C18.4768 53.5233 18.1692 53.4946 17.807 53.4946ZM29.015 52.3388H30.1708V60.3256H29.015V52.3388ZM29.8775 55.4007H31.2834V56.3408H29.8775V55.4007ZM26.9191 53.1668H28.049C28.049 53.9661 27.934 54.7222 27.704 55.4352C27.4798 56.1482 27.106 56.8037 26.5828 57.4017C26.0653 57.9939 25.3638 58.5114 24.4783 58.9542L23.8314 58.0831C24.5329 57.7208 25.1108 57.3126 25.565 56.8583C26.025 56.4041 26.3643 55.8894 26.5828 55.3144C26.807 54.7337 26.9191 54.0868 26.9191 53.3738V53.1668ZM24.2713 53.1668H27.5143V54.0897H24.2713V53.1668ZM34.7931 52.8563H36.0006C36.0006 53.5693 35.854 54.2047 35.5607 54.7624C35.2732 55.3202 34.8535 55.7946 34.3015 56.1856C33.7495 56.5766 33.0767 56.8784 32.2832 57.0912L31.8433 56.1942C32.4988 56.0217 33.0451 55.7974 33.4821 55.5214C33.9191 55.2397 34.2468 54.9206 34.4653 54.5641C34.6838 54.2076 34.7931 53.8252 34.7931 53.4169V52.8563ZM32.2918 52.8563H35.5348V53.7706H32.2918V52.8563ZM32.9991 57.4276H38.4501V60.3169H37.2943V58.3332H32.9991V57.4276ZM37.2943 52.3474H38.4501V57.0912H37.2943V52.3474ZM35.6211 53.6326H37.4927V54.5468H35.6211V53.6326ZM35.5435 55.3317H37.4151V56.2546H35.5435V55.3317ZM44.5004 52.5544H45.4836V52.8132C45.4836 53.1064 45.4376 53.3911 45.3456 53.6671C45.2536 53.9373 45.1185 54.1932 44.9403 54.4347C44.762 54.6704 44.5406 54.8832 44.2761 55.0729C44.0174 55.2627 43.7184 55.4237 43.3791 55.5559C43.0456 55.6882 42.6748 55.7831 42.2665 55.8406L41.8353 54.9436C42.1918 54.8976 42.5109 54.8228 42.7926 54.7193C43.0801 54.6101 43.3303 54.4864 43.543 54.3484C43.7558 54.2047 43.9311 54.0494 44.0691 53.8827C44.2129 53.7102 44.3193 53.5348 44.3883 53.3566C44.463 53.1726 44.5004 52.9914 44.5004 52.8132V52.5544ZM44.6901 52.5544H45.6734V52.8132C45.6734 52.9857 45.7079 53.1639 45.7769 53.3479C45.8516 53.5262 45.9609 53.6987 46.1046 53.8654C46.2484 54.0322 46.4266 54.1874 46.6394 54.3312C46.8521 54.4692 47.0994 54.5899 47.3811 54.6934C47.6686 54.7969 47.9878 54.8746 48.3385 54.9263L47.9073 55.8147C47.499 55.7572 47.1253 55.6623 46.786 55.5301C46.4525 55.3978 46.1535 55.2397 45.889 55.0557C45.6303 54.8659 45.4118 54.6532 45.2335 54.4174C45.0553 54.1759 44.9201 53.9229 44.8281 53.6584C44.7361 53.3882 44.6901 53.1064 44.6901 52.8132V52.5544ZM41.473 56.2804H48.7094V57.1861H41.473V56.2804ZM44.6125 56.8497H45.7596V58.5316H44.6125V56.8497ZM42.3096 59.2819H47.9073V60.2048H42.3096V59.2819ZM42.3096 57.8588H43.4568V59.5752H42.3096V57.8588Z" fill="#1C1000"/>
<circle cx="69.0404" cy="57.0751" r="4.52812" stroke="#F9C356" stroke-width="0.8625"/>
<path d="M8.39775 76.6944H9.54488V78.3418H8.39775V76.6944ZM8.38913 73.8482H9.30338V74.0207C9.30338 74.4692 9.22 74.8889 9.05325 75.2799C8.89225 75.6709 8.64788 76.0102 8.32013 76.2977C7.99238 76.5852 7.57263 76.7979 7.06088 76.9359L6.552 76.0476C6.9775 75.9383 7.32538 75.7802 7.59563 75.5732C7.86588 75.3604 8.06425 75.1218 8.19075 74.8573C8.323 74.5871 8.38913 74.3082 8.38913 74.0207V73.8482ZM8.63063 73.8482H9.5535V74.0207C9.5535 74.2967 9.61675 74.5641 9.74325 74.8228C9.8755 75.0816 10.0768 75.3116 10.347 75.5128C10.623 75.7141 10.9738 75.8693 11.3993 75.9786L10.8904 76.8583C10.3844 76.7261 9.96175 76.5219 9.6225 76.2459C9.289 75.9642 9.03888 75.6336 8.87213 75.2541C8.71113 74.8688 8.63063 74.4577 8.63063 74.0207V73.8482ZM6.78488 73.2876H11.1664V74.1932H6.78488V73.2876ZM8.39775 72.4164H9.54488V73.6929H8.39775V72.4164ZM11.865 72.3388H13.0121V80.3514H11.865V72.3388ZM6.5175 78.8679L6.38813 77.9364C6.85388 77.9364 7.3685 77.9336 7.932 77.9278C8.50125 77.9163 9.08488 77.8933 9.68288 77.8588C10.2866 77.8186 10.8703 77.7582 11.4338 77.6777L11.5114 78.5143C10.9364 78.6236 10.3528 78.7041 9.7605 78.7558C9.16825 78.8076 8.59613 78.8392 8.04413 78.8507C7.49213 78.8564 6.98325 78.8622 6.5175 78.8679ZM19.6872 72.3561H20.8343V78.1779H19.6872V72.3561ZM15.5127 79.2819H21.0413V80.2048H15.5127V79.2819ZM15.5127 77.6173H16.6598V79.7563H15.5127V77.6173ZM16.0733 72.7959H17.0221V73.5722C17.0221 74.0897 16.9387 74.5842 16.772 75.0557C16.611 75.5272 16.3637 75.9412 16.0302 76.2977C15.6967 76.6542 15.2712 76.9244 14.7537 77.1084L14.1672 76.1942C14.6157 76.0389 14.978 75.8233 15.254 75.5473C15.5357 75.2713 15.7427 74.9608 15.875 74.6158C16.0072 74.2708 16.0733 73.9229 16.0733 73.5722V72.7959ZM16.3062 72.7959H17.2377V73.5722C17.2377 73.8309 17.2722 74.0868 17.3412 74.3398C17.416 74.5871 17.5281 74.8228 17.6776 75.0471C17.8271 75.2656 18.0197 75.4639 18.2555 75.6422C18.4912 75.8204 18.7701 75.9613 19.0921 76.0648L18.5142 76.9704C18.0082 76.8037 17.5913 76.5507 17.2636 76.2114C16.9358 75.8722 16.6943 75.4754 16.5391 75.0212C16.3838 74.5669 16.3062 74.0839 16.3062 73.5722V72.7959ZM25.0685 72.5544H26.0518V72.8132C26.0518 73.1064 26.0058 73.3911 25.9138 73.6671C25.8218 73.9373 25.6867 74.1932 25.5084 74.4347C25.3302 74.6704 25.1088 74.8832 24.8443 75.0729C24.5855 75.2627 24.2865 75.4237 23.9473 75.5559C23.6138 75.6882 23.2429 75.7831 22.8347 75.8406L22.4034 74.9436C22.7599 74.8976 23.079 74.8228 23.3608 74.7193C23.6483 74.6101 23.8984 74.4864 24.1112 74.3484C24.3239 74.2047 24.4993 74.0494 24.6373 73.8827C24.781 73.7102 24.8874 73.5348 24.9564 73.3566C25.0312 73.1726 25.0685 72.9914 25.0685 72.8132V72.5544ZM25.2583 72.5544H26.2415V72.8132C26.2415 72.9857 26.276 73.1639 26.345 73.3479C26.4198 73.5262 26.529 73.6987 26.6728 73.8654C26.8165 74.0322 26.9948 74.1874 27.2075 74.3312C27.4203 74.4692 27.6675 74.5899 27.9493 74.6934C28.2368 74.7969 28.5559 74.8746 28.9067 74.9263L28.4754 75.8147C28.0672 75.7572 27.6934 75.6623 27.3542 75.5301C27.0207 75.3978 26.7217 75.2397 26.4572 75.0557C26.1984 74.8659 25.9799 74.6532 25.8017 74.4174C25.6234 74.1759 25.4883 73.9229 25.3963 73.6584C25.3043 73.3882 25.2583 73.1064 25.2583 72.8132V72.5544ZM22.0412 76.2804H29.2775V77.1861H22.0412V76.2804ZM25.1807 76.8497H26.3278V78.5316H25.1807V76.8497ZM22.8778 79.2819H28.4754V80.2048H22.8778V79.2819ZM22.8778 77.8588H24.0249V79.5752H22.8778V77.8588Z" fill="#1C1000"/>
<circle cx="69.0404" cy="77.0751" r="4.52812" stroke="#F9C356" stroke-width="0.8625"/>
</svg>
