<svg width="35" height="29" viewBox="0 0 35 29" fill="none" xmlns="http://www.w3.org/2000/svg">
<path d="M32.7528 0.454651C32.4685 1.25029 32.279 2.33009 32.2316 3.01206C31.4736 3.01206 30.8576 3.75087 30.8576 4.66017C30.8576 5.56947 31.4736 6.30828 32.2316 6.30828C32.3264 6.30828 32.4211 6.30828 32.5159 6.25145C32.4211 8.6952 30.7629 10.6275 28.6782 10.6275C26.5935 10.6275 24.9352 8.6952 24.8405 6.25145C25.4564 6.13779 25.9776 5.45581 25.9776 4.66017C25.9776 3.75087 25.3616 3.01206 24.6036 3.01206H24.4614C24.2719 1.87543 23.7507 0.0568316 23.1348 0.0568316C22.5189 0.0568316 21.9977 1.8186 21.8082 3.01206C21.7134 3.01206 21.6187 2.95523 21.5239 2.95523C20.7658 2.95523 20.1499 3.69404 20.1499 4.60334C20.1499 5.39898 20.6237 6.08096 21.287 6.25145C21.1923 8.6952 19.534 10.6275 17.4493 10.6275C15.3646 10.6275 13.7063 8.63837 13.6116 6.19462C14.2275 6.02412 14.6539 5.39898 14.6539 4.60334C14.6539 3.69404 14.038 2.95523 13.2799 2.95523H13.1378C12.9483 1.8186 12.4271 0 11.8112 0C11.1952 0 10.6741 1.76177 10.4845 2.95523C10.3898 2.95523 10.295 2.8984 10.2003 2.8984C9.4422 2.8984 8.82627 3.63721 8.82627 4.54651C8.82627 5.39898 9.34744 6.08096 10.0581 6.19462C9.96337 8.63837 8.25772 10.5706 6.22041 10.5706C4.13572 10.5706 2.47745 8.63837 2.38269 6.19462C2.47745 6.19462 2.57221 6.25145 2.66697 6.25145C3.42503 6.25145 4.04097 5.51264 4.04097 4.60334C4.04097 3.69404 3.42503 2.95523 2.66697 2.95523H2.57221C2.47745 2.21642 2.33531 1.25029 2.1458 0.454651C2.00366 -0.170494 1.29297 -0.0568312 1.29297 0.625145V27.2222H33.7004V0.738808C33.6056 0.0568314 32.9897 -0.113663 32.7528 0.454651Z" fill="#FED16A"/>
<path d="M34.4167 17.2783H0.583333C0.243056 17.2783 0 16.9813 0 16.5654V14.5453C0 14.1294 0.243056 13.8324 0.583333 13.8324H34.3681C34.7083 13.8324 34.9514 14.1294 34.9514 14.5453V16.5654C35 16.9813 34.7569 17.2783 34.4167 17.2783ZM35 27.3787V25.3586C35 24.9427 34.7569 24.6456 34.4167 24.6456H0.583333C0.243056 24.6456 0 24.9427 0 25.3586V27.3787C0 27.7946 0.243056 28.0916 0.583333 28.0916H34.3681C34.7569 28.0916 35 27.7946 35 27.3787Z" fill="#EF9F27"/>
<path d="M31.1128 22.2744C31.1128 23.137 30.4419 23.808 29.5792 23.808C28.7165 23.808 28.0456 23.137 28.0456 22.2744C28.0456 21.4117 28.7165 20.7407 29.5792 20.7407C30.4419 20.7407 31.1128 21.4117 31.1128 22.2744ZM17.5017 20.7407C16.6391 20.7407 15.9681 21.4117 15.9681 22.2744C15.9681 23.137 16.6391 23.808 17.5017 23.808C18.3644 23.808 19.0354 23.137 19.0354 22.2744C19.0354 21.4117 18.3644 20.7407 17.5017 20.7407ZM5.42427 20.7407C4.5616 20.7407 3.89062 21.4117 3.89062 22.2744C3.89062 23.137 4.5616 23.808 5.42427 23.808C6.28695 23.808 6.95792 23.0891 6.95792 22.2744C6.95792 21.4596 6.28695 20.7407 5.42427 20.7407Z" fill="#E33232"/>
</svg>
