<svg width="15" height="15" viewBox="0 0 15 15" fill="none" xmlns="http://www.w3.org/2000/svg">
<path d="M7.5 0L8.33973 0.0471428L9.16902 0.188036L9.97714 0.421071L10.7542 0.7425L11.4903 1.14964L12.176 1.63634L12.8033 2.1967L13.3639 2.82375L13.8504 3.50973L14.2575 4.2458L14.5792 5.02286L14.8122 5.83098L14.9529 6.66027L15 7.5L14.9529 8.33973L14.812 9.16902L14.5792 9.97714L14.2572 10.7539L13.8504 11.4903L13.3639 12.176L12.8033 12.8033L12.1763 13.3637L11.4905 13.8504L10.7542 14.2575L9.97714 14.5789L9.16902 14.812L8.33973 14.9529L7.5 15L6.66027 14.9529L5.83125 14.812L5.02286 14.5789L4.24607 14.2575L3.50973 13.8504L2.82402 13.3637L2.1967 12.8033L1.63634 12.1762L1.14964 11.4903L0.742768 10.7542L0.421071 9.97714L0.188036 9.16902L0.0471428 8.33973L0 7.5L0.0471428 6.66027L0.188036 5.83098L0.421071 5.02286L0.742768 4.24607L1.14964 3.50973L1.63634 2.82402L2.1967 2.1967L2.82402 1.63634L3.50973 1.14964L4.24607 0.7425L5.02286 0.421071L5.83125 0.188036L6.66027 0.0471428L7.5 0Z" fill="#2F80ED"/>
<path d="M7.50029 3.21484L7.98029 3.24163L8.45413 3.32225L8.91592 3.45538L9.35975 3.63913L9.78029 3.87163L10.1724 4.14993L10.5308 4.47002L10.8512 4.82842L11.1292 5.22029L11.3617 5.64083L11.5455 6.08493L11.6786 6.54699L11.759 7.02083L11.786 7.50056L11.7592 7.98029L11.6789 8.4544L11.5455 8.91618L11.3617 9.36002L11.1292 9.78056L10.8512 10.1727L10.5308 10.5311L10.1724 10.8512L9.78056 11.1295L9.36002 11.3617L8.91592 11.5457L8.45413 11.6789L7.98002 11.7592L7.50056 11.7863L7.02056 11.7595L6.54645 11.6789L6.08493 11.5457L5.64083 11.362L5.22029 11.1295L4.82815 10.8512L4.47002 10.5311L4.14967 10.1727L3.87163 9.78083L3.63913 9.36029L3.45511 8.91618L3.32199 8.45413L3.24163 7.98029L3.21484 7.50056L3.24163 7.02083L3.32199 6.54672L3.45511 6.08493L3.63913 5.64109L3.87163 5.22056L4.14967 4.82842L4.46975 4.47002L4.82815 4.14993L5.22029 3.87163L5.64083 3.63913L6.08493 3.45538L6.54672 3.32225L7.02056 3.2419L7.50029 3.21484Z" fill="#FEF4D2"/>
</svg>
