<svg width="70" height="70" viewBox="0 0 70 70" fill="none" xmlns="http://www.w3.org/2000/svg">
<rect width="70" height="70" rx="35" fill="#FEF4D2"/>
<path d="M36.5625 49.5834C36.5625 49.169 36.3979 48.7716 36.1049 48.4786C35.8118 48.1855 35.4144 48.0209 35 48.0209H22.5C22.3619 48.0209 22.2294 47.966 22.1317 47.8684C22.034 47.7707 21.9792 47.6382 21.9792 47.5001V22.5001C21.9792 22.3619 22.034 22.2295 22.1317 22.1318C22.2294 22.0341 22.3619 21.9792 22.5 21.9792H35C35.4144 21.9792 35.8118 21.8146 36.1049 21.5216C36.3979 21.2286 36.5625 20.8311 36.5625 20.4167C36.5625 20.0023 36.3979 19.6049 36.1049 19.3119C35.8118 19.0189 35.4144 18.8542 35 18.8542H22.5C20.4875 18.8542 18.8542 20.4876 18.8542 22.5001V47.5001C18.8542 48.467 19.2383 49.3943 19.922 50.0781C20.6057 50.7618 21.5331 51.1459 22.5 51.1459H35C35.4144 51.1459 35.8118 50.9813 36.1049 50.6883C36.3979 50.3952 36.5625 49.9978 36.5625 49.5834Z" fill="#EF9F27"/>
<path d="M27.4751 37.3229C27.4751 37.8754 27.6946 38.4053 28.0853 38.796C28.476 39.1867 29.0059 39.4062 29.5584 39.4062H39.6751C39.7237 40.1465 39.7834 40.8868 39.8543 41.627L39.9168 42.2625C39.9401 42.5019 40.0208 42.7323 40.152 42.9339C40.2833 43.1355 40.4613 43.3025 40.6709 43.4207C40.8804 43.5389 41.1154 43.6048 41.3559 43.6128C41.5964 43.6208 41.8352 43.5706 42.0522 43.4666C45.8616 41.6431 49.3095 39.1452 52.2293 36.0937L52.2918 36.0291C52.5604 35.7497 52.7104 35.3771 52.7104 34.9895C52.7104 34.6019 52.5604 34.2294 52.2918 33.95L52.2293 33.8854C49.3095 30.8338 45.8616 28.3359 42.0522 26.5125C41.8352 26.4084 41.5964 26.3583 41.3559 26.3663C41.1154 26.3743 40.8804 26.4402 40.6709 26.5584C40.4613 26.6765 40.2833 26.8435 40.152 27.0452C40.0208 27.2468 39.9401 27.4771 39.9168 27.7166L39.8543 28.352C39.7834 29.0909 39.7237 29.8312 39.6751 30.5729H29.5584C29.0059 30.5729 28.476 30.7924 28.0853 31.1831C27.6946 31.5738 27.4751 32.1037 27.4751 32.6562V37.3229Z" fill="#EF9F27"/>
</svg>
