<svg width="21" height="25" viewBox="0 0 21 25" fill="none" xmlns="http://www.w3.org/2000/svg">
<path d="M10.5 7.95455C10.8094 7.95455 11.1062 8.07427 11.325 8.28738C11.5437 8.50049 11.6667 8.78953 11.6667 9.09091C11.6667 9.39229 11.5437 9.68133 11.325 9.89444C11.1062 10.1075 10.8094 10.2273 10.5 10.2273C10.1906 10.2273 9.89383 10.1075 9.67504 9.89444C9.45625 9.68133 9.33333 9.39229 9.33333 9.09091C9.33333 8.78953 9.45625 8.50049 9.67504 8.28738C9.89383 8.07427 10.1906 7.95455 10.5 7.95455ZM21 11.3636C21 17.6705 16.52 23.5682 10.5 25C4.48 23.5682 0 17.6705 0 11.3636V4.54545L10.5 0L21 4.54545V11.3636ZM10.5 5.68182C9.57174 5.68182 8.6815 6.04099 8.02513 6.68032C7.36875 7.31965 7 8.18676 7 9.09091C7 10.5795 7.96833 11.8409 9.33333 12.3068V19.3182H11.6667V17.0455H14V14.7727H11.6667V12.3068C13.0317 11.8409 14 10.5795 14 9.09091C14 8.18676 13.6313 7.31965 12.9749 6.68032C12.3185 6.04099 11.4283 5.68182 10.5 5.68182Z" fill="#3D2000"/>
</svg>
