<svg width="18" height="25" viewBox="0 0 18 25" fill="none" xmlns="http://www.w3.org/2000/svg">
<rect width="18" height="25" rx="4.5" fill="#3D2000"/>
<path d="M5.75016 11.4165H7.91683V9.24984C7.91683 8.96252 8.03097 8.68697 8.23413 8.4838C8.43729 8.28064 8.71284 8.1665 9.00016 8.1665C9.28748 8.1665 9.56303 8.28064 9.76619 8.4838C9.96936 8.68697 10.0835 8.96252 10.0835 9.24984L10.045 11.4165H12.2502C12.5375 11.4165 12.813 11.5306 13.0162 11.7338C13.2194 11.937 13.3335 12.2125 13.3335 12.4998C13.3335 12.7872 13.2194 13.0627 13.0162 13.2659C12.813 13.469 12.5375 13.5832 12.2502 13.5832L10.045 13.5447L10.0835 15.7498C10.0835 16.0372 9.96936 16.3127 9.76619 16.5159C9.56303 16.719 9.28748 16.8332 9.00016 16.8332C8.71284 16.8332 8.43729 16.719 8.23413 16.5159C8.03097 16.3127 7.91683 16.0372 7.91683 15.7498V13.5447L5.75016 13.5832C5.46284 13.5832 5.18729 13.469 4.98413 13.2659C4.78097 13.0627 4.66683 12.7872 4.66683 12.4998C4.66683 12.2125 4.78097 11.937 4.98413 11.7338C5.18729 11.5306 5.46284 11.4165 5.75016 11.4165Z" fill="#FEF4D2"/>
</svg>
