<svg width="25" height="25" viewBox="0 0 25 25" fill="none" xmlns="http://www.w3.org/2000/svg">
<path d="M20.7289 13.1875C20.5619 12.9974 20.4698 12.753 20.4698 12.5C20.4698 12.247 20.5619 12.0026 20.7289 11.8125L22.0622 10.3125C22.2091 10.1486 22.3003 9.94239 22.3228 9.72344C22.3453 9.50448 22.2978 9.28404 22.1872 9.09374L20.1039 5.48958C19.9944 5.29949 19.8277 5.14882 19.6276 5.05904C19.4274 4.96926 19.204 4.94495 18.9893 4.98958L17.0309 5.38541C16.7818 5.4369 16.5223 5.3954 16.3017 5.26874C16.081 5.14209 15.9143 4.93904 15.833 4.69791L15.1976 2.79166C15.1277 2.58476 14.9946 2.40506 14.817 2.27795C14.6394 2.15085 14.4264 2.08276 14.208 2.08333H10.0414C9.8142 2.07147 9.58941 2.13429 9.40132 2.26219C9.21322 2.3901 9.07217 2.57605 8.99969 2.79166L8.41635 4.69791C8.33511 4.93904 8.16841 5.14209 7.94772 5.26874C7.72704 5.3954 7.46762 5.4369 7.21844 5.38541L5.20802 4.98958C5.00443 4.96081 4.79688 4.99293 4.61151 5.08191C4.42614 5.17088 4.27125 5.31273 4.16636 5.48958L2.08302 9.09374C1.96965 9.28192 1.91867 9.50112 1.93738 9.72002C1.95609 9.93891 2.04352 10.1463 2.18719 10.3125L3.5101 11.8125C3.6771 12.0026 3.7692 12.247 3.7692 12.5C3.7692 12.753 3.6771 12.9974 3.5101 13.1875L2.18719 14.6875C2.04352 14.8537 1.95609 15.0611 1.93738 15.28C1.91867 15.4989 1.96965 15.7181 2.08302 15.9062L4.16636 19.5104C4.27583 19.7005 4.44252 19.8512 4.64266 19.9409C4.8428 20.0307 5.06617 20.055 5.28094 20.0104L7.23927 19.6146C7.48846 19.5631 7.74787 19.6046 7.96856 19.7312C8.18924 19.8579 8.35594 20.0609 8.43719 20.3021L9.0726 22.2083C9.14508 22.4239 9.28614 22.6099 9.47424 22.7378C9.66233 22.8657 9.88712 22.9285 10.1143 22.9167H14.2809C14.4993 22.9172 14.7123 22.8491 14.8899 22.722C15.0675 22.5949 15.2006 22.4152 15.2705 22.2083L15.9059 20.3021C15.9872 20.0609 16.1539 19.8579 16.3746 19.7312C16.5953 19.6046 16.8547 19.5631 17.1039 19.6146L19.0622 20.0104C19.277 20.055 19.5003 20.0307 19.7005 19.9409C19.9006 19.8512 20.0673 19.7005 20.1768 19.5104L22.2601 15.9062C22.3707 15.7159 22.4182 15.4955 22.3957 15.2765C22.3733 15.0576 22.282 14.8514 22.1351 14.6875L20.7289 13.1875ZM19.1768 14.5833L20.0101 15.5208L18.6768 17.8333L17.4476 17.5833C16.6974 17.43 15.917 17.5574 15.2545 17.9415C14.592 18.3255 14.0936 18.9394 13.8539 19.6667L13.458 20.8333H10.7914L10.4164 19.6458C10.1766 18.9186 9.67821 18.3047 9.01574 17.9206C8.35326 17.5366 7.57283 17.4091 6.82261 17.5625L5.59344 17.8125L4.23927 15.5104L5.0726 14.5729C5.58506 14 5.86837 13.2583 5.86837 12.4896C5.86837 11.7209 5.58506 10.9792 5.0726 10.4062L4.23927 9.46874L5.5726 7.17708L6.80177 7.42708C7.552 7.58043 8.33243 7.45299 8.9949 7.06895C9.65738 6.68491 10.1558 6.07099 10.3955 5.34374L10.7914 4.16666H13.458L13.8539 5.35416C14.0936 6.08141 14.592 6.69532 15.2545 7.07937C15.917 7.46341 16.6974 7.59085 17.4476 7.43749L18.6768 7.18749L20.0101 9.49999L19.1768 10.4375C18.6701 11.0091 18.3903 11.7465 18.3903 12.5104C18.3903 13.2743 18.6701 14.0117 19.1768 14.5833ZM12.1247 8.33333C11.3006 8.33333 10.495 8.5777 9.80981 9.03554C9.12461 9.49337 8.59056 10.1441 8.27519 10.9055C7.95983 11.6668 7.87731 12.5046 8.03808 13.3129C8.19885 14.1211 8.59569 14.8636 9.17841 15.4463C9.76113 16.029 10.5036 16.4258 11.3118 16.5866C12.1201 16.7474 12.9578 16.6649 13.7192 16.3495C14.4806 16.0341 15.1313 15.5001 15.5891 14.8149C16.047 14.1297 16.2914 13.3241 16.2914 12.5C16.2914 11.3949 15.8524 10.3351 15.071 9.55371C14.2896 8.77231 13.2298 8.33333 12.1247 8.33333ZM12.1247 14.5833C11.7126 14.5833 11.3099 14.4611 10.9672 14.2322C10.6246 14.0033 10.3576 13.6779 10.1999 13.2972C10.0423 12.9166 10.001 12.4977 10.0814 12.0936C10.1618 11.6894 10.3602 11.3182 10.6515 11.0269C10.9429 10.7355 11.3141 10.5371 11.7183 10.4567C12.1224 10.3763 12.5413 10.4176 12.9219 10.5752C13.3026 10.7329 13.628 11 13.8569 11.3426C14.0858 11.6852 14.208 12.0879 14.208 12.5C14.208 13.0525 13.9885 13.5824 13.5978 13.9731C13.2071 14.3638 12.6772 14.5833 12.1247 14.5833Z" fill="#1C1000"/>
</svg>
