<svg width="46" height="47" viewBox="0 0 46 47" fill="none" xmlns="http://www.w3.org/2000/svg">
<path d="M7.89757 2.80768C8.21212 1.72772 8.72739 1.01284 9.69255 0.479438C10.5835 -0.0197714 11.6347 -0.134611 12.61 0.160673C13.581 0.455871 14.8557 1.3964 15.7888 1.93182L23.9866 6.71425C24.4032 6.96248 24.9176 7.14207 25.3148 7.39193C26.4975 8.13595 27.7941 8.81838 28.9604 9.57932C28.4886 10.0131 27.9986 10.5407 27.5411 11.003L25.0892 13.4667L22.8346 15.738C22.5462 16.0275 22.0997 16.4276 21.8416 16.7171L26.6291 21.5262C27.3016 22.2147 28.333 23.4222 29.0047 24.0015C28.5957 24.2429 28.1863 24.3554 27.8329 24.5563L19.5128 29.3914L15.1201 31.9909C14.1832 32.5466 13.5081 33.1288 12.4131 33.3504C10.7749 33.6818 9.10603 33.1221 8.26652 31.5868C8.12105 31.3154 7.94522 30.9518 7.91655 30.6377C7.75084 29.7518 7.8124 26.9574 7.81535 25.9133L7.84023 16.892L7.82547 4.74115C7.82547 4.13828 7.80312 3.3911 7.89757 2.80768Z" fill="#4385F6"/>
<path d="M21.8416 16.7171L26.6291 21.5262C27.3016 22.2147 28.333 23.4222 29.0047 24.0015C28.5957 24.2429 28.1863 24.3554 27.8329 24.5563L19.5128 29.3914L15.1201 31.9909C14.1832 32.5466 13.5081 33.1288 12.4131 33.3504C10.7749 33.6818 9.10603 33.1221 8.26652 31.5868C8.12105 31.3154 7.94522 30.9518 7.91655 30.6377C8.16406 30.4757 8.72865 29.8945 8.9711 29.663C10.1644 28.5232 11.2995 27.3183 12.4666 26.1441L17.6922 20.8946C19.0263 19.5684 20.5425 18.1064 21.8079 16.7333L21.8416 16.7171Z" fill="#EB4137"/>
<path d="M7.89757 2.80768C8.21212 1.72772 8.72739 1.01284 9.69255 0.479438C10.5835 -0.0197714 11.6347 -0.134611 12.61 0.160673C13.581 0.455871 14.8557 1.3964 15.7888 1.93182L23.9866 6.71425C24.4032 6.96248 24.9176 7.14207 25.3148 7.39193C26.4975 8.13595 27.7941 8.81838 28.9604 9.57932C28.4886 10.0131 27.9986 10.5407 27.5411 11.003L25.0892 13.4667L22.8346 15.738C22.5462 16.0275 22.0997 16.4276 21.8416 16.7171L21.8079 16.7333C21.6072 16.3702 19.9746 14.9684 19.5706 14.5167C18.8374 13.6972 17.9637 12.8155 17.1807 12.0294C16.6056 11.4188 15.917 10.8972 15.3516 10.2799C14.0233 8.83043 12.599 7.4002 11.1561 6.06926C10.6451 5.5976 8.38627 2.99357 7.89757 2.80768Z" fill="#33A853"/>
<path d="M21.8416 16.7171C22.0997 16.4276 22.5462 16.0275 22.8346 15.738L25.0892 13.4667L27.5411 11.003C27.9986 10.5407 28.4886 10.0131 28.9604 9.57932C29.4723 9.80836 30.1731 10.2458 30.6727 10.5361L33.3726 12.1017C34.8952 12.9898 36.7066 13.6911 37.3909 15.4844C37.727 16.365 37.7059 17.3449 37.3332 18.2099C36.7083 19.6422 36.0766 19.8583 34.8108 20.564C33.158 21.4858 31.543 22.5414 29.8923 23.4726C29.6001 23.6395 29.2939 23.8498 29.0047 24.0015C28.333 23.4222 27.3016 22.2147 26.6291 21.5262L21.8416 16.7171Z" fill="#FDBC02"/>
<path d="M19.0788 40.428C19.6697 40.3771 19.9799 40.6542 20.4143 40.9421L20.4168 40.5792C20.7162 40.5812 21.0157 40.5808 21.3152 40.5781C21.331 41.4865 21.3116 42.4091 21.3189 43.3201C21.3119 43.8775 21.3344 44.4163 21.3084 44.9741C21.2047 47.1961 18.3115 47.6487 17.2863 45.8103C17.249 45.7433 17.2494 45.6759 17.2768 45.604C17.3563 45.5351 17.5589 45.4672 17.6647 45.4261C17.7783 45.3924 17.9189 45.326 18.0299 45.2775C18.134 45.3965 18.2349 45.5921 18.3501 45.707C18.5741 45.9334 18.8801 46.0597 19.1985 46.0571C20.2687 46.049 20.4113 45.2497 20.3962 44.4003C19.6461 45.0856 18.6739 45.1028 17.8777 44.463C16.2978 43.1934 17.0263 40.6336 19.0788 40.428ZM19.371 44.0388C19.7259 43.9813 19.9764 43.8589 20.1924 43.5582C20.4274 43.2304 20.5213 42.8221 20.4531 42.4245C20.3398 41.7234 19.8075 41.2778 19.0883 41.3245C18.7119 41.4135 18.4222 41.5822 18.2142 41.9221C18.0137 42.2464 17.9506 42.6374 18.0389 43.0084C18.2038 43.6831 18.6685 44.0557 19.371 44.0388Z" fill="#626367"/>
<path d="M30.4396 38.2121C30.486 38.2097 30.5324 38.2082 30.579 38.2075L31.9299 38.2043C32.8493 38.2057 33.6368 38.1723 34.3274 38.8625C35.1377 39.6724 35.06 41.1019 34.1556 41.803C33.5741 42.2537 33.0662 42.3067 32.3723 42.3102C32.0321 42.3068 31.6921 42.3095 31.3521 42.3183L31.3531 44.7879C31.0594 44.764 30.713 44.8 30.3912 44.7776C30.3654 44.3753 30.3847 43.7302 30.3847 43.3139L30.3845 38.9393C30.3845 38.8184 30.3767 38.3432 30.3944 38.2414L30.4396 38.2121ZM31.3526 41.3875C32.1004 41.3932 32.9845 41.5457 33.5731 41.0384C33.9733 40.6404 33.9754 39.8784 33.5718 39.4786C33.2389 39.1493 32.8106 39.1143 32.3691 39.1261C32.0469 39.1361 31.6688 39.1158 31.3514 39.1355C31.3505 39.8275 31.3231 40.7116 31.3526 41.3875Z" fill="#626367"/>
<path d="M3.18819 37.9815C3.86365 37.9016 4.77881 38.0605 5.33751 38.4493C5.46675 38.5393 5.83546 38.7582 5.87008 38.9093C5.83417 39.0387 5.40198 39.4378 5.27637 39.5788C4.28112 38.7294 3.01815 38.6266 1.97055 39.4543C1.4562 39.8609 1.12667 40.4573 1.05598 41.1095C0.996581 41.6186 1.0664 42.0474 1.26553 42.5188C2.13129 44.568 5.55454 44.4893 5.8224 42.0757C5.08554 42.0988 4.32144 42.0668 3.57803 42.0851C3.56979 41.8887 3.56931 41.6854 3.5664 41.4883L3.56827 41.1521C3.92565 41.133 4.40648 41.1449 4.77321 41.145L6.75473 41.1497C6.76504 41.2553 6.77433 41.3611 6.78259 41.4669C6.9238 43.3247 5.74451 44.7789 3.86965 44.915C2.8843 44.9956 1.90845 44.6727 1.16538 44.0201C-0.268653 42.7736 -0.396318 40.5353 0.877353 39.1469C1.48342 38.4863 2.28828 38.0426 3.18819 37.9815Z" fill="#626367"/>
<path d="M9.26547 40.4241C10.5027 40.3385 11.5774 41.2673 11.6728 42.5046C11.7683 43.7419 10.8487 44.8247 9.613 44.93C8.36334 45.0365 7.26633 44.1036 7.16982 42.8523C7.07331 41.601 8.01426 40.5107 9.26547 40.4241ZM9.58327 43.9933C10.3068 43.9029 10.8202 43.2428 10.7301 42.5188C10.6401 41.7947 9.98065 41.2808 9.25705 41.3706C8.53308 41.4605 8.01913 42.1208 8.10922 42.8452C8.19934 43.5696 8.85937 44.0837 9.58327 43.9933Z" fill="#626367"/>
<path d="M14.2189 40.4227C15.4548 40.3514 16.5176 41.2891 16.6017 42.5249C16.6859 43.7607 15.76 44.834 14.5259 44.9311C13.7161 44.9948 12.9345 44.6184 12.479 43.9452C12.0236 43.2721 11.9647 42.406 12.3246 41.6773C12.6846 40.9486 13.4079 40.4695 14.2189 40.4227ZM14.5314 44.0313C14.9391 43.9273 15.1908 43.7994 15.4187 43.4181C15.6157 43.0923 15.6725 42.7006 15.5763 42.3322C15.3999 41.6424 14.8772 41.2827 14.174 41.3245C12.5257 41.703 12.795 44.149 14.5314 44.0313Z" fill="#626367"/>
<path d="M38.5625 40.4478C38.6428 40.4406 38.7233 40.4365 38.8038 40.4357C39.383 40.4356 39.9389 40.5864 40.3612 41.0028C40.9215 41.5551 40.8167 42.3398 40.8163 43.0646L40.8142 44.7754C40.5257 44.7604 40.2076 44.7696 39.9167 44.7722C39.9197 44.5899 39.9105 44.4089 39.9031 44.2267C39.6978 44.5 39.487 44.7249 39.1512 44.8307C38.3697 45.0772 37.5921 44.8164 37.1394 44.1427C37.1281 44.1224 37.1181 44.1014 37.1091 44.08C36.7435 43.2127 37.1539 42.4697 37.9884 42.1482C38.4458 41.9719 38.944 41.9764 39.4252 42.0564C39.5391 42.0754 39.8115 42.201 39.9222 42.2467C39.8644 41.3936 38.87 41.0932 38.2124 41.5188C38.1051 41.5882 38.0175 41.6867 37.93 41.7796C37.7379 41.7334 37.4431 41.5938 37.2494 41.5221C37.1707 41.4931 37.1592 41.4729 37.1364 41.4103C37.177 41.0729 37.6738 40.7422 37.9635 40.611C38.1623 40.521 38.3487 40.4852 38.5625 40.4478ZM38.9159 44.0344C39.4259 43.8884 39.8519 43.5713 39.8966 42.9985C39.5477 42.8294 39.3018 42.7588 38.9064 42.7837C38.7281 42.7997 38.643 42.8095 38.4622 42.8652C38.0154 43.0027 37.7351 43.5222 38.1429 43.8746C38.3572 44.0596 38.6412 44.0491 38.9159 44.0344Z" fill="#626367"/>
<path d="M25.4862 40.4279C26.184 40.379 26.9085 40.7694 27.2725 41.3619C27.3836 41.5428 27.6226 41.8806 27.5802 42.0966C27.5223 42.2045 24.9055 43.238 24.6213 43.3676C24.7987 43.6349 24.9163 43.8181 25.2334 43.9572C25.6389 44.135 26.1775 44.0466 26.521 43.7745C26.6195 43.6965 26.7191 43.5229 26.834 43.4782C26.9583 43.4754 27.0817 43.584 27.1807 43.6585C27.3177 43.7506 27.4655 43.8424 27.5832 43.9574C27.2729 44.4674 26.56 44.8534 25.9748 44.9152C25.3712 44.985 24.7648 44.8089 24.2924 44.4267C23.8154 44.0383 23.5808 43.5422 23.5176 42.9341C23.3813 41.6264 24.1521 40.5588 25.4862 40.4279ZM24.4753 42.6115C24.645 42.5379 24.9163 42.4091 25.084 42.3616C25.3066 42.2679 26.3574 41.857 26.4518 41.7506C26.3812 41.4566 25.886 41.2889 25.6152 41.3049C24.8965 41.3578 24.4626 41.906 24.4753 42.6115Z" fill="#626367"/>
<path d="M44.349 40.6152C44.6482 40.5684 45.1183 40.5846 45.4295 40.588C45.3503 40.871 45.1697 41.1855 45.0597 41.4626C44.7748 42.1791 44.4097 42.9038 44.1318 43.6171C43.8981 44.1495 43.6587 44.6768 43.4236 45.2083C43.1932 45.7289 42.9946 46.2895 42.7178 46.7867C42.3961 46.7916 42.0741 46.7942 41.7521 46.7944C41.9368 46.143 42.4595 45.2604 42.6966 44.5744C42.5317 44.0219 41.0054 40.8507 41.0209 40.6087L41.0792 40.5913C41.3862 40.6016 41.6877 40.5855 42.0106 40.6001C42.1481 40.84 42.2828 41.2183 42.3901 41.4841L42.9081 42.738C43.0082 42.9823 43.088 43.2152 43.1994 43.4569C43.3217 43.2487 43.3671 43.0377 43.4672 42.8293C43.8024 42.1312 44.0116 41.304 44.349 40.6152Z" fill="#626367"/>
<path d="M35.4622 38.2084L36.4006 38.201C36.4301 38.7688 36.3971 39.517 36.4035 40.0987C36.4211 41.6499 36.3775 43.2274 36.4089 44.7769C36.0919 44.7805 35.775 44.7824 35.4581 44.7826C35.4507 44.4714 35.4489 44.1468 35.4544 43.8353C35.4883 41.9695 35.4023 40.0701 35.4622 38.2084Z" fill="#626367"/>
<path d="M22.0565 38.2099C22.3581 38.2012 22.6724 38.2043 22.9753 38.2036C22.9942 38.7347 22.9804 39.34 22.9801 39.879L22.9792 42.969C22.9792 43.2554 23.0168 44.5934 22.9682 44.7647L22.9338 44.7732C22.6455 44.7649 22.3281 44.7703 22.0374 44.7695L22.036 40.5586C22.036 39.8639 22.0083 38.8839 22.0565 38.2099Z" fill="#626367"/>
</svg>
