<svg width="32" height="32" viewBox="0 0 32 32" fill="none" xmlns="http://www.w3.org/2000/svg">
<path opacity="0.2" d="M30.4986 15.8594C30.4986 18.7548 29.64 21.5852 28.0314 23.9926C26.4228 26.4001 24.1364 28.2764 21.4614 29.3844C18.7864 30.4925 15.8429 30.7824 13.0031 30.2175C10.1634 29.6527 7.55488 28.2584 5.50752 26.211C3.46016 24.1637 2.06589 21.5552 1.50103 18.7154C0.93616 15.8756 1.22607 12.9321 2.33409 10.2571C3.44212 7.58212 5.31849 5.29576 7.72593 3.68716C10.1334 2.07856 12.9637 1.21997 15.8592 1.21997C19.7418 1.21997 23.4654 2.76233 26.2108 5.50776C28.9562 8.25318 30.4986 11.9768 30.4986 15.8594Z" fill="#5599EE"/>
<path d="M15.8594 0C12.7227 0 9.65644 0.930136 7.04838 2.67279C4.44032 4.41544 2.40759 6.89233 1.20723 9.79025C0.00687162 12.6882 -0.307197 15.877 0.304741 18.9534C0.916678 22.0298 2.42714 24.8557 4.64511 27.0736C6.86308 29.2916 9.68895 30.8021 12.7654 31.414C15.8418 32.0259 19.0306 31.7119 21.9285 30.5115C24.8264 29.3112 27.3033 27.2784 29.046 24.6704C30.7886 22.0623 31.7188 18.9961 31.7188 15.8594C31.7143 11.6546 30.042 7.62325 27.0687 4.65001C24.0955 1.67676 20.0642 0.00444035 15.8594 0ZM15.8594 29.2788C13.2053 29.2788 10.6107 28.4918 8.40392 27.0173C6.1971 25.5427 4.47709 23.4469 3.46141 20.9948C2.44572 18.5427 2.17997 15.8445 2.69776 13.2414C3.21555 10.6382 4.49364 8.24712 6.37038 6.37037C8.24713 4.49363 10.6382 3.21555 13.2414 2.69775C15.8445 2.17996 18.5427 2.44571 20.9948 3.4614C23.4469 4.47709 25.5427 6.19709 27.0173 8.40391C28.4918 10.6107 29.2788 13.2053 29.2788 15.8594C29.2748 19.4172 27.8597 22.8281 25.3439 25.3439C22.8282 27.8597 19.4172 29.2748 15.8594 29.2788ZM17.6893 8.53966V23.1791C17.6893 23.5026 17.5608 23.8129 17.332 24.0417C17.1032 24.2705 16.7929 24.399 16.4694 24.399C16.1458 24.399 15.8355 24.2705 15.6067 24.0417C15.3779 23.8129 15.2494 23.5026 15.2494 23.1791V10.8271L13.4866 12.0028C13.3532 12.0917 13.2036 12.1535 13.0464 12.1846C12.8891 12.2157 12.7273 12.2155 12.5701 12.1841C12.4129 12.1527 12.2635 12.0906 12.1303 12.0014C11.9971 11.9122 11.8828 11.7976 11.7939 11.6643C11.705 11.5309 11.6432 11.3813 11.6121 11.2241C11.581 11.0668 11.5812 10.905 11.6126 10.7478C11.644 10.5906 11.7061 10.4412 11.7953 10.308C11.8845 10.1748 11.9991 10.0605 12.1324 9.97158L15.7923 7.53168C15.9755 7.40942 16.1884 7.33906 16.4084 7.32805C16.6284 7.31705 16.8473 7.36581 17.0418 7.46917C17.2363 7.57252 17.3992 7.72662 17.5132 7.91509C17.6272 8.10357 17.6881 8.31939 17.6893 8.53966Z" fill="#5599EE"/>
</svg>
