<svg width="10" height="10" viewBox="0 0 10 10" fill="none" xmlns="http://www.w3.org/2000/svg">
<path d="M4.39835 0.0489666C4.94627 -0.0723076 5.76043 0.0480302 6.29144 0.231253C6.46764 0.292048 6.63016 0.379986 6.80184 0.444558C7.05251 0.538865 7.41107 0.635849 7.63407 0.782262C8.04237 0.964342 8.35844 1.3614 8.58928 1.7353C8.7031 1.9197 8.85874 2.07806 8.98781 2.25106C9.20425 2.56489 9.50262 3.05326 9.579 3.43131C9.61729 3.59847 9.70626 3.67747 9.75671 3.82851C9.83693 4.06828 9.87096 4.33747 9.91907 4.58713C9.98339 4.9658 10.0215 5.31506 9.98702 5.70184C9.96974 5.89671 9.89379 6.08989 9.84227 6.27722C9.61431 7.35479 8.99891 8.3146 8.12739 8.96274C8.04653 9.02285 7.96162 9.09099 7.87543 9.14432C7.33402 9.41393 6.81048 9.766 6.18672 9.77373C5.93798 9.77689 5.76888 9.86497 5.53693 9.9206C5.06528 10.0336 4.5736 10.0259 4.10559 9.89806C3.78617 9.81162 3.58851 9.69055 3.2799 9.61271L3.11552 9.58701C2.93246 9.55805 2.70133 9.45021 2.53329 9.36495C2.21294 9.20242 2.0746 9.07608 1.89403 8.76215C1.76806 8.75636 1.64716 8.73518 1.53957 8.65641C1.25171 8.44565 0.963361 8.11256 0.804952 7.78812C0.759733 7.69549 0.72405 7.52558 0.67848 7.44955C0.55652 7.24609 0.485775 7.16529 0.401578 6.93795C0.310778 6.69276 0.293923 6.48747 0.227157 6.25616C0.171548 6.0635 0.108525 5.96657 0.0611198 5.73937C-0.029083 5.30711 -0.0118872 5.00681 0.06352 4.57164C0.0735793 4.51357 0.148197 4.37637 0.149744 4.34707C0.155696 4.23511 0.137093 4.12163 0.160827 4.00261C0.18197 3.89653 0.215615 3.79271 0.242891 3.68933C0.373757 3.1934 0.59408 2.74384 0.869073 2.31635C1.11255 1.93786 1.41219 1.60912 1.76148 1.33107C1.90558 1.21634 2.03302 1.08929 2.19728 0.991114C2.35044 0.899562 2.50977 0.827837 2.6656 0.742186C2.71629 0.717145 2.7813 0.646051 2.82835 0.625767C3.06638 0.523121 3.31043 0.359212 3.54879 0.271188C3.81674 0.172244 4.12015 0.10901 4.39835 0.0489666Z" fill="#F9C356"/>
<path d="M1.89403 8.76202C1.76806 8.75623 1.64716 8.73504 1.53957 8.65627C1.25171 8.44551 0.963361 8.11242 0.804952 7.78798C0.759733 7.69535 0.72405 7.52544 0.67848 7.44942C0.55652 7.24595 0.485775 7.16515 0.401578 6.93781C0.310778 6.69263 0.293923 6.48733 0.227157 6.25602C0.171548 6.06336 0.108525 5.96643 0.0611198 5.73923C-0.029083 5.30697 -0.0118872 5.00668 0.06352 4.5715C0.0735793 4.51344 0.148197 4.37623 0.149744 4.34694C0.155696 4.23497 0.137093 4.12149 0.160827 4.00247C0.18197 3.8964 0.215615 3.79257 0.242891 3.68919C0.373757 3.19326 0.59408 2.7437 0.869073 2.31622C1.11255 1.93772 1.41219 1.60899 1.76148 1.33093C1.90558 1.2162 2.03302 1.08915 2.19728 0.990976C2.35044 0.899424 2.50977 0.827698 2.6656 0.742047C2.71629 0.717007 2.7813 0.645912 2.82835 0.625629C3.06638 0.522983 3.31043 0.359074 3.54879 0.27105C3.81674 0.172106 4.12015 0.108872 4.39835 0.0488281C4.40856 0.098899 4.51112 0.205541 4.55567 0.217277C4.37394 0.241512 3.86287 0.351203 3.70613 0.432618L3.78841 0.428067C3.67967 0.467501 3.49111 0.526903 3.4071 0.601329L3.40573 0.636146C3.39027 0.642559 3.38149 0.64613 3.36641 0.653664L3.38853 0.665869C3.32122 0.705128 3.03714 0.840926 3.00475 0.876571C3.0081 0.835591 2.99029 0.829995 2.96165 0.813055L2.96056 0.793196C2.91521 0.820992 2.86515 0.851955 2.81797 0.875973C1.76684 1.41097 1.03029 2.16503 0.577514 3.28832C0.420107 3.60853 0.349009 4.06084 0.298019 4.41175C0.293422 4.44335 0.259255 4.42983 0.25247 4.45677C0.227327 4.51729 0.2141 4.68174 0.221215 4.74405C0.185031 5.12573 0.165009 5.46496 0.259606 5.84661C0.283192 5.94175 0.36629 6.10377 0.383166 6.18859C0.431372 6.45661 0.498181 6.6948 0.597781 6.94653C0.656548 7.09504 0.818296 7.28712 0.856123 7.39699C1.02725 7.89402 1.30393 8.30383 1.76578 8.56068C1.79671 8.57789 1.90686 8.58159 1.94551 8.58991C2.01458 8.65645 2.0756 8.78593 2.14648 8.85625C2.28064 8.98936 2.42024 9.07301 2.57903 9.16187C2.66387 9.291 3.06277 9.39569 3.21337 9.40192C3.39094 9.40206 3.4823 9.46971 3.63146 9.53666C4.05651 9.72743 4.55574 9.85503 5.02253 9.8117C5.06581 9.80767 5.11318 9.80691 5.15734 9.80473C5.37847 9.77871 5.55436 9.71524 5.76801 9.68345C5.87158 9.65753 5.95814 9.63043 6.06538 9.61148C6.32806 9.56521 6.56175 9.55879 6.81609 9.47028C7.01484 9.40116 7.18611 9.26272 7.35256 9.19126C7.64127 9.06733 7.71134 9.05618 7.96727 8.84868C8.1243 8.7131 8.33188 8.57857 8.4665 8.43589C8.71985 8.16739 8.99699 7.84547 9.16884 7.51425C9.38464 7.24043 9.50443 6.68273 9.62337 6.35223C9.71117 6.1084 9.76013 5.91837 9.78594 5.65875C9.814 5.37669 9.78082 5.11079 9.77954 4.83214C9.7852 4.73836 9.80866 4.66955 9.90542 4.63007L9.91907 4.58699C9.98339 4.96566 10.0215 5.31492 9.98702 5.7017C9.96974 5.89658 9.89379 6.08975 9.84227 6.27708C9.61431 7.35465 8.99891 8.31446 8.12739 8.96261C8.04653 9.02271 7.96162 9.09085 7.87543 9.14419C7.33402 9.41379 6.81048 9.76586 6.18672 9.77359C5.93798 9.77675 5.76888 9.86483 5.53693 9.92046C5.06528 10.0335 4.5736 10.0257 4.10559 9.89793C3.78617 9.81148 3.58851 9.69041 3.2799 9.61257L3.11552 9.58688C2.93246 9.55791 2.70133 9.45008 2.53329 9.36482C2.21294 9.20228 2.0746 9.07594 1.89403 8.76202Z" fill="#5E1302"/>
<path d="M3.21387 9.40137C3.39144 9.40151 3.48279 9.46915 3.63195 9.53611C4.057 9.72688 4.55623 9.85448 5.02302 9.81115C5.0663 9.80712 5.11367 9.80636 5.15784 9.80418C4.65392 9.96466 3.87158 9.74343 3.42178 9.48591C3.36625 9.45413 3.27478 9.42614 3.21387 9.40137Z" fill="#631003"/>
<path d="M7.96684 8.84912C7.88747 9.01257 7.50878 9.14559 7.35702 9.22079C7.15757 9.31963 6.97553 9.44373 6.76203 9.51791C6.6514 9.5564 6.49849 9.5552 6.41008 9.5896L6.41118 9.59733C6.43028 9.59809 6.46493 9.59799 6.48195 9.60289C6.43038 9.61835 6.40176 9.61083 6.35362 9.62248C6.33073 9.62803 6.25459 9.6804 6.2308 9.68302C6.08507 9.69935 5.91113 9.70054 5.76758 9.68389C5.87115 9.65798 5.9577 9.63087 6.06494 9.61192C6.32762 9.56565 6.56131 9.55923 6.81565 9.47072C7.01441 9.4016 7.18567 9.26316 7.35212 9.1917C7.64083 9.06777 7.71091 9.05662 7.96684 8.84912Z" fill="#631003"/>
<path d="M2.95996 0.793352C3.08922 0.701832 3.54738 0.474015 3.70553 0.432774L3.78781 0.428223C3.67908 0.467657 3.49051 0.527058 3.4065 0.601484L3.40513 0.636302C3.38967 0.642714 3.38089 0.646285 3.36581 0.653819L3.38793 0.666024C3.32062 0.705284 3.03654 0.841082 3.00416 0.876727C3.0075 0.835747 2.98969 0.830151 2.96105 0.81321L2.95996 0.793352Z" fill="#F4BD70"/>
<path d="M3.11642 9.58774C3.08629 9.55464 3.08532 9.56378 3.0791 9.52669C3.12302 9.49271 3.31133 9.51827 3.33923 9.5861C3.32607 9.61082 3.30979 9.61408 3.28079 9.61343L3.11642 9.58774Z" fill="#631003"/>
<path d="M0.221641 4.74382C0.214526 4.68151 0.227753 4.51706 0.252896 4.45654C0.259681 4.4296 0.293848 4.44313 0.298445 4.41152C0.349435 4.06061 0.420533 3.6083 0.57794 3.28809C0.569982 3.34119 0.561864 3.38379 0.563624 3.4377L0.546333 3.47779C0.594751 3.49553 0.63134 3.47375 0.681562 3.45521C0.819778 3.43053 1.02211 3.48101 1.12319 3.58121C1.24267 3.67584 1.34635 3.78317 1.41158 3.92586C1.41571 3.95257 1.42129 3.98421 1.42326 4.01109C1.45037 4.38023 1.12898 4.84598 0.784021 4.94076C0.608373 4.89359 0.470818 4.85555 0.371218 4.66681C0.345371 4.61781 0.348806 4.56571 0.309934 4.5173L0.298915 4.51638C0.280322 4.60733 0.245738 4.62775 0.221641 4.74382Z" fill="#984819"/>
<path d="M0.681337 3.45639C0.819554 3.43171 1.02188 3.48219 1.12296 3.58239C0.982838 3.54516 0.837528 3.47941 0.693797 3.49139C0.629803 3.49673 0.584553 3.54242 0.536731 3.53653C0.527877 3.50893 0.532635 3.51415 0.546108 3.47897C0.594527 3.49672 0.631116 3.47493 0.681337 3.45639Z" fill="#F4BD70"/>
<path d="M7.51977 0.927069L7.53454 0.918795C7.49654 0.863368 7.0223 0.692926 6.92676 0.65236C6.94988 0.622572 6.95194 0.605544 6.9668 0.572186C6.97114 0.562441 6.99299 0.53494 6.99582 0.535658C7.21004 0.589714 7.41302 0.695441 7.61262 0.789094C7.61972 0.786666 7.62682 0.784238 7.63392 0.7818C8.04222 0.96388 8.35829 1.36094 8.58913 1.73483C8.70295 1.91923 8.85859 2.0776 8.98766 2.2506C9.2041 2.56443 9.50247 3.0528 9.57884 3.43084C9.5701 3.49584 9.58471 3.51088 9.54631 3.55706C9.51196 3.54748 9.43782 3.44169 9.39014 3.40793C9.29691 3.21389 9.28955 3.24504 9.14223 3.11507C9.11898 3.02875 9.11962 2.82445 9.08729 2.75541C8.96302 2.47756 8.70476 2.24778 8.53782 1.99933C8.21375 1.51716 8.04659 1.21406 7.51977 0.927069Z" fill="#5E1302"/>
<path d="M4.39844 0.0489666C4.94635 -0.0723076 5.76051 0.0480302 6.29152 0.231253C6.46773 0.292048 6.63024 0.379986 6.80192 0.444558C7.05259 0.538865 7.41115 0.635849 7.63415 0.782262C7.62706 0.784701 7.61996 0.787129 7.61286 0.789557C7.41325 0.695904 7.21028 0.590177 6.99606 0.536121C6.99323 0.535402 6.97138 0.562904 6.96704 0.572648C6.95218 0.606007 6.95012 0.623035 6.927 0.652822C7.02254 0.693389 7.49678 0.86383 7.53478 0.919258L7.52001 0.927532C7.15473 0.756611 6.78511 0.630122 6.4124 0.478048C5.80036 0.228303 5.21135 0.140279 4.55576 0.217416C4.5112 0.205679 4.40865 0.0990375 4.39844 0.0489666Z" fill="#631003"/>
<path d="M2.5791 9.16178C2.7492 9.24007 2.94382 9.34222 3.13672 9.35305C3.2669 9.36036 3.48802 9.25522 3.61073 9.2767C3.71895 9.29565 3.79404 9.44792 3.92925 9.47312C3.8734 9.47407 3.78182 9.417 3.73708 9.38502C3.6754 9.43287 3.62362 9.44321 3.60055 9.46393L3.60475 9.48068C3.83968 9.55957 4.05508 9.64917 4.29716 9.70698C4.62421 9.78515 4.9286 9.7919 5.26 9.73355C5.33338 9.7207 5.42143 9.72342 5.49517 9.70665C5.59241 9.67388 5.67359 9.6311 5.77552 9.61204C6.33151 9.52901 6.86676 9.48106 7.34194 9.14045C7.41505 9.09752 7.55555 9.07703 7.62203 9.0319C7.87013 8.86348 8.16554 8.66453 8.39414 8.47641C8.53452 8.36077 8.69283 8.13249 8.81987 7.99488C8.93476 7.87043 9.03397 7.63297 9.1624 7.51711C9.16464 7.51612 9.16678 7.51514 9.16891 7.51416C8.99706 7.84538 8.71992 8.1673 8.46657 8.4358C8.33195 8.57847 8.12436 8.71301 7.96734 8.84859C7.71141 9.05609 7.64134 9.06724 7.35263 9.19117C7.18617 9.26262 7.01491 9.40107 6.81616 9.47019C6.56182 9.5587 6.32813 9.56512 6.06545 9.61139C5.95821 9.63033 5.87165 9.65744 5.76808 9.68336C5.55443 9.71515 5.37853 9.77862 5.15741 9.80464C5.11325 9.80682 5.06588 9.80758 5.0226 9.81161C4.55581 9.85494 4.05658 9.72734 3.63153 9.53657C3.48237 9.46962 3.39101 9.40197 3.21344 9.40183C3.06284 9.3956 2.66394 9.29091 2.5791 9.16178Z" fill="#D37F2B"/>
<path d="M1.41174 3.92578C1.57674 4.09017 1.69698 4.18235 1.68923 4.43549C1.67285 4.97041 1.18874 5.06004 0.78418 4.94069C1.12914 4.8459 1.45052 4.38015 1.42342 4.01102C1.42145 3.98414 1.41587 3.9525 1.41174 3.92578Z" fill="#B36D33"/>
<path d="M3.01762 0.959324L3.02808 0.951877C3.03949 0.943668 3.04252 0.941207 3.05232 0.930494C3.09056 0.925431 3.0875 0.91965 3.11734 0.933096C3.11496 0.984114 3.08256 1.0149 3.05019 1.05761C2.94369 1.15672 2.85277 1.20784 2.72336 1.26639C2.66751 1.2979 2.56809 1.33268 2.51885 1.37089C2.17141 1.6405 1.80696 1.90185 1.53708 2.25706C1.46325 2.35424 1.40445 2.4072 1.2959 2.45995C1.38326 2.2679 1.73799 1.84264 1.89898 1.69319C2.11249 1.49497 2.46967 1.32403 2.71621 1.16084C2.81316 1.09666 2.91816 1.01809 3.01762 0.959324Z" fill="#F7F6F2"/>
<path d="M9.39062 3.4082C9.43831 3.44196 9.51245 3.54776 9.54679 3.55734C9.5852 3.51115 9.57058 3.49612 9.57933 3.43112C9.61763 3.59829 9.70659 3.67728 9.75705 3.82832C9.83727 4.0681 9.87129 4.33729 9.9194 4.58694L9.90575 4.63003C9.809 4.6695 9.78553 4.73831 9.77988 4.83209C9.7578 4.75107 9.74265 4.58686 9.71929 4.48852C9.63192 4.1203 9.54402 3.75369 9.39062 3.4082Z" fill="#631003"/>
<path d="M4.51488 0.264134C4.55561 0.264863 4.56269 0.258309 4.59383 0.278429C4.56021 0.351766 3.90065 0.432713 3.77379 0.508533C3.64462 0.554728 3.51763 0.615849 3.38834 0.665202L3.36621 0.652997C3.38129 0.645463 3.39007 0.641892 3.40553 0.635479L3.40691 0.600662C3.49091 0.526236 3.67948 0.466834 3.78821 0.4274C3.89563 0.372484 4.37158 0.28519 4.51488 0.264134Z" fill="#F8E6C8"/>
<path d="M4.5155 0.265417C4.59993 0.247126 4.86517 0.215651 4.93761 0.240822C4.94921 0.252036 4.94595 0.245253 4.94785 0.260909C4.89657 0.331242 4.64741 0.323577 4.56537 0.337186C4.42047 0.361214 4.27842 0.39637 4.13555 0.430436C4.06626 0.44606 3.82014 0.515706 3.77441 0.509816C3.90128 0.433996 4.56084 0.353049 4.59445 0.279712C4.56332 0.259592 4.55623 0.266146 4.5155 0.265417Z" fill="#F4BD70"/>
<path d="M2.88493 0.895508L2.89216 0.910358C2.8088 1.00436 2.66827 1.14203 2.52637 1.10936L2.53301 1.0908C2.61603 1.02109 2.78463 0.93995 2.88493 0.895508Z" fill="#FCE2B6"/>
<path d="M2.96207 0.813477C2.99071 0.830417 3.00852 0.836013 3.00517 0.876993C3.06399 0.911735 3.15346 0.891027 3.17609 0.951724C3.1549 0.994315 3.09214 1.02951 3.05093 1.05761C3.08329 1.0149 3.1157 0.984114 3.11808 0.933096C3.08823 0.91965 3.09129 0.925431 3.05306 0.930494C3.04326 0.941207 3.04023 0.943668 3.02881 0.951877L3.01836 0.959323C3.00063 0.949862 2.92105 0.92259 2.89298 0.910886L2.88574 0.896035C2.89569 0.866128 2.9366 0.836209 2.96207 0.813477Z" fill="#FCE2B6"/>
<path d="M5.61778 4.96271C5.78113 4.95486 5.98367 4.96541 6.0294 5.15587C6.14797 5.64974 5.78069 6.129 5.35648 6.27698C5.10425 6.36291 4.82888 6.34279 4.59122 6.22107C4.26531 6.06722 4.06577 5.78784 4.02027 5.42504C3.9693 5.01864 4.46212 5.04994 4.7347 5.02599C5.02849 4.99728 5.32294 4.97618 5.61778 4.96271Z" fill="#5E1302"/>
<path d="M5.01832 5.5612C5.03236 5.55966 5.04644 5.55858 5.06054 5.55796C5.30688 5.54738 5.55595 5.59887 5.7426 5.77212C5.57387 6.02225 5.41337 6.08571 5.14181 6.1607C5.13131 6.16171 5.12079 6.16249 5.11025 6.16308C4.79568 6.18043 4.62635 6.08083 4.4043 5.87711C4.58856 5.67712 4.74797 5.59236 5.01832 5.5612Z" fill="#ED6D49"/>
<path d="M5.4388 0.726392C5.69417 0.718521 5.79183 0.766872 5.99158 0.933785C6.25129 1.15082 6.35214 1.52178 6.11351 1.79745C5.98653 1.94411 5.80404 1.96997 5.61927 1.98031C5.28681 1.9751 4.88747 1.79069 4.80477 1.42504C4.72947 1.09209 5.14984 0.777639 5.4388 0.726392Z" fill="#A3541D"/>
<path d="M6.63813 3.54577C6.99099 3.4906 7.32062 3.7385 7.37352 4.09881C7.42643 4.45912 7.18247 4.79474 6.82927 4.84757C6.47769 4.90014 6.15069 4.65254 6.09803 4.29389C6.04537 3.93523 6.2869 3.60068 6.63813 3.54577Z" fill="#5E1302"/>
<path d="M6.54105 3.7749C6.78426 3.81332 6.79713 4.12095 6.54949 4.20217C6.44987 4.18958 6.37783 4.13895 6.35305 4.03581C6.33899 3.97926 6.34842 3.91929 6.37911 3.87006C6.4197 3.80557 6.47285 3.78846 6.54105 3.7749Z" fill="#F7F6F2"/>
<path d="M6.98246 4.33355C7.01801 4.31667 7.05972 4.32074 7.09148 4.34419C7.12324 4.36764 7.14008 4.4068 7.1355 4.44654C7.13091 4.48628 7.10561 4.52037 7.06937 4.53564C7.01502 4.55854 6.9527 4.53293 6.92906 4.47798C6.90543 4.42302 6.92916 4.35886 6.98246 4.33355Z" fill="#F7F6F2"/>
<path d="M3.22852 3.67848C4.04125 3.63332 4.17452 4.84276 3.38356 5.004C2.97887 5.02104 2.73707 4.84809 2.67636 4.42211C2.6238 4.0533 2.8553 3.71383 3.22852 3.67848Z" fill="#5E1302"/>
<path d="M3.02904 3.94768C3.13151 3.91492 3.24073 3.97239 3.27401 4.07658C3.30731 4.18077 3.25227 4.29291 3.15057 4.32809C3.08373 4.35123 3.00987 4.33589 2.95718 4.28795C2.9045 4.24001 2.88114 4.16687 2.89601 4.09645C2.91088 4.02603 2.96169 3.96921 3.02904 3.94768Z" fill="#F7F6F2"/>
<path d="M3.54681 4.48375C3.58493 4.47478 3.62479 4.48777 3.65078 4.51761C3.67677 4.54745 3.68471 4.58939 3.67151 4.62696C3.6583 4.66455 3.62605 4.69177 3.58741 4.69796C3.53052 4.70706 3.47676 4.66855 3.46583 4.61085C3.4549 4.55314 3.4907 4.49696 3.54681 4.48375Z" fill="#F7F6F2"/>
<path d="M7.50937 6.28984C7.8871 6.25516 8.09639 6.46606 8.17085 6.83642C8.19869 6.97495 8.11453 7.16581 8.03527 7.27539C7.92316 7.43056 7.79197 7.49038 7.6087 7.51736C7.45931 7.50067 7.32492 7.48912 7.19459 7.3998C7.06624 7.30953 6.95136 7.11612 6.92907 6.95808C6.87472 6.57261 7.1856 6.34687 7.50937 6.28984Z" fill="#984819"/>
<path d="M2.72014 7.32807C2.57814 7.50178 2.32095 7.55895 2.1058 7.51313C1.90844 7.46375 1.76156 7.27766 1.70396 7.08601C1.69796 7.06601 1.72612 6.99817 1.73092 6.97563C1.74393 6.91454 1.75329 6.85306 1.76676 6.79208C1.83261 6.494 2.16725 6.35926 2.437 6.43551C2.60764 6.48376 2.69085 6.56848 2.7746 6.72137C2.93687 6.88117 2.89717 7.19451 2.72014 7.32807Z" fill="#B36D33"/>
<path d="M2.77516 6.72168C2.93743 6.88148 2.89774 7.19482 2.7207 7.32838C2.73627 7.29922 2.75154 7.26989 2.7665 7.2404C2.86358 7.04877 2.83624 6.91832 2.77516 6.72168Z" fill="#F4BD70"/>
<path d="M2.96338 1.79216C3.08886 1.77599 3.25494 1.78672 3.36248 1.86096C3.46795 1.93419 3.5402 2.04758 3.563 2.17569C3.62798 2.56184 3.38594 2.78542 3.03579 2.84701C2.77716 2.88306 2.496 2.85631 2.43782 2.53999C2.36923 2.16712 2.60027 1.85485 2.96338 1.79216Z" fill="#984819"/>
<path d="M5.08212 7.96906C5.1627 7.74667 5.34102 7.63381 5.56638 7.60235C5.71442 7.58167 5.7917 7.60062 5.90525 7.68932C6.04849 7.80911 6.03219 7.92171 6.03105 8.10283C6.03694 8.34554 5.79032 8.56972 5.55763 8.4758C5.48774 8.44759 5.42271 8.36427 5.36022 8.32274C5.25435 8.25239 5.17017 8.231 5.08206 8.13259C5.07882 8.08062 5.07282 8.01968 5.08212 7.96906Z" fill="#984819"/>
<path d="M5.90525 7.68994C6.04849 7.80973 6.03219 7.92233 6.03105 8.10345C6.03694 8.34617 5.79032 8.57035 5.55763 8.47642C5.48774 8.44821 5.42271 8.36489 5.36022 8.32337C5.25435 8.25301 5.17017 8.23162 5.08206 8.13321C5.07882 8.08124 5.07282 8.02031 5.08212 7.96968C5.10685 8.19099 5.20351 8.17155 5.36011 8.27752C5.42733 8.32312 5.49256 8.40843 5.56959 8.4357C5.92335 8.56096 6.01171 8.21349 5.97924 7.93012C5.96653 7.81927 5.94921 7.78537 5.90525 7.68994Z" fill="#D37F2B"/>
<path d="M7.08106 1.8908C7.12333 1.88564 7.18152 1.88829 7.22549 1.88909C7.40932 2.01526 7.57016 2.24319 7.57643 2.47213C7.58252 2.69444 7.38781 2.85098 7.18276 2.84584C6.93917 2.78045 6.51053 2.48958 6.69884 2.19002C6.77797 2.06415 6.93515 1.92421 7.08106 1.8908Z" fill="#AA5921"/>
<path d="M0.729492 3.03429C0.816345 2.83357 1.27007 2.02327 1.4425 1.96582L1.45877 1.97799C1.46915 2.10322 1.22984 2.31327 1.19851 2.42179C1.16217 2.54771 1.13431 2.6759 1.0963 2.80294C1.07462 2.84704 1.06691 2.87294 1.02568 2.89192L1.00508 2.8803C0.980547 2.84249 0.978681 2.79791 0.972334 2.75241L0.957655 2.75956L0.955906 2.76849C0.876424 2.8447 0.817242 3.02563 0.751168 3.04722L0.729492 3.03429Z" fill="#FCE2B6"/>
<path d="M8.74754 3.22266C8.89261 3.22198 9.01603 3.46734 9.07833 3.58646C9.16399 3.75 9.22575 4.00502 9.1722 4.18917C9.16527 4.21293 9.13231 4.27858 9.11076 4.28972L9.11737 4.25477C9.23173 4.12266 9.1674 3.87886 9.12345 3.72667C9.11012 3.68037 9.02265 3.48463 8.98286 3.465C8.96163 3.47848 8.95971 3.4808 8.93507 3.48874C8.87928 3.45589 8.78071 3.34516 8.74028 3.28635C8.72834 3.26903 8.74103 3.24419 8.74754 3.22266Z" fill="#FCE2B6"/>
<path d="M5.27754 8.91309C5.31698 8.9221 5.33169 8.92131 5.35797 8.952C5.37262 8.98891 5.3691 8.99599 5.36442 9.03729C5.2928 9.02318 5.27072 8.98565 5.27754 8.91309Z" fill="#F4BD70"/>
</svg>
