<svg width="28" height="28" viewBox="0 0 28 28" fill="none" xmlns="http://www.w3.org/2000/svg">
<path d="M25.8796 27.5218C26.1096 27.6244 26.3772 27.6434 26.6234 27.5746C26.7453 27.5405 26.8583 27.4859 26.9559 27.4138C27.0535 27.3418 27.1338 27.2538 27.1923 27.1547C27.2507 27.0557 27.2862 26.9477 27.2966 26.8368C27.307 26.7258 27.2922 26.6142 27.253 26.5083C27.2138 26.4023 27.1509 26.3041 27.068 26.2193C26.9852 26.1345 26.8839 26.0647 26.7699 26.0138L25.8796 27.5218ZM26.7699 26.0138C23.7522 24.6676 22.5231 22.8827 22.0038 20.9108C21.4578 18.8353 21.6929 16.6106 21.6929 14.2378H19.7428C19.7428 16.3927 19.4909 18.9651 20.1027 21.2885C20.7412 23.7156 22.3158 25.9325 25.8796 27.5218L26.7699 26.0138Z" fill="#008463"/>
<path d="M13.6357 8.85114C13.5182 5.78375 13.0014 2.58654 10.9973 0.907568C8.21173 -1.4242 3.98459 1.08189 4.58299 4.5202C0.700786 4.11467 -1.91661 9.35434 1.99403 11.8233C3.85353 12.9954 5.75754 13.3638 7.99042 13.464C5.73158 13.5901 3.81026 13.9882 1.93221 15.1726C-1.97719 17.6404 0.638968 22.8801 4.52241 22.4745C3.92277 25.9128 8.03741 28.2767 10.9355 26.0872C12.7245 24.7346 13.3711 22.4041 13.5788 19.9487C13.8113 22.4041 14.4851 24.7346 16.2741 26.0872C19.1722 28.2767 23.2856 25.9141 22.6872 22.4745C26.5694 22.8801 29.1868 17.6404 25.2761 15.1726C23.4141 13.9981 21.4755 13.5963 19.2117 13.4665C21.4743 13.3713 23.3968 13.009 25.2761 11.8221C29.1868 9.35558 26.5706 4.11467 22.6872 4.5202C23.2856 1.08313 19.0584 -1.4242 16.2741 0.907568C14.27 2.58654 13.7519 5.78375 13.6357 8.85114Z" fill="#43BB65"/>
</svg>
