<svg width="35" height="35" viewBox="0 0 35 35" fill="none" xmlns="http://www.w3.org/2000/svg">
<path opacity="0.5" d="M32.0837 14.5834H2.91699V27.7084C2.91699 28.8687 3.37793 29.9815 4.1984 30.802C5.01887 31.6225 6.13167 32.0834 7.29199 32.0834H27.7087C28.869 32.0834 29.9818 31.6225 30.8023 30.802C31.6227 29.9815 32.0837 28.8687 32.0837 27.7084V14.5834ZM10.2087 11.6667C9.82189 11.6667 9.45095 11.5131 9.17746 11.2396C8.90397 10.9661 8.75033 10.5952 8.75033 10.2084V4.37508C8.75033 3.98831 8.90397 3.61737 9.17746 3.34388C9.45095 3.07039 9.82189 2.91675 10.2087 2.91675C10.5954 2.91675 10.9664 3.07039 11.2399 3.34388C11.5133 3.61737 11.667 3.98831 11.667 4.37508V10.2084C11.667 10.5952 11.5133 10.9661 11.2399 11.2396C10.9664 11.5131 10.5954 11.6667 10.2087 11.6667ZM24.792 11.6667C24.4052 11.6667 24.0343 11.5131 23.7608 11.2396C23.4873 10.9661 23.3337 10.5952 23.3337 10.2084V4.37508C23.3337 3.98831 23.4873 3.61737 23.7608 3.34388C24.0343 3.07039 24.4052 2.91675 24.792 2.91675C25.1788 2.91675 25.5497 3.07039 25.8232 3.34388C26.0967 3.61737 26.2503 3.98831 26.2503 4.37508V10.2084C26.2503 10.5952 26.0967 10.9661 25.8232 11.2396C25.5497 11.5131 25.1788 11.6667 24.792 11.6667Z" fill="#EF9F27"/>
<path d="M27.7087 5.83325H26.2503V10.2083C26.2503 10.595 26.0967 10.966 25.8232 11.2394C25.5497 11.5129 25.1788 11.6666 24.792 11.6666C24.4052 11.6666 24.0343 11.5129 23.7608 11.2394C23.4873 10.966 23.3337 10.595 23.3337 10.2083V5.83325H11.667V10.2083C11.667 10.595 11.5133 10.966 11.2399 11.2394C10.9664 11.5129 10.5954 11.6666 10.2087 11.6666C9.82189 11.6666 9.45095 11.5129 9.17746 11.2394C8.90397 10.966 8.75033 10.595 8.75033 10.2083V5.83325H7.29199C6.13167 5.83325 5.01887 6.29419 4.1984 7.11466C3.37793 7.93513 2.91699 9.04793 2.91699 10.2083V14.5833H32.0837V10.2083C32.0837 9.04793 31.6227 7.93513 30.8023 7.11466C29.9818 6.29419 28.869 5.83325 27.7087 5.83325Z" fill="#EF9F27"/>
</svg>
