<svg width="15" height="15" viewBox="0 0 15 15" fill="none" xmlns="http://www.w3.org/2000/svg"><path fill-rule="evenodd" clip-rule="evenodd" d="M0 7.5C0 3.35775 3.35775 0 7.5 0C11.6423 0 15 3.35775 15 7.5C15 11.6423 11.6423 15 7.5 15C3.35775 15 0 11.6423 0 7.5ZM3.375 5.625C3.375 5.42609 3.45402 5.23532 3.59467 5.09467C3.73532 4.95402 3.92609 4.875 4.125 4.875H6C6.19891 4.875 6.38968 4.95402 6.53033 5.09467C6.67098 5.23532 6.75 5.42609 6.75 5.625C6.75 5.82391 6.67098 6.01468 6.53033 6.15533C6.38968 6.29598 6.19891 6.375 6 6.375H4.125C3.92609 6.375 3.73532 6.29598 3.59467 6.15533C3.45402 6.01468 3.375 5.82391 3.375 5.625ZM9 4.875C8.80109 4.875 8.61032 4.95402 8.46967 5.09467C8.32902 5.23532 8.25 5.42609 8.25 5.625C8.25 5.82391 8.32902 6.01468 8.46967 6.15533C8.61032 6.29598 8.80109 6.375 9 6.375H10.875C11.0739 6.375 11.2647 6.29598 11.4053 6.15533C11.546 6.01468 11.625 5.82391 11.625 5.625C11.625 5.42609 11.546 5.23532 11.4053 5.09467C11.2647 4.95402 11.0739 4.875 10.875 4.875H9ZM5.25 9C5.05109 9 4.86032 9.07902 4.71967 9.21967C4.57902 9.36032 4.5 9.55109 4.5 9.75C4.5 9.94891 4.57902 10.1397 4.71967 10.2803C4.86032 10.421 5.05109 10.5 5.25 10.5H9.75C9.94891 10.5 10.1397 10.421 10.2803 10.2803C10.421 10.1397 10.5 9.94891 10.5 9.75C10.5 9.55109 10.421 9.36032 10.2803 9.21967C10.1397 9.07902 9.94891 9 9.75 9H5.25Z" fill="#3D2000"/></svg>
