<svg width="60" height="61" viewBox="0 0 60 61" fill="none" xmlns="http://www.w3.org/2000/svg">
<rect width="60" height="60" rx="30" fill="#FEF4D2"/>
<path d="M41.5425 20.9326C38.685 17.9326 34.6106 18.0263 31.8131 20.4582C31.345 20.8619 30.7475 21.084 30.1294 21.084C29.5113 21.084 28.9137 20.8619 28.4456 20.4582C25.65 18.0245 21.5719 17.9345 18.7181 20.9326C17.055 23.057 16.4756 25.0163 16.5356 26.8145C16.5975 28.6557 17.3344 30.4857 18.5719 32.2932C21.075 35.9551 25.3669 39.1745 28.9913 41.7301C29.324 41.9658 29.7216 42.0924 30.1294 42.0924C30.5371 42.0924 30.9348 41.9658 31.2675 41.7301C34.8656 39.1876 39.1575 35.9663 41.6681 32.3026C42.9075 30.4913 43.65 28.6576 43.7138 26.8163C43.7794 25.0163 43.2038 23.0551 41.5425 20.9326ZM30.1294 18.1988C34.0013 14.9663 39.7256 14.8876 43.6331 19.0501L43.6744 19.0951L43.7119 19.142C45.7556 21.7295 46.6181 24.3451 46.5244 26.9157C46.4344 29.4563 45.4181 31.802 43.9875 33.8907C41.1544 38.0307 36.45 41.5126 32.8913 44.027C31.2319 45.1988 29.0288 45.1988 27.3694 44.0288C23.7863 41.5013 19.0781 38.0176 16.2506 33.8813C14.8219 31.7926 13.8113 29.4488 13.725 26.9101C13.6388 24.3413 14.505 21.7295 16.5488 19.142L16.5863 19.0951L16.6275 19.0501C20.5331 14.8876 26.2613 14.9663 30.1294 18.1988Z" fill="#EF9F27"/>
<path opacity="0.5" d="M29.3719 19.2596C29.8014 19.6393 30.4605 19.6393 30.8881 19.2596C34.2154 16.317 39.1597 16.2069 42.556 19.8842C49.9948 29.4618 39.1951 37.9136 32.0719 43.0355C31.5041 43.4442 30.8256 43.6636 30.13 43.6636C29.4344 43.6636 28.7559 43.4442 28.1882 43.0355C21.0126 37.8889 10.2633 29.4618 17.704 19.8842C21.0985 16.2069 26.0465 16.317 29.3738 19.2596" fill="#EF9F27"/>
</svg>
