<svg width="27" height="26" viewBox="0 0 27 26" fill="none" xmlns="http://www.w3.org/2000/svg">
<path d="M16.4759 10.8804L10.8643 1.06402C10.4988 0.400437 9.84309 0 9.12284 0H2.03856C0.4798 0 -0.498454 1.7848 0.264799 3.22637C1.68342 5.89754 3.68563 8.1658 6.10208 9.8393C6.91908 10.5143 7.92958 10.8804 8.97234 10.8804H16.4759Z" fill="#0074BA"/>
<path d="M24.9568 0H17.8725C17.1523 0 16.4965 0.400437 16.131 1.06402L10.5195 10.8804H18.0338C19.0765 10.8804 20.0763 10.5143 20.904 9.8393C23.3228 8.1689 25.3223 5.90358 26.7413 3.22637C27.4938 1.7848 26.5155 0 24.9568 0Z" fill="#00A6ED"/>
<path d="M12.9604 25.2108C18.9253 25.2108 23.7607 20.3753 23.7607 14.4105C23.7607 8.44564 18.9253 3.61017 12.9604 3.61017C6.99549 3.61017 2.1601 8.44564 2.1601 14.4105C2.1601 20.3753 6.99549 25.2108 12.9604 25.2108Z" fill="#FFB02E"/>
<path d="M11.0035 11.0296C11.0035 10.7262 11.1168 10.4352 11.3184 10.2206C11.52 10.0061 11.7934 9.88553 12.0785 9.88553H13.0718C13.357 9.88553 13.6304 10.0061 13.832 10.2206C14.0336 10.4352 14.1469 10.7262 14.1469 11.0296V18.9915C14.1469 19.2949 14.0336 19.5859 13.832 19.8005C13.6304 20.015 13.357 20.1356 13.0718 20.1356C12.7867 20.1356 12.5133 20.015 12.3117 19.8005C12.1101 19.5859 11.9968 19.2949 11.9968 18.9915V12.1703C11.7267 12.1484 11.4743 12.0187 11.2901 11.8072C11.1059 11.5957 11.0036 11.318 11.0035 11.0296Z" fill="#6D4534"/>
<path d="M12.9604 23.9462C10.3624 23.9462 7.91863 22.9364 6.09127 21.0994C4.25234 19.2622 3.22817 16.7926 3.24016 14.2244C3.24016 11.6247 4.25291 9.1862 6.09127 7.34927C6.98325 6.44971 8.05152 5.7344 9.23252 5.24588C10.4135 4.75736 11.6832 4.50562 12.9659 4.50562C14.2486 4.50562 15.5182 4.75736 16.6992 5.24588C17.8802 5.7344 18.9485 6.44971 19.8405 7.34927C23.6273 11.1413 23.6273 17.3074 19.8405 21.0994C17.9911 22.9364 15.5473 23.9462 12.9604 23.9462ZM12.9494 5.82386C10.8028 5.82386 8.64517 6.64027 7.01596 8.28385C5.4309 9.87316 4.54928 12.0066 4.56114 14.2244C4.56114 16.4695 5.43078 18.575 7.01596 20.1649C7.78455 20.9433 8.70619 21.5624 9.7257 21.9851C10.7452 22.4078 11.8417 22.6254 12.9494 22.6249C15.195 22.6249 17.2976 21.7547 18.8828 20.1649C22.1522 16.8885 22.1522 11.5603 18.8828 8.28385C18.115 7.50443 17.1935 6.88469 16.1738 6.46193C15.1541 6.03916 14.0573 5.82212 12.9494 5.82386Z" fill="#FCD53F"/>
</svg>
