<svg width="25" height="25" viewBox="0 0 25 25" fill="none" xmlns="http://www.w3.org/2000/svg">
<path d="M15.7209 9.96777L10.3665 0.974766C10.0177 0.366847 9.39199 0 8.70474 0H1.94504C0.4577 0 -0.475733 1.63509 0.25255 2.95574C1.60617 5.40284 3.51664 7.48084 5.82238 9.01396C6.60195 9.63236 7.56615 9.96777 8.56113 9.96777H15.7209Z" fill="#0074BA"/>
<path d="M23.0504 0H16.2907C15.6035 0 14.9778 0.366847 14.629 0.974766L9.2746 9.96777H16.4446C17.4396 9.96777 18.3935 9.63236 19.1834 9.01396C21.4913 7.48369 23.3992 5.40838 24.7532 2.95574C25.4712 1.63509 24.5378 0 23.0504 0Z" fill="#00A6ED"/>
<path d="M12.3657 24.7322C18.0572 24.7322 22.6708 20.1185 22.6708 14.4273C22.6708 8.73601 18.0572 4.12231 12.3657 4.12231C6.67435 4.12231 2.06067 8.73601 2.06067 14.4273C2.06067 20.1185 6.67435 24.7322 12.3657 24.7322Z" fill="#BEBEBE"/>
<path d="M12.3662 23.7011C9.88737 23.7011 7.55561 22.7376 5.81204 20.9849C4.05742 19.2319 3.08021 16.8756 3.09165 14.4251C3.09165 11.9447 4.05797 9.61807 5.81204 7.86539C6.66312 7.00709 7.6824 6.32458 8.80926 5.85847C9.93611 5.39236 11.1475 5.15216 12.3714 5.15216C13.5953 5.15216 14.8067 5.39236 15.9336 5.85847C17.0605 6.32458 18.0797 7.00709 18.9308 7.86539C22.544 11.4835 22.544 17.3668 18.9308 20.9849C17.1662 22.7376 14.8345 23.7011 12.3662 23.7011ZM12.3557 6.40994C10.3075 6.40994 8.24883 7.18891 6.69433 8.7571C5.18195 10.2735 4.34075 12.3091 4.35206 14.4251C4.35206 16.5673 5.18183 18.5762 6.69433 20.0932C7.42767 20.8359 8.30705 21.4266 9.27982 21.8299C10.2526 22.2332 11.2987 22.4408 12.3557 22.4404C14.4984 22.4404 16.5045 21.6101 18.017 20.0932C21.1365 16.9671 21.1365 11.8832 18.017 8.7571C17.2844 8.01344 16.4052 7.42212 15.4322 7.01874C14.4593 6.61537 13.4128 6.40828 12.3557 6.40994Z" fill="#E6E6E6"/>
<path d="M14.311 18.9683H10.2388C10.0426 18.9688 9.85041 18.9118 9.68497 18.8041C9.51952 18.6963 9.38779 18.5423 9.30539 18.3604C9.22047 18.18 9.1879 17.9785 9.21153 17.7797C9.23516 17.581 9.314 17.3933 9.43873 17.2389L12.8237 12.994C13.0904 12.6586 12.9673 12.3022 12.9263 12.1974C12.8781 12.0757 12.7961 11.9711 12.6904 11.8966C12.5846 11.822 12.4598 11.7809 12.3314 11.7781H12.2801C11.9518 11.7781 11.6544 11.9353 11.4595 12.2079C11.1312 12.6795 10.485 12.7948 10.0132 12.4594C9.90188 12.379 9.80721 12.277 9.73459 12.1591C9.66197 12.0413 9.61282 11.91 9.58995 11.7727C9.56708 11.6354 9.57095 11.4948 9.60133 11.3591C9.6317 11.2233 9.68799 11.095 9.76697 10.9815C10.3414 10.1535 11.2748 9.66089 12.2698 9.66089H12.4032C13.4494 9.7133 14.3623 10.3527 14.7932 11.3274C15.2342 12.3336 15.0906 13.4761 14.4136 14.3251L12.4134 16.8406H14.3008C14.8752 16.8406 15.3368 17.3123 15.3368 17.8992C15.3368 18.4862 14.8855 18.9683 14.311 18.9683Z" fill="#636363"/>
</svg>
