<svg width="25" height="25" viewBox="0 0 25 25" fill="none" xmlns="http://www.w3.org/2000/svg">
<path d="M15.9075 9.87092L10.4895 0.965295C10.1366 0.363283 9.50347 0 8.80806 0H1.96813C0.463133 0 -0.48138 1.6192 0.255548 2.92702C1.62523 5.35035 3.55838 7.40816 5.89149 8.92638C6.68031 9.53878 7.65596 9.87092 8.66275 9.87092H15.9075Z" fill="#0074BA"/>
<path d="M23.1403 0H16.6925C16.0369 0 15.4401 0.368034 15.1074 0.977918L10 10H16.8392C17.7883 10 18.6983 9.66351 19.4517 9.04311C21.6531 7.50789 23.473 5.42587 24.7645 2.9653C25.4494 1.64038 24.5591 0 23.1403 0Z" fill="#00A6ED"/>
<path d="M12.5 25C18.253 25 22.9166 20.3363 22.9166 14.5833C22.9166 8.83037 18.253 4.16666 12.5 4.16666C6.74695 4.16666 2.08331 8.83037 2.08331 14.5833C2.08331 20.3363 6.74695 25 12.5 25Z" fill="#D3883E"/>
<path d="M12.5001 23.9583C9.9944 23.9583 7.63739 22.9844 5.87494 21.2127C4.10133 19.4408 3.11354 17.0588 3.1251 14.5819C3.1251 12.0746 4.10188 9.72267 5.87494 7.95099C6.73524 7.08338 7.76556 6.39348 8.90462 5.92231C10.0437 5.45115 11.2682 5.20834 12.5054 5.20834C13.7425 5.20834 14.967 5.45115 16.1061 5.92231C17.2452 6.39348 18.2755 7.08338 19.1358 7.95099C22.7881 11.6083 22.7881 17.5554 19.1358 21.2127C17.3521 22.9844 14.9951 23.9583 12.5001 23.9583ZM12.4894 6.47976C10.4191 6.47976 8.33813 7.26718 6.76679 8.85237C5.23803 10.3852 4.38772 12.4429 4.39916 14.5819C4.39916 16.7473 5.23792 18.778 6.76679 20.3114C7.50807 21.0621 8.39697 21.6592 9.38028 22.0669C10.3636 22.4746 11.4211 22.6845 12.4894 22.684C14.6553 22.684 16.6832 21.8447 18.2121 20.3114C21.3654 17.1513 21.3654 12.0124 18.2121 8.85237C17.4715 8.10064 16.5828 7.50291 15.5993 7.09517C14.6158 6.68742 13.558 6.47808 12.4894 6.47976Z" fill="#F3AD61"/>
<path d="M13.9416 13.816L15.0293 11.9373C15.118 11.783 15.1647 11.6082 15.1647 11.4302C15.1647 11.2523 15.118 11.0774 15.0293 10.9232C14.941 10.7689 14.8135 10.6408 14.6596 10.5519C14.5057 10.4629 14.3311 10.4163 14.1533 10.4167H10.9441C10.6809 10.4251 10.4313 10.5356 10.2481 10.7247C10.0649 10.9139 9.96245 11.1669 9.96245 11.4302C9.96245 11.6936 10.0649 11.9466 10.2481 12.1357C10.4313 12.3249 10.6809 12.4354 10.9441 12.4438H12.4003L11.6198 13.8045C11.477 13.9808 11.3986 14.2005 11.3976 14.4273C11.3976 14.9878 11.8522 15.4414 12.4117 15.4414C13.0448 15.4414 13.5617 15.9583 13.5617 16.5914C13.5617 17.2246 13.0448 17.7425 12.4117 17.7425C11.9259 17.7425 11.4931 17.4363 11.3343 16.9817C11.2439 16.7305 11.058 16.5252 10.8169 16.4105C10.5758 16.2958 10.2992 16.281 10.0473 16.3693C9.92204 16.413 9.80671 16.4811 9.70798 16.5698C9.60925 16.6584 9.52908 16.7657 9.47213 16.8855C9.41517 17.0053 9.38255 17.1352 9.37616 17.2677C9.36978 17.4002 9.38975 17.5327 9.43492 17.6574C9.65558 18.2707 10.0596 18.8013 10.5921 19.1771C11.1247 19.5529 11.7599 19.7558 12.4117 19.7582C13.251 19.7574 14.0557 19.4236 14.6493 18.8301C15.2428 18.2366 15.5765 17.4318 15.5774 16.5925C15.5761 16.0261 15.4238 15.4702 15.1363 14.9822C14.8488 14.4942 14.4364 14.0916 13.9416 13.816Z" fill="#402A32"/>
</svg>
