<svg width="38" height="19" viewBox="0 0 38 19" fill="none" xmlns="http://www.w3.org/2000/svg">
<rect width="38" height="18.0783" rx="9.03916" fill="#FE6529"/>
<path d="M7.9335 5.72477C8.02869 5.63607 8.1546 5.58777 8.2847 5.59007C8.4148 5.59237 8.53893 5.64507 8.63093 5.73708C8.72294 5.82908 8.77565 5.95321 8.77794 6.08331C8.78024 6.21341 8.73194 6.33932 8.64324 6.43451C7.95265 7.12513 7.56468 8.0618 7.56468 9.03846C7.56468 10.0151 7.95265 10.9518 8.64324 11.6424C8.73194 11.7376 8.78024 11.8635 8.77794 11.9936C8.77565 12.1237 8.72294 12.2478 8.63093 12.3398C8.53893 12.4319 8.4148 12.4846 8.2847 12.4869C8.1546 12.4891 8.02869 12.4409 7.9335 12.3522C7.49822 11.9169 7.15294 11.4002 6.91737 10.8315C6.68179 10.2628 6.56055 9.65333 6.56055 9.03779C6.56055 8.42225 6.68179 7.81273 6.91737 7.24405C7.15294 6.67537 7.49822 6.15866 7.9335 5.72343M13.8511 5.72343C13.9453 5.62939 14.0729 5.57657 14.206 5.57657C14.3391 5.57657 14.4667 5.62939 14.5609 5.72343C14.9962 6.15866 15.3414 6.67537 15.577 7.24405C15.8126 7.81273 15.9338 8.42225 15.9338 9.03779C15.9338 9.65333 15.8126 10.2628 15.577 10.8315C15.3414 11.4002 14.9962 11.9169 14.5609 12.3522C14.5145 12.4001 14.4591 12.4383 14.3978 12.4646C14.3365 12.4909 14.2706 12.5047 14.204 12.5053C14.1373 12.5058 14.0712 12.4931 14.0095 12.4678C13.9478 12.4425 13.8917 12.4052 13.8446 12.358C13.7974 12.3109 13.7602 12.2548 13.735 12.193C13.7097 12.1313 13.6971 12.0652 13.6977 11.9985C13.6983 11.9318 13.7122 11.8659 13.7385 11.8047C13.7649 11.7434 13.8032 11.688 13.8511 11.6417C14.5417 10.9511 14.9297 10.0145 14.9297 9.03779C14.9297 8.06113 14.5417 7.12446 13.8511 6.43384C13.8045 6.38721 13.7675 6.33183 13.7422 6.27089C13.7169 6.20994 13.7039 6.14461 13.7039 6.07864C13.7039 6.01266 13.7169 5.94734 13.7422 5.88639C13.7675 5.82544 13.8045 5.77007 13.8511 5.72343ZM9.35566 7.14559C9.40163 7.09625 9.45707 7.05668 9.51867 7.02924C9.58027 7.00179 9.64677 6.98703 9.7142 6.98584C9.78163 6.98465 9.8486 6.99705 9.91113 7.02231C9.97366 7.04757 10.0305 7.08516 10.0781 7.13285C10.1258 7.18053 10.1634 7.23733 10.1887 7.29986C10.2139 7.36239 10.2263 7.42937 10.2252 7.4968C10.224 7.56422 10.2092 7.63072 10.1818 7.69232C10.1543 7.75392 10.1147 7.80936 10.0654 7.85533C9.90992 8.01078 9.78658 8.19533 9.70243 8.39845C9.61828 8.60157 9.57497 8.81927 9.57497 9.03913C9.57497 9.25899 9.61828 9.4767 9.70243 9.67981C9.78658 9.88293 9.90992 10.0675 10.0654 10.2229C10.1541 10.3181 10.2024 10.444 10.2001 10.5741C10.1978 10.7042 10.1451 10.8284 10.0531 10.9204C9.96109 11.0124 9.83696 11.0651 9.70686 11.0674C9.57677 11.0697 9.45086 11.0214 9.35566 10.9327C8.85356 10.4304 8.5715 9.74931 8.5715 9.03913C8.5715 8.32895 8.85356 7.64784 9.35566 7.14559ZM12.433 7.14559C12.5272 7.05155 12.6548 6.99873 12.7879 6.99873C12.9209 6.99873 13.0486 7.05155 13.1427 7.14559C13.6448 7.64784 13.9269 8.32895 13.9269 9.03913C13.9269 9.74931 13.6448 10.4304 13.1427 10.9327C13.0968 10.982 13.0413 11.0216 12.9797 11.049C12.9181 11.0765 12.8516 11.0912 12.7842 11.0924C12.7168 11.0936 12.6498 11.0812 12.5873 11.056C12.5247 11.0307 12.4679 10.9931 12.4202 10.9454C12.3726 10.8977 12.335 10.8409 12.3097 10.7784C12.2845 10.7159 12.2721 10.6489 12.2732 10.5815C12.2744 10.514 12.2892 10.4475 12.3166 10.3859C12.3441 10.3243 12.3837 10.2689 12.433 10.2229C12.7468 9.90902 12.9231 9.48333 12.9231 9.03947C12.9231 8.5956 12.7468 8.16991 12.433 7.856C12.3863 7.80937 12.3493 7.754 12.3241 7.69305C12.2988 7.6321 12.2858 7.56677 12.2858 7.5008C12.2858 7.43483 12.2988 7.3695 12.3241 7.30855C12.3493 7.2476 12.3863 7.19223 12.433 7.14559ZM11.2479 8.36956C11.4254 8.36956 11.5957 8.44011 11.7213 8.56567C11.8469 8.69124 11.9174 8.86155 11.9174 9.03913C11.9174 9.21671 11.8469 9.38702 11.7213 9.51259C11.5957 9.63815 11.4254 9.7087 11.2479 9.7087C11.0703 9.7087 10.9 9.63815 10.7744 9.51259C10.6488 9.38702 10.5783 9.21671 10.5783 9.03913C10.5783 8.86155 10.6488 8.69124 10.7744 8.56567C10.9 8.44011 11.0703 8.36956 11.2479 8.36956Z" fill="#EDEBE7"/>
<path d="M18.1454 11.0392V6.07767H19.1363V10.2089H21.1517V11.0392H18.1454ZM21.9494 11.0392V6.07767H22.9403V11.0392H21.9494ZM24.9629 11.0392L23.4497 6.07767H24.4942L25.1437 8.49481C25.2241 8.7671 25.2933 9.0327 25.3513 9.2916C25.4138 9.54603 25.483 9.81386 25.5589 10.0951H25.5923C25.6727 9.81386 25.7441 9.54603 25.8066 9.2916C25.8691 9.0327 25.9383 8.7671 26.0142 8.49481L26.6569 6.07767H27.6613L26.1481 11.0392H24.9629ZM28.1711 11.0392V6.07767H31.2109V6.90794H29.1621V8.0529H30.8962V8.88316H29.1621V10.2089H31.2846V11.0392H28.1711Z" fill="#FEF4D2"/>
</svg>
