<svg width="121" height="120" viewBox="0 0 121 120" fill="none" xmlns="http://www.w3.org/2000/svg">
<path d="M59.1773 18.1552L60.0702 6.40971C60.1094 5.88331 60.2251 4.64457 60.6607 4.36448C62.6406 3.09195 68.0713 3.96375 70.1844 4.28526C73.9233 5.01346 76.729 5.77247 80.3213 7.10752C81.9677 7.81265 85.2163 9.08157 86.0183 10.7948C86.0803 10.9273 86.2041 11.3064 86.2568 11.458C85.7355 13.3972 84.4792 16.294 83.6885 18.2291C83.0041 19.9041 82.1948 22.2842 81.4774 23.8555C81.1491 24.7572 80.7858 25.6983 80.5845 26.6348C81.5238 26.8847 82.4642 27.1192 83.3675 27.4901C86.0958 28.6116 90.6326 31.3493 87.0331 34.4622C90.2899 37.4029 92.2553 41.2933 94.0711 45.1998C95.4213 48.1076 96.5299 50.6063 97.2484 53.7795C97.7067 55.8018 97.8853 57.9169 98.0226 59.9868C98.1939 62.3995 96.8396 69.3097 95.9457 71.4025C97.0388 74.1394 98.4025 77.1406 100.092 79.5647C101.353 81.3724 103.88 82.1716 104.72 84.5139C106.338 89.0268 101.86 93.2957 97.459 90.7688C93.8378 92.4159 92.9562 89.1514 92.9717 86.3427C92.0602 85.1756 91.1095 84.0137 90.3704 82.7313C89.8171 83.3181 88.7477 84.2909 88.3265 84.8554C86.1515 87.777 83.8175 89.5357 80.5112 91.0675C79.5625 91.5074 78.4962 92.2614 77.4309 92.7621C78.1029 95.803 78.3692 98.9182 78.2237 102.028C80.1613 103.559 80.8952 104.488 80.9293 107.012C81.6931 108.133 83.7752 110.126 83.6359 111.323C83.6142 111.515 83.3148 111.89 83.1858 112.055L83.1899 121.275L100.727 121.241C103.502 121.241 107.387 121.155 110.108 121.287C111.362 122.493 112.482 123.962 113.653 125.255C114.469 126.154 114.448 126.507 113.802 127.44L113.827 135.178C113.827 136.479 113.864 138.65 113.742 139.922C110.75 140.013 107.546 139.944 104.532 139.94L24.814 139.944C19.2801 139.941 13.0971 140.091 7.64505 139.912C7.46513 137.61 7.5348 134.7 7.53656 132.358C7.52655 128.583 7.54543 124.806 7.59333 121.031C7.36861 120.711 6.9717 120.175 7.13232 119.81C7.58528 118.784 10.7914 115.355 11.513 114.703L40.2947 114.677C40.3088 114.139 40.3043 113.503 40.294 113C40.2848 112.548 39.9096 110.809 40.0423 110.547C41.0481 108.561 42.9773 107.523 43.3152 105.155C43.4524 104.193 44.9354 103.049 45.7374 102.473C45.2303 99.7773 45.5366 96.2408 45.994 93.5501C43.5553 92.4427 42.0957 91.8844 40.5347 89.616C36.5023 88.5467 34.0596 85.9707 31.8634 82.5186C31.5125 81.9672 31.3106 81.0314 31.0062 80.5219C30.5456 79.7512 29.7888 78.8667 29.314 78.0876C28.2495 76.3413 27.2852 73.4432 26.877 71.4252C25.6419 70.4469 24.3989 69.5903 23.1957 68.5617C20.6171 66.3574 18.4517 63.8643 16.4149 61.1691C16.1129 60.7698 15.1952 60.3214 14.8006 59.9589C13.1696 58.5973 11.7572 56.6861 11.5147 54.5366C11.3458 52.939 11.8163 51.3394 12.8238 50.0863C14.5913 47.9031 17.3523 47.1501 19.8944 48.4617C20.1971 48.6179 21.6926 49.8025 21.8558 49.7426C24.3091 48.8407 25.349 50.9246 25.0792 53.0805L25.2376 53.0661C25.6637 51.8881 25.909 50.3017 26.2956 49.0395C27.2718 45.852 28.4778 43.1145 30.265 40.3159C32.6613 36.5637 35.2356 33.9704 38.7218 31.2023C39.4346 30.5932 40.4786 30.0956 41.1722 29.5123C43.8556 27.2554 46.122 26.2996 49.5537 25.5952C47.5406 21.5761 51.5381 20.6881 54.6197 20.8891C56.0496 20.9823 57.4153 21.1643 58.8346 21.3634C59.0163 20.9795 59.1453 18.6799 59.1773 18.1552ZM57.1939 96.2975C57.0769 97.5707 56.8602 104.442 57.3748 105.278L57.6774 105.312L66.9265 105.215C66.9173 103.503 66.9678 97.4378 66.2669 96.0935C65.9985 96.0029 66.1338 96.0121 65.8458 96.0801C62.1595 96.7415 60.9218 96.8496 57.1939 96.2975Z" fill="#63210C"/>
<path d="M59.1773 18.1552L60.0702 6.40971C60.1094 5.88331 60.2251 4.64457 60.6607 4.36448C62.6406 3.09195 68.0713 3.96375 70.1844 4.28526C73.9233 5.01346 76.729 5.77247 80.3213 7.10752C81.9677 7.81265 85.2163 9.08157 86.0183 10.7948C86.0803 10.9273 86.2041 11.3064 86.2568 11.458C85.7355 13.3972 84.4792 16.294 83.6885 18.2291C83.0041 19.9041 82.1948 22.2842 81.4774 23.8555C81.1491 24.7572 80.7858 25.6983 80.5845 26.6348C81.5238 26.8847 82.4642 27.1192 83.3675 27.4901C86.0958 28.6116 90.6326 31.3493 87.0331 34.4622L86.965 34.447C86.5221 34.7238 86.2207 34.8988 85.7541 35.1315C87.0682 36.5475 88.5598 38.0456 89.4919 39.7592C90.0917 40.8616 89.7965 41.4784 90.1691 42.5087C90.1774 42.5339 91.3903 43.1476 91.5905 43.4558C92.9759 45.5869 94.8928 50.5991 95.3573 52.911C90.4458 56.5501 85.2442 59.1263 79.9001 62.0593C73.5713 65.5323 66.685 68.8895 60.8393 73.1197C53.0753 67.7985 44.8083 63.8093 36.6153 59.2452C35.8042 58.8307 34.8339 58.239 34.0298 57.7747C33.1989 57.1991 31.9522 56.5299 31.0698 56.0005C29.646 55.1448 28.2932 54.1764 27.0245 53.1047C27.2196 52.4224 27.3498 51.5596 27.5098 50.8457C27.7934 49.1987 28.6891 46.4162 29.474 44.9396C29.8961 43.4708 31.3754 41.2578 32.2239 39.9828C34.758 36.1749 38.1938 33.3128 41.9609 30.785C42.9244 30.1385 43.8267 29.296 44.8737 28.785C45.7304 28.1634 47.4763 27.589 48.501 27.2753L50.5385 26.8611L50.3045 26.5022L49.5537 25.5952C47.5406 21.5761 51.5381 20.6881 54.6197 20.8891C56.0496 20.9823 57.4153 21.1643 58.8346 21.3634C59.0163 20.9795 59.1453 18.6799 59.1773 18.1552Z" fill="#FCC952"/>
<path d="M59.1773 18.1552L60.0702 6.40971C60.1094 5.88331 60.2251 4.64457 60.6607 4.36448C62.6406 3.09195 68.0713 3.96375 70.1844 4.28526C73.9233 5.01346 76.729 5.77247 80.3213 7.10752C81.9677 7.81265 85.2163 9.08157 86.0183 10.7948C86.0803 10.9273 86.2041 11.3064 86.2568 11.458C85.7355 13.3972 84.4792 16.294 83.6885 18.2291C83.0041 19.9041 82.1948 22.2842 81.4774 23.8555C81.1894 23.8335 80.8621 23.8533 80.571 23.8624L80.5659 23.9743C80.4977 23.9393 80.3986 23.8795 80.3202 23.8912C78.6685 24.1367 77.1263 24.4933 75.4448 24.2463C70.9162 24.09 63.198 21.5782 59.6728 18.6759L59.9391 18.2634C59.4746 18.3537 59.5262 18.3442 59.1773 18.1552Z" fill="#6C54C8"/>
<path d="M70.1844 4.28526C73.9233 5.01346 76.729 5.77247 80.3213 7.10752C80.4544 7.39606 80.5092 7.44976 80.4091 7.82514C81.2999 8.2989 85.8305 10.5966 85.366 11.751C84.3358 12.0269 83.6029 12.1733 82.5283 12.1948C80.6589 12.2162 78.8989 11.8188 77.2452 11.8049C77.0212 11.9354 76.952 12.0013 76.7032 12.0674C75.0939 11.7992 70.6046 11.0366 69.1068 10.113C68.9819 10.036 69.0201 9.85214 69.0159 9.66692C68.8611 9.45657 67.4882 8.95335 67.1537 8.82149C65.7354 8.26264 61.8448 6.42776 61.0551 5.2224C61.8933 4.32546 66.0492 4.66067 67.3622 4.68189C67.8185 4.6309 68.6474 4.63945 69.0954 4.6926C70.0688 4.80808 69.6228 4.53651 70.1844 4.28526Z" fill="#8E7CDB"/>
<path d="M70.1844 4.28526C73.9233 5.01346 76.729 5.77247 80.3213 7.10752C80.4544 7.39606 80.5092 7.44976 80.4091 7.82514C78.5902 7.25393 76.5514 6.42993 74.717 5.94844C72.4739 5.35993 69.657 4.93489 67.3622 4.68189C67.8185 4.6309 68.6474 4.63945 69.0954 4.6926C70.0688 4.80808 69.6228 4.53651 70.1844 4.28526Z" fill="#7B66D2"/>
<path d="M69.0159 9.66692C71.2167 10.5903 74.9009 11.3961 77.2452 11.8049C77.0212 11.9354 76.952 12.0013 76.7032 12.0674C75.0939 11.7992 70.6046 11.0366 69.1068 10.113C68.9819 10.036 69.0201 9.85214 69.0159 9.66692Z" fill="#3F2D84"/>
<path d="M80.3213 7.10752C81.9677 7.81265 85.2163 9.08157 86.0183 10.7948C86.0803 10.9273 86.2041 11.3064 86.2568 11.458C85.7355 13.3972 84.4792 16.294 83.6885 18.2291C83.0041 19.9041 82.1948 22.2842 81.4774 23.8555C81.1894 23.8335 80.8621 23.8533 80.571 23.8624L80.5659 23.9743C80.4977 23.9393 80.3986 23.8795 80.3202 23.8912C78.6685 24.1367 77.1263 24.4933 75.4448 24.2463C76.0776 23.7628 80.9189 14.1488 81.5352 12.7577C79.2436 12.5217 79.1879 12.6715 76.7032 12.0674C76.952 12.0013 77.0212 11.9354 77.2452 11.8049C78.8989 11.8188 80.6589 12.2162 82.5283 12.1948C83.6029 12.1733 84.3358 12.0269 85.366 11.751C85.8305 10.5966 81.2999 8.2989 80.4091 7.82514C80.5092 7.44976 80.4544 7.39606 80.3213 7.10752Z" fill="#5741B1"/>
<path d="M80.3213 7.10752C81.9677 7.81265 85.2163 9.08157 86.0183 10.7948C86.0803 10.9273 86.2041 11.3064 86.2568 11.458C85.7355 13.3972 84.4792 16.294 83.6885 18.2291C83.0041 19.9041 82.1948 22.2842 81.4774 23.8555C81.1894 23.8335 80.8621 23.8533 80.571 23.8624C80.7424 23.0523 81.338 21.7545 81.6642 20.9056L84.8209 12.9154C84.9736 12.7331 85.2535 12.0134 85.366 11.751C85.8305 10.5966 81.2999 8.2989 80.4091 7.82514C80.5092 7.44976 80.4544 7.39606 80.3213 7.10752Z" fill="#3A2A83"/>
<path d="M82.5283 12.1948C83.6029 12.1733 84.3358 12.0269 85.366 11.751C85.2535 12.0134 84.9736 12.7331 84.8209 12.9154C84.4658 12.7222 82.5716 13.0646 81.6033 12.8048L81.6879 12.4979C82.0079 12.223 82.0782 12.2813 82.5283 12.1948Z" fill="#3F2D84"/>
<path d="M59.1773 18.1552L60.0702 6.40971C60.1094 5.88331 60.2251 4.64457 60.6607 4.36448C62.6406 3.09195 68.0713 3.96375 70.1844 4.28526C69.6228 4.53651 70.0688 4.80808 69.0954 4.6926C68.6474 4.63945 67.8185 4.6309 67.3622 4.68189C66.0492 4.66067 61.8933 4.32546 61.0551 5.2224C61.0551 5.90095 60.8764 6.69052 60.864 7.41409C60.8041 11.0018 60.0475 14.6991 59.9391 18.2634C59.4746 18.3537 59.5262 18.3442 59.1773 18.1552Z" fill="#4A3897"/>
<path d="M59.9391 18.2634L59.6728 18.6759C63.198 21.5782 70.9162 24.09 75.4448 24.2463C77.1263 24.4933 78.6685 24.1367 80.3202 23.8912C80.3986 23.8795 80.4977 23.9393 80.5659 23.9743L80.571 23.8624C80.8621 23.8533 81.1894 23.8335 81.4774 23.8555C81.1491 24.7572 80.7858 25.6983 80.5845 26.6348C81.5238 26.8847 82.4642 27.1192 83.3675 27.4901C86.0958 28.6116 90.6326 31.3493 87.0331 34.4622L86.965 34.447C86.5221 34.7238 86.2207 34.8988 85.7541 35.1315C82.8947 36.4848 80.9138 36.5676 77.8263 36.6058C76.1592 36.5136 74.3775 36.2846 72.7052 36.105C70.9607 35.8051 69.2234 35.4663 67.4943 35.089C64.4491 34.5491 60.2819 32.8087 57.3981 31.5913C54.4426 30.0733 52.8879 29.2216 50.5385 26.8611L50.3045 26.5022L49.5537 25.5952C47.5406 21.5761 51.5381 20.6881 54.6197 20.8891C56.0496 20.9823 57.4153 21.1643 58.8346 21.3634C59.0163 20.9795 59.1453 18.6799 59.1773 18.1552C59.5262 18.3442 59.4746 18.3537 59.9391 18.2634Z" fill="#7B66D2"/>
<path d="M59.9391 18.2634L59.6728 18.6759C63.198 21.5782 70.9162 24.09 75.4448 24.2463C77.1263 24.4933 78.6685 24.1367 80.3202 23.8912C80.3986 23.8795 80.4977 23.9393 80.5659 23.9743C80.2046 25.1896 79.5997 26.5811 79.3334 27.7273C79.1786 28.128 79.0175 28.5263 78.8513 28.9223C78.1401 29.1297 77.5373 29.1764 76.8064 29.258C76.2387 29.3432 74.8193 29.279 74.2144 29.2622C70.2143 29.1513 64.8176 27.6244 61.4112 25.5247C61.2646 25.358 59.7606 24.2655 59.2403 23.7484C59.2971 23.2921 59.3322 22.8247 59.3735 22.366L58.9884 22.2291C58.8666 21.8553 58.8676 21.762 58.8346 21.3634C59.0163 20.9795 59.1453 18.6799 59.1773 18.1552C59.5262 18.3442 59.4746 18.3537 59.9391 18.2634Z" fill="#ECEAED"/>
<path d="M59.9391 18.2634L59.6728 18.6759C59.6944 20.0145 59.5551 21.0422 59.3735 22.366L58.9884 22.2291C58.8666 21.8553 58.8676 21.762 58.8346 21.3634C59.0163 20.9795 59.1453 18.6799 59.1773 18.1552C59.5262 18.3442 59.4746 18.3537 59.9391 18.2634Z" fill="#5741B1"/>
<path d="M49.5537 25.5952C47.5406 21.5761 51.5381 20.6881 54.6197 20.8891C56.0496 20.9823 57.4153 21.1643 58.8346 21.3634C58.8676 21.762 58.8666 21.8553 58.9884 22.2291C56.5811 21.996 52.2638 21.0417 50.3958 22.8094C49.0232 24.6832 51.2203 26.0094 52.225 27.2164C53.3875 28.2002 55.5789 29.9336 56.974 30.476C58.1945 31.3238 60.1972 32.0102 61.6145 32.4914C68.1137 34.6987 77.6095 36.8947 84.3389 34.9228C84.5897 34.9386 86.5593 34.5217 86.965 34.447C86.5221 34.7238 86.2207 34.8988 85.7541 35.1315C82.8947 36.4848 80.9138 36.5676 77.8263 36.6058C76.1592 36.5136 74.3775 36.2846 72.7052 36.105C70.9607 35.8051 69.2234 35.4663 67.4943 35.089C64.4491 34.5491 60.2819 32.8087 57.3981 31.5913C54.4426 30.0733 52.8879 29.2216 50.5385 26.8611L50.3045 26.5022L49.5537 25.5952Z" fill="#3F2D84"/>
<path d="M80.571 23.8624C80.8621 23.8533 81.1894 23.8335 81.4774 23.8555C81.1491 24.7572 80.7858 25.6983 80.5845 26.6348C81.5238 26.8847 82.4642 27.1192 83.3675 27.4901C86.0958 28.6116 90.6326 31.3493 87.0331 34.4622L86.965 34.447C86.5593 34.5217 84.5897 34.9386 84.3389 34.9228C85.3515 34.1427 86.6409 34.7251 86.8938 32.8629C86.134 33.218 85.7748 33.3462 84.9686 33.5838C84.9903 33.4907 84.982 33.3968 84.9831 33.2972C83.9271 31.765 81.3113 30.9974 79.4088 29.5654C78.6408 29.6807 78.198 29.762 77.4114 29.7278L77.4805 29.4585L77.3907 29.3198L76.8064 29.258C77.5373 29.1764 78.1401 29.1297 78.8513 28.9223C79.0175 28.5263 79.1786 28.128 79.3334 27.7273C79.5997 26.5811 80.2046 25.1896 80.5659 23.9743L80.571 23.8624Z" fill="#6C54C8"/>
<path d="M80.571 23.8624C80.8621 23.8533 81.1894 23.8335 81.4774 23.8555C81.1491 24.7572 80.7858 25.6983 80.5845 26.6348C81.5238 26.8847 82.4642 27.1192 83.3675 27.4901C86.0958 28.6116 90.6326 31.3493 87.0331 34.4622L86.965 34.447C86.5593 34.5217 84.5897 34.9386 84.3389 34.9228C85.3515 34.1427 86.6409 34.7251 86.8938 32.8629C89.1669 31.0946 82.9824 28.0304 81.626 27.7139C80.9798 27.5628 79.9992 26.9364 79.4789 27.744L79.3334 27.7273C79.5997 26.5811 80.2046 25.1896 80.5659 23.9743L80.571 23.8624Z" fill="#44358D"/>
<path d="M56.974 30.476C61.1221 31.4283 63.6213 33.0609 68.1395 33.6626L68.0848 33.6283C71.2632 34.1022 74.2041 34.7404 77.4279 34.5961C78.0947 34.5663 78.9102 34.6263 79.544 34.4529C81.6478 34.3462 82.9691 34.1397 84.9686 33.5838C85.7748 33.3462 86.134 33.218 86.8938 32.8629C86.6409 34.7251 85.3515 34.1427 84.3389 34.9228C77.6095 36.8947 68.1137 34.6987 61.6145 32.4914C60.1972 32.0102 58.1945 31.3238 56.974 30.476Z" fill="#5741B1"/>
<path d="M52.225 27.2164C51.2203 26.0094 49.0232 24.6832 50.3958 22.8094C50.4173 23.2453 50.4185 23.4295 50.7492 23.739C51.125 24.0907 51.3035 24.6186 51.575 25.045C52.8991 27.1239 54.989 28.2579 57.1121 29.3687C62.8728 32.3663 69.2119 34.0932 75.6997 34.4324C76.892 34.4859 78.4643 34.367 79.544 34.4529C78.9102 34.6263 78.0947 34.5663 77.4279 34.5961C74.2041 34.7404 71.2632 34.1022 68.0848 33.6283L68.1395 33.6626C63.6213 33.0609 61.1221 31.4283 56.974 30.476C55.5789 29.9336 53.3875 28.2002 52.225 27.2164Z" fill="#6C54C8"/>
<path d="M77.4114 29.7278C73.0088 30.4879 69.4906 29.6557 65.2872 28.2451C64.6813 28.0417 61.3481 26.4648 61.1809 26.0868C61.7011 26.1137 61.6526 26.5158 62.1667 26.5468L62.2885 26.3614C62.144 26.0988 61.6371 25.9047 61.2851 25.6361L61.4112 25.5247C64.8176 27.6244 70.2143 29.1513 74.2144 29.2622C74.8193 29.279 76.2387 29.3432 76.8064 29.258L77.3907 29.3198L77.4805 29.4585L77.4114 29.7278Z" fill="#3F2D84"/>
<path d="M29.474 44.9396C29.8961 43.4708 31.3754 41.2578 32.2239 39.9828C34.758 36.1749 38.1938 33.3128 41.9609 30.785C42.9244 30.1385 43.8267 29.296 44.8737 28.785C44.9234 28.9901 44.9299 29.0178 44.9382 29.2278L45.0191 29.2676C45.0025 29.6108 44.9873 29.5198 44.7022 29.8495L45.8908 30.5768C45.213 31.0597 44.2555 31.9051 43.5929 32.2764C40.9785 33.7414 39.3713 35.2326 37.3407 37.4184C36.5062 38.3273 35.7035 39.265 34.9343 40.2295C34.509 40.7585 33.7077 41.8336 33.2735 42.2212L33.1326 42.3734C32.6766 42.332 32.7645 42.2664 32.4711 42.4687C32.174 43.0981 31.9415 44.0758 31.7383 44.7586C31.2597 46.3653 30.5901 45.7269 29.4041 46.3412L29.2559 46.2284C29.2247 45.646 29.3767 45.4774 29.474 44.9396Z" fill="#FEE585"/>
<path d="M43.335 30.1668C43.7474 29.827 43.9404 29.5593 44.4373 29.5631L44.7022 29.8495L45.8908 30.5768C45.213 31.0597 44.2555 31.9051 43.5929 32.2764C40.9785 33.7414 39.3713 35.2326 37.3407 37.4184C36.5062 38.3273 35.7035 39.265 34.9343 40.2295C34.509 40.7585 33.7077 41.8336 33.2735 42.2212C33.0523 41.7139 34.2369 40.0768 34.4883 39.563C36.6225 35.2016 40.6565 33.948 44.033 30.8447L43.335 30.1668Z" fill="#FBF2D2"/>
<path d="M27.5098 50.8457L27.7097 50.962C30.9786 49.7322 32.5988 50.8091 34.6304 53.4122C34.7797 55.155 34.749 56.1344 34.0298 57.7747C33.1989 57.1991 31.9522 56.5299 31.0698 56.0005C29.646 55.1448 28.2932 54.1764 27.0245 53.1047C27.2196 52.4224 27.3498 51.5596 27.5098 50.8457Z" fill="#9A5424"/>
<path d="M57.3981 31.5913C60.2819 32.8087 64.4491 34.5491 67.4943 35.089C67.0897 35.2802 66.974 35.4481 66.6199 35.7076C65.8447 36.2746 65.342 36.4588 64.4284 36.6675C62.079 37.0628 59.5117 36.0222 58.0887 34.1225C57.6515 33.216 57.5364 32.5805 57.3981 31.5913Z" fill="#9A5424"/>
<path d="M72.7052 36.105C74.3775 36.2846 76.1592 36.5136 77.8263 36.6058L77.9036 37.0105C77.8861 37.3924 77.947 37.571 78.0492 37.9424C75.42 40.1801 74.5405 39.3707 72.7856 40.5511C72.0857 39.9762 71.902 39.8423 71.6109 38.9945C71.6636 37.3979 71.6193 37.2986 72.7052 36.105Z" fill="#9A5424"/>
<path d="M48.501 27.2753L50.5385 26.8611C52.8879 29.2216 54.4426 30.0733 57.3981 31.5913C57.5364 32.5805 57.6515 33.216 58.0887 34.1225C55.1608 33.6831 51.278 29.4539 49.2671 27.4335C49.0891 27.2547 48.7424 27.288 48.501 27.2753Z" fill="#F8BB46"/>
<path d="M64.4284 36.6675C65.342 36.4588 65.8447 36.2746 66.6199 35.7076C66.974 35.4481 67.0897 35.2802 67.4943 35.089C69.2234 35.4663 70.9607 35.8051 72.7052 36.105C71.6193 37.2986 71.6636 37.3979 71.6109 38.9945C71.5376 38.2629 71.5727 38.0105 70.7717 37.9778C68.4635 37.8837 66.5858 37.5152 64.4284 36.6675Z" fill="#F8BB46"/>
<path d="M77.9036 37.0105C80.0074 40.8937 76.4357 43.3845 72.7856 40.5511C74.5405 39.3707 75.42 40.1801 78.0492 37.9424C77.947 37.571 77.8861 37.3924 77.9036 37.0105Z" fill="#B46D33"/>
<path d="M34.6304 53.4122C36.7975 55.2807 37.736 56.3351 36.6153 59.2452C35.8042 58.8307 34.8339 58.239 34.0298 57.7747C34.749 56.1344 34.7797 55.155 34.6304 53.4122Z" fill="#BB773A"/>
<path d="M55.1576 55.6654C56.5148 55.6776 57.8478 55.8957 59.2382 55.8731C60.991 55.8448 62.7355 55.786 64.4852 55.7746C64.7257 55.773 65.3069 55.8355 65.4947 55.9869C65.7827 56.2469 65.8736 56.7164 65.8695 57.0885C65.8488 59.3341 65.5515 60.6862 63.9711 62.3318C62.8635 63.2492 61.5721 63.7399 60.1249 63.7276C58.6147 63.727 57.1695 63.113 56.1223 62.0269C54.9177 60.7695 54.4591 58.9749 54.4459 57.2582C54.4396 56.4448 54.5955 56.1849 55.1576 55.6654Z" fill="#63210C"/>
<path d="M61.6342 58.0681C62.6334 58.0159 63.2321 58.0696 64.2025 58.2988C63.8546 60.6885 62.4538 62.2366 59.931 62.1285L59.7833 62.1063C58.3495 61.8881 57.701 61.5938 56.8382 60.4135C58.0959 59.0395 59.8164 58.3468 61.6342 58.0681Z" fill="#F17563"/>
<path d="M44.5307 36.7259C45.5206 36.6206 46.5854 36.5792 47.5002 37.0595C49.3544 38.0329 50.002 40.5442 48.9527 42.3344C48.1211 43.7532 47.1294 44.1405 45.602 44.5633C41.4685 45.6394 39.9984 42.5596 41.5692 39.063C42.1308 37.8128 43.2541 37.14 44.5307 36.7259Z" fill="#8D431A"/>
<path d="M47.9133 50.5547C48.4245 50.547 48.6904 50.6009 49.3078 50.6401C50.9977 50.7474 53.8606 53.6902 51.9904 55.09C51.1166 55.7439 50.2217 53.3271 49.6692 52.9738C49.3629 52.778 49.269 52.7289 48.8539 52.6133L48.7345 52.5807C45.7208 52.6127 46.6864 54.9549 45.2501 55.2318C44.9626 55.2846 44.6659 55.2201 44.4264 55.0529C43.5603 54.4459 44.3413 52.9162 44.8266 52.2714C45.6613 51.1625 46.5845 50.7554 47.9133 50.5547Z" fill="#63210C"/>
<path d="M71.4489 50.5533C73.1976 50.4533 74.8513 51.2185 75.7473 52.7732C76.1003 53.3855 76.4007 55.1062 75.3747 55.2333C73.8758 55.4189 74.2753 53.4194 72.6742 52.6604L72.5638 52.6084C70.6882 52.469 70.5808 52.5479 69.7643 54.0184C68.3717 56.5238 66.5477 54.0753 68.3057 52.1851C69.403 51.0066 69.8076 50.7405 71.4489 50.5533Z" fill="#63210C"/>
<path d="M25.2376 53.0661C25.2858 53.5346 25.2364 54.3059 25.0144 54.732L24.8495 54.8259C24.6075 54.3741 24.89 53.5373 25.0792 53.0805L25.2376 53.0661Z" fill="#B78C7B"/>
<path d="M41.4181 112.025C44.1044 111.946 47.1915 112.024 49.9059 112.02L67.1423 112C70.5664 112.007 74.52 111.915 77.8841 112.032C79.2725 112.017 80.6609 112.017 82.0493 112.032C82.039 113.736 81.816 126.654 82.1846 127.172C83.2488 127.491 88.0179 127.366 89.3526 127.364C92.5527 127.379 95.7537 127.376 98.9548 127.353L103.471 127.367L108.617 127.36C109.654 127.345 111.813 127.273 112.759 127.395C112.617 128.509 112.686 129.892 112.662 131.036C112.61 133.613 112.72 136.239 112.696 138.81L103.012 138.812L100.137 138.82C98.8877 138.946 94.4686 138.901 93.1927 138.81L89.2463 138.815L52.9298 138.819L39.1004 138.81L17.1144 138.831C15.5071 138.792 13.8537 138.846 12.2308 138.819C11.159 138.902 9.77272 138.868 8.67356 138.868L8.69317 121.012C14.7306 121.05 20.7681 121.044 26.8055 120.996C28.6576 120.999 40.5756 121.181 41.3253 120.767C41.5518 119.902 41.4133 113.482 41.4181 112.025Z" fill="#FCC952"/>
<path d="M41.4181 112.025C44.1044 111.946 47.1915 112.024 49.9059 112.02L67.1423 112C66.9885 112.032 66.5674 112.132 66.4734 112.215C65.8954 112.722 62.1204 115.972 62.1926 116.571C61.6961 116.671 61.0293 116.639 60.509 116.634C59.8071 117.195 56.7713 119.437 56.5117 120.023C56.5057 120.521 56.7744 120.8 57.0858 121.199C53.7835 124.103 49.9926 128.048 46.7633 131.174C44.9991 132.872 43.251 134.588 41.5194 136.319C41.033 136.804 39.4514 138.345 39.1004 138.81L17.1144 138.831C15.5071 138.792 13.8537 138.846 12.2308 138.819C11.159 138.902 9.77272 138.868 8.67356 138.868L8.69317 121.012C14.7306 121.05 20.7681 121.044 26.8055 120.996C28.6576 120.999 40.5756 121.181 41.3253 120.767C41.5518 119.902 41.4133 113.482 41.4181 112.025Z" fill="#FCC952"/>
<path d="M22.748 121.122C25.584 121.005 28.8942 121.095 31.7614 121.109C31.1133 121.86 28.6901 124.978 28.1747 125.378C26.5393 124.643 24.5021 124.875 23.5228 126.452C22.6183 127.908 23.8175 128.187 24.9296 128.207C25.4056 127.083 25.5154 126.694 26.8332 126.923C26.7189 127.267 17.9675 137.974 17.1144 138.831C15.5071 138.792 13.8537 138.846 12.2308 138.819C11.4964 138.735 9.71663 138.776 8.90062 138.775C8.93913 138.303 8.95905 137.801 8.98537 137.325C9.04855 137.677 9.02615 137.888 9.23333 138.132C9.59792 138.188 9.44752 138.232 9.71281 138.045C10.2333 136.953 9.85816 127.911 9.92536 125.868C10.0494 126.537 10.0288 128.543 10.032 129.325L10.0088 136.645C14.193 131.42 18.4396 126.245 22.748 121.122Z" fill="#FEE585"/>
<path d="M24.9296 128.207C23.8175 128.187 22.6183 127.908 23.5228 126.452C24.5021 124.875 26.5393 124.643 28.1747 125.378C31.134 127.707 28.2752 130.215 26.4443 131.959C27.1929 131.934 29.0799 131.77 29.6731 132.09C29.971 132.525 29.9419 133.315 29.5659 133.715C29.3294 133.772 24.5725 133.864 24.4659 133.843C19.889 132.898 29.321 128.805 26.8332 126.923C25.5154 126.694 25.4056 127.083 24.9296 128.207Z" fill="#63210C"/>
<path d="M8.98537 137.325C8.86903 133.828 8.99055 130.175 8.95029 126.669C8.94245 125.99 8.90167 122.513 9.04392 122.052C9.32036 121.969 9.18193 121.968 9.47179 122.081C10.073 122.779 9.92391 124.909 9.92536 125.868C9.85816 127.911 10.2333 136.953 9.71281 138.045C9.44752 138.232 9.59792 138.188 9.23333 138.132C9.02615 137.888 9.04855 137.677 8.98537 137.325Z" fill="#FBF2D2"/>
<path d="M41.6289 112.256L42.7152 112.272C42.7845 113.575 42.9195 119.497 42.5928 120.516C42.2107 120.687 42.1248 120.746 41.7877 120.489C41.5923 119.978 41.5959 113.243 41.6289 112.256Z" fill="#FBF2D2"/>
<path d="M60.509 116.634C61.0293 116.639 61.6961 116.671 62.1926 116.571C62.4011 116.666 62.8388 116.815 62.8543 117.032C63.0608 119.957 62.9142 124.117 62.9441 126.97C63.6698 126.999 64.3944 127.031 65.1181 127.067C65.5485 127.579 65.5816 128.796 65.1026 129.311C64.2644 129.662 59.646 129.317 58.3567 129.478C59.2156 129.598 61.3204 129.554 62.2907 129.564C61.086 130.992 58.6943 133.18 57.3135 134.561C56.1545 135.72 54.1214 137.812 52.9298 138.819L39.1004 138.81C39.4514 138.345 41.033 136.804 41.5194 136.319C43.251 134.588 44.9991 132.872 46.7633 131.174C49.9926 128.048 53.7835 124.103 57.0858 121.199C56.7744 120.8 56.5057 120.521 56.5117 120.023C56.7713 119.437 59.8071 117.195 60.509 116.634Z" fill="#FEE585"/>
<path d="M60.509 116.634C61.0293 116.639 61.6961 116.671 62.1926 116.571C62.4011 116.666 62.8388 116.815 62.8543 117.032C63.0608 119.957 62.9142 124.117 62.9441 126.97C63.6698 126.999 64.3944 127.031 65.1181 127.067C65.5485 127.579 65.5816 128.796 65.1026 129.311C64.2644 129.662 59.646 129.317 58.3567 129.478C58.0296 129.46 57.9797 129.451 57.6606 129.375C57.334 129.084 57.1747 128.626 57.1046 128.198C56.8556 126.673 58.944 126.969 59.9701 126.968L59.9577 120.247C59.4137 120.707 58.4754 121.642 57.7592 121.646C57.466 121.647 57.2848 121.409 57.0858 121.199C56.7744 120.8 56.5057 120.521 56.5117 120.023C56.7713 119.437 59.8071 117.195 60.509 116.634Z" fill="#63210C"/>
<path d="M108.617 127.36C109.654 127.345 111.813 127.273 112.759 127.395C112.617 128.509 112.686 129.892 112.662 131.036C112.61 133.613 112.72 136.239 112.696 138.81L103.012 138.812L100.137 138.82C99.6557 138.769 98.9185 138.765 98.4158 138.747C99.3562 137.999 99.5059 137.673 100.103 136.633L100.018 136.425C100.598 135.011 100.322 134.104 99.0992 133.236C99.8342 132.526 99.9167 132.265 100.079 131.29C99.8249 129.715 99.0311 129.242 97.59 128.933C97.8501 128.531 98.5873 127.647 98.9548 127.353L103.471 127.367L108.617 127.36Z" fill="#FEE585"/>
<path d="M112.759 127.395C112.617 128.509 112.686 129.892 112.662 131.036C112.61 133.613 112.72 136.239 112.696 138.81L103.012 138.812C103.877 138.009 112.507 127.949 112.759 127.395Z" fill="#FCC037"/>
<path d="M103.471 127.367L108.617 127.36C108.425 127.392 107.965 127.468 107.836 127.605C105.157 130.465 102.55 133.58 100.103 136.633L100.018 136.425C100.598 135.011 100.322 134.104 99.0992 133.236C99.8342 132.526 99.9167 132.265 100.079 131.29C99.8249 129.715 99.0311 129.242 97.59 128.933C97.8501 128.531 98.5873 127.647 98.9548 127.353L103.471 127.367Z" fill="#FCC952"/>
<path d="M98.9548 127.353L103.471 127.367C103.23 127.741 100.532 131.023 100.219 131.349L100.079 131.29C99.8249 129.715 99.0311 129.242 97.59 128.933C97.8501 128.531 98.5873 127.647 98.9548 127.353Z" fill="#FEE585"/>
<path d="M67.1423 112C70.5664 112.007 74.52 111.915 77.8841 112.032C78.743 112.104 79.5296 112.129 80.3895 112.153C79.1879 113.049 76.7497 115.606 75.6132 116.743L68.0518 124.19C67.4128 124.816 65.7085 126.621 65.1181 127.067C64.3944 127.031 63.6698 126.999 62.9441 126.97C62.9142 124.117 63.0608 119.957 62.8543 117.032C62.8388 116.815 62.4011 116.666 62.1926 116.571C62.1204 115.972 65.8954 112.722 66.4734 112.215C66.5674 112.132 66.9885 112.032 67.1423 112Z" fill="#FEE585"/>
<path d="M96.1314 130.818C95.478 131.184 95.1467 131.437 94.454 130.978C93.4073 129.28 96.5072 128.897 97.59 128.933C99.0311 129.242 99.8249 129.715 100.079 131.29C99.9167 132.265 99.8342 132.526 99.0992 133.236C100.322 134.104 100.598 135.011 100.018 136.425L100.103 136.633C99.5059 137.673 99.3562 137.999 98.4158 138.747C98.9185 138.765 99.6557 138.769 100.137 138.82C98.8877 138.946 94.4686 138.901 93.1927 138.81L89.2463 138.815C89.3464 138.234 95.2323 131.766 96.1314 130.818Z" fill="#63210C"/>
<path d="M96.1314 130.818C97.0656 130.591 97.6964 130.622 98.037 131.588C97.9183 132.642 95.8785 131.935 95.638 133.046C95.5647 133.383 95.6752 133.713 95.8734 133.987C96.246 134.183 96.5629 134.137 96.9934 134.14C96.6796 134.711 96.3276 135.566 95.7722 135.789C94.4034 134.794 92.9242 136.232 94.8741 137.526C94.4158 138.148 93.9978 138.69 93.1927 138.81L89.2463 138.815C89.3464 138.234 95.2323 131.766 96.1314 130.818Z" fill="#FEE585"/>
<path d="M100.018 136.425L100.103 136.633C99.5059 137.673 99.3562 137.999 98.4158 138.747C98.9185 138.765 99.6557 138.769 100.137 138.82C98.8877 138.946 94.4686 138.901 93.1927 138.81C93.9978 138.69 94.4158 138.148 94.8741 137.526C96.7415 138.169 98.836 138.348 100.018 136.425Z" fill="#F8BB46"/>
<path d="M96.9934 134.14C99.6329 134.569 97.3361 137.243 95.7722 135.789C96.3276 135.566 96.6796 134.711 96.9934 134.14Z" fill="#FCC952"/>
<path d="M24.0114 56.6395C24.7957 57.8702 28.4642 63.2015 29.6848 63.5995C30.0292 63.5466 30.0132 63.5432 30.3141 63.3563C31.9058 65.3047 33.896 66.275 36.0883 67.4414C39.3746 69.1812 42.7352 70.7775 46.1606 72.2257C47.4772 72.7852 49.1843 73.4192 50.4379 74.0129C50.7966 74.1481 51.2116 74.2926 51.5597 74.4402L54.4889 75.5586C52.7933 77.0862 51.6528 78.3864 50.8661 80.6076C50.7629 81.0419 50.3411 82.9958 50.2022 83.2745C50.3117 86.961 50.699 89.1782 53.2216 92.1141C51.897 92.4829 50.0601 92.6745 48.6816 92.8867C46.5769 92.3511 43.8932 91.2354 42.3201 89.684C41.8292 89.1999 41.3579 88.4561 40.981 87.8774C40.5816 87.8363 39.8612 87.8454 39.4975 87.7476C37.9296 87.3257 36.5286 86.0422 35.4132 84.9041C34.6059 84.0803 33.6677 82.9263 33.1682 81.8768C32.9583 81.436 32.7315 80.4304 32.4609 80.0193C31.9523 79.2437 31.4272 78.7649 30.9122 77.9644C29.9303 76.438 28.8387 74.4398 28.6254 72.6049C28.6011 72.3969 28.7445 72.1284 28.9022 72.0171C29.0364 71.9223 29.118 71.8143 29.218 71.6782C29.087 71.1998 28.2952 70.6033 27.8848 70.3327C23.9882 67.7634 20.9548 64.6941 18.1106 60.9892C20.6858 60.3826 22.5764 58.7986 24.0114 56.6395Z" fill="#FCC952"/>
<path d="M51.5597 74.4402L54.4889 75.5586C52.7933 77.0862 51.6528 78.3864 50.8661 80.6076C50.7069 79.692 50.724 78.4889 50.6493 77.5452C50.5593 76.407 50.6612 75.2535 51.5597 74.4402Z" fill="#7B66D2"/>
<path d="M50.4379 74.0129C50.7966 74.1481 51.2116 74.2926 51.5597 74.4402C50.6612 75.2535 50.5593 76.407 50.6493 77.5452C50.724 78.4889 50.7069 79.692 50.8661 80.6076C50.7629 81.0419 50.3411 82.9958 50.2022 83.2745C50.1886 83.2204 50.1759 83.1663 50.1642 83.1118C49.8043 81.4556 49.8339 79.5258 49.7049 77.836C49.5958 76.409 49.6409 75.2439 50.4379 74.0129Z" fill="#3F2D84"/>
<path d="M41.5095 71.8005C43.7786 71.3669 45.9709 72.8485 46.4096 75.1119C46.8484 77.3754 45.368 79.566 43.1006 80.0082C40.8272 80.4515 38.6249 78.9693 38.1849 76.6997C37.745 74.4302 39.2345 72.2352 41.5095 71.8005Z" fill="#B46D33"/>
<path d="M96.5063 60.294C96.5341 63.4334 95.6815 66.8058 94.9568 69.858C94.9424 69.9216 94.4366 70.1246 94.3509 70.1594C94.1971 70.4293 94.1228 70.577 94.2518 70.9205C95.4265 74.0458 96.9027 77.267 98.7215 80.0397L98.9238 80.7589C96.2905 81.2416 94.5336 82.1363 93.5684 84.7614C93.2598 84.4884 93.1328 84.3162 92.8799 83.9962C92.4071 83.3246 91.8951 82.5375 91.4843 81.8928C91.0796 81.2585 89.7139 78.3861 89.3661 78.1104C88.9738 78.0085 89.1276 77.9926 88.7684 78.1258C87.9942 79.0311 89.0244 80.5495 89.491 81.4726C87.6556 83.2601 86.2156 85.0637 84.4927 86.9268C83.4615 88.0426 81.7004 88.6395 80.3843 89.3204C79.4522 89.7757 78.3817 90.8512 77.4434 91.1963C75.2777 91.9915 72.9437 92.3202 70.7584 93.169C70.0616 93.4399 68.7331 93.6501 67.9589 93.8726L68.1117 93.7582C73.689 89.5275 74.6263 82.6925 70.3259 77.1668C69.5558 76.4018 68.9726 75.8355 68.1385 75.144C68.6681 74.9048 69.466 74.6863 70.042 74.5126C71.96 73.6205 74.6346 72.6323 76.6754 71.7742C76.9851 71.6001 77.5869 71.3411 77.9296 71.203C80.1242 70.3186 82.198 69.2299 84.3276 68.2278C88.6094 65.9367 92.8686 63.5561 96.5063 60.294Z" fill="#F8BB46"/>
<path d="M76.6754 71.7742C76.9851 71.6001 77.5869 71.3411 77.9296 71.203C80.1242 70.3186 82.198 69.2299 84.3276 68.2278C84.7013 68.6498 84.8715 68.9219 85.1729 69.3585C86.8772 71.8265 85.2029 75.8848 82.2062 76.3004C78.778 76.7759 77.0676 74.8609 76.6754 71.7742Z" fill="#8D431A"/>
<path d="M92.8799 83.9962C93.9483 81.8951 96.3504 80.1995 98.7215 80.0397L98.9238 80.7589C96.2905 81.2416 94.5336 82.1363 93.5684 84.7614C93.2598 84.4884 93.1328 84.3162 92.8799 83.9962Z" fill="#8D431A"/>
<path d="M70.042 74.5126C70.2309 75.3126 70.2671 76.3317 70.3259 77.1668C69.5558 76.4018 68.9726 75.8355 68.1385 75.144C68.6681 74.9048 69.466 74.6863 70.042 74.5126Z" fill="#3F2D84"/>
<path d="M57.0924 75.1228C61.2326 73.1092 66.2092 74.0684 69.2998 77.4762C69.4805 77.6758 69.6539 77.8823 69.819 78.0953C72.984 82.186 72.632 87.9813 68.9953 91.6609C65.3586 95.3405 59.5573 95.7711 55.4147 92.6694C53.5593 91.2808 52.2253 89.3091 51.6268 87.0729C50.3488 82.2976 52.64 77.288 57.0924 75.1228Z" fill="#E18C18"/>
<path d="M63.1867 77.0049C64.1147 77.2927 64.8208 77.5751 65.6673 78.0641C65.2141 78.5218 63.6223 80.2552 63.1145 80.3832C63.0597 80.9684 63.0721 81.543 63.0732 82.1305L63.0763 84.3305C63.0814 85.4287 63.0639 86.6134 63.0969 87.704C63.5769 87.6906 64.1447 87.621 64.5679 87.7964C64.9457 88.2072 64.9725 88.8929 64.7021 89.3647C64.2004 89.5656 59.5634 89.5079 58.813 89.4358C58.589 89.2194 58.6169 88.9712 58.5725 88.6117C58.463 89.65 57.8595 89.615 57.1244 90.5627C56.5404 90.1064 56.2521 89.8169 55.7313 89.2812C55.3431 88.8249 55.2467 88.6364 54.9576 88.1173C54.4369 87.008 54.2347 86.4402 54.0383 85.2354C57.0025 82.3988 60.0538 79.654 63.1867 77.0049Z" fill="#E18C18"/>
<path d="M63.1867 77.0049C64.1147 77.2927 64.8208 77.5751 65.6673 78.0641C65.2141 78.5218 63.6223 80.2552 63.1145 80.3832C63.0597 79.89 63.1464 79.9577 62.875 79.6596C62.3929 79.4662 61.5371 79.5655 60.9663 79.5762C60.4873 79.9908 60.0342 80.3906 59.4334 80.9113C58.4362 81.7753 57.2474 82.8936 59.3838 83.4649C59.4065 83.4656 59.4303 83.4662 59.454 83.467L59.6718 83.5939C58.5281 84.5445 56.0083 86.9695 54.9576 88.1173C54.4369 87.008 54.2347 86.4402 54.0383 85.2354C57.0025 82.3988 60.0538 79.654 63.1867 77.0049Z" fill="#FEE585"/>
<path d="M60.4708 82.5862L60.5833 82.4594C60.7959 82.7352 60.7226 84.0846 60.7164 84.486C60.7257 85.5388 60.7185 86.5916 60.6937 87.6441C60.1115 87.6621 59.166 87.5961 58.7025 87.7957C58.4805 88.0828 58.5074 88.2387 58.5725 88.6117C58.463 89.65 57.8595 89.615 57.1244 90.5627C56.5404 90.1064 56.2521 89.8169 55.7313 89.2812C55.3431 88.8249 55.2467 88.6364 54.9576 88.1173C56.0083 86.9695 58.5281 84.5445 59.6718 83.5939L59.454 83.467C59.7782 83.1598 60.1291 82.8742 60.4708 82.5862Z" fill="#FEE585"/>
<path d="M60.4708 82.5862L60.5833 82.4594C60.7959 82.7352 60.7226 84.0846 60.7164 84.486C59.8535 85.2822 56.2084 88.5323 55.7313 89.2812C55.3431 88.8249 55.2467 88.6364 54.9576 88.1173C56.0083 86.9695 58.5281 84.5445 59.6718 83.5939L59.454 83.467C59.7782 83.1598 60.1291 82.8742 60.4708 82.5862Z" fill="#FCC952"/>
<path d="M60.4708 82.5862C60.5606 83.0818 60.092 83.4095 59.6718 83.5939L59.454 83.467C59.7782 83.1598 60.1291 82.8742 60.4708 82.5862Z" fill="#FCC952"/>
<path d="M65.6673 78.0641C66.0182 78.2812 66.1978 78.3771 66.493 78.6781L66.685 78.8652C67.1991 79.3181 67.6647 79.683 67.9939 80.2935L68.0869 80.3788C69.1511 82.2524 69.5279 84.1239 68.955 86.242C68.4038 88.2367 67.0773 89.9282 65.2708 90.9428C63.4128 91.9586 61.2254 92.1914 59.1939 91.5918C58.6437 91.426 57.5421 90.9408 57.1244 90.5627C57.8595 89.615 58.463 89.65 58.5725 88.6117C58.6169 88.9712 58.589 89.2194 58.813 89.4358C59.5634 89.5079 64.2004 89.5656 64.7021 89.3647C64.9725 88.8929 64.9457 88.2072 64.5679 87.7964C64.1447 87.621 63.5769 87.6906 63.0969 87.704C63.0639 86.6134 63.0814 85.4287 63.0763 84.3305L63.0732 82.1305C63.0721 81.543 63.0597 80.9684 63.1145 80.3832C63.6223 80.2552 65.2141 78.5218 65.6673 78.0641Z" fill="#FCC952"/>
<path d="M65.6673 78.0641C66.0182 78.2812 66.1978 78.3771 66.493 78.6781L66.685 78.8652C67.1991 79.3181 67.6647 79.683 67.9939 80.2935C67.3674 80.869 63.55 84.4032 63.1557 84.4099L63.0763 84.3305L63.0732 82.1305C63.0721 81.543 63.0597 80.9684 63.1145 80.3832C63.6223 80.2552 65.2141 78.5218 65.6673 78.0641Z" fill="#FEE585"/>
<path d="M65.6673 78.0641C66.0182 78.2812 66.1978 78.3771 66.493 78.6781L66.685 78.8652C66.1142 79.1182 63.2146 81.6451 63.0732 82.1305C63.0721 81.543 63.0597 80.9684 63.1145 80.3832C63.6223 80.2552 65.2141 78.5218 65.6673 78.0641Z" fill="#FCC952"/>
<path d="M57.0924 75.1228C61.2326 73.1092 66.2092 74.0684 69.2998 77.4762C68.378 77.5605 68.2923 77.9951 67.738 78.4502L67.4768 78.1325C65.6043 76.5598 63.1898 75.7811 60.7495 75.9633C58.5446 76.1553 56.5057 77.2141 55.0828 78.9067C51.7217 82.9284 52.666 88.8053 57.086 91.6228C56.4787 92.1018 56.159 92.5179 55.4147 92.6694C53.5593 91.2808 52.2253 89.3091 51.6268 87.0729C50.3488 82.2976 52.64 77.288 57.0924 75.1228Z" fill="#FCC952"/>
<path d="M57.0924 75.1228L57.2813 75.3086C56.9122 75.762 55.9486 76.294 55.5024 76.7002C52.94 79.0336 51.588 82.1881 51.9667 85.6628C52.0062 86.0254 52.0696 86.831 51.7772 87.0764L51.6268 87.0729C50.3488 82.2976 52.64 77.288 57.0924 75.1228Z" fill="#FFFCDD"/>
<path d="M67.738 78.4502C68.2923 77.9951 68.378 77.5605 69.2998 77.4762C69.4805 77.6758 69.6539 77.8823 69.819 78.0953C72.984 82.186 72.632 87.9813 68.9953 91.6609C65.3586 95.3405 59.5573 95.7711 55.4147 92.6694C56.159 92.5179 56.4787 92.1018 57.086 91.6228C57.9111 92.0616 58.5766 92.3778 59.4892 92.6034C61.7065 93.1494 64.0497 92.795 66.0048 91.6176C70.1422 89.1072 71.354 83.9127 68.8126 79.8218L68.8147 79.7245L67.738 78.4502Z" fill="#F8BB46"/>
<path d="M67.738 78.4502C68.2923 77.9951 68.378 77.5605 69.2998 77.4762C69.4805 77.6758 69.6539 77.8823 69.819 78.0953C69.6673 78.6287 69.1502 79.2424 68.8147 79.7245L67.738 78.4502Z" fill="#FEE585"/>
<path d="M54.0383 85.2354C53.6361 81.886 55.7804 78.5273 58.8913 77.3402C60.4212 76.7563 61.5774 76.8198 63.1867 77.0049C60.0538 79.654 57.0025 82.3988 54.0383 85.2354Z" fill="#FCC952"/>
<path d="M67.4768 78.1325L67.738 78.4502L68.8147 79.7245L68.8126 79.8218C68.3388 79.9431 68.3222 79.8816 68.0869 80.3788L67.9939 80.2935C67.6647 79.683 67.1991 79.3181 66.685 78.8652L66.493 78.6781C66.5519 78.6704 66.6116 78.662 66.6705 78.6525C67.2104 78.5658 67.2095 78.5001 67.4768 78.1325Z" fill="#E18C18"/>
<path d="M96.1521 53.5986C96.2874 54.1998 96.3472 54.553 96.4154 55.1654L96.563 56.6142C96.6456 57.1094 96.6249 58.0517 96.6229 58.5899C95.9591 59.4107 94.7235 60.4335 93.8719 61.0964C87.4594 66.0884 79.5109 69.459 72.026 72.5619C70.8905 73.0323 68.1601 74.1504 67.0577 74.425C66.877 74.3559 66.4559 74.215 66.3268 74.1099C65.628 73.7987 65.2244 73.6634 64.4873 73.4403C63.8163 73.3572 63.1454 73.2789 62.4734 73.2055C67.5697 69.9872 72.7909 66.9709 78.1256 64.1633C83.9724 61.0412 90.8989 57.578 96.1521 53.5986Z" fill="#F04638"/>
<path d="M96.563 56.6142C96.6456 57.1094 96.6249 58.0517 96.6229 58.5899C95.9591 59.4107 94.7235 60.4335 93.8719 61.0964C87.4594 66.0884 79.5109 69.459 72.026 72.5619C70.8905 73.0323 68.1601 74.1504 67.0577 74.425C66.877 74.3559 66.4559 74.215 66.3268 74.1099C67.8845 73.1414 71.2641 71.5152 73.0417 70.58C77.7726 68.1176 82.4704 65.5928 87.1332 63.0063C88.6413 62.1628 96.2595 57.6909 96.563 56.6142Z" fill="#F04638"/>
<path d="M96.4154 55.1654L96.563 56.6142C96.2595 57.6909 88.6413 62.1628 87.1332 63.0063C82.4704 65.5928 77.7726 68.1176 73.0417 70.58C71.2641 71.5152 67.8845 73.1414 66.3268 74.1099C65.628 73.7987 65.2244 73.6634 64.4873 73.4403C74.7718 67.6275 87.0713 62.3523 96.4154 55.1654Z" fill="#FDFDFD"/>
<path d="M26.298 53.8765C30.6583 57.5074 38.5162 61.4599 43.6939 64.2494C48.9959 67.0577 54.1799 70.0823 59.2331 73.3154C58.5095 73.5262 57.9021 73.7213 57.193 73.9771C56.6745 74.2235 56.1552 74.4649 55.6473 74.7325C54.4115 74.6507 44.6208 70.4105 42.924 69.6428C39.7491 68.233 36.6598 66.6383 33.6721 64.8672C31.0714 63.3249 29.7861 62.2643 27.9912 59.7825C27.5289 59.1432 26.5916 58.2318 26.3259 57.5259C25.9433 56.6727 25.9897 56.4932 26.125 55.5614C26.177 54.9983 26.2248 54.4372 26.298 53.8765Z" fill="#FDFDFD"/>
<path d="M26.298 53.8765C30.6583 57.5074 38.5162 61.4599 43.6939 64.2494C48.9959 67.0577 54.1799 70.0823 59.2331 73.3154C58.5095 73.5262 57.9021 73.7213 57.193 73.9771C51.491 70.6094 45.4112 67.4581 39.6826 64.1672C36.4896 62.3329 28.4431 58.041 26.125 55.5614C26.177 54.9983 26.2248 54.4372 26.298 53.8765Z" fill="#F04638"/>
<path d="M26.3259 57.5259C29.2307 59.98 33.2646 62.2517 36.586 64.148C40.991 66.6405 45.4115 69.1056 49.847 71.5433C50.8868 72.1217 54.9698 74.1216 55.6473 74.7325C54.4115 74.6507 44.6208 70.4105 42.924 69.6428C39.7491 68.233 36.6598 66.6383 33.6721 64.8672C31.0714 63.3249 29.7861 62.2643 27.9912 59.7825C27.5289 59.1432 26.5916 58.2318 26.3259 57.5259Z" fill="#F04638"/>
<path d="M67.6594 95.5352C69.6982 94.8831 71.7008 94.0003 73.8324 93.6336C74.6097 93.5007 75.3581 93.3781 76.1302 93.2122C76.7506 96.9444 76.8766 97.9725 76.7806 101.733C75.4231 101.895 75.3653 102.106 74.8254 103.322C75.8722 103.104 77.2079 102.859 78.0121 103.571C81.2389 106.428 79.1661 108.415 75.5119 108.329C73.3741 108.279 70.4507 108.515 68.5627 107.325C68.157 106.984 68.3129 102.887 68.3418 102.144C68.3583 99.9225 68.1291 97.7067 67.6594 95.5352Z" fill="#F9C055"/>
<path d="M69.7642 102.729C72.8569 102.104 73.2739 101.412 76.7806 101.733C75.4231 101.895 75.3653 102.106 74.8254 103.322C75.8722 103.104 77.2079 102.859 78.0121 103.571C81.2389 106.428 79.1661 108.415 75.5119 108.329C73.3741 108.279 70.4507 108.515 68.5627 107.325C68.157 106.984 68.3129 102.887 68.3418 102.144C68.8146 102.355 69.2832 102.538 69.7642 102.729Z" fill="#9A5424"/>
<path d="M47.2745 94.0343C47.8387 94.1703 48.4013 94.3124 48.9622 94.4608C50.1768 94.7533 52.7711 95.3941 54.0073 95.4744L55.887 96.1728C55.6953 97.886 55.6258 99.0088 55.6559 100.73C55.8222 101.573 56.0541 106.562 55.7563 107.334C54.5907 108.728 46.2585 109.023 44.7241 107.758C43.093 106.412 45.8542 103.175 47.5778 103.383C47.7999 103.41 48.4584 103.437 48.7381 103.455C48.2422 102.346 48.2624 102.188 47.0373 102.08C46.7919 99.2251 46.9752 96.8651 47.2745 94.0343Z" fill="#F8BE55"/>
<path d="M55.6559 100.73C55.8222 101.573 56.0541 106.562 55.7563 107.334C54.5907 108.728 46.2585 109.023 44.7241 107.758C43.093 106.412 45.8542 103.175 47.5778 103.383C47.7999 103.41 48.4584 103.437 48.7381 103.455C48.2422 102.346 48.2624 102.188 47.0373 102.08C49.2949 101.652 51.8565 102.38 54.1261 102.784C54.773 102.504 54.9989 102.432 55.6854 102.266C55.6521 101.744 55.6555 101.252 55.6559 100.73Z" fill="#9A5424"/>
<path d="M17.639 60.2034L16.8446 59.6707C14.9151 58.3649 13.6052 57.2684 13.1056 54.8361C12.616 52.4527 13.9221 49.709 16.4754 49.2553C17.7184 49.0345 19.3205 49.3021 20.0533 50.4215C20.3435 50.8647 20.6386 51.5366 21.0666 51.8434C21.8326 51.8713 22.0659 50.7134 23.0179 50.8365C24.5598 51.6185 22.8376 54.0002 23.481 55.753C23.598 55.9445 23.9333 56.4635 24.0114 56.6395C22.5764 58.7986 20.6858 60.3826 18.1106 60.9892L17.639 60.2034Z" fill="#9A5424"/>
<path d="M23.481 55.753C23.598 55.9445 23.9333 56.4635 24.0114 56.6395C22.5764 58.7986 20.6858 60.3826 18.1106 60.9892L17.639 60.2034C19.9287 59.8404 22.8403 58.0852 23.481 55.753Z" fill="#8D431A"/>
<path d="M57.7545 106.44C60.1063 106.274 64.5037 106.34 66.9285 106.388C67.3869 109.053 68.9745 109.372 71.4437 109.544C73.6971 109.702 78.8626 110.145 80.4254 108.332C81.0861 109.156 81.7674 109.99 82.4146 110.822L63.8885 110.835L57.769 110.848C56.6909 110.85 55.0786 110.893 54.0425 110.799C50.1143 110.967 45.1389 110.853 41.14 110.838L43.1553 108.211C44.7691 110.361 48.613 109.909 51.0249 109.892C52.5975 109.881 54.7974 109.643 56.188 108.927C56.926 108.547 57.1483 106.782 57.4571 106.446L57.7545 106.44Z" fill="#F8BB46"/>
<path d="M43.1553 108.211C44.7691 110.361 48.613 109.909 51.0249 109.892C52.5975 109.881 54.7974 109.643 56.188 108.927C56.926 108.547 57.1483 106.782 57.4571 106.446L57.7545 106.44C59.1824 106.567 61.3471 106.484 62.8645 106.493C61.4771 107.646 60.2983 108.802 59.6583 110.533L59.6108 110.661C59.6015 110.686 59.5922 110.712 59.5829 110.738C58.4412 110.742 54.9604 110.684 54.0425 110.799C50.1143 110.967 45.1389 110.853 41.14 110.838L43.1553 108.211Z" fill="#FCC952"/>
<path d="M97.3671 122.317C101.401 122.238 105.546 122.313 109.596 122.288C110.732 123.574 111.854 124.872 112.963 126.182C105.74 126.053 98.4417 126.256 91.2209 126.148C91.2302 126.079 91.253 125.884 91.3015 125.827C92.2253 124.73 93.0315 123.689 93.7655 122.45C94.9082 122.382 96.2646 122.477 97.3671 122.317Z" fill="#FCC952"/>
<path d="M11.9441 115.802C17.8747 115.845 23.8283 115.692 29.7711 115.803C28.7958 117.276 27.6297 117.421 27.0234 119.697C26.348 119.696 22.0117 119.613 21.7037 119.808C17.3734 119.904 12.7394 119.828 8.38413 119.834C9.5829 118.501 10.7696 117.157 11.9441 115.802Z" fill="#FCC952"/>
<path d="M98.9238 80.7589C100.493 81.5188 102.846 83.4555 103.385 85.1617C104.43 88.4633 101.439 91.2797 98.1712 89.6366C97.8357 89.4646 97.5023 89.2884 97.1709 89.1071C96.5206 89.6026 95.6875 90.6194 95.0073 89.48C94.36 88.3963 94.4302 87.0017 94.3394 85.7782C94.0968 85.4398 93.8482 85.0661 93.5684 84.7614C94.5336 82.1363 96.2905 81.2416 98.9238 80.7589Z" fill="#9A5424"/>
<path d="M29.7711 115.803C33.2638 115.764 36.7567 115.76 40.2493 115.792L40.259 119.797L27.7152 119.82C25.8308 119.819 23.5269 119.886 21.7037 119.808C22.0117 119.613 26.348 119.696 27.0234 119.697C27.6297 117.421 28.7958 117.276 29.7711 115.803Z" fill="#F8BB46"/>
<path d="M83.2622 122.322C87.6018 122.318 93.1131 122.137 97.3671 122.317C96.2646 122.477 94.9082 122.382 93.7655 122.45C93.0315 123.689 92.2253 124.73 91.3015 125.827C91.253 125.884 91.2302 126.079 91.2209 126.148C88.5608 126.136 85.9017 126.152 83.2415 126.194C83.1951 124.948 83.2425 123.579 83.2622 122.322Z" fill="#F8BB46"/>
<path d="M53.2216 92.1141C54.617 93.4451 55.2703 93.854 56.941 94.8718C56.1914 94.6833 53.8715 93.9405 53.2647 94.4453C53.2019 95.0243 53.5716 95.1613 54.0073 95.4744C52.7711 95.3941 50.1768 94.7533 48.9622 94.4608C49.5555 94.4597 51.0172 94.1847 50.9754 93.4142C50.4555 92.8229 49.7188 93.0423 48.6816 92.8867C50.0601 92.6745 51.897 92.4829 53.2216 92.1141Z" fill="#E18C18"/>
<path d="M111.9 34.3273C113.074 34.7895 114.035 35.46 113.236 36.8712C112.497 38.1777 111.107 39.2609 109.658 39.6802C108.946 39.6995 107.96 38.9221 108.084 38.1185C108.494 37.6343 109.248 37.418 109.883 36.8276C110.651 36.1145 111.228 34.7924 111.9 34.3273Z" fill="#F17563"/>
<path d="M14.0312 25.876C15.3335 26.2905 17.0727 30.0578 15.8541 31.2546C15.5784 31.5255 15.0582 31.4652 14.6835 31.4614C14.2431 31.4749 14.031 31.4867 13.5843 31.4209C13.3417 31.0253 13.6406 30.0783 13.4101 29.411C13.105 28.5279 12.6169 27.9991 12.106 27.2114C12.7124 26.5946 13.2824 26.2954 14.0312 25.876Z" fill="#FCC952"/>
<path d="M117.722 65.3023C119.302 65.164 121.441 64.7248 120.92 67.2312C120.557 67.577 118.624 67.474 117.678 67.656C116.822 67.955 116.301 68.1883 115.389 68.4475C115.253 68.1708 115.139 67.8842 115.046 67.5902C114.516 65.9436 116.581 65.595 117.722 65.3023Z" fill="#8EDC93"/>
<path d="M12.1309 73.3775C13.8519 73.2952 15.2145 76.2025 14.606 77.631C14.397 78.1217 14.058 78.1719 13.598 78.3298L13.2113 78.3556C12.7241 78.1206 12.5298 76.5694 12.064 75.9895C11.6676 75.4959 11.4042 75.1982 10.9392 74.7466C11.3164 74.0506 11.5333 73.8347 12.1309 73.3775Z" fill="#F17563"/>
<path d="M8.76378 62.0378C9.57628 62.3503 9.73732 62.854 10.1399 63.61C9.7271 64.0977 9.19403 64.5525 8.76244 65.0824C8.30959 65.6384 7.90803 66.1824 7.41399 66.6982C6.68128 66.0358 6.45728 65.6889 5.98285 64.8226C6.60841 63.5158 7.46364 62.6787 8.76378 62.0378Z" fill="#FCC952"/>
<path d="M25.0422 25.4205C25.6915 25.7698 25.9324 27.2546 26.3088 27.5718C27.7436 28.7805 27.9809 28.958 26.1419 30.319C25.03 29.8904 23.7293 28.1397 23.7354 26.9174C23.7379 26.4261 24.6697 25.7363 25.0422 25.4205Z" fill="#F17563"/>
<path d="M101.678 16.0666C102.147 16.1266 102.735 16.369 102.994 16.7782C103.314 18.1742 100.698 19.7988 99.6546 20.3059C98.8598 20.4719 98.6255 20.1509 98.3798 19.3935C98.3953 19.2923 98.4108 19.1911 98.4273 19.0899C99.0755 18.6134 100.026 17.9144 100.596 17.4125C101.046 17.0154 101.389 16.4807 101.678 16.0666Z" fill="#F17563"/>
<path d="M35.8871 4.95456C36.9288 5.33036 38.4524 7.53217 38.2941 8.71703C38.2447 9.08736 37.3384 9.50364 36.9927 9.6936L36.8048 9.7074C36.3598 9.4235 35.9325 7.79084 35.4893 7.18656C35.2248 6.8257 34.6463 6.23863 34.5622 5.91001C34.7464 5.40061 35.3931 5.18645 35.8871 4.95456Z" fill="#FCC952"/>
<path d="M1.31515 40.4215C1.5792 40.395 1.57807 40.4055 1.8414 40.462C2.13085 40.955 2.26195 42.2296 2.4909 42.8655C2.70469 43.4594 3.13349 43.8341 3.19542 44.3389C2.87449 44.8855 2.50773 44.9042 1.88207 45.069C1.2113 44.974 0.640975 43.8952 0.415528 43.3002C-0.200323 41.675 -0.303034 41.0068 1.31515 40.4215Z" fill="#6AC8E1"/>
<path d="M27.8737 92.1677C28.3364 92.1841 28.5172 92.7734 28.4865 93.0618C28.3547 94.3042 30.1462 95.1015 29.811 95.9761C29.4845 96.3119 29.0108 96.4777 28.5774 96.6673C27.6166 96.1862 26.7373 94.879 26.5172 93.8334C26.2514 92.5715 26.8077 92.3047 27.8737 92.1677Z" fill="#FCC952"/>
<path d="M99.7021 28.2421C102.514 29.14 100.139 31.8885 98.7483 32.8675C98.2817 32.6331 97.7222 32.3652 97.5095 31.869C97.5467 31.5384 98.2012 30.9053 98.4665 30.5243C98.9692 29.8049 99.1756 28.8234 99.7021 28.2421Z" fill="#FCC952"/>
<path d="M92.6754 95.5187L93.0924 95.564C93.6054 96.0389 94.2465 97.9725 93.9482 98.6575C93.7706 99.0644 93.2617 99.2076 92.8922 99.359L92.5577 99.2787C91.8248 98.675 91.2911 97.171 91.6431 96.2666C91.8155 95.8236 92.2738 95.6845 92.6754 95.5187Z" fill="#6AC8E1"/>
<path d="M106.678 48.7682C107.112 48.7569 107.29 48.7196 107.598 48.9668C107.734 49.6899 107.658 50.8739 107.687 51.6465C107.7 51.9899 107.51 52.0848 107.297 52.2607C105.961 52.1363 105.84 51.2378 105.982 49.9788C106.04 49.4686 106.233 49.0656 106.678 48.7682Z" fill="#F17563"/>
<path d="M49.1197 0C49.6988 0.312543 50.213 1.72816 50.1288 2.3894C49.9452 2.75283 49.816 2.78724 49.4517 3.01356C48.7284 2.58111 48.0128 1.57539 48.2839 0.720579C48.4134 0.312131 48.7708 0.182334 49.1197 0Z" fill="#F17563" fill-opacity="0.870588"/>
<path d="M38.0018 24.9045C38.6775 25.0921 39.2069 26.2662 39.2364 26.9564C39.0583 27.3245 39.0448 27.2418 38.6296 27.5003C38.405 27.5056 38.3782 27.4955 38.1557 27.4512C37.3351 26.6458 36.6891 25.6093 38.0018 24.9045Z" fill="#809B8A" fill-opacity="0.286275"/>
</svg>
