<svg width="27" height="27" viewBox="0 0 27 27" fill="none" xmlns="http://www.w3.org/2000/svg">
<g clip-path="url(#clip0_116_5365)">
<rect x="0.674683" y="0.674713" width="25" height="25" rx="12.5" fill="#2E82FF"/>
<path d="M9.31927 28.2381C9.4174 28.0906 9.52099 27.9361 9.63623 27.7652C9.77742 27.5558 10.2665 26.8346 10.3517 26.7085C10.6288 26.2982 10.8353 25.9879 11.0218 25.6997C11.4674 25.011 11.2704 24.0915 10.5817 23.6459C9.89304 23.2003 8.97353 23.3974 8.52793 24.086C8.35415 24.3546 8.1573 24.6503 7.89018 25.0458C7.80731 25.1684 7.31726 25.8911 7.17331 26.1046C7.05491 26.2802 6.94804 26.4396 6.8463 26.5925C6.27473 27.4515 5.84942 28.1297 5.50613 28.7476L5.43037 28.9052C4.73703 30.5952 4.39389 31.8878 4.28998 33.2386C4.2007 34.3993 4.26941 35.4301 4.52683 37.5924C4.62379 38.4069 5.36269 38.9886 6.1772 38.8916C6.9917 38.7946 7.57339 38.0557 7.47642 37.2412C7.24121 35.2654 7.18181 34.3744 7.25166 33.4665C7.32796 32.4745 7.58467 31.4939 8.14508 30.1145C8.43643 29.5972 8.81277 28.9992 9.31927 28.2381Z" fill="#EBBAAA"/>
<path d="M6.96037 27.0257C7.14526 24.8437 8.9703 23.1667 11.1601 23.1667H15.4462C17.6225 23.1667 19.4409 24.8236 19.6428 26.9904L20.1711 32.6591L19.8099 40.7886L6.8845 41.0294L6.48309 32.6591L6.96037 27.0257Z" fill="#D04040"/>
<path d="M13.509 26.5689C15.0614 26.5689 16.3198 25.2951 16.3198 23.7238C16.3198 22.1525 15.0614 20.8787 13.509 20.8787C11.9566 20.8787 10.6981 22.1525 10.6981 23.7238C10.6981 25.2951 11.9566 26.5689 13.509 26.5689Z" fill="#993030"/>
<rect x="12.0147" y="20.6384" width="3.08509" height="4.62764" rx="1.54254" fill="#EBBAAA"/>
<path d="M17.4349 25.889C17.5385 26.3681 17.7004 26.8355 17.946 27.4156C18.0504 27.6623 18.4722 28.6035 18.5688 28.8287C18.9718 29.7691 19.2282 30.5454 19.3937 31.4284C19.709 33.1102 20.8655 34.5168 22.4238 35.346C23.9398 36.1526 25.678 36.3237 27.017 35.6542C27.7507 35.2874 28.048 34.3953 27.6812 33.6616C27.3144 32.928 26.4222 32.6306 25.6886 32.9974C25.3066 33.1884 24.5532 33.1143 23.8191 32.7237C23.012 32.2942 22.4501 31.6107 22.3133 30.881C22.1025 29.7567 21.781 28.7831 21.299 27.6585C21.1886 27.401 20.7705 26.4681 20.6814 26.2577C20.502 25.8339 20.3957 25.527 20.3383 25.2612C20.1649 24.4595 19.3744 23.9501 18.5727 24.1235C17.771 24.2968 17.2616 25.0873 17.4349 25.889Z" fill="#EBBAAA"/>
<path d="M3.18693 28.698C3.03362 28.5405 3.03543 28.2891 3.19098 28.1338L8.28919 23.046L10.6698 28.4139L6.28215 31.877L3.18693 28.698Z" fill="#2B2D2F"/>
<path d="M6.77132 25.6454C6.9027 23.8855 8.36897 22.5247 10.1338 22.5247H11.2387C11.5946 22.5247 11.9188 22.7292 12.072 23.0505L13.0656 25.1338L12.5839 33.0817V39.8084C12.5839 40.0209 12.4184 40.1965 12.2063 40.2091L6.28939 40.5613C6.05007 40.5756 5.85168 40.3781 5.86475 40.1387L6.34197 31.3958L6.77132 25.6454Z" fill="#2B2D2F"/>
<path d="M13.1469 25.1737L12.1033 22.0427L10.618 22.4843L11.5413 26.2977L13.1469 25.1737Z" fill="#494C50"/>
<path d="M23.9076 28.6981C24.0609 28.5407 24.0591 28.2892 23.9035 28.134L18.8053 23.0461L16.4247 28.4141L20.8124 31.8771L23.9076 28.6981Z" fill="#2B2D2F"/>
<path d="M20.3244 25.6454C20.193 23.8855 18.7268 22.5247 16.962 22.5247H15.8571C15.5012 22.5247 15.1769 22.7292 15.0238 23.0505L14.0302 25.1338L14.5118 33.0817V39.8084C14.5118 40.0209 14.6773 40.1965 14.8894 40.2091L20.8063 40.5613C21.0457 40.5756 21.2441 40.3781 21.231 40.1387L20.7537 31.3958L20.3244 25.6454Z" fill="#2B2D2F"/>
<path d="M13.9501 25.1737L14.9937 22.0427L16.4789 22.4843L15.5557 26.2977L13.9501 25.1737Z" fill="#494C50"/>
<path d="M6.99783 16.9481C8.28518 16.9481 9.32879 15.9583 9.32879 14.7372C9.32879 13.5161 8.28518 12.5262 6.99783 12.5262C5.71048 12.5262 4.66687 13.5161 4.66687 14.7372C4.66687 15.9583 5.71048 16.9481 6.99783 16.9481Z" fill="#EBBAAA"/>
<path d="M20.1266 17.1196C21.4139 17.1196 22.4575 16.1297 22.4575 14.9086C22.4575 13.6875 21.4139 12.6976 20.1266 12.6976C18.8392 12.6976 17.7956 13.6875 17.7956 14.9086C17.7956 16.1297 18.8392 17.1196 20.1266 17.1196Z" fill="#EBBAAA"/>
<path d="M6.54679 10.6572C6.48108 6.74888 9.63121 3.54532 13.54 3.54532C17.4488 3.54532 20.599 6.74888 20.5333 10.6572L20.446 15.8479C20.3826 19.6166 17.3093 22.6386 13.54 22.6386C9.77074 22.6386 6.69747 19.6166 6.63409 15.8479L6.54679 10.6572Z" fill="#EED4CC"/>
<path fill-rule="evenodd" clip-rule="evenodd" d="M12.0887 17.7626L12.1995 18.4616C12.3699 19.5376 13.3803 20.2717 14.4563 20.1013C15.5323 19.9309 16.2665 18.9204 16.096 17.8444L15.9853 17.1454L12.0887 17.7626Z" fill="#393939"/>
<mask id="mask0_116_5365" style="mask-type:luminance" maskUnits="userSpaceOnUse" x="12" y="17" width="5" height="4">
<path fill-rule="evenodd" clip-rule="evenodd" d="M12.071 17.6329C12.0748 17.6709 12.0797 17.7091 12.0858 17.7474L12.1988 18.4613C12.3692 19.5373 13.3797 20.2714 14.4557 20.101C15.5317 19.9306 16.2659 18.9202 16.0954 17.8441L15.9823 17.1302C15.9763 17.092 15.9692 17.0541 15.961 17.0168L12.071 17.6329Z" fill="white"/>
</mask>
<g mask="url(#mask0_116_5365)">
<path d="M14.554 20.6053C15.2029 20.5025 15.6835 20.1329 15.6276 19.7797C15.5717 19.4265 15.0003 19.2235 14.3514 19.3263C13.7025 19.429 13.2218 19.7987 13.2777 20.1519C13.3337 20.5051 13.9051 20.7081 14.554 20.6053Z" fill="#FF6C6C"/>
<rect x="12.0886" y="17.7624" width="3.94517" height="0.813125" transform="rotate(-9.00001 12.0886 17.7624)" fill="white"/>
</g>
<path d="M9.63078 12.0321L11.8808 11.7956C12.1454 11.7677 12.3373 11.5307 12.3095 11.2662C12.2817 11.0016 12.0447 10.8096 11.7801 10.8375L9.53007 11.074C9.2655 11.1018 9.07356 11.3388 9.10137 11.6034C9.12918 11.8679 9.36621 12.0599 9.63078 12.0321Z" fill="#393939"/>
<path d="M10.7878 13.3291V14.4637C10.7878 14.7298 11.0034 14.9454 11.2695 14.9454C11.5355 14.9454 11.7512 14.7298 11.7512 14.4637V13.3291C11.7512 13.063 11.5355 12.8474 11.2695 12.8474C11.0034 12.8474 10.7878 13.063 10.7878 13.3291Z" fill="black"/>
<path d="M15.5182 13.3291V14.4637C15.5182 14.7298 15.7339 14.9454 15.9999 14.9454C16.266 14.9454 16.4816 14.7298 16.4816 14.4637V13.3291C16.4816 13.063 16.266 12.8474 15.9999 12.8474C15.7339 12.8474 15.5182 13.063 15.5182 13.3291Z" fill="black"/>
<path d="M15.1022 11.3303L17.3522 11.5668C17.6167 11.5946 17.8538 11.4027 17.8816 11.1381C17.9094 10.8736 17.7174 10.6365 17.4529 10.6087L15.2029 10.3722C14.9383 10.3444 14.7013 10.5363 14.6735 10.8009C14.6456 11.0655 14.8376 11.3025 15.1022 11.3303Z" fill="#393939"/>
<path d="M6.04968 6.59793C6.04968 5.2417 7.03225 4.06715 8.37067 3.84799L14.6995 2.81169C16.275 2.55371 17.7544 3.6424 17.9766 5.22339C18.1955 6.78073 17.1093 8.22023 15.5517 8.43719L9.1714 9.32591C7.52454 9.56342 6.04968 8.26185 6.04968 6.59793Z" fill="#393939"/>
<rect x="6.24109" y="8.04141" width="0.92324" height="4.93732" rx="0.46162" fill="#393939"/>
<path d="M8.89091 8.16143C8.28077 8.54678 7.60641 8.60298 7.12472 10.61L6.80359 8.60298C7.7536 8.29526 9.50105 7.77608 8.89091 8.16143Z" fill="#393939"/>
<rect x="19.7294" y="8.64346" width="0.92324" height="4.89718" rx="0.46162" fill="#393939"/>
<rect x="15.4735" y="4.42325" width="4.10749" height="6.10823" rx="2.05375" transform="rotate(-20.5 15.4735 4.42325)" fill="#393939"/>
<path d="M16.4741 2.30118C16.3644 3.71206 16.3563 5.32135 16.3563 5.32135L18.5651 3.82228C18.5651 3.82228 17.4168 3.5357 16.4741 2.30118Z" fill="#393939"/>
<path d="M7.8075 10.3395C7.99495 9.18488 8.24351 8.60686 7.99495 7.68008H20.4117V11.1322L19.7102 10.7424C19.7102 9.47663 18.2935 9.95936 17.5303 9.18488C16.3142 7.95095 14.9361 9.2734 14.1356 10.07C14.1356 9.09633 13.6705 9.11849 13.261 8.91935C13.3206 9.8399 11.8386 10.4506 10.8333 10.4506C10.8333 9.45487 10.8409 9.51681 10.3941 9.18488C9.44227 9.5073 8.89748 9.18488 7.8075 10.3395Z" fill="#393939"/>
<path fill-rule="evenodd" clip-rule="evenodd" d="M10.6775 16.15C11.8192 16.15 12.7447 15.2245 12.7447 14.0828C12.7447 12.9411 11.8192 12.0155 10.6775 12.0155C9.53577 12.0155 8.61023 12.9411 8.61023 14.0828C8.61023 15.2245 9.53577 16.15 10.6775 16.15Z" fill="black" fill-opacity="0.2"/>
<path fill-rule="evenodd" clip-rule="evenodd" d="M16.1755 16.1901C17.3172 16.1901 18.2428 15.2645 18.2428 14.1228C18.2428 12.9811 17.3172 12.0556 16.1755 12.0556C15.0338 12.0556 14.1083 12.9811 14.1083 14.1228C14.1083 15.2645 15.0338 16.1901 16.1755 16.1901Z" fill="black" fill-opacity="0.2"/>
<path d="M10.7118 11.8949C11.9233 11.8949 12.9059 12.8769 12.9061 14.0883C12.9061 15.2999 11.9234 16.2826 10.7118 16.2826C9.50039 16.2824 8.51843 15.2998 8.51843 14.0883C8.51869 12.877 9.50055 11.8952 10.7118 11.8949ZM10.7108 12.2963C9.72123 12.2965 8.91906 13.0987 8.91882 14.0883C8.91882 15.0781 9.72108 15.881 10.7108 15.8813C11.7007 15.8813 12.5038 15.0782 12.5038 14.0883C12.5035 13.0986 11.7006 12.2963 10.7108 12.2963Z" fill="#2E2622"/>
<path d="M16.161 11.998C17.3725 11.998 18.3551 12.9799 18.3553 14.1913C18.3553 15.4029 17.3726 16.3857 16.161 16.3857C14.9496 16.3854 13.9677 15.4028 13.9677 14.1913C13.9679 12.9801 14.9498 11.9982 16.161 11.998ZM16.162 12.3993C15.1724 12.3996 14.3702 13.2017 14.37 14.1913C14.37 15.1811 15.1723 15.984 16.162 15.9843C17.1519 15.9843 17.955 15.1812 17.955 14.1913C17.9547 13.2016 17.1518 12.3993 16.162 12.3993Z" fill="#2E2622"/>
<path d="M12.698 14.2831L14.172 14.2959C14.2828 14.2969 14.3735 14.2078 14.3744 14.097C14.3754 13.9861 14.2863 13.8955 14.1755 13.8945L12.7015 13.8817C12.5907 13.8807 12.5001 13.9698 12.4991 14.0806C12.4981 14.1914 12.5872 14.2821 12.698 14.2831Z" fill="#2E2622"/>
<path d="M12.9467 14.3771C12.9337 14.4719 12.919 14.5359 12.8492 14.8161C12.8323 14.8841 12.8203 14.9334 12.8087 14.9829C12.7233 15.3496 12.6969 15.6004 12.7528 15.8333C12.8405 16.1992 13.1313 16.4101 13.559 16.4101V15.7277C13.515 15.7277 13.4807 15.7236 13.4556 15.7168C13.4407 15.7128 13.4325 15.709 13.4284 15.706C13.4256 15.704 13.4222 15.6983 13.4163 15.6741C13.393 15.5768 13.4111 15.4049 13.4733 15.1377C13.4839 15.0923 13.4952 15.0459 13.5114 14.9811C13.589 14.6694 13.6049 14.6002 13.6228 14.4699L12.9467 14.3771Z" fill="#EBBAAA"/>
</g>
<rect x="0.674683" y="0.674713" width="25" height="25" rx="12.5" stroke="white" stroke-width="1.3494"/>
<defs>
<clipPath id="clip0_116_5365">
<rect x="0.674683" y="0.674713" width="25" height="25" rx="12.5" fill="white"/>
</clipPath>
</defs>
</svg>
