<svg width="21" height="24" viewBox="0 0 21 24" fill="none" xmlns="http://www.w3.org/2000/svg">
<path d="M10.4556 22.8702C2.59801 22.8702 0.498586 14.6792 1.44757 9.31236C1.48888 9.07878 1.79506 9.0115 1.92847 9.20764C2.34161 9.81487 2.70926 10.692 3.3184 10.6158C4.23396 10.5014 4.86825 2.42255 10.2945 0.149381C10.4667 0.0772484 10.6468 0.214109 10.6279 0.399818C10.3596 3.03239 11.9402 6.80129 14.7405 6.80129C16.3458 6.80129 17.4441 5.52014 17.993 4.23349C18.1597 3.84265 18.7307 3.89192 18.8263 4.30595C19.8057 8.54736 22.4236 22.8702 10.4556 22.8702Z" fill="#FF8F1F"/>
<path d="M8.2464 13.5109C8.45564 13.3493 8.77329 13.4602 8.8208 13.7076C8.93195 14.2864 9.29748 15.2812 10.4965 15.2812C11.9388 15.2812 12.9175 11.6334 13.1742 10.5606C13.2165 10.3841 13.4036 10.2642 13.5963 10.3002C17.2007 10.9738 18.9532 21.7314 11.0282 21.7314C5.25879 21.7314 6.56582 14.8085 8.2464 13.5109Z" fill="#FFB636"/>
<path d="M13.4191 16.5373C13.2839 16.0119 12.7987 17.2322 12.8597 17.7293C12.9207 18.2263 13.7427 17.7942 13.4191 16.5373Z" fill="#FFD469"/>
</svg>
