<svg width="13" height="13" viewBox="0 0 13 13" fill="none" xmlns="http://www.w3.org/2000/svg">
<path d="M0.75 6.375C0.75 7.11369 0.895495 7.84514 1.17818 8.52759C1.46086 9.21005 1.87519 9.83015 2.39752 10.3525C2.91985 10.8748 3.53995 11.2891 4.22241 11.5718C4.90486 11.8545 5.63631 12 6.375 12C7.11369 12 7.84514 11.8545 8.52759 11.5718C9.21005 11.2891 9.83015 10.8748 10.3525 10.3525C10.8748 9.83015 11.2891 9.21005 11.5718 8.52759C11.8545 7.84514 12 7.11369 12 6.375C12 4.88316 11.4074 3.45242 10.3525 2.39752C9.29758 1.34263 7.86684 0.75 6.375 0.75C4.88316 0.75 3.45242 1.34263 2.39752 2.39752C1.34263 3.45242 0.75 4.88316 0.75 6.375Z" stroke="#3D2000" stroke-width="1.5" stroke-linecap="round" stroke-linejoin="round"/>
<path d="M6.375 3.25V6.375L8.25 8.25" stroke="#3D2000" stroke-width="1.5" stroke-linecap="round" stroke-linejoin="round"/>
</svg>
