<svg width="42" height="42" viewBox="0 0 42 42" fill="none" xmlns="http://www.w3.org/2000/svg">
<g clip-path="url(#clip0_116_10630)">
<rect x="0.674683" y="0.674713" width="40" height="40" rx="19.2771" fill="#FEFAF4"/>
<path d="M16.3193 35.2381C16.4174 35.0906 16.521 34.9361 16.6362 34.7652C16.7774 34.5558 17.2665 33.8346 17.3517 33.7085C17.6288 33.2982 17.8353 32.9879 18.0218 32.6997C18.4674 32.011 18.2704 31.0915 17.5817 30.6459C16.893 30.2003 15.9735 30.3974 15.5279 31.086C15.3542 31.3546 15.1573 31.6503 14.8902 32.0458C14.8073 32.1684 14.3173 32.8911 14.1733 33.1046C14.0549 33.2802 13.948 33.4396 13.8463 33.5925C13.2747 34.4515 12.8494 35.1297 12.5061 35.7476L12.4304 35.9052C11.737 37.5952 11.3939 38.8878 11.29 40.2386C11.2007 41.3993 11.2694 42.4301 11.5268 44.5924C11.6238 45.4069 12.3627 45.9886 13.1772 45.8916C13.9917 45.7946 14.5734 45.0557 14.4764 44.2412C14.2412 42.2654 14.1818 41.3744 14.2517 40.4665C14.328 39.4745 14.5847 38.4939 15.1451 37.1145C15.4364 36.5972 15.8128 35.9992 16.3193 35.2381Z" fill="#EBBAAA"/>
<path d="M13.9603 34.0257C14.1452 31.8437 15.9702 30.1667 18.16 30.1667H22.4462C24.6224 30.1667 26.4408 31.8236 26.6428 33.9904L27.1711 39.6591L26.8098 47.7886L13.8844 48.0294L13.483 39.6591L13.9603 34.0257Z" fill="#D04040"/>
<path d="M20.509 33.5689C22.0614 33.5689 23.3198 32.2951 23.3198 30.7238C23.3198 29.1525 22.0614 27.8787 20.509 27.8787C18.9566 27.8787 17.6981 29.1525 17.6981 30.7238C17.6981 32.2951 18.9566 33.5689 20.509 33.5689Z" fill="#993030"/>
<rect x="19.0146" y="27.6384" width="3.08509" height="4.62764" rx="1.54254" fill="#EBBAAA"/>
<path d="M24.4349 32.889C24.5385 33.3681 24.7004 33.8355 24.9459 34.4156C25.0503 34.6623 25.4722 35.6035 25.5687 35.8287C25.9718 36.7691 26.2281 37.5454 26.3937 38.4284C26.709 40.1102 27.8655 41.5168 29.4237 42.346C30.9397 43.1526 32.6779 43.3237 34.0169 42.6542C34.7506 42.2874 35.048 41.3953 34.6811 40.6616C34.3143 39.928 33.4222 39.6306 32.6885 39.9974C32.3065 40.1884 31.5531 40.1143 30.8191 39.7237C30.0119 39.2942 29.45 38.6107 29.3132 37.881C29.1024 36.7567 28.7809 35.7831 28.2989 34.6585C28.1886 34.401 27.7704 33.4681 27.6813 33.2577C27.502 32.8339 27.3957 32.527 27.3382 32.2612C27.1648 31.4595 26.3744 30.9501 25.5726 31.1235C24.7709 31.2968 24.2615 32.0873 24.4349 32.889Z" fill="#EBBAAA"/>
<path d="M10.1869 35.698C10.0336 35.5405 10.0354 35.2891 10.191 35.1338L15.2892 30.046L17.6698 35.4139L13.2822 38.877L10.1869 35.698Z" fill="#2B2D2F"/>
<path d="M13.7713 32.6454C13.9027 30.8855 15.369 29.5247 17.1338 29.5247H18.2387C18.5946 29.5247 18.9188 29.7292 19.072 30.0505L20.0656 32.1338L19.5839 40.0817V46.8084C19.5839 47.0209 19.4184 47.1965 19.2063 47.2091L13.2894 47.5613C13.0501 47.5756 12.8517 47.3781 12.8647 47.1387L13.342 38.3958L13.7713 32.6454Z" fill="#2B2D2F"/>
<path d="M20.1469 32.1737L19.1033 29.0427L17.618 29.4843L18.5413 33.2977L20.1469 32.1737Z" fill="#494C50"/>
<path d="M30.9076 35.6981C31.0609 35.5407 31.0591 35.2892 30.9035 35.134L25.8053 30.0461L23.4247 35.4141L27.8124 38.8771L30.9076 35.6981Z" fill="#2B2D2F"/>
<path d="M27.3244 32.6454C27.193 30.8855 25.7268 29.5247 23.962 29.5247H22.8571C22.5012 29.5247 22.1769 29.7292 22.0238 30.0505L21.0302 32.1338L21.5118 40.0817V46.8084C21.5118 47.0209 21.6773 47.1965 21.8894 47.2091L27.8063 47.5613C28.0457 47.5756 28.2441 47.3781 28.231 47.1387L27.7537 38.3958L27.3244 32.6454Z" fill="#2B2D2F"/>
<path d="M20.9501 32.1737L21.9937 29.0427L23.4789 29.4843L22.5557 33.2977L20.9501 32.1737Z" fill="#494C50"/>
<path d="M22.0338 37.1911C22.189 37.1911 22.3148 37.0653 22.3148 36.9101C22.3148 36.755 22.189 36.6292 22.0338 36.6292C21.8786 36.6292 21.7528 36.755 21.7528 36.9101C21.7528 37.0653 21.8786 37.1911 22.0338 37.1911Z" fill="#5F6368"/>
<path d="M22.1939 39.6399C22.3491 39.6399 22.4749 39.5141 22.4749 39.3589C22.4749 39.2037 22.3491 39.0779 22.1939 39.0779C22.0388 39.0779 21.913 39.2037 21.913 39.3589C21.913 39.5141 22.0388 39.6399 22.1939 39.6399Z" fill="#5F6368"/>
<path d="M21.8324 34.7428C21.9876 34.7428 22.1134 34.617 22.1134 34.4618C22.1134 34.3066 21.9876 34.1808 21.8324 34.1808C21.6772 34.1808 21.5514 34.3066 21.5514 34.4618C21.5514 34.617 21.6772 34.7428 21.8324 34.7428Z" fill="#5F6368"/>
<path d="M30.8303 37.3585L35.0077 37.7975L33.9812 44.07L30.5303 43.7073L30.8303 37.3585Z" fill="#056D46"/>
<path fill-rule="evenodd" clip-rule="evenodd" d="M30.848 37.031L35.054 37.5148L34.8378 38.9176L30.7841 38.488L30.848 37.031Z" fill="#184936"/>
<path fill-rule="evenodd" clip-rule="evenodd" d="M32.6498 41.8879C33.3481 41.8879 33.9142 41.3218 33.9142 40.6234C33.9142 39.9251 33.3481 39.359 32.6498 39.359C31.9515 39.359 31.3854 39.9251 31.3854 40.6234C31.3854 41.3218 31.9515 41.8879 32.6498 41.8879Z" fill="#DDE3E6"/>
<rect x="30.9384" y="36.4568" width="4.20046" height="0.938405" transform="rotate(6.00001 30.9384 36.4568)" fill="white"/>
<rect x="30.6141" y="36.9622" width="4.7367" height="0.938405" transform="rotate(5.99999 30.6141 36.9622)" fill="#DDE3E6"/>
<path d="M13.9978 23.9481C15.2852 23.9481 16.3288 22.9583 16.3288 21.7372C16.3288 20.5161 15.2852 19.5262 13.9978 19.5262C12.7105 19.5262 11.6669 20.5161 11.6669 21.7372C11.6669 22.9583 12.7105 23.9481 13.9978 23.9481Z" fill="#EBBAAA"/>
<path d="M27.1266 24.1196C28.414 24.1196 29.4576 23.1297 29.4576 21.9086C29.4576 20.6875 28.414 19.6976 27.1266 19.6976C25.8393 19.6976 24.7957 20.6875 24.7957 21.9086C24.7957 23.1297 25.8393 24.1196 27.1266 24.1196Z" fill="#EBBAAA"/>
<path d="M13.5468 17.6572C13.4811 13.7489 16.6312 10.5453 20.54 10.5453C24.4488 10.5453 27.599 13.7489 27.5333 17.6572L27.446 22.8479C27.3826 26.6166 24.3093 29.6386 20.54 29.6386C16.7707 29.6386 13.6975 26.6166 13.6341 22.8479L13.5468 17.6572Z" fill="#EED4CC"/>
<path fill-rule="evenodd" clip-rule="evenodd" d="M19.0887 24.7626L19.1995 25.4616C19.3699 26.5376 20.3803 27.2717 21.4563 27.1013C22.5323 26.9309 23.2665 25.9204 23.096 24.8444L22.9853 24.1454L19.0887 24.7626Z" fill="#393939"/>
<mask id="mask0_116_10630" style="mask-type:luminance" maskUnits="userSpaceOnUse" x="19" y="24" width="5" height="4">
<path fill-rule="evenodd" clip-rule="evenodd" d="M19.071 24.6329C19.0749 24.6709 19.0798 24.7091 19.0858 24.7474L19.1989 25.4613C19.3693 26.5373 20.3798 27.2714 21.4558 27.101C22.5318 26.9306 23.2659 25.9202 23.0955 24.8441L22.9824 24.1302C22.9763 24.092 22.9692 24.0541 22.9611 24.0168L19.071 24.6329Z" fill="white"/>
</mask>
<g mask="url(#mask0_116_10630)">
<path d="M21.554 27.6053C22.2029 27.5025 22.6836 27.1329 22.6277 26.7797C22.5717 26.4265 22.0003 26.2235 21.3514 26.3263C20.7025 26.429 20.2219 26.7987 20.2778 27.1519C20.3337 27.5051 20.9051 27.7081 21.554 27.6053Z" fill="#FF6C6C"/>
<rect x="19.0886" y="24.7624" width="3.94517" height="0.813125" transform="rotate(-9.00001 19.0886 24.7624)" fill="white"/>
</g>
<path d="M16.6308 19.0321L18.8809 18.7956C19.1454 18.7677 19.3374 18.5307 19.3096 18.2662C19.2817 18.0016 19.0447 17.8096 18.7801 17.8375L16.5301 18.074C16.2656 18.1018 16.0736 18.3388 16.1014 18.6034C16.1292 18.8679 16.3663 19.0599 16.6308 19.0321Z" fill="#393939"/>
<path d="M17.7878 20.3291V21.4637C17.7878 21.7298 18.0035 21.9454 18.2695 21.9454C18.5356 21.9454 18.7512 21.7298 18.7512 21.4637V20.3291C18.7512 20.063 18.5356 19.8474 18.2695 19.8474C18.0035 19.8474 17.7878 20.063 17.7878 20.3291Z" fill="black"/>
<path d="M22.5183 20.3291V21.4637C22.5183 21.7298 22.734 21.9454 23 21.9454C23.266 21.9454 23.4817 21.7298 23.4817 21.4637V20.3291C23.4817 20.063 23.266 19.8474 23 19.8474C22.734 19.8474 22.5183 20.063 22.5183 20.3291Z" fill="black"/>
<path d="M22.1022 18.3303L24.3522 18.5668C24.6167 18.5946 24.8538 18.4027 24.8816 18.1381C24.9094 17.8736 24.7174 17.6365 24.4529 17.6087L22.2029 17.3722C21.9383 17.3444 21.7013 17.5363 21.6735 17.8009C21.6456 18.0655 21.8376 18.3025 22.1022 18.3303Z" fill="#393939"/>
<path d="M13.0497 13.5979C13.0497 12.2417 14.0323 11.0671 15.3707 10.848L21.6995 9.81169C23.275 9.55371 24.7544 10.6424 24.9766 12.2234C25.1955 13.7807 24.1093 15.2202 22.5517 15.4372L16.1714 16.3259C14.5245 16.5634 13.0497 15.2619 13.0497 13.5979Z" fill="#393939"/>
<rect x="13.2411" y="15.0414" width="0.92324" height="4.93732" rx="0.46162" fill="#393939"/>
<path d="M15.8909 15.1614C15.2808 15.5468 14.6064 15.603 14.1247 17.61L13.8036 15.603C14.7536 15.2953 16.5011 14.7761 15.8909 15.1614Z" fill="#393939"/>
<rect x="26.7294" y="15.6435" width="0.92324" height="4.89718" rx="0.46162" fill="#393939"/>
<rect x="22.4735" y="11.4232" width="4.10749" height="6.10823" rx="2.05375" transform="rotate(-20.5 22.4735 11.4232)" fill="#393939"/>
<path d="M23.4741 9.30118C23.3644 10.7121 23.3563 12.3213 23.3563 12.3213L25.5651 10.8223C25.5651 10.8223 24.4168 10.5357 23.4741 9.30118Z" fill="#393939"/>
<path d="M14.8075 17.3395C14.995 16.1849 15.2435 15.6069 14.995 14.6801H27.4117V18.1322L26.7102 17.7424C26.7102 16.4766 25.2935 16.9594 24.5303 16.1849C23.3142 14.951 21.9361 16.2734 21.1356 17.07C21.1356 16.0963 20.6705 16.1185 20.261 15.9194C20.3206 16.8399 18.8386 17.4506 17.8333 17.4506C17.8333 16.4549 17.8409 16.5168 17.3941 16.1849C16.4423 16.5073 15.8975 16.1849 14.8075 17.3395Z" fill="#393939"/>
<path fill-rule="evenodd" clip-rule="evenodd" d="M17.6775 23.15C18.8192 23.15 19.7447 22.2245 19.7447 21.0828C19.7447 19.9411 18.8192 19.0155 17.6775 19.0155C16.5358 19.0155 15.6102 19.9411 15.6102 21.0828C15.6102 22.2245 16.5358 23.15 17.6775 23.15Z" fill="black" fill-opacity="0.2"/>
<path fill-rule="evenodd" clip-rule="evenodd" d="M23.1755 23.1901C24.3172 23.1901 25.2428 22.2645 25.2428 21.1228C25.2428 19.9811 24.3172 19.0556 23.1755 19.0556C22.0338 19.0556 21.1083 19.9811 21.1083 21.1228C21.1083 22.2645 22.0338 23.1901 23.1755 23.1901Z" fill="black" fill-opacity="0.2"/>
<path d="M17.7118 18.8949C18.9233 18.8949 19.9059 19.8769 19.9061 21.0883C19.9061 22.2999 18.9234 23.2826 17.7118 23.2826C16.5004 23.2824 15.5184 22.2998 15.5184 21.0883C15.5187 19.877 16.5005 18.8952 17.7118 18.8949ZM17.7108 19.2963C16.7212 19.2965 15.9191 20.0987 15.9188 21.0883C15.9188 22.0781 16.7211 22.881 17.7108 22.8813C18.7007 22.8813 19.5038 22.0782 19.5038 21.0883C19.5035 20.0986 18.7006 19.2963 17.7108 19.2963Z" fill="#2E2622"/>
<path d="M23.161 18.998C24.3725 18.998 25.3551 19.9799 25.3553 21.1913C25.3553 22.4029 24.3726 23.3857 23.161 23.3857C21.9496 23.3854 20.9677 22.4028 20.9677 21.1913C20.9679 19.9801 21.9498 18.9982 23.161 18.998ZM23.162 19.3993C22.1724 19.3996 21.3702 20.2017 21.37 21.1913C21.37 22.1811 22.1723 22.984 23.162 22.9843C24.1519 22.9843 24.955 22.1812 24.955 21.1913C24.9547 20.2016 24.1518 19.3993 23.162 19.3993Z" fill="#2E2622"/>
<path d="M19.6981 21.2831L21.172 21.2959C21.2829 21.2969 21.3735 21.2078 21.3745 21.097C21.3754 20.9861 21.2864 20.8955 21.1755 20.8945L19.7016 20.8817C19.5908 20.8807 19.5001 20.9698 19.4992 21.0806C19.4982 21.1914 19.5873 21.2821 19.6981 21.2831Z" fill="#2E2622"/>
<path d="M19.9468 21.3771C19.9338 21.4719 19.9191 21.5359 19.8493 21.8161C19.8323 21.8841 19.8203 21.9334 19.8088 21.9829C19.7234 22.3496 19.697 22.6004 19.7528 22.8333C19.8406 23.1992 20.1314 23.4101 20.559 23.4101V22.7277C20.5151 22.7277 20.4808 22.7236 20.4556 22.7168C20.4408 22.7128 20.4326 22.709 20.4285 22.706C20.4257 22.704 20.4222 22.6983 20.4164 22.6741C20.393 22.5768 20.4111 22.4049 20.4734 22.1377C20.484 22.0923 20.4953 22.0459 20.5114 21.9811C20.5891 21.6694 20.605 21.6002 20.6229 21.4699L19.9468 21.3771Z" fill="#EBBAAA"/>
</g>
<rect x="0.674683" y="0.674713" width="40" height="40" rx="19.2771" stroke="white" stroke-width="1.3494"/>
<defs>
<clipPath id="clip0_116_10630">
<rect x="0.674683" y="0.674713" width="40" height="40" rx="19.2771" fill="white"/>
</clipPath>
</defs>
</svg>
