<svg width="27" height="22" viewBox="0 0 27 22" fill="none" xmlns="http://www.w3.org/2000/svg">
<path d="M25.269 0.350731C25.0497 0.964509 24.9035 1.79749 24.867 2.32359C24.2822 2.32359 23.807 2.89353 23.807 3.59499C23.807 4.29645 24.2822 4.86639 24.867 4.86639C24.9401 4.86639 25.0132 4.86639 25.0863 4.82255C25.0132 6.70772 23.7339 8.19833 22.1257 8.19833C20.5175 8.19833 19.2383 6.70772 19.1652 4.82255C19.6404 4.73486 20.0424 4.20877 20.0424 3.59499C20.0424 2.89353 19.5673 2.32359 18.9825 2.32359H18.8728C18.7266 1.44676 18.3246 0.0438415 17.8494 0.0438415C17.3743 0.0438415 16.9722 1.40292 16.826 2.32359C16.7529 2.32359 16.6798 2.27975 16.6067 2.27975C16.0219 2.27975 15.5468 2.84969 15.5468 3.55115C15.5468 4.16493 15.9123 4.69102 16.424 4.82255C16.3509 6.70772 15.0716 8.19833 13.4634 8.19833C11.8553 8.19833 10.576 6.66388 10.5029 4.77871C10.9781 4.64718 11.307 4.16493 11.307 3.55115C11.307 2.84969 10.8319 2.27975 10.2471 2.27975H10.1374C9.99123 1.40292 9.58918 0 9.11404 0C8.63889 0 8.23684 1.35908 8.09064 2.27975C8.01754 2.27975 7.94444 2.23591 7.87134 2.23591C7.28655 2.23591 6.8114 2.80585 6.8114 3.50731C6.8114 4.16493 7.21345 4.69102 7.7617 4.77871C7.6886 6.66388 6.37281 8.15449 4.80117 8.15449C3.19298 8.15449 1.91374 6.66388 1.84064 4.77871C1.91374 4.77871 1.98684 4.82255 2.05994 4.82255C2.64474 4.82255 3.11988 4.25261 3.11988 3.55115C3.11988 2.84969 2.64474 2.27975 2.05994 2.27975H1.98684C1.91374 1.70981 1.80409 0.964509 1.65789 0.350731C1.54825 -0.131524 1 -0.0438412 1 0.482255V21H26V0.569937C25.9269 0.0438414 25.4518 -0.0876826 25.269 0.350731Z" fill="#FED16A"/>
<path d="M26.55 13.3292H0.45C0.1875 13.3292 0 13.1 0 12.7792V11.2208C0 10.9 0.1875 10.6708 0.45 10.6708H26.5125C26.775 10.6708 26.9625 10.9 26.9625 11.2208V12.7792C27 13.1 26.8125 13.3292 26.55 13.3292ZM27 21.1208V19.5625C27 19.2417 26.8125 19.0125 26.55 19.0125H0.45C0.1875 19.0125 0 19.2417 0 19.5625V21.1208C0 21.4417 0.1875 21.6708 0.45 21.6708H26.5125C26.8125 21.6708 27 21.4417 27 21.1208Z" fill="#EF9F27"/>
<path d="M24 17.1831C24 17.8486 23.4824 18.3662 22.8169 18.3662C22.1514 18.3662 21.6338 17.8486 21.6338 17.1831C21.6338 16.5176 22.1514 16 22.8169 16C23.4824 16 24 16.5176 24 17.1831ZM13.5 16C12.8345 16 12.3169 16.5176 12.3169 17.1831C12.3169 17.8486 12.8345 18.3662 13.5 18.3662C14.1655 18.3662 14.6831 17.8486 14.6831 17.1831C14.6831 16.5176 14.1655 16 13.5 16ZM4.1831 16C3.51761 16 3 16.5176 3 17.1831C3 17.8486 3.51761 18.3662 4.1831 18.3662C4.84859 18.3662 5.3662 17.8116 5.3662 17.1831C5.3662 16.5546 4.84859 16 4.1831 16Z" fill="#E33232"/>
</svg>
