<svg width="35" height="35" viewBox="0 0 35 35" fill="none" xmlns="http://www.w3.org/2000/svg">
<g clip-path="url(#clip0_1_14790)">
<path d="M18.4168 0H15.4698C15.2653 0.102605 14.2336 0.189201 13.9064 0.257922C13.0827 0.432441 12.2724 0.665964 11.4815 0.956728C10.1616 1.4353 9.19434 2.03164 8.03683 2.81562C5.94845 4.22999 4.3306 5.77631 2.967 7.91172C1.45911 10.2732 0.406784 12.4173 0.138603 15.2695C0.108665 15.6192 0.0831108 15.9692 0.0619469 16.3195C0.0495567 16.5408 0.0485229 16.8355 0 17.0413V18.9577C0.0492973 19.1902 0.0438766 19.439 0.0637512 19.6781C0.0862083 19.9493 0.114861 20.2175 0.142994 20.4881C0.251919 21.4611 0.450405 22.4216 0.736134 23.3572C1.55203 25.9534 3.34333 28.7593 5.36331 30.5968C6.11313 31.2788 7.10944 31.8273 7.99631 32.3019C9.57105 33.1445 11.1813 33.6384 12.9011 34.0816C13.8616 34.3293 14.8749 34.6832 15.8611 34.8169C16.7415 34.9365 18.0246 34.9451 18.915 34.8464C19.8463 34.7432 20.9137 34.3909 21.8092 34.1232C22.9242 33.792 24.0352 33.4472 25.1421 33.0894C26.0252 32.8041 26.8321 32.4494 27.6231 31.9453C28.7631 31.219 29.6328 30.1815 30.5843 29.2331C30.7095 29.1085 30.8649 28.9515 30.9744 28.8154C32.1165 27.3964 33.2564 25.8527 33.7085 24.0499C33.8607 23.4432 33.9428 22.8247 34.0968 22.2186C34.3736 21.2707 34.7376 20.3522 34.836 19.3599C34.855 19.1683 34.9189 18.6254 35 18.4854V17.0066C34.907 16.8437 34.8157 15.9005 34.7822 15.6678C34.7248 15.2688 34.6429 14.9461 34.5475 14.5515C34.1628 13.0106 33.6431 11.5076 32.9945 10.0603C31.9523 7.77123 30.6021 5.71349 28.6479 4.12039C28.2143 3.76694 27.7652 3.47511 27.2999 3.16886C26.0639 2.3429 24.7341 1.6703 23.3394 1.16554C21.9139 0.658198 20.3547 0.26735 18.8584 0.0792413C18.7113 0.060748 18.5537 0.0580909 18.4168 0Z" fill="#5E2205"/>
<path d="M24.5528 2.41753C24.5491 2.4149 24.5454 2.41226 24.5417 2.40963C22.576 1.45576 20.4248 0.862022 18.253 0.66732C17.8347 0.629816 17.3868 0.565763 16.9679 0.578209C15.6535 0.617263 14.3342 0.835375 13.0543 1.12072C11.991 1.42243 11.0161 1.75537 10.0502 2.311C9.92194 2.3848 9.59021 2.57324 9.48387 2.67013C9.44869 2.69186 9.25443 2.80853 9.23412 2.82619C8.91153 3.00568 8.60825 3.23893 8.3011 3.44629C6.34358 4.7683 4.52802 6.49145 3.33373 8.55969C3.13628 8.90177 2.73543 9.42014 2.7202 9.80527C2.69542 10.4213 2.37175 10.182 2.12009 10.6621C1.52308 11.8224 1.12378 13.0763 0.938969 14.3709C0.861275 14.6733 0.831593 15.064 0.786163 15.3766C0.608841 16.6003 0.594902 17.8303 0.647816 19.0638C0.654011 19.2063 0.660206 19.7149 0.692986 19.8271C0.984909 22.5474 1.67949 24.6516 3.19513 26.9278C3.77097 27.7926 4.0962 28.2912 4.81142 29.0801C5.35759 29.6824 5.77134 30.0047 6.34693 30.5292C6.88406 30.9481 8.60825 31.8827 9.2142 32.1209C9.4037 32.2285 10.7284 32.8183 10.8862 32.8321C11.0826 32.9146 11.5865 33.028 11.8282 33.0946C13.7629 33.6256 15.8988 34.4084 17.9228 34.3084C19.6723 34.2217 21.3802 33.5885 23.0253 33.0544C24.4515 32.5772 26.1255 32.2016 27.3737 31.3219C28.3574 30.6287 29.5071 29.4651 30.325 28.5647C31.4663 27.3084 32.4532 25.6574 33.0156 24.0597C33.1426 23.6988 33.2508 23.3125 33.308 22.933C33.3481 22.746 33.3156 22.347 33.3753 22.1834C33.5621 21.6709 33.7317 21.2906 33.8426 20.7503C33.9314 20.4713 34.0108 20.1893 34.0806 19.9049C34.4951 18.1846 34.3495 16.5306 33.9528 14.8239C33.6161 13.3755 33.083 11.9832 32.5062 10.6144C32.3907 10.3405 32.2498 9.9862 32.1011 9.73984C30.603 6.29252 27.9029 3.92637 24.5528 2.41753Z" fill="#F2C25D"/>
<path d="M1.76901 19.5721C1.36893 19.7341 1.12786 19.8037 0.692162 19.827C0.984089 22.5474 1.67867 24.6516 3.1943 26.9278C3.77015 27.7926 4.09537 28.2912 4.8106 29.08C5.35677 29.6823 5.77052 30.0046 6.34611 30.5291C6.88324 30.9481 8.60743 31.8826 9.21337 32.1208C9.40288 32.2285 10.7276 32.8182 10.8854 32.8321C11.0818 32.9146 11.5857 33.028 11.8274 33.0946C13.7621 33.6256 15.898 34.4084 17.9219 34.3083C19.6715 34.2216 21.3794 33.5885 23.0245 33.0543C24.4507 32.5771 26.1247 32.2016 27.3728 31.3218C28.3566 30.6286 29.5062 29.465 30.3242 28.5647C31.4655 27.3083 32.4524 25.6574 33.0148 24.0597C33.1418 23.6987 33.25 23.3124 33.3072 22.9329C33.3473 22.7459 33.3148 22.347 33.3744 22.1833C33.5613 21.6709 33.7309 21.2906 33.8417 20.7503C33.58 20.8459 33.1004 21.0803 32.9722 21.3227C32.7423 21.7573 32.7113 22.2991 32.493 22.7653C32.0162 23.7836 31.49 24.8352 30.8406 25.7547C30.0947 26.811 29.1658 27.8911 28.1014 28.6232C27.6145 28.9413 26.7959 29.3211 26.2533 29.5807C25.6037 29.8764 24.9526 30.2032 24.2855 30.4549C23.8635 30.6143 23.4014 30.6845 22.9774 30.8559C22.5937 31.0108 22.238 31.2082 21.8596 31.3712C21.0621 31.7165 20.2261 31.9628 19.3701 32.1046C18.7237 32.2196 18.0701 32.287 17.4142 32.3068C16.1939 32.3395 14.9315 32.1791 13.7283 32.0224C12.6284 31.8792 12.0198 31.4937 11.3564 30.6213C10.8846 30.001 9.90738 29.3548 9.17347 29.1276C8.47811 28.9123 7.76418 28.818 7.15374 28.3361C6.36702 27.7333 5.78884 26.9581 5.17067 26.1915C3.30503 23.8979 2.27104 22.5632 1.76901 19.5721Z" fill="#E09C3E"/>
<path d="M9.42432 30.4944C8.39716 30.0548 7.34277 29.9365 6.34672 30.5291C6.88385 30.9481 8.60804 31.8826 9.21398 32.1208C9.30223 31.9007 9.17511 31.3119 9.14259 31.0523C9.08219 30.5691 9.24384 30.7564 9.42432 30.4944Z" fill="#83471E"/>
<path d="M10.8851 32.8321C10.9674 31.6753 10.4715 30.9557 9.42346 30.4944C9.24299 30.7564 9.08133 30.5691 9.14173 31.0523C9.17425 31.3119 9.30137 31.9007 9.21312 32.1209C9.40263 32.2285 10.7273 32.8182 10.8851 32.8321Z" fill="#6F3312"/>
<path d="M0.938402 14.3709C0.86071 14.6733 0.831026 15.064 0.785598 15.3765C0.608275 16.6003 0.594337 17.8303 0.64725 19.0637C0.653445 19.2063 0.65964 19.7149 0.69242 19.827C1.12811 19.8037 1.36919 19.7341 1.76927 19.5721C3.38995 18.698 3.71052 16.2258 2.40861 14.9232C1.82321 14.3377 1.66679 14.5167 0.970666 14.435L0.938402 14.3709Z" fill="#83471E"/>
<path d="M13.0538 1.12068C11.9905 1.42239 11.0156 1.75533 10.0497 2.31096C9.92142 2.38476 9.58969 2.5732 9.48335 2.67009C9.59762 3.02061 9.64991 3.26838 9.85508 3.58416C10.5413 4.64022 11.4388 4.49009 12.4712 4.18454C12.77 4.08027 13.2676 3.73108 13.4425 3.48021C14.0405 2.62234 13.8169 1.73486 13.0538 1.12068Z" fill="#83471E"/>
<path d="M24.5521 2.41748L24.5157 2.52C24.6281 2.73762 24.7303 2.86584 24.54 3.08665L24.4853 3.16141L24.491 3.19818C25.8222 3.66389 26.9683 4.52393 28.0603 5.38642C28.3444 5.61078 29.0024 5.66401 29.1048 6.10663C29.3302 6.16621 29.4423 6.48239 29.241 6.66679C29.9949 6.81752 31.3151 10.5534 32.1383 10.3543C32.2268 10.2385 32.0941 9.92072 32.1005 9.73979C30.6023 6.29247 27.9022 3.92631 24.5521 2.41748Z" fill="#F4D79A"/>
<path d="M9.48351 2.67009C9.44833 2.69182 9.25407 2.8085 9.23376 2.82615C9.32123 3.09965 9.16618 3.59678 9.27389 3.9175C9.66419 5.07879 11.0872 5.5806 12.0595 4.80877C12.2137 4.68593 12.505 4.39105 12.4714 4.18455C11.4389 4.49009 10.5415 4.64022 9.85524 3.58416C9.65007 3.26838 9.59777 3.02061 9.48351 2.67009Z" fill="#E09C3E"/>
<path d="M24.54 3.08665C24.3097 2.97173 23.4571 2.60288 23.2359 2.64568L23.2172 2.6788C23.3482 2.78372 24.3375 3.1724 24.491 3.19818L24.4853 3.16141L24.54 3.08665Z" fill="#F4D79A"/>
<path d="M29.2408 6.66679C29.4421 6.48238 29.33 6.16621 29.1046 6.10663C28.8855 6.32415 28.9755 6.55405 29.2408 6.66679Z" fill="#F6E8C8"/>
<path d="M23.9818 12.8534C22.6302 12.7438 21.4472 13.7648 21.3408 15.1326C21.2344 16.5005 22.2449 17.6962 23.5968 17.802C24.946 17.9076 26.1248 16.8874 26.231 15.5222C26.3372 14.157 25.3307 12.9628 23.9818 12.8534Z" fill="#5E2205"/>
<path d="M24.6875 13.5391C24.143 13.4874 23.6604 13.893 23.6107 14.4442C23.561 14.9954 23.9631 15.4827 24.508 15.5315C25.0508 15.5801 25.5301 15.1751 25.5796 14.6259C25.6291 14.0768 25.2301 13.5906 24.6875 13.5391Z" fill="#FBFAF9"/>
<path d="M23.064 15.7149C22.803 15.6335 22.526 15.7803 22.4435 16.0437C22.361 16.3072 22.5039 16.5887 22.7636 16.6742C23.0262 16.7606 23.308 16.6141 23.3914 16.3477C23.4748 16.0814 23.3278 15.7973 23.064 15.7149Z" fill="#FBFAF9"/>
<path d="M11.0059 12.857C9.65272 12.7575 8.47741 13.7902 8.385 15.1599C8.29286 16.5297 9.31842 17.7144 10.6724 17.8018C12.018 17.8888 13.1799 16.8586 13.2717 15.4974C13.3635 14.1361 12.3507 12.9559 11.0059 12.857Z" fill="#5E2205"/>
<path d="M11.7537 13.5433C11.2128 13.4719 10.7174 13.8586 10.6483 14.4061C10.5792 14.9537 10.9627 15.4539 11.504 15.5223C12.0431 15.5905 12.5351 15.2043 12.604 14.6588C12.6728 14.1134 12.2925 13.6145 11.7537 13.5433Z" fill="#FBFAF9"/>
<path d="M10.086 15.7104C9.81629 15.6341 9.53676 15.7946 9.46299 16.0679C9.38922 16.3413 9.54943 16.6232 9.82001 16.6962C10.0883 16.7686 10.3641 16.6082 10.4372 16.3371C10.5103 16.066 10.3534 15.7861 10.086 15.7104Z" fill="#FBFAF9"/>
<path d="M23.3659 28.6357C23.5015 28.3615 23.6669 28.0564 23.6774 27.749C23.7261 26.3312 22.1197 25.3409 20.8655 25.7767C20.313 25.9684 19.8596 26.3767 19.6074 26.9098C19.1048 27.9681 19.3755 29.1994 20.4873 29.7001C20.8698 30.1742 21.4119 30.2891 21.9962 30.2259C22.6575 30.1543 23.471 29.3386 23.3659 28.6357Z" fill="#83471E"/>
<path d="M23.3661 28.6357C22.7234 29.3047 22.2582 29.7257 21.255 29.7597C20.97 29.7693 20.7268 29.7056 20.4875 29.7001C20.87 30.1742 21.4121 30.2891 21.9964 30.2259C22.6577 30.1543 23.4712 29.3386 23.3661 28.6357Z" fill="#E09C3E"/>
<path d="M30.8788 12.6674C31.3553 11.8933 31.6812 11.1759 31.3716 10.2841C31.1615 9.67926 30.7879 9.35068 30.2471 9.04351C29.807 8.7936 29.1966 8.79877 28.7287 8.95356C27.4379 9.39999 27.332 10.3039 27.7299 11.4809C27.6336 11.7353 27.6861 11.993 27.7983 12.2484C28.2178 13.203 29.2183 13.8654 30.2489 13.4524C30.4915 13.3551 30.8962 12.9597 30.8788 12.6674Z" fill="#83471E"/>
<path d="M30.8793 12.6675C30.7501 12.7823 30.6058 12.8787 30.4507 12.9538C30.038 13.1497 29.6212 13.1019 29.2057 12.9395C28.4932 12.6611 28.0468 12.162 27.7304 11.4809C27.6341 11.7353 27.6867 11.993 27.7989 12.2484C28.2183 13.203 29.2189 13.8655 30.2494 13.4524C30.4921 13.3551 30.8968 12.9598 30.8793 12.6675Z" fill="#E09C3E"/>
<path d="M12.0206 27.1987C12.3535 26.7147 12.6213 26.2422 12.5082 25.6259C12.3985 25.0296 12.0011 24.5833 11.5192 24.2365C10.8075 23.7242 9.50772 23.4202 8.91151 24.2608C8.27345 25.1601 8.35579 26.7379 9.30113 27.4027C9.31935 27.4648 9.33706 27.5215 9.37301 27.5761C9.58773 27.9078 9.92537 28.1382 10.3098 28.2153C10.9478 28.3435 11.5863 28.0572 11.8997 27.4774C11.9535 27.3779 11.9999 27.3157 12.0206 27.1987Z" fill="#83471E"/>
<path d="M12.0215 27.1987C10.7604 27.8036 10.6121 27.8357 9.3021 27.4027C9.32032 27.4648 9.33803 27.5215 9.37399 27.5761C9.58871 27.9078 9.92635 28.1382 10.3108 28.2152C10.9488 28.3435 11.5873 28.0572 11.9007 27.4774C11.9545 27.3778 12.0009 27.3157 12.0215 27.1987Z" fill="#E09C3E"/>
<path d="M18.7087 8.54734C18.7668 8.50108 18.8232 8.45268 18.8778 8.40222C19.6173 7.71053 19.7477 6.60372 19.0431 5.83497C18.1399 4.84956 16.0552 5.04577 15.6963 6.47403C15.6387 6.70294 15.6377 6.88654 15.6371 7.11942C15.6062 7.19443 15.6085 7.17631 15.5602 7.23056C15.1157 7.73001 15.3746 8.39049 15.7577 8.83491C16.4324 9.61745 17.4549 9.9055 18.2827 9.16689C18.4085 9.05466 18.6896 8.71529 18.7087 8.54734Z" fill="#83471E"/>
<path d="M15.6367 7.11948C15.6058 7.19449 15.6081 7.17636 15.5598 7.23061C15.1153 7.73007 15.3742 8.39055 15.7573 8.83497C16.432 9.61751 17.4545 9.90556 18.2824 9.16695C18.4081 9.05472 18.6892 8.71535 18.7083 8.5474C18.4502 8.58483 18.1494 8.73332 17.855 8.77158C16.6647 8.92623 15.8135 8.33883 15.6367 7.11948Z" fill="#E09C3E"/>
<path d="M28.3994 20.5867C25.6236 20.4242 25.4248 23.9603 27.9634 24.4421C28.4871 24.4677 28.8237 24.4804 29.3001 24.2104C30.207 23.6965 30.3739 22.5765 29.8716 21.7072C29.5816 21.2053 28.9689 20.729 28.3994 20.5867Z" fill="#83471E"/>
<path d="M17.5556 16.773C15.5393 16.5843 15.1888 20.7175 17.1746 21.2505C19.2327 21.4357 19.5685 17.2535 17.5556 16.773Z" fill="#5E2205"/>
<path d="M9.38935 18.0064C8.74714 17.8952 7.74773 18.0744 7.24596 18.4834C6.82033 18.8302 6.67837 19.309 7.04566 19.7595C7.41967 20.2179 8.13025 20.4093 8.69216 20.4624C9.1738 20.5986 10.423 20.3023 10.7859 19.9577C12.0153 18.7907 10.3325 18.107 9.38935 18.0064Z" fill="#F69973"/>
<path d="M8.95438 18.5392C8.84133 18.5371 8.82507 18.5304 8.75228 18.613C8.66711 18.885 9.21379 19.6891 9.43713 19.8303C9.51792 19.8155 9.52804 19.8086 9.59763 19.7637C9.77598 19.5099 9.14952 18.7049 8.95438 18.5392Z" fill="#EC6D48"/>
<path d="M10.0254 18.676C9.94467 18.6962 9.93324 18.6992 9.86569 18.7478C9.71887 19.0532 10.2343 19.5513 10.459 19.7093C10.4972 19.7039 10.5435 19.6933 10.5822 19.6857C10.8719 19.4545 10.2193 18.7665 10.0254 18.676Z" fill="#EC6D48"/>
<path d="M8.00329 18.6928C7.91992 18.693 7.90754 18.6924 7.83346 18.7302C7.64349 18.9867 8.1148 19.5654 8.30942 19.7116C8.43615 19.7032 8.43667 19.7068 8.51797 19.641C8.64522 19.3649 8.19507 18.8783 8.00329 18.6928Z" fill="#EC6D48"/>
<path d="M25.4824 17.9031C24.8894 17.8451 24.0549 18.0468 23.583 18.4095C23.1506 18.7418 23.0048 19.2802 23.3873 19.7149C23.8217 20.2083 24.5382 20.3452 25.1597 20.3891C25.8214 20.4349 26.6258 20.2843 27.1543 19.8573C27.5429 19.5433 27.6532 18.9999 27.2942 18.6125C26.8172 18.0977 26.1483 17.9519 25.4824 17.9031Z" fill="#F69973"/>
<path d="M25.1499 18.518C25.0663 18.5122 25.0532 18.514 24.9716 18.5338C24.9282 18.5754 24.9063 18.5828 24.9086 18.6577C24.9162 18.9015 25.4455 19.6191 25.5949 19.7394C25.6858 19.7309 25.7168 19.7348 25.7966 19.6867C25.9659 19.4098 25.352 18.693 25.1499 18.518Z" fill="#EC6D48"/>
<path d="M26.2237 18.5928C26.1123 18.6315 26.109 18.6267 26.0486 18.7061C25.9943 18.9684 26.4651 19.519 26.6749 19.6528C26.7255 19.6332 26.7965 19.6079 26.8279 19.5652C27.0227 19.3002 26.3869 18.7156 26.2237 18.5928Z" fill="#EC6D48"/>
<path d="M24.1443 18.6211C24.0092 18.6213 23.9636 18.602 23.8959 18.7304C23.8991 18.9917 24.2858 19.471 24.4668 19.6545C24.6002 19.6519 24.6579 19.612 24.7078 19.4964C24.705 19.2209 24.3344 18.8135 24.1443 18.6211Z" fill="#EC6D48"/>
<path d="M25.0002 4.16785C24.367 4.0559 23.7644 4.48617 23.6564 5.12742C23.5484 5.76868 23.976 6.37666 24.6101 6.48333C25.2406 6.58938 25.8372 6.15966 25.9446 5.52214C26.0519 4.88459 25.6298 4.27914 25.0002 4.16785Z" fill="#83471E"/>
<path d="M6.2735 7.55367C6.07114 7.54558 5.93976 7.53474 5.75314 7.60583C5.06889 7.86671 4.78884 8.83104 5.44702 9.29221C5.54588 9.3615 5.61815 9.39543 5.72733 9.44273C6.71461 9.57388 7.52741 8.29633 6.2735 7.55367Z" fill="#83471E"/>
<path d="M33.2545 16.6118C33.2962 17.0654 33.2973 17.4365 33.2498 17.8865C33.223 18.1409 33.1098 19.0717 33.2358 19.2457C33.8542 19.0511 33.7097 16.8855 33.6187 16.373C33.6013 16.4758 33.6133 16.5025 33.523 16.5654C33.4521 16.6147 33.3348 16.6442 33.2545 16.6118Z" fill="#F6E8C8"/>
<path d="M33.6191 16.373C33.5223 15.7875 33.4568 15.4198 33.0922 14.9233C33.0688 15.6435 33.1286 15.9085 33.2549 16.6118C33.3352 16.6442 33.4524 16.6147 33.5233 16.5654C33.6137 16.5025 33.6016 16.4759 33.6191 16.373Z" fill="#FBFAF9"/>
</g>
<defs>
<clipPath id="clip0_1_14790">
<rect width="35" height="35" fill="white" transform="matrix(-1 0 0 1 35 0)"/>
</clipPath>
</defs>
</svg>
