<svg width="18" height="18" viewBox="0 0 18 18" fill="none" xmlns="http://www.w3.org/2000/svg">
<path d="M7.91704 0.0881398C8.90328 -0.130154 10.3688 0.0864544 11.3246 0.416256C11.6418 0.525687 11.9343 0.683974 12.2433 0.800205C12.6945 0.969956 13.3399 1.14453 13.7413 1.40807C14.4763 1.73582 15.0452 2.45053 15.4607 3.12353C15.6656 3.45545 15.9457 3.74051 16.1781 4.05191C16.5677 4.6168 17.1047 5.49588 17.2422 6.17635C17.3111 6.47725 17.4713 6.61944 17.5621 6.89132C17.7065 7.32291 17.7677 7.80745 17.8543 8.25683C17.9701 8.93844 18.0387 9.5671 17.9766 10.2633C17.9455 10.6141 17.8088 10.9618 17.7161 11.299C17.3058 13.2386 16.198 14.9663 14.6293 16.1329C14.4838 16.2411 14.3309 16.3638 14.1758 16.4598C13.2012 16.9451 12.2589 17.5788 11.1361 17.5927C10.6884 17.5984 10.384 17.7569 9.96647 17.8571C9.11751 18.0605 8.23247 18.0466 7.39006 17.8165C6.8151 17.6609 6.45932 17.443 5.90381 17.3029L5.60794 17.2566C5.27843 17.2045 4.8624 17.0104 4.55992 16.8569C3.98329 16.5644 3.73427 16.3369 3.40926 15.7719C3.18251 15.7615 2.96488 15.7233 2.77122 15.5815C2.25308 15.2022 1.73405 14.6026 1.44891 14.0186C1.36752 13.8519 1.30329 13.546 1.22126 13.4092C1.00174 13.043 0.874395 12.8975 0.72284 12.4883C0.5594 12.047 0.529062 11.6775 0.408882 11.2611C0.308786 10.9143 0.195346 10.7398 0.110016 10.3309C-0.0523494 9.5528 -0.021397 9.01227 0.114336 8.22895C0.132443 8.12443 0.266755 7.87747 0.269539 7.82473C0.280253 7.6232 0.246767 7.41893 0.289489 7.2047C0.327546 7.01376 0.388106 6.82688 0.437204 6.64079C0.672763 5.74811 1.06934 4.9389 1.56433 4.16944C2.0026 3.48814 2.54194 2.89642 3.17066 2.39593C3.43005 2.18941 3.65943 1.96071 3.95511 1.78401C4.2308 1.61921 4.51759 1.49011 4.79808 1.33593C4.88932 1.29086 5.00633 1.16289 5.09103 1.12638C5.51948 0.941619 5.95877 0.646582 6.38782 0.488139C6.87013 0.310039 7.41627 0.196219 7.91704 0.0881398Z" fill="#F9C356"/>
<path d="M5.32898 1.42801C5.56164 1.26328 6.38633 0.853208 6.67101 0.778974L6.8191 0.770782C6.62339 0.841764 6.28397 0.948686 6.13276 1.08265L6.13028 1.14532C6.10246 1.15687 6.08666 1.1633 6.05951 1.17686L6.09933 1.19882C5.97817 1.26949 5.46682 1.51393 5.40853 1.57809C5.41456 1.50433 5.38249 1.49425 5.33094 1.46376L5.32898 1.42801Z" fill="#F4BD70"/>
<path d="M5.60794 17.2566C5.55371 17.197 5.55197 17.2135 5.54077 17.1467C5.61982 17.0856 5.95878 17.1316 6.00901 17.2537C5.98532 17.2982 5.95602 17.304 5.90381 17.3029L5.60794 17.2566Z" fill="#631003"/>
<path d="M1.22604 6.22005C1.47483 6.17562 1.83902 6.26649 2.02097 6.44684C1.76874 6.37982 1.50718 6.26147 1.24847 6.28305C1.13328 6.29265 1.05183 6.3749 0.96575 6.3643C0.949813 6.31462 0.958377 6.32401 0.982628 6.26069C1.06978 6.29263 1.13564 6.25342 1.22604 6.22005Z" fill="#F4BD70"/>
<path d="M5.4323 1.72626L5.45111 1.71285C5.47166 1.69808 5.47711 1.69365 5.49476 1.67436C5.56358 1.66525 5.55807 1.65485 5.61179 1.67905C5.60751 1.77088 5.54917 1.8263 5.49092 1.90318C5.29921 2.08158 5.13556 2.17358 4.90261 2.27898C4.8021 2.33569 4.62314 2.39831 4.53451 2.46707C3.90911 2.95238 3.2531 3.42281 2.76731 4.06219C2.63442 4.23711 2.52858 4.33243 2.33319 4.42738C2.49045 4.08169 3.12896 3.31622 3.41873 3.04721C3.80306 2.69042 4.44597 2.38273 4.88975 2.08898C5.06427 1.97346 5.25327 1.83204 5.4323 1.72626Z" fill="#F7F6F2"/>
<path d="M8.12711 0.47689C8.27907 0.443966 8.75651 0.387311 8.8869 0.432619C8.90778 0.452805 8.90192 0.440595 8.90534 0.468776C8.81304 0.595374 8.36454 0.581578 8.21688 0.606074C7.95605 0.649325 7.70037 0.712605 7.44319 0.773925C7.31848 0.802047 6.87547 0.92741 6.79315 0.916808C7.02151 0.780333 8.20872 0.634628 8.26922 0.502621C8.21317 0.466405 8.20042 0.478203 8.12711 0.47689Z" fill="#F4BD70"/>
<path d="M5.19356 1.61237L5.20658 1.6391C5.05653 1.8083 4.80359 2.05611 4.54816 1.99729L4.56012 1.9639C4.70954 1.83842 5.01304 1.69236 5.19356 1.61237Z" fill="#FCE2B6"/>
<path d="M5.33099 1.46375C5.38254 1.49424 5.41461 1.50431 5.40858 1.57808C5.51445 1.64061 5.6755 1.60334 5.71622 1.71259C5.67809 1.78926 5.56513 1.85261 5.49093 1.90319C5.54919 1.82631 5.60752 1.77089 5.61181 1.67906C5.55808 1.65486 5.56359 1.66526 5.49477 1.67438C5.47713 1.69366 5.47167 1.69809 5.45113 1.71287L5.43231 1.72627C5.4004 1.70924 5.25716 1.66015 5.20662 1.63908L5.1936 1.61235C5.21152 1.55852 5.28516 1.50466 5.33099 1.46375Z" fill="#FCE2B6"/>
<path d="M9.78942 1.30574C10.2491 1.29157 10.4249 1.3786 10.7844 1.67905C11.2519 2.06972 11.4334 2.73744 11.0039 3.23364C10.7753 3.49763 10.4468 3.54418 10.1143 3.56279C9.51584 3.55341 8.79703 3.22147 8.64818 2.56332C8.51264 1.96399 9.2693 1.39799 9.78942 1.30574Z" fill="#A3541D"/>
<path d="M7.34472 6.75145C7.80439 6.73728 7.98018 6.82431 8.33972 7.12476C8.80721 7.51543 8.98874 8.18315 8.55919 8.67935C8.33064 8.94334 8.00215 8.98989 7.66956 9.0085C7.07114 8.99912 6.35232 8.66718 6.20348 8.00903C6.06794 7.4097 6.8246 6.8437 7.34472 6.75145Z" fill="#5D3300"/>
<path d="M2.15722 7.00145C2.61689 6.98728 2.79268 7.07431 3.15222 7.37476C3.61971 7.76543 3.80124 8.43315 3.37169 8.92935C3.14314 9.19334 2.81465 9.23989 2.48206 9.2585C1.88364 9.24912 1.16482 8.91718 1.01598 8.25903C0.880436 7.6597 1.6371 7.0937 2.15722 7.00145Z" fill="#A3541D"/>
<path d="M16.0557 9.00667C16.7357 8.94425 17.1124 9.32387 17.2464 9.99052C17.2965 10.2399 17.145 10.5834 17.0024 10.7807C16.8006 11.06 16.5644 11.1677 16.2345 11.2162C15.9656 11.1862 15.7237 11.1654 15.4891 11.0046C15.2581 10.8421 15.0513 10.494 15.0112 10.2095C14.9134 9.51566 15.4729 9.10934 16.0557 9.00667Z" fill="#5D3300"/>
<path d="M4.89667 13.1908C4.64106 13.5035 4.17812 13.6064 3.79085 13.5239C3.43561 13.4351 3.17123 13.1001 3.06754 12.7551C3.05673 12.7191 3.10743 12.597 3.11607 12.5565C3.13949 12.4465 3.15633 12.3358 3.18058 12.2261C3.29911 11.6895 3.90147 11.447 4.38701 11.5842C4.69417 11.6711 4.84394 11.8236 4.99469 12.0988C5.28678 12.3864 5.21533 12.9504 4.89667 13.1908Z" fill="#3D2000"/>
<path d="M4.99469 12.0988C5.28678 12.3864 5.21533 12.9504 4.89667 13.1908C4.92468 13.1384 4.95218 13.0856 4.9791 13.0325C5.15385 12.6875 5.10464 12.4527 4.99469 12.0988Z" fill="#F4BD70"/>
<path d="M5.3345 3.22651C5.56036 3.19741 5.8593 3.21671 6.05287 3.35034C6.24273 3.48216 6.37278 3.68626 6.41381 3.91686C6.53079 4.61194 6.09511 5.01438 5.46483 5.12525C4.9993 5.19013 4.49322 5.14198 4.38849 4.5726C4.26503 3.90144 4.68091 3.33935 5.3345 3.22651Z" fill="#5D3300"/>
<path d="M7.00894 14.6738C7.15399 14.2735 7.47497 14.0704 7.88062 14.0137C8.14709 13.9765 8.2862 14.0106 8.49058 14.1703C8.74841 14.3859 8.71907 14.5886 8.71702 14.9146C8.72762 15.3515 8.28371 15.755 7.86487 15.5859C7.73906 15.5352 7.62201 15.3852 7.50953 15.3104C7.31896 15.1838 7.16745 15.1453 7.00884 14.9681C7.00301 14.8746 6.99222 14.7649 7.00894 14.6738Z" fill="#984819"/>
<path d="M11.0089 12.6738C11.154 12.2735 11.475 12.0704 11.8806 12.0137C12.1471 11.9765 12.2862 12.0106 12.4906 12.1703C12.7484 12.3859 12.7191 12.5886 12.717 12.9146C12.7276 13.3515 12.2837 13.755 11.8649 13.5859C11.7391 13.5352 11.622 13.3852 11.5095 13.3104C11.319 13.1838 11.1674 13.1453 11.0088 12.9681C11.003 12.8746 10.9922 12.7649 11.0089 12.6738Z" fill="#5D3300"/>
<path d="M12.7454 3.40213C12.8215 3.39284 12.9263 3.39762 13.0054 3.39905C13.3363 3.62616 13.6258 4.03643 13.6371 4.44852C13.6481 4.84868 13.2976 5.13047 12.9285 5.1212C12.49 5.0035 11.7185 4.47994 12.0574 3.94074C12.1999 3.71415 12.4828 3.46227 12.7454 3.40213Z" fill="#3D2000"/>
<path d="M11.4592 8.44308C11.5353 8.43379 11.64 8.43858 11.7192 8.44001C12.0501 8.66712 12.3396 9.07739 12.3508 9.48948C12.3618 9.88963 12.0113 10.1714 11.6422 10.1622C11.2038 10.0445 10.4322 9.52089 10.7712 8.98169C10.9136 8.75511 11.1966 8.50323 11.4592 8.44308Z" fill="#5D3300"/>
<path d="M1.31317 5.46219C1.46951 5.1009 2.28621 3.64235 2.59658 3.53894L2.62588 3.56085C2.64456 3.78626 2.2138 4.16435 2.15741 4.35969C2.09199 4.58633 2.04184 4.81709 1.97342 5.04575C1.93441 5.12514 1.92052 5.17176 1.84631 5.20592L1.80923 5.18501C1.76507 5.11695 1.76171 5.0367 1.75029 4.9548L1.72387 4.96768L1.72072 4.98375C1.57765 5.12093 1.47112 5.44659 1.35219 5.48545L1.31317 5.46219Z" fill="#FCE2B6"/>
<path d="M15.7454 5.80014C16.0066 5.79893 16.2287 6.24057 16.3409 6.45498C16.4951 6.74935 16.6062 7.2084 16.5098 7.53987C16.4974 7.58263 16.438 7.7008 16.3992 7.72085L16.4111 7.65794C16.617 7.42015 16.5012 6.98131 16.4221 6.70736C16.3981 6.62403 16.2406 6.27169 16.169 6.23636C16.1308 6.26062 16.1274 6.26479 16.083 6.2791C15.9826 6.21995 15.8052 6.02065 15.7324 5.91479C15.7109 5.88361 15.7337 5.83891 15.7454 5.80014Z" fill="#FCE2B6"/>
<path d="M9.49821 16.0456C9.5692 16.0618 9.59568 16.0604 9.64297 16.1156C9.66935 16.182 9.66302 16.1948 9.65459 16.2691C9.52567 16.2437 9.48592 16.1762 9.49821 16.0456Z" fill="#F4BD70"/>
</svg>
