<svg width="141" height="49" viewBox="0 0 141 49" fill="none" xmlns="http://www.w3.org/2000/svg">
<rect y="26" width="137" height="10" rx="5" fill="#EDEBE7"/>
<rect x="32" y="26" width="66" height="10" rx="3" fill="#9A8FF2"/>
<rect x="32" y="26" width="5" height="10" rx="2.5" fill="#54368C"/>
<rect x="93" y="26" width="5" height="10" rx="2.5" fill="#54368C"/>
<path d="M0.672 47V46.144H1.96V42.224H0.888V41.568C1.176 41.5147 1.424 41.4507 1.632 41.376C1.84533 41.296 2.04 41.2 2.216 41.088H3V46.144H4.136V47H0.672Z" fill="white"/>
<path d="M122.672 47V46.144H123.96V42.224H122.888V41.568C123.176 41.5147 123.424 41.4507 123.632 41.376C123.845 41.296 124.04 41.2 124.216 41.088H125V46.144H126.136V47H122.672ZM128.881 47.112C128.491 47.112 128.15 46.9973 127.857 46.768C127.563 46.5387 127.334 46.1947 127.169 45.736C127.009 45.2773 126.929 44.7067 126.929 44.024C126.929 43.3413 127.009 42.776 127.169 42.328C127.334 41.88 127.563 41.544 127.857 41.32C128.15 41.096 128.491 40.984 128.881 40.984C129.281 40.984 129.625 41.096 129.913 41.32C130.206 41.544 130.433 41.88 130.593 42.328C130.753 42.776 130.833 43.3413 130.833 44.024C130.833 44.7067 130.753 45.2773 130.593 45.736C130.433 46.1947 130.206 46.5387 129.913 46.768C129.625 46.9973 129.281 47.112 128.881 47.112ZM128.881 46.28C129.067 46.28 129.233 46.208 129.377 46.064C129.521 45.92 129.633 45.6853 129.713 45.36C129.798 45.0293 129.841 44.584 129.841 44.024C129.841 43.464 129.798 43.0213 129.713 42.696C129.633 42.3707 129.521 42.1413 129.377 42.008C129.233 41.8693 129.067 41.8 128.881 41.8C128.699 41.8 128.537 41.8693 128.393 42.008C128.249 42.1413 128.134 42.3707 128.049 42.696C127.963 43.0213 127.921 43.464 127.921 44.024C127.921 44.584 127.963 45.0293 128.049 45.36C128.134 45.6853 128.249 45.92 128.393 46.064C128.537 46.208 128.699 46.28 128.881 46.28ZM133.441 47.112C133.052 47.112 132.711 46.9973 132.417 46.768C132.124 46.5387 131.895 46.1947 131.729 45.736C131.569 45.2773 131.489 44.7067 131.489 44.024C131.489 43.3413 131.569 42.776 131.729 42.328C131.895 41.88 132.124 41.544 132.417 41.32C132.711 41.096 133.052 40.984 133.441 40.984C133.841 40.984 134.185 41.096 134.473 41.32C134.767 41.544 134.993 41.88 135.153 42.328C135.313 42.776 135.393 43.3413 135.393 44.024C135.393 44.7067 135.313 45.2773 135.153 45.736C134.993 46.1947 134.767 46.5387 134.473 46.768C134.185 46.9973 133.841 47.112 133.441 47.112ZM133.441 46.28C133.628 46.28 133.793 46.208 133.937 46.064C134.081 45.92 134.193 45.6853 134.273 45.36C134.359 45.0293 134.401 44.584 134.401 44.024C134.401 43.464 134.359 43.0213 134.273 42.696C134.193 42.3707 134.081 42.1413 133.937 42.008C133.793 41.8693 133.628 41.8 133.441 41.8C133.26 41.8 133.097 41.8693 132.953 42.008C132.809 42.1413 132.695 42.3707 132.609 42.696C132.524 43.0213 132.481 43.464 132.481 44.024C132.481 44.584 132.524 45.0293 132.609 45.36C132.695 45.6853 132.809 45.92 132.953 46.064C133.097 46.208 133.26 46.28 133.441 46.28ZM137.602 46.104V44.392H135.986V43.64H137.602V41.92H138.394V43.64H140.018V44.392H138.394V46.104H137.602Z" fill="white"/>
<path d="M32.672 47V46.144H33.96V42.224H32.888V41.568C33.176 41.5147 33.424 41.4507 33.632 41.376C33.8453 41.296 34.04 41.2 34.216 41.088H35V46.144H36.136V47H32.672ZM38.8806 47.112C38.4913 47.112 38.15 46.9973 37.8566 46.768C37.5633 46.5387 37.334 46.1947 37.1686 45.736C37.0086 45.2773 36.9286 44.7067 36.9286 44.024C36.9286 43.3413 37.0086 42.776 37.1686 42.328C37.334 41.88 37.5633 41.544 37.8566 41.32C38.15 41.096 38.4913 40.984 38.8806 40.984C39.2806 40.984 39.6246 41.096 39.9126 41.32C40.206 41.544 40.4326 41.88 40.5926 42.328C40.7526 42.776 40.8326 43.3413 40.8326 44.024C40.8326 44.7067 40.7526 45.2773 40.5926 45.736C40.4326 46.1947 40.206 46.5387 39.9126 46.768C39.6246 46.9973 39.2806 47.112 38.8806 47.112ZM38.8806 46.28C39.0673 46.28 39.2326 46.208 39.3766 46.064C39.5206 45.92 39.6326 45.6853 39.7126 45.36C39.798 45.0293 39.8406 44.584 39.8406 44.024C39.8406 43.464 39.798 43.0213 39.7126 42.696C39.6326 42.3707 39.5206 42.1413 39.3766 42.008C39.2326 41.8693 39.0673 41.8 38.8806 41.8C38.6993 41.8 38.5366 41.8693 38.3926 42.008C38.2486 42.1413 38.134 42.3707 38.0486 42.696C37.9633 43.0213 37.9206 43.464 37.9206 44.024C37.9206 44.584 37.9633 45.0293 38.0486 45.36C38.134 45.6853 38.2486 45.92 38.3926 46.064C38.5366 46.208 38.6993 46.28 38.8806 46.28Z" fill="#54368C"/>
<path d="M92.16 47.112C91.8507 47.112 91.576 47.0747 91.336 47C91.096 46.9253 90.8827 46.8267 90.696 46.704C90.5093 46.5813 90.3493 46.4427 90.216 46.288L90.72 45.624C90.896 45.7947 91.0933 45.9413 91.312 46.064C91.5307 46.1867 91.784 46.248 92.072 46.248C92.2853 46.248 92.472 46.2133 92.632 46.144C92.792 46.0747 92.9147 45.9733 93 45.84C93.0907 45.7013 93.136 45.5387 93.136 45.352C93.136 45.144 93.0853 44.9653 92.984 44.816C92.888 44.6613 92.7173 44.544 92.472 44.464C92.2267 44.3787 91.8853 44.336 91.448 44.336V43.576C91.8267 43.576 92.1227 43.536 92.336 43.456C92.5547 43.3707 92.7093 43.256 92.8 43.112C92.896 42.9627 92.944 42.7947 92.944 42.608C92.944 42.3627 92.8693 42.1707 92.72 42.032C92.5707 41.888 92.3627 41.816 92.096 41.816C91.8773 41.816 91.6747 41.8667 91.488 41.968C91.3013 42.064 91.12 42.192 90.944 42.352L90.408 41.704C90.6533 41.4853 90.9173 41.312 91.2 41.184C91.4827 41.0507 91.7947 40.984 92.136 40.984C92.504 40.984 92.8267 41.0453 93.104 41.168C93.3867 41.2853 93.6053 41.4587 93.76 41.688C93.92 41.9173 94 42.2 94 42.536C94 42.8613 93.9093 43.1413 93.728 43.376C93.552 43.6053 93.3093 43.7787 93 43.896V43.936C93.224 43.9947 93.4267 44.0907 93.608 44.224C93.7893 44.352 93.9307 44.5173 94.032 44.72C94.1387 44.9173 94.192 45.1467 94.192 45.408C94.192 45.7653 94.0987 46.072 93.912 46.328C93.7307 46.5787 93.4853 46.7733 93.176 46.912C92.872 47.0453 92.5333 47.112 92.16 47.112ZM96.8806 47.112C96.4913 47.112 96.15 46.9973 95.8566 46.768C95.5633 46.5387 95.334 46.1947 95.1686 45.736C95.0086 45.2773 94.9286 44.7067 94.9286 44.024C94.9286 43.3413 95.0086 42.776 95.1686 42.328C95.334 41.88 95.5633 41.544 95.8566 41.32C96.15 41.096 96.4913 40.984 96.8806 40.984C97.2806 40.984 97.6246 41.096 97.9126 41.32C98.206 41.544 98.4326 41.88 98.5926 42.328C98.7526 42.776 98.8326 43.3413 98.8326 44.024C98.8326 44.7067 98.7526 45.2773 98.5926 45.736C98.4326 46.1947 98.206 46.5387 97.9126 46.768C97.6246 46.9973 97.2806 47.112 96.8806 47.112ZM96.8806 46.28C97.0673 46.28 97.2326 46.208 97.3766 46.064C97.5206 45.92 97.6326 45.6853 97.7126 45.36C97.798 45.0293 97.8406 44.584 97.8406 44.024C97.8406 43.464 97.798 43.0213 97.7126 42.696C97.6326 42.3707 97.5206 42.1413 97.3766 42.008C97.2326 41.8693 97.0673 41.8 96.8806 41.8C96.6993 41.8 96.5366 41.8693 96.3926 42.008C96.2486 42.1413 96.134 42.3707 96.0486 42.696C95.9633 43.0213 95.9206 43.464 95.9206 44.024C95.9206 44.584 95.9633 45.0293 96.0486 45.36C96.134 45.6853 96.2486 45.92 96.3926 46.064C96.5366 46.208 96.6993 46.28 96.8806 46.28Z" fill="#54368C"/>
<path d="M65 2C60.8 2 57 5.22 57 10.2C57 13.38 59.45 17.12 64.34 21.43C64.72 21.76 65.29 21.76 65.67 21.43C70.55 17.12 73 13.38 73 10.2C73 5.22 69.2 2 65 2ZM65 12C63.9 12 63 11.1 63 10C63 8.9 63.9 8 65 8C66.1 8 67 8.9 67 10C67 11.1 66.1 12 65 12Z" fill="#9A8FF2"/>
</svg>
